<svg width="1440" height="610" viewBox="0 0 1440 610" fill="none" xmlns="http://www.w3.org/2000/svg">
<rect width="1440" height="610" fill="#ECF8F6"/>
<line x1="42" y1="578.5" x2="1396" y2="578.5" stroke="#D6955B"/>
<path d="M1028.77 164.41C976.95 164.41 976.87 238.1 1028.77 238.1C1080.67 238.1 1080.67 164.41 1028.77 164.41Z" fill="#EBEBEB"/>
<path d="M1060.28 208.16C1057.52 220.84 1047.01 231.83 1028.76 231.83C985.701 231.83 985.761 170.68 1028.76 170.68H1029.61C989.141 171.42 989.341 229.34 1030.4 229.34C1047.15 229.35 1057.14 219.66 1060.28 208.16Z" fill="#DBDBDB"/>
<path d="M1029.08 178.74C1029.25 178.735 1029.42 178.763 1029.58 178.823C1029.74 178.884 1029.89 178.975 1030.01 179.092C1030.13 179.209 1030.24 179.35 1030.31 179.505C1030.38 179.661 1030.41 179.829 1030.42 180V182C1034.02 182.236 1037.49 183.48 1040.42 185.59C1040.93 185.95 1041.21 186.26 1041.21 186.77C1041.18 187.132 1041.01 187.468 1040.74 187.707C1040.47 187.946 1040.11 188.069 1039.75 188.05C1039.38 188.063 1039.03 187.938 1038.75 187.7C1036.3 185.839 1033.4 184.684 1030.34 184.36V198.74C1038.86 200.39 1042.45 203.31 1042.45 208.34C1042.45 213.77 1037.45 217.62 1030.45 217.83V221.83C1030.42 222.167 1030.27 222.48 1030.02 222.709C1029.77 222.937 1029.44 223.064 1029.1 223.064C1028.77 223.064 1028.44 222.937 1028.19 222.709C1027.94 222.48 1027.79 222.167 1027.76 221.83V217.77C1023.14 217.464 1018.73 215.716 1015.15 212.77C1014.97 212.654 1014.81 212.495 1014.71 212.307C1014.6 212.119 1014.54 211.907 1014.53 211.69C1014.56 211.341 1014.72 211.016 1014.98 210.779C1015.24 210.543 1015.58 210.411 1015.93 210.41C1016.3 210.397 1016.65 210.526 1016.93 210.77C1019.98 213.466 1023.81 215.104 1027.87 215.44V200.85C1019.44 199.15 1016 196.33 1016 191.2C1016 186.07 1020.93 182.07 1027.77 181.92V180C1027.78 179.661 1027.93 179.341 1028.17 179.106C1028.41 178.871 1028.74 178.74 1029.08 178.74V178.74ZM1027.85 198.23V184.23C1022.41 184.33 1018.85 187.31 1018.85 191C1018.82 194.49 1020.61 196.64 1027.85 198.23ZM1030.31 201.36V215.52C1035.92 215.41 1039.56 212.44 1039.56 208.52C1039.56 205 1037.6 202.85 1030.31 201.36V201.36Z" fill="#DBDBDB"/>
<path d="M1344.72 263.94C1302.89 263.94 1302.82 323.43 1344.72 323.43C1386.62 323.43 1386.62 263.94 1344.72 263.94Z" fill="#EBEBEB"/>
<path d="M1370.16 299.26C1367.93 309.5 1359.44 318.37 1344.72 318.37C1309.95 318.37 1310 269 1344.72 269H1345.4C1312.73 269.6 1312.89 316.36 1346.04 316.36C1359.56 316.37 1367.62 308.54 1370.16 299.26Z" fill="#DBDBDB"/>
<path d="M1345 275.51C1345.28 275.502 1345.55 275.602 1345.75 275.788C1345.95 275.975 1346.07 276.234 1346.09 276.51V278.17C1348.99 278.362 1351.78 279.367 1354.14 281.07C1354.55 281.36 1354.78 281.61 1354.78 282.02C1354.75 282.305 1354.61 282.568 1354.39 282.754C1354.17 282.939 1353.89 283.035 1353.6 283.02C1353.3 283.028 1353.01 282.924 1352.79 282.73C1350.82 281.224 1348.47 280.29 1346 280.03V291.63C1352.88 292.95 1355.77 295.31 1355.77 299.37C1355.77 303.76 1351.77 306.87 1346.09 307.03V310.26C1346.06 310.53 1345.94 310.78 1345.74 310.962C1345.54 311.145 1345.28 311.246 1345.01 311.246C1344.73 311.246 1344.47 311.145 1344.27 310.962C1344.07 310.78 1343.95 310.53 1343.92 310.26V307C1340.19 306.766 1336.62 305.367 1333.73 303C1333.58 302.906 1333.46 302.778 1333.37 302.627C1333.29 302.475 1333.24 302.305 1333.23 302.13C1333.26 301.853 1333.4 301.597 1333.61 301.413C1333.82 301.229 1334.09 301.128 1334.37 301.13C1334.67 301.126 1334.95 301.229 1335.18 301.42C1337.64 303.593 1340.74 304.915 1344.01 305.19V293.39C1337.22 292.02 1334.41 289.74 1334.41 285.6C1334.41 281.46 1338.41 278.23 1343.92 278.11V276.5C1343.92 276.362 1343.95 276.227 1344.01 276.101C1344.06 275.975 1344.14 275.863 1344.24 275.77C1344.35 275.677 1344.47 275.606 1344.6 275.561C1344.73 275.516 1344.86 275.499 1345 275.51ZM1344 291.25V279.94C1339.61 280.02 1336.71 282.42 1336.71 285.41C1336.69 288.22 1338.14 290 1344 291.25ZM1346 293.77V305.2C1350.52 305.12 1353.47 302.72 1353.47 299.57C1353.44 296.71 1351.85 295 1346 293.77Z" fill="#DBDBDB"/>
<path d="M1233.36 321.29C1186.7 329.66 1199.03 398.78 1245.76 390.39C1292.49 382 1280.09 312.91 1233.36 321.29Z" fill="#DBDBDB"/>
<path d="M1237.74 320.5C1193.28 328.5 1205.6 397.6 1250.14 389.61C1294.68 381.62 1282.28 312.51 1237.74 320.5Z" fill="#EBEBEB"/>
<path d="M1272.14 356.68C1271.9 369 1264.74 380.93 1249.08 383.74C1212.08 390.37 1201.89 333 1238.79 326.38C1239.03 326.38 1239.27 326.29 1239.52 326.26C1204.91 333.19 1214.83 387.48 1250.07 381.15C1264.44 378.58 1271.38 368 1272.14 356.68Z" fill="#DBDBDB"/>
<path d="M1246.62 333.86C1246.92 333.907 1247.2 334.07 1247.38 334.314C1247.57 334.558 1247.66 334.865 1247.62 335.17L1247.4 337.11C1250.53 337.724 1253.4 339.26 1255.64 341.52C1255.82 341.659 1255.97 341.841 1256.07 342.051C1256.16 342.26 1256.21 342.49 1256.19 342.72C1256.14 343.047 1255.97 343.342 1255.7 343.541C1255.44 343.74 1255.11 343.826 1254.78 343.78C1254.62 343.769 1254.46 343.724 1254.32 343.648C1254.18 343.572 1254.05 343.467 1253.95 343.34C1252.09 341.361 1249.68 339.971 1247.04 339.34L1245.44 352.93C1252.63 355.35 1255.44 358.48 1254.86 363.24C1254.25 368.39 1249.5 371.52 1243.41 371L1242.97 374.78C1242.95 374.933 1242.91 375.081 1242.83 375.216C1242.76 375.35 1242.65 375.469 1242.53 375.564C1242.41 375.66 1242.27 375.731 1242.13 375.773C1241.98 375.815 1241.82 375.828 1241.67 375.81C1241.52 375.792 1241.37 375.745 1241.23 375.67C1241.1 375.595 1240.98 375.494 1240.89 375.373C1240.79 375.253 1240.72 375.114 1240.68 374.966C1240.64 374.818 1240.62 374.663 1240.64 374.51L1241.09 370.68C1237.06 369.896 1233.41 367.783 1230.72 364.68C1230.57 364.547 1230.45 364.379 1230.38 364.191C1230.31 364.003 1230.29 363.8 1230.31 363.6C1230.36 363.285 1230.53 362.999 1230.78 362.801C1231.03 362.603 1231.34 362.506 1231.66 362.53C1231.99 362.561 1232.29 362.719 1232.5 362.97C1234.76 365.785 1237.91 367.737 1241.44 368.5L1243.07 354.67C1235.98 352.21 1233.28 349.19 1233.85 344.33C1234.42 339.47 1239.14 336.2 1245.08 336.75L1245.3 334.9C1245.34 334.587 1245.5 334.302 1245.75 334.107C1245.99 333.912 1246.31 333.823 1246.62 333.86V333.86ZM1243.38 352.18L1244.94 338.93C1240.22 338.48 1236.78 340.93 1236.37 344.42C1236 347.72 1237.3 349.94 1243.38 352.18ZM1245.17 355.4L1243.59 368.79C1248.46 369.27 1251.94 366.79 1252.38 363.13C1252.77 359.78 1251.31 357.55 1245.17 355.4Z" fill="#DBDBDB"/>
<path d="M1344.72 239.88C1310.13 250.57 1275.54 203.94 1241 214.63C1246.41 204.11 1252.49 193.946 1259.2 184.2C1287.36 188.98 1315.51 218.41 1343.67 210.66C1344.01 220.413 1344.36 230.153 1344.72 239.88Z" fill="#EBEBEB"/>
<path d="M1310.21 221.34C1309.11 226.47 1301.89 227.66 1294.09 223.52C1286.29 219.38 1281.66 212.72 1283.77 208.23C1285.88 203.74 1293.09 203.02 1299.89 206.48C1306.69 209.94 1311.3 216.27 1310.21 221.34Z" fill="#DBDBDB"/>
<path d="M1275.28 203.66C1274.72 204.66 1272.66 204.85 1270.69 204.13C1268.72 203.41 1267.61 202 1268.24 201C1268.87 200 1270.92 199.62 1272.83 200.39C1274.74 201.16 1275.85 202.63 1275.28 203.66Z" fill="#DBDBDB"/>
<path d="M1326.13 225.72C1326.02 226.97 1324.32 227.72 1322.34 227.2C1320.36 226.68 1318.9 225.2 1319.08 223.99C1319.26 222.78 1320.95 222.27 1322.86 222.73C1324.77 223.19 1326.24 224.46 1326.13 225.72Z" fill="#DBDBDB"/>
<path d="M1261.7 184.7C1255.27 194.054 1249.39 203.774 1244.09 213.81C1243.09 214.03 1241.99 214.3 1240.94 214.63C1246.36 204.112 1252.44 193.948 1259.15 184.2C1260 184.35 1260.85 184.52 1261.7 184.7Z" fill="#DBDBDB"/>
<path d="M1344.72 239.88C1343.67 240.2 1342.63 240.47 1341.58 240.7C1341.4 230.887 1341.23 221.077 1341.06 211.27C1341.91 211.1 1342.77 210.9 1343.62 210.66C1343.99 220.413 1344.36 230.153 1344.72 239.88Z" fill="#DBDBDB"/>
<path d="M1344.65 238C1344.65 238.61 1344.7 239.23 1344.72 239.84C1310.13 250.53 1275.54 203.89 1240.94 214.59L1242.09 212.4C1276.28 203.11 1310.47 248.53 1344.65 238Z" fill="#DBDBDB"/>
<path d="M1343.62 210.66C1343.62 211.27 1343.67 211.89 1343.69 212.5C1315.13 220.42 1286.57 190 1258 185.87L1259.15 184.2C1287.31 189 1315.46 218.41 1343.62 210.66Z" fill="#DBDBDB"/>
<path d="M1252.06 211.17C1249.76 211.146 1247.46 211.337 1245.2 211.74C1246.01 210.233 1246.82 208.75 1247.65 207.29C1251.34 206.93 1253.32 209 1252.06 211.17Z" fill="#DBDBDB"/>
<path d="M1341.48 234.75C1341.48 236.12 1341.48 237.48 1341.55 238.85C1339.29 239.323 1336.98 239.581 1334.67 239.62C1334.73 237.34 1337.78 235.53 1341.48 234.75Z" fill="#DBDBDB"/>
<path d="M1335.35 213.78C1337.28 213.713 1339.2 213.493 1341.09 213.12C1341.09 214.48 1341.14 215.84 1341.17 217.21C1337.89 217.86 1335.29 216 1335.35 213.78Z" fill="#DBDBDB"/>
<path d="M1258.15 190C1258.96 188.75 1259.78 187.53 1260.6 186.32C1262.51 186.7 1264.42 187.19 1266.33 187.77C1265.07 189.64 1261.42 190.46 1258.15 190Z" fill="#DBDBDB"/>
<path d="M1299.32 208.65C1299.65 208.81 1299.87 209.12 1299.81 209.31C1299.75 209.5 1299.68 209.7 1299.61 209.9C1301.18 210.765 1302.61 211.876 1303.83 213.19C1304.03 213.41 1304.13 213.56 1304.09 213.71C1304.05 213.86 1303.67 213.94 1303.31 213.77C1303.14 213.692 1303 213.58 1302.88 213.44C1301.85 212.297 1300.66 211.322 1299.33 210.55C1298.88 211.93 1298.42 213.31 1297.96 214.68C1301.83 217.21 1303.29 218.88 1302.88 220.37C1302.47 221.86 1299.66 221.92 1296.19 220.19L1295.8 221.34C1295.74 221.53 1295.38 221.53 1295.02 221.34C1294.66 221.15 1294.4 220.83 1294.47 220.64C1294.6 220.25 1294.73 219.87 1294.87 219.48C1292.72 218.302 1290.81 216.743 1289.22 214.88C1289.06 214.7 1288.99 214.55 1289.04 214.43C1289.09 214.31 1289.51 214.24 1289.86 214.43C1290.03 214.513 1290.19 214.632 1290.31 214.78C1291.65 216.434 1293.29 217.819 1295.15 218.86L1296.59 214.69C1292.79 212.16 1291.46 210.51 1292.04 209.09C1292.62 207.67 1295.29 207.71 1298.4 209.25C1298.47 209.07 1298.53 208.88 1298.59 208.69C1298.65 208.5 1299 208.48 1299.32 208.65ZM1296.85 213.94L1298.23 209.94C1295.74 208.7 1293.78 208.68 1293.38 209.72C1292.98 210.76 1293.61 211.74 1296.85 213.94V213.94ZM1297.71 215.44L1296.35 219.5C1299.11 220.89 1301.15 220.9 1301.48 219.76C1301.81 218.62 1301 217.63 1297.71 215.44V215.44Z" fill="#EBEBEB"/>
<path d="M1289.69 252.92C1262.2 240.56 1234.69 275.26 1207.23 262.92C1209.37 256.4 1211.51 249.613 1213.64 242.56C1236.01 247.11 1258.38 225.34 1280.74 227.98C1283.72 235.81 1286.7 244.09 1289.69 252.92Z" fill="#EBEBEB"/>
<path d="M1258.33 243.1C1258.97 247.1 1254.46 252.1 1248.25 254.65C1242.04 257.2 1237.16 255.53 1237.33 251.25C1237.5 246.97 1242 242 1247.4 239.77C1252.8 237.54 1257.69 239.09 1258.33 243.1Z" fill="#DBDBDB"/>
<path d="M1230.41 252.81C1230.31 253.81 1228.96 254.92 1227.41 255.21C1225.86 255.5 1224.69 254.84 1224.84 253.86C1224.99 252.88 1226.34 251.92 1227.84 251.63C1229.34 251.34 1230.51 251.82 1230.41 252.81Z" fill="#DBDBDB"/>
<path d="M1270.8 239.25C1271.06 240.18 1270 241.11 1268.42 241.43C1266.84 241.75 1265.42 241.35 1265.2 240.43C1264.98 239.51 1266.05 238.43 1267.58 238.1C1269.11 237.77 1270.54 238.32 1270.8 239.25Z" fill="#DBDBDB"/>
<path d="M1215.67 242.88C1213.67 250.09 1211.67 257.11 1209.73 263.88C1208.9 263.59 1208.06 263.26 1207.23 262.88C1209.37 256.36 1211.51 249.573 1213.64 242.52C1214.32 242.68 1215 242.79 1215.67 242.88Z" fill="#DBDBDB"/>
<path d="M1289.69 252.92C1288.85 252.55 1288.02 252.22 1287.19 251.92C1284.36 243.44 1281.53 235.42 1278.71 227.78C1279.38 227.78 1280.06 227.87 1280.71 227.95C1283.72 235.81 1286.7 244.09 1289.69 252.92Z" fill="#DBDBDB"/>
<path d="M1289.12 251.26C1289.31 251.81 1289.5 252.37 1289.68 252.92C1262.2 240.56 1234.68 275.26 1207.23 262.92C1207.37 262.5 1207.5 262.09 1207.63 261.68C1234.8 273.42 1262 239.68 1289.12 251.26Z" fill="#DBDBDB"/>
<path d="M1280.74 228C1280.93 228.49 1281.11 229 1281.3 229.49C1258.62 226.39 1235.93 248.84 1213.24 243.9C1213.37 243.46 1213.51 243.02 1213.64 242.58C1236 247.09 1258.37 225.33 1280.74 228Z" fill="#DBDBDB"/>
<path d="M1215.56 263.89C1213.7 263.63 1211.88 263.202 1210.1 262.61C1210.38 261.61 1210.65 260.71 1210.93 259.75C1213.87 260.63 1215.94 262.19 1215.56 263.89Z" fill="#DBDBDB"/>
<path d="M1285.48 246.84L1286.65 250.33C1284.88 249.751 1283.05 249.336 1281.2 249.09C1280.62 247.31 1282.54 246 1285.48 246.84Z" fill="#DBDBDB"/>
<path d="M1274.67 229.22C1276.19 229.125 1277.72 229.125 1279.24 229.22C1279.63 230.29 1280.03 231.37 1280.42 232.45C1277.82 232.17 1275.25 230.91 1274.67 229.22Z" fill="#DBDBDB"/>
<path d="M1214.47 247.23C1214.75 246.23 1215.02 245.23 1215.3 244.23C1216.81 244.447 1218.33 244.561 1219.85 244.57C1219.48 246.3 1217.07 247.69 1214.47 247.23Z" fill="#DBDBDB"/>
<path d="M1247.62 241.55C1247.88 241.44 1248.1 241.49 1248.12 241.66V242.17C1249.29 241.721 1250.55 241.527 1251.8 241.6C1251.99 241.6 1252.1 241.65 1252.11 241.78C1252.12 241.91 1251.9 242.19 1251.61 242.3C1251.49 242.356 1251.37 242.377 1251.24 242.36C1250.18 242.279 1249.12 242.422 1248.12 242.78C1248.19 243.97 1248.27 245.17 1248.34 246.36C1251.57 245.47 1253 245.65 1253.13 246.89C1253.26 248.13 1251.43 249.89 1248.69 251.11L1248.75 252.11C1248.75 252.28 1248.53 252.52 1248.24 252.64C1247.95 252.76 1247.7 252.71 1247.69 252.55L1247.63 251.55C1246.06 252.181 1244.37 252.425 1242.69 252.26C1242.54 252.26 1242.45 252.19 1242.45 252.07C1242.45 251.95 1242.7 251.65 1242.98 251.54C1243.1 251.483 1243.24 251.458 1243.37 251.47C1244.82 251.669 1246.29 251.49 1247.65 250.95C1247.58 249.73 1247.51 248.51 1247.45 247.29C1244.27 248.15 1242.96 247.93 1242.95 246.63C1242.94 245.33 1244.69 243.63 1247.15 242.57V242.08C1247.14 241.88 1247.36 241.65 1247.62 241.55ZM1247.44 246.61L1247.25 243.1C1245.25 243.93 1244 245.19 1244.03 246.1C1244.06 247.01 1244.73 247.3 1247.44 246.61ZM1248.44 247.01C1248.52 248.19 1248.59 249.37 1248.67 250.55C1250.85 249.63 1252.2 248.33 1252.1 247.37C1252 246.41 1251.19 246.26 1248.41 247L1248.44 247.01Z" fill="#EBEBEB"/>
<path d="M1130.74 443.45C1104.36 468.25 1052.8 441.55 1026.42 466.35C1026.67 454.522 1027.67 442.721 1029.42 431.02C1056.81 422.94 1095.04 437.02 1116.93 417.68C1121.54 426.28 1126.14 434.87 1130.74 443.45Z" fill="#EBEBEB"/>
<path d="M1091.59 442C1092.86 447.08 1086.9 451.32 1078.07 451C1069.24 450.68 1062.16 446.76 1062.07 441.8C1061.98 436.84 1068.15 433.03 1075.77 433.15C1083.39 433.27 1090.35 436.92 1091.59 442Z" fill="#DBDBDB"/>
<path d="M1052.45 441.41C1052.45 442.58 1050.62 443.63 1048.53 443.85C1046.44 444.07 1044.85 443.33 1044.94 442.09C1045.03 440.85 1046.74 439.67 1048.8 439.52C1050.86 439.37 1052.51 440.24 1052.45 441.41Z" fill="#DBDBDB"/>
<path d="M1107.82 438.89C1108.27 440.06 1107.07 441.47 1105.07 441.89C1103.07 442.31 1101.07 441.6 1100.72 440.44C1100.37 439.28 1101.65 438.07 1103.57 437.64C1105.49 437.21 1107.37 437.72 1107.82 438.89Z" fill="#DBDBDB"/>
<path d="M1031.93 430.35C1030.25 441.578 1029.24 452.894 1028.88 464.24C1028.04 464.9 1027.22 465.6 1026.42 466.35C1026.67 454.522 1027.67 442.721 1029.42 431.02C1030.24 430.78 1031.08 430.55 1031.93 430.35Z" fill="#DBDBDB"/>
<path d="M1130.74 443.45C1129.94 444.2 1129.12 444.9 1128.27 445.56L1114.88 419.35C1115.58 418.83 1116.25 418.27 1116.88 417.68C1121.52 426.28 1126.14 434.87 1130.74 443.45Z" fill="#DBDBDB"/>
<path d="M1129.87 441.83L1130.74 443.45C1104.36 468.25 1052.8 441.55 1026.42 466.35C1026.42 465.52 1026.42 464.7 1026.49 463.88C1053.1 440.48 1103.77 466.27 1129.87 441.83Z" fill="#DBDBDB"/>
<path d="M1116.92 417.68L1117.79 419.31C1095.61 439 1056.6 424.21 1029.12 433C1029.21 432.32 1029.31 431.65 1029.41 431C1056.8 422.94 1095 437 1116.92 417.68Z" fill="#DBDBDB"/>
<path d="M1034.89 458.36C1032.82 459.352 1030.85 460.534 1029 461.89C1029.07 460.17 1029.15 458.48 1029.25 456.81C1032.38 454.86 1035.05 455.83 1034.89 458.36Z" fill="#DBDBDB"/>
<path d="M1125.57 440.27L1127.43 443.91C1125.61 445.331 1123.66 446.577 1121.6 447.63C1120.65 445.55 1122.59 442.59 1125.57 440.27Z" fill="#DBDBDB"/>
<path d="M1110.86 424.12C1112.56 423.208 1114.19 422.165 1115.73 421L1117.59 424.64C1114.94 426.67 1111.79 426.18 1110.86 424.12Z" fill="#DBDBDB"/>
<path d="M1031.06 436.67C1031.24 435.19 1031.44 433.73 1031.64 432.29C1033.53 431.79 1035.46 431.39 1037.43 431.07C1037.12 433.3 1034.19 435.64 1031.06 436.67Z" fill="#DBDBDB"/>
<path d="M1076.24 435.33C1076.6 435.33 1076.94 435.51 1076.96 435.71L1077.05 436.33C1078.84 436.415 1080.61 436.79 1082.28 437.44C1082.56 437.54 1082.71 437.63 1082.74 437.79C1082.77 437.95 1082.47 438.18 1082.07 438.18C1081.88 438.187 1081.7 438.15 1081.53 438.07C1080.11 437.503 1078.61 437.166 1077.09 437.07L1077.66 441.38C1082.26 441.95 1084.3 442.81 1084.58 444.38C1084.86 445.95 1082.37 447.18 1078.49 447.15C1078.49 447.55 1078.6 447.95 1078.65 448.35C1078.65 448.55 1078.36 448.71 1077.95 448.7C1077.54 448.69 1077.17 448.52 1077.15 448.32L1077 447C1074.55 446.881 1072.15 446.322 1069.9 445.35C1069.68 445.25 1069.55 445.16 1069.54 445.02C1069.53 444.88 1069.88 444.64 1070.28 444.65C1070.47 444.652 1070.66 444.692 1070.84 444.77C1072.77 445.667 1074.85 446.19 1076.98 446.31L1076.44 441.93C1071.91 441.33 1070 440.43 1069.89 438.93C1069.78 437.43 1072.2 436.27 1075.68 436.28C1075.68 436.08 1075.63 435.89 1075.6 435.69C1075.57 435.49 1075.87 435.33 1076.24 435.33ZM1076.34 441.18C1076.17 439.78 1075.99 438.38 1075.82 436.97C1073.04 436.97 1071.28 437.8 1071.37 438.9C1071.46 440 1072.47 440.62 1076.34 441.18ZM1077.77 442.18L1078.34 446.43C1081.42 446.43 1083.26 445.58 1083.06 444.43C1082.86 443.28 1081.72 442.65 1077.77 442.14V442.18Z" fill="#EBEBEB"/>
<path d="M1068.44 408C1049.31 386.48 1014.87 396.47 995.74 375C1000.84 370.8 1006.1 366.26 1011.48 361.46C1029.37 374.21 1055.3 370.4 1072.77 383.99C1071.42 391.763 1069.97 399.767 1068.44 408Z" fill="#EBEBEB"/>
<path d="M1047.21 384.47C1045.7 388.13 1039.65 389.87 1033.59 388.6C1027.53 387.33 1024.59 383.29 1026.87 379.81C1029.15 376.33 1035.23 374.54 1040.5 375.64C1045.77 376.74 1048.74 380.78 1047.21 384.47Z" fill="#DBDBDB"/>
<path d="M1020.59 377.51C1020.01 378.28 1018.36 378.51 1016.93 377.98C1015.5 377.45 1014.88 376.33 1015.49 375.6C1016.1 374.87 1017.71 374.73 1019.1 375.24C1020.49 375.75 1021.17 376.74 1020.59 377.51Z" fill="#DBDBDB"/>
<path d="M1059 388C1058.75 388.9 1057.42 389.11 1056 388.55C1054.58 387.99 1053.64 386.89 1053.93 386.02C1054.22 385.15 1055.61 384.83 1056.99 385.36C1058.37 385.89 1059.25 387.07 1059 388Z" fill="#DBDBDB"/>
<path d="M1013.13 362.5C1007.81 367.5 1002.59 372.3 997.52 376.8C996.91 376.2 996.32 375.58 995.74 374.93C1000.83 370.73 1006.09 366.19 1011.48 361.39C1012.02 361.797 1012.57 362.167 1013.13 362.5Z" fill="#DBDBDB"/>
<path d="M1068.44 408C1067.86 407.35 1067.27 406.72 1066.66 406.13C1068.24 398.17 1069.74 390.38 1071.16 382.76C1071.7 383.14 1072.24 383.54 1072.77 383.95C1071.42 391.75 1069.97 399.767 1068.44 408Z" fill="#DBDBDB"/>
<path d="M1068.73 406.42C1068.64 406.93 1068.54 407.42 1068.44 407.97C1049.31 386.45 1014.87 396.44 995.74 374.97L996.74 374.17C1015.8 395 1049.67 385.48 1068.73 406.42Z" fill="#DBDBDB"/>
<path d="M1072.77 383.92C1072.68 384.41 1072.6 384.92 1072.51 385.4C1054.9 371.4 1028.51 375.5 1010.51 362.29L1011.51 361.39C1029.37 374.14 1055.3 370.33 1072.77 383.92Z" fill="#DBDBDB"/>
<path d="M1002.67 379.41C1001.19 378.353 999.794 377.193 998.48 375.94L1000.61 374.04C1002.81 376 1003.83 378.22 1002.67 379.41Z" fill="#DBDBDB"/>
<path d="M1067.61 401.3C1067.39 402.39 1067.18 403.5 1066.96 404.6C1065.65 403.341 1064.25 402.178 1062.77 401.12C1063.16 399.42 1065.42 399.3 1067.61 401.3Z" fill="#DBDBDB"/>
<path d="M1067.13 381.79C1068.43 382.513 1069.68 383.308 1070.89 384.17L1070.29 387.37C1068.24 385.83 1066.76 383.46 1067.13 381.79Z" fill="#DBDBDB"/>
<path d="M1009.92 365.51L1012.13 363.45C1013.36 364.257 1014.63 365.001 1015.94 365.68C1014.76 366.93 1012 367 1009.92 365.51Z" fill="#DBDBDB"/>
<path d="M1039.77 377.25C1040.02 377.31 1040.17 377.48 1040.09 377.62C1040.01 377.76 1039.94 377.92 1039.86 378.07C1041 378.347 1042.06 378.877 1042.97 379.62C1043.11 379.74 1043.18 379.83 1043.12 379.94C1043.06 380.05 1042.75 380.17 1042.47 380.11C1042.35 380.092 1042.24 380.036 1042.15 379.95C1041.4 379.305 1040.51 378.836 1039.55 378.58L1037.9 381.71C1040.83 382.71 1041.83 383.71 1041.31 384.79C1040.79 385.87 1038.45 386.41 1035.75 385.88L1035.29 386.75C1035.22 386.9 1034.91 386.97 1034.63 386.91C1034.35 386.85 1034.18 386.68 1034.26 386.53L1034.73 385.65C1033.18 385.305 1031.75 384.576 1030.56 383.53C1030.46 383.43 1030.41 383.35 1030.47 383.25C1030.56 383.166 1030.67 383.107 1030.79 383.079C1030.91 383.051 1031.04 383.055 1031.16 383.09C1031.28 383.106 1031.4 383.162 1031.49 383.25C1032.48 384.188 1033.71 384.847 1035.04 385.16L1036.75 381.97C1033.88 380.97 1032.97 380.06 1033.62 378.97C1034.27 377.88 1036.51 377.39 1038.93 377.86C1039 377.72 1039.08 377.58 1039.16 377.44C1039.23 377.354 1039.33 377.291 1039.44 377.257C1039.54 377.223 1039.66 377.221 1039.77 377.25V377.25ZM1037.06 381.4L1038.7 378.4C1036.77 378.01 1035.13 378.4 1034.7 379.17C1034.27 379.94 1034.62 380.49 1037.06 381.4ZM1037.6 382.28C1037.06 383.28 1036.52 384.34 1035.97 385.37C1038.11 385.8 1039.81 385.46 1040.22 384.6C1040.63 383.74 1040.11 383.18 1037.6 382.28V382.28Z" fill="#EBEBEB"/>
<path d="M1371.69 564.06H1307.64V578.21H1371.69V564.06Z" fill="#EBEBEB"/>
<g opacity="0.1">
<path d="M1310.28 565.36C1310.97 569.102 1310.97 572.938 1310.28 576.68C1309.59 572.938 1309.59 569.102 1310.28 565.36V565.36Z" fill="black"/>
<path d="M1315.05 565.36C1315.74 569.102 1315.74 572.938 1315.05 576.68C1314.36 572.938 1314.36 569.102 1315.05 565.36V565.36Z" fill="black"/>
<path d="M1317.38 565.36C1318.07 569.102 1318.07 572.938 1317.38 576.68C1316.69 572.938 1316.69 569.102 1317.38 565.36Z" fill="black"/>
<path d="M1330.17 565.36C1330.86 569.102 1330.86 572.938 1330.17 576.68C1329.49 572.938 1329.49 569.102 1330.17 565.36Z" fill="black"/>
<path d="M1333.63 565.36C1334.32 569.102 1334.32 572.938 1333.63 576.68C1332.94 572.938 1332.94 569.102 1333.63 565.36Z" fill="black"/>
<path d="M1347.94 565.36C1348.63 569.102 1348.63 572.938 1347.94 576.68C1347.25 572.938 1347.25 569.102 1347.94 565.36V565.36Z" fill="black"/>
<path d="M1351.25 565.36C1351.93 569.102 1351.93 572.938 1351.25 576.68C1350.56 572.938 1350.56 569.102 1351.25 565.36Z" fill="black"/>
<path d="M1357.32 565.36C1358.01 569.102 1358.01 572.938 1357.32 576.68C1356.63 572.938 1356.63 569.102 1357.32 565.36V565.36Z" fill="black"/>
<path d="M1345.18 565.36C1345.86 569.102 1345.86 572.938 1345.18 576.68C1344.49 572.938 1344.49 569.102 1345.18 565.36Z" fill="black"/>
<path d="M1321.61 565.36C1322.29 569.102 1322.29 572.938 1321.61 576.68C1320.92 572.938 1320.92 569.102 1321.61 565.36Z" fill="black"/>
<path d="M1338.19 565.36C1338.87 569.102 1338.87 572.938 1338.19 576.68C1337.5 572.938 1337.5 569.102 1338.19 565.36Z" fill="black"/>
<path d="M1340.57 565.36C1341.26 569.102 1341.26 572.938 1340.57 576.68C1339.88 572.938 1339.88 569.102 1340.57 565.36V565.36Z" fill="black"/>
<path d="M1365.23 565.36C1365.92 569.102 1365.92 572.938 1365.23 576.68C1364.54 572.938 1364.54 569.102 1365.23 565.36Z" fill="black"/>
<path d="M1368.81 565.36C1369.49 569.102 1369.49 572.938 1368.81 576.68C1368.12 572.938 1368.12 569.102 1368.81 565.36V565.36Z" fill="black"/>
<path d="M1360.14 565.36C1360.82 569.102 1360.82 572.938 1360.14 576.68C1359.45 572.938 1359.45 569.102 1360.14 565.36Z" fill="black"/>
<path d="M1327.41 565.36C1328.09 569.102 1328.09 572.938 1327.41 576.68C1326.72 572.938 1326.72 569.102 1327.41 565.36Z" fill="black"/>
</g>
<path opacity="0.1" d="M1371.68 564.06V567.07L1307.64 569.09V564.06H1371.68Z" fill="black"/>
<path d="M1367.31 549.91H1303.26V564.06H1367.31V549.91Z" fill="#EBEBEB"/>
<g opacity="0.1">
<path d="M1305.9 551.21C1306.59 554.952 1306.59 558.788 1305.9 562.53C1305.22 558.788 1305.22 554.952 1305.9 551.21V551.21Z" fill="black"/>
<path d="M1310.67 551.21C1311.36 554.952 1311.36 558.788 1310.67 562.53C1309.99 558.788 1309.99 554.952 1310.67 551.21V551.21Z" fill="black"/>
<path d="M1313 551.21C1313.69 554.952 1313.69 558.788 1313 562.53C1312.32 558.788 1312.32 554.952 1313 551.21V551.21Z" fill="black"/>
<path d="M1325.79 551.21C1326.48 554.952 1326.48 558.788 1325.79 562.53C1325.11 558.788 1325.11 554.952 1325.79 551.21V551.21Z" fill="black"/>
<path d="M1329.25 551.21C1329.94 554.952 1329.94 558.788 1329.25 562.53C1328.57 558.788 1328.57 554.952 1329.25 551.21V551.21Z" fill="black"/>
<path d="M1343.56 551.21C1344.25 554.952 1344.25 558.788 1343.56 562.53C1342.88 558.788 1342.88 554.952 1343.56 551.21V551.21Z" fill="black"/>
<path d="M1346.87 551.21C1347.56 554.952 1347.56 558.788 1346.87 562.53C1346.18 558.788 1346.18 554.952 1346.87 551.21V551.21Z" fill="black"/>
<path d="M1352.94 551.21C1353.63 554.952 1353.63 558.788 1352.94 562.53C1352.25 558.788 1352.25 554.952 1352.94 551.21V551.21Z" fill="black"/>
<path d="M1340.8 551.21C1341.49 554.952 1341.49 558.788 1340.8 562.53C1340.11 558.788 1340.11 554.952 1340.8 551.21V551.21Z" fill="black"/>
<path d="M1317.23 551.21C1317.92 554.952 1317.92 558.788 1317.23 562.53C1316.54 558.788 1316.54 554.952 1317.23 551.21V551.21Z" fill="black"/>
<path d="M1333.81 551.21C1334.5 554.952 1334.5 558.788 1333.81 562.53C1333.12 558.788 1333.12 554.952 1333.81 551.21V551.21Z" fill="black"/>
<path d="M1336.19 551.21C1336.87 554.952 1336.87 558.788 1336.19 562.53C1335.5 558.788 1335.5 554.952 1336.19 551.21V551.21Z" fill="black"/>
<path d="M1360.85 551.21C1361.54 554.952 1361.54 558.788 1360.85 562.53C1360.16 558.788 1360.16 554.952 1360.85 551.21V551.21Z" fill="black"/>
<path d="M1364.43 551.21C1365.11 554.952 1365.11 558.788 1364.43 562.53C1363.74 558.788 1363.74 554.952 1364.43 551.21V551.21Z" fill="black"/>
<path d="M1355.76 551.21C1356.44 554.952 1356.44 558.788 1355.76 562.53C1355.07 558.788 1355.07 554.952 1355.76 551.21V551.21Z" fill="black"/>
<path d="M1323 551.21C1323.68 554.952 1323.68 558.788 1323 562.53C1322.31 558.788 1322.31 554.952 1323 551.21V551.21Z" fill="black"/>
</g>
<path opacity="0.1" d="M1367.3 549.91V552.92L1303.26 554.94V549.91H1367.3Z" fill="black"/>
<path d="M1377.21 521.72H1313.16V535.87H1377.21V521.72Z" fill="#EBEBEB"/>
<g opacity="0.1">
<path d="M1315.8 523C1316.49 526.742 1316.49 530.578 1315.8 534.32C1315.11 530.578 1315.11 526.742 1315.8 523V523Z" fill="black"/>
<path d="M1320.56 523C1321.25 526.742 1321.25 530.578 1320.56 534.32C1319.88 530.578 1319.88 526.742 1320.56 523V523Z" fill="black"/>
<path d="M1322.9 523C1323.59 526.742 1323.59 530.578 1322.9 534.32C1322.21 530.578 1322.21 526.742 1322.9 523V523Z" fill="black"/>
<path d="M1335.69 523C1336.38 526.742 1336.38 530.578 1335.69 534.32C1335 530.578 1335 526.742 1335.69 523V523Z" fill="black"/>
<path d="M1339.15 523C1339.84 526.742 1339.84 530.578 1339.15 534.32C1338.46 530.578 1338.46 526.742 1339.15 523V523Z" fill="black"/>
<path d="M1353.46 523C1354.15 526.742 1354.15 530.578 1353.46 534.32C1352.77 530.578 1352.77 526.742 1353.46 523V523Z" fill="black"/>
<path d="M1356.76 523C1357.45 526.742 1357.45 530.578 1356.76 534.32C1356.07 530.578 1356.07 526.742 1356.76 523V523Z" fill="black"/>
<path d="M1362.83 523C1363.52 526.742 1363.52 530.578 1362.83 534.32C1362.15 530.578 1362.15 526.742 1362.83 523V523Z" fill="black"/>
<path d="M1350.69 523C1351.38 526.742 1351.38 530.578 1350.69 534.32C1350.01 530.578 1350.01 526.742 1350.69 523V523Z" fill="black"/>
<path d="M1327.12 523C1327.81 526.742 1327.81 530.578 1327.12 534.32C1326.44 530.578 1326.44 526.742 1327.12 523V523Z" fill="black"/>
<path d="M1343.7 523C1344.39 526.742 1344.39 530.578 1343.7 534.32C1343.01 530.578 1343.01 526.742 1343.7 523V523Z" fill="black"/>
<path d="M1346.08 523C1346.77 526.742 1346.77 530.578 1346.08 534.32C1345.4 530.578 1345.4 526.742 1346.08 523V523Z" fill="black"/>
<path d="M1370.74 523C1371.43 526.742 1371.43 530.578 1370.74 534.32C1370.05 530.578 1370.05 526.742 1370.74 523V523Z" fill="black"/>
<path d="M1374.32 523C1375.01 526.742 1375.01 530.578 1374.32 534.32C1373.64 530.578 1373.64 526.742 1374.32 523V523Z" fill="black"/>
<path d="M1365.65 523C1366.34 526.742 1366.34 530.578 1365.65 534.32C1364.97 530.578 1364.97 526.742 1365.65 523V523Z" fill="black"/>
<path d="M1332.92 523C1333.61 526.742 1333.61 530.578 1332.92 534.32C1332.24 530.578 1332.24 526.742 1332.92 523V523Z" fill="black"/>
</g>
<path opacity="0.1" d="M1377.2 521.72V524.73L1313.15 526.75V521.72H1377.2Z" fill="black"/>
<path d="M1375.59 507.57H1311.54V521.72H1375.59V507.57Z" fill="#EBEBEB"/>
<g opacity="0.1">
<path d="M1372.71 520.19C1372.02 516.448 1372.02 512.612 1372.71 508.87C1373.39 512.612 1373.39 516.448 1372.71 520.19V520.19Z" fill="black"/>
<path d="M1367.94 520.19C1367.25 516.448 1367.25 512.612 1367.94 508.87C1368.62 512.612 1368.62 516.448 1367.94 520.19V520.19Z" fill="black"/>
<path d="M1365.61 520.19C1364.92 516.448 1364.92 512.612 1365.61 508.87C1366.29 512.612 1366.29 516.448 1365.61 520.19V520.19Z" fill="black"/>
<path d="M1352.81 520.19C1352.13 516.448 1352.13 512.612 1352.81 508.87C1353.5 512.612 1353.5 516.448 1352.81 520.19Z" fill="black"/>
<path d="M1349.35 520.19C1348.66 516.448 1348.66 512.612 1349.35 508.87C1350.04 512.612 1350.04 516.448 1349.35 520.19Z" fill="black"/>
<path d="M1335.05 520.19C1334.36 516.448 1334.36 512.612 1335.05 508.87C1335.74 512.612 1335.74 516.448 1335.05 520.19V520.19Z" fill="black"/>
<path d="M1331.74 520.19C1331.05 516.448 1331.05 512.612 1331.74 508.87C1332.43 512.612 1332.43 516.448 1331.74 520.19V520.19Z" fill="black"/>
<path d="M1325.67 520.19C1324.98 516.448 1324.98 512.612 1325.67 508.87C1326.35 512.612 1326.35 516.448 1325.67 520.19V520.19Z" fill="black"/>
<path d="M1337.81 520.19C1337.12 516.448 1337.12 512.612 1337.81 508.87C1338.5 512.612 1338.5 516.448 1337.81 520.19V520.19Z" fill="black"/>
<path d="M1361.38 520.19C1360.69 516.448 1360.69 512.612 1361.38 508.87C1362.06 512.612 1362.06 516.448 1361.38 520.19V520.19Z" fill="black"/>
<path d="M1344.8 520.19C1344.11 516.448 1344.11 512.612 1344.8 508.87C1345.49 512.612 1345.49 516.448 1344.8 520.19Z" fill="black"/>
<path d="M1342.42 520.19C1341.73 516.448 1341.73 512.612 1342.42 508.87C1343.1 512.612 1343.1 516.448 1342.42 520.19V520.19Z" fill="black"/>
<path d="M1317.76 520.19C1317.07 516.448 1317.07 512.612 1317.76 508.87C1318.44 512.612 1318.44 516.448 1317.76 520.19V520.19Z" fill="black"/>
<path d="M1314.18 520.19C1313.49 516.448 1313.49 512.612 1314.18 508.87C1314.86 512.612 1314.86 516.448 1314.18 520.19V520.19Z" fill="black"/>
<path d="M1322.85 520.19C1322.16 516.448 1322.16 512.612 1322.85 508.87C1323.54 512.612 1323.54 516.448 1322.85 520.19V520.19Z" fill="black"/>
<path d="M1355.58 520.19C1354.89 516.448 1354.89 512.612 1355.58 508.87C1356.26 512.612 1356.26 516.448 1355.58 520.19V520.19Z" fill="black"/>
</g>
<path opacity="0.1" d="M1375.58 507.57V510.58L1311.54 512.6V507.57H1375.58Z" fill="black"/>
<path d="M1371.69 493.42H1307.64V507.57H1371.69V493.42Z" fill="#EBEBEB"/>
<g opacity="0.1">
<path d="M1310.28 494.72C1310.97 498.462 1310.97 502.298 1310.28 506.04C1309.59 502.298 1309.59 498.462 1310.28 494.72V494.72Z" fill="black"/>
<path d="M1315.05 494.72C1315.74 498.462 1315.74 502.298 1315.05 506.04C1314.36 502.298 1314.36 498.462 1315.05 494.72V494.72Z" fill="black"/>
<path d="M1317.38 494.72C1318.07 498.462 1318.07 502.298 1317.38 506.04C1316.69 502.298 1316.69 498.462 1317.38 494.72V494.72Z" fill="black"/>
<path d="M1330.17 494.72C1330.86 498.462 1330.86 502.298 1330.17 506.04C1329.49 502.298 1329.49 498.462 1330.17 494.72V494.72Z" fill="black"/>
<path d="M1333.63 494.72C1334.32 498.462 1334.32 502.298 1333.63 506.04C1332.94 502.298 1332.94 498.462 1333.63 494.72V494.72Z" fill="black"/>
<path d="M1347.94 494.72C1348.63 498.462 1348.63 502.298 1347.94 506.04C1347.25 502.298 1347.25 498.462 1347.94 494.72V494.72Z" fill="black"/>
<path d="M1351.25 494.72C1351.93 498.462 1351.93 502.298 1351.25 506.04C1350.56 502.298 1350.56 498.462 1351.25 494.72V494.72Z" fill="black"/>
<path d="M1357.32 494.72C1358.01 498.462 1358.01 502.298 1357.32 506.04C1356.63 502.298 1356.63 498.462 1357.32 494.72V494.72Z" fill="black"/>
<path d="M1345.18 494.72C1345.86 498.462 1345.86 502.298 1345.18 506.04C1344.49 502.298 1344.49 498.462 1345.18 494.72V494.72Z" fill="black"/>
<path d="M1321.61 494.72C1322.29 498.462 1322.29 502.298 1321.61 506.04C1320.92 502.298 1320.92 498.462 1321.61 494.72V494.72Z" fill="black"/>
<path d="M1338.19 494.72C1338.87 498.462 1338.87 502.298 1338.19 506.04C1337.5 502.298 1337.5 498.462 1338.19 494.72V494.72Z" fill="black"/>
<path d="M1340.57 494.72C1341.26 498.462 1341.26 502.298 1340.57 506.04C1339.88 502.298 1339.88 498.462 1340.57 494.72V494.72Z" fill="black"/>
<path d="M1365.23 494.72C1365.92 498.462 1365.92 502.298 1365.23 506.04C1364.54 502.298 1364.54 498.462 1365.23 494.72V494.72Z" fill="black"/>
<path d="M1368.81 494.72C1369.49 498.462 1369.49 502.298 1368.81 506.04C1368.12 502.298 1368.12 498.462 1368.81 494.72V494.72Z" fill="black"/>
<path d="M1360.14 494.72C1360.82 498.462 1360.82 502.298 1360.14 506.04C1359.45 502.298 1359.45 498.462 1360.14 494.72V494.72Z" fill="black"/>
<path d="M1327.41 494.72C1328.09 498.462 1328.09 502.298 1327.41 506.04C1326.72 502.298 1326.72 498.462 1327.41 494.72V494.72Z" fill="black"/>
</g>
<path opacity="0.1" d="M1371.69 493.42V496.43L1307.64 498.45V493.42H1371.69Z" fill="black"/>
<path d="M1371.69 535.87H1307.64V550.02H1371.69V535.87Z" fill="#EBEBEB"/>
<g opacity="0.1">
<path d="M1368.81 548.49C1368.12 544.748 1368.12 540.912 1368.81 537.17C1369.49 540.912 1369.49 544.748 1368.81 548.49V548.49Z" fill="black"/>
<path d="M1364 548.49C1363.31 544.748 1363.31 540.912 1364 537.17C1364.68 540.912 1364.68 544.748 1364 548.49V548.49Z" fill="black"/>
<path d="M1361.71 548.49C1361.02 544.748 1361.02 540.912 1361.71 537.17C1362.39 540.912 1362.39 544.748 1361.71 548.49V548.49Z" fill="black"/>
<path d="M1348.92 548.49C1348.23 544.748 1348.23 540.912 1348.92 537.17C1349.6 540.912 1349.6 544.748 1348.92 548.49V548.49Z" fill="black"/>
<path d="M1345.46 548.49C1344.77 544.748 1344.77 540.912 1345.46 537.17C1346.14 540.912 1346.14 544.748 1345.46 548.49V548.49Z" fill="black"/>
<path d="M1331.15 548.49C1330.46 544.748 1330.46 540.912 1331.15 537.17C1331.83 540.912 1331.83 544.748 1331.15 548.49Z" fill="black"/>
<path d="M1327.84 548.49C1327.15 544.748 1327.15 540.912 1327.84 537.17C1328.53 540.912 1328.53 544.748 1327.84 548.49V548.49Z" fill="black"/>
<path d="M1321.77 548.49C1321.08 544.748 1321.08 540.912 1321.77 537.17C1322.46 540.912 1322.46 544.748 1321.77 548.49V548.49Z" fill="black"/>
<path d="M1333.91 548.49C1333.23 544.748 1333.23 540.912 1333.91 537.17C1334.6 540.912 1334.6 544.748 1333.91 548.49V548.49Z" fill="black"/>
<path d="M1357.48 548.49C1356.79 544.748 1356.79 540.912 1357.48 537.17C1358.17 540.912 1358.17 544.748 1357.48 548.49V548.49Z" fill="black"/>
<path d="M1340.9 548.49C1340.21 544.748 1340.21 540.912 1340.9 537.17C1341.59 540.912 1341.59 544.748 1340.9 548.49V548.49Z" fill="black"/>
<path d="M1338.52 548.49C1337.83 544.748 1337.83 540.912 1338.52 537.17C1339.2 540.912 1339.2 544.748 1338.52 548.49Z" fill="black"/>
<path d="M1313.86 548.49C1313.17 544.748 1313.17 540.912 1313.86 537.17C1314.54 540.912 1314.54 544.748 1313.86 548.49V548.49Z" fill="black"/>
<path d="M1310.28 548.49C1309.59 544.748 1309.59 540.912 1310.28 537.17C1310.97 540.912 1310.97 544.748 1310.28 548.49V548.49Z" fill="black"/>
<path d="M1319 548.49C1318.32 544.748 1318.32 540.912 1319 537.17C1319.69 540.912 1319.69 544.748 1319 548.49V548.49Z" fill="black"/>
<path d="M1351.68 548.49C1350.99 544.748 1350.99 540.912 1351.68 537.17C1352.37 540.912 1352.37 544.748 1351.68 548.49V548.49Z" fill="black"/>
</g>
<path opacity="0.1" d="M1371.68 535.88V538.88L1307.64 540.9V535.88H1371.68Z" fill="black"/>
<path d="M1302.3 515.14C1344.46 522.7 1333.3 585.14 1291.09 577.58C1248.88 570.02 1260.07 507.56 1302.3 515.14Z" fill="#EBEBEB"/>
<path opacity="0.1" d="M1302.3 515.14C1344.46 522.7 1333.3 585.14 1291.09 577.58C1248.88 570.02 1260.07 507.56 1302.3 515.14Z" fill="black"/>
<path d="M1298.34 514.42C1338.52 521.63 1327.34 584.09 1287.14 576.87C1246.94 569.65 1258.1 507.2 1298.34 514.42Z" fill="#EBEBEB"/>
<path opacity="0.1" d="M1267.26 547.11C1267.47 558.24 1273.95 569.02 1288.09 571.56C1321.49 577.56 1330.74 525.72 1297.39 519.73L1296.74 519.63C1328 525.89 1319.04 574.94 1287.2 569.23C1274.21 566.9 1268 557.29 1267.26 547.11Z" fill="black"/>
<g opacity="0.1">
<path d="M1296.21 526.21C1296.48 526.281 1296.71 526.454 1296.86 526.693C1297 526.933 1297.04 527.218 1296.98 527.49L1296.56 529.21C1299.29 530.12 1301.68 531.826 1303.43 534.11C1303.58 534.255 1303.69 534.436 1303.75 534.635C1303.82 534.834 1303.83 535.045 1303.79 535.25C1303.71 535.537 1303.52 535.781 1303.26 535.929C1303 536.077 1302.7 536.117 1302.41 536.04C1302.27 536.009 1302.13 535.949 1302.01 535.865C1301.89 535.781 1301.79 535.674 1301.71 535.55C1300.27 533.557 1298.28 532.03 1295.98 531.16L1292.98 543.16C1299.16 546.16 1301.29 549.28 1300.24 553.48C1299.11 558.02 1294.49 560.28 1289.09 559.12L1288.26 562.46C1288.19 562.733 1288.02 562.968 1287.78 563.114C1287.54 563.259 1287.25 563.303 1286.98 563.235C1286.7 563.167 1286.47 562.994 1286.32 562.753C1286.18 562.512 1286.13 562.223 1286.2 561.95L1287.05 558.56C1283.53 557.398 1280.5 555.088 1278.44 552C1278.29 551.821 1278.19 551.598 1278.18 551.364C1278.16 551.129 1278.21 550.894 1278.33 550.693C1278.46 550.491 1278.64 550.333 1278.85 550.241C1279.07 550.149 1279.31 550.128 1279.54 550.18C1279.68 550.212 1279.82 550.272 1279.93 550.356C1280.05 550.44 1280.15 550.547 1280.23 550.67C1281.93 553.456 1284.54 555.574 1287.61 556.67L1290.66 544.46C1284.59 541.46 1282.52 538.46 1283.59 534.14C1284.66 529.82 1289.26 527.45 1294.52 528.63L1294.93 527C1294.96 526.864 1295.02 526.735 1295.1 526.622C1295.18 526.508 1295.29 526.412 1295.41 526.339C1295.53 526.265 1295.66 526.216 1295.8 526.194C1295.93 526.172 1296.07 526.177 1296.21 526.21V526.21ZM1291.21 542.26L1294.12 530.56C1289.95 529.61 1286.58 531.41 1285.82 534.49C1285.09 537.41 1286 539.55 1291.21 542.26ZM1292.44 545.34L1289.49 557.17C1293.8 558.17 1297.2 556.36 1298.01 553.1C1298.75 550.15 1297.7 548 1292.44 545.34Z" fill="black"/>
</g>
<path d="M268.134 364.113C269.324 385.643 270.184 407.803 268.064 429.273C266.414 446.003 259.384 459.773 241.994 463.883C225.864 467.683 202.894 467.393 189.254 456.703C182.894 451.703 180.684 444.703 181.114 436.803C181.694 425.803 190.384 365.803 192.974 347.113C194.534 335.713 196.064 324.163 199.644 313.113C207.144 290.003 218.644 289.573 220.264 289.113C221.634 288.233 230.264 284.943 242.794 288.923C246.057 289.959 249.065 291.671 251.622 293.947C254.179 296.223 256.228 299.012 257.634 302.133C266.614 320.713 267.004 343.963 268.134 364.113Z" fill="#263238"/>
<path d="M216.593 292.963C202.843 299.393 199.593 314.403 196.233 327.863C191.603 346.603 187.233 365.423 183.883 384.423C182.243 393.563 180.813 402.733 179.653 411.943C178.553 420.763 176.833 430.163 177.423 439.073C178.423 453.803 191.873 460.493 204.933 462.593C205.065 462.619 205.203 462.59 205.314 462.514C205.426 462.438 205.503 462.321 205.528 462.188C205.553 462.056 205.524 461.919 205.448 461.807C205.373 461.695 205.255 461.619 205.123 461.593C197.683 460.113 190.123 458.053 184.563 452.533C177.473 445.463 178.293 436.233 179.133 427.043C180.563 411.393 182.873 395.843 185.753 380.403C188.633 364.963 192.053 349.583 195.753 334.293C199.243 319.733 201.753 300.573 216.753 293.173C216.823 293.123 216.743 292.893 216.593 292.963Z" fill="#263238"/>
<path d="M263.964 317.883C261.354 306.633 255.504 295.663 243.654 292.393C258.964 297.273 262.654 314.013 264.734 327.993C266.888 342.7 268.484 357.473 269.524 372.313C270.524 386.573 271.274 400.953 271.004 415.253C270.704 430.693 267.904 445.153 258.784 457.873C258.754 457.926 258.744 457.988 258.755 458.047C258.765 458.107 258.796 458.161 258.843 458.2C258.889 458.239 258.947 458.261 259.008 458.261C259.068 458.262 259.127 458.242 259.174 458.203C268.174 447.913 271.174 433.733 271.844 420.463C272.794 402.983 271.664 385.203 270.294 367.773C268.994 351.253 267.724 334.093 263.964 317.883Z" fill="#263238"/>
<path d="M88.4346 573.193C89.3446 569.553 146.275 482.013 150.435 480.113C150.915 479.863 180.435 497.853 180.435 497.853C181.705 499.313 234.305 484.213 234.305 484.213L239.435 548.603L142.005 553.483C142.005 553.483 129.415 562.153 117.845 569.303C110.725 573.733 104.405 577.483 102.575 578.103C97.7746 579.713 87.4846 576.803 88.4346 573.193Z" fill="#F7A9A0"/>
<path d="M102.554 578.113C104.394 577.493 110.704 573.743 117.814 569.313C117.814 569.313 117.814 569.313 117.864 569.313C129.424 562.163 142.014 553.493 142.014 553.493L163.704 552.413L193.704 495.293C186.354 497.143 180.864 498.293 180.454 497.853C180.454 497.853 150.944 479.853 150.454 480.123C146.274 482.023 89.3542 569.563 88.4542 573.193C87.5542 576.823 97.7742 579.713 102.554 578.113Z" fill="white"/>
<path d="M87.863 573.343C88.863 569.613 146.043 482.103 150.333 480.143C151.963 479.393 166.333 486.903 180.453 497.853L143.453 554.223C143.453 554.223 107.263 576.843 102.323 578.483C97.383 580.123 86.883 577.063 87.863 573.343Z" fill="#C7C7C7"/>
<path d="M92.2134 574.413C102.213 559.983 140.933 500.823 149.673 485.793C149.743 485.673 149.673 485.623 149.583 485.733C139.403 499.833 101.113 559.303 91.9734 574.253C91.7534 574.533 91.9734 574.683 92.2134 574.413Z" fill="#263238"/>
<path d="M109.213 574.913C110.319 573.309 111.082 571.492 111.452 569.578C111.822 567.665 111.791 565.695 111.363 563.793C110.563 560.673 108.783 557.283 105.673 555.393C105.583 555.343 105.473 555.503 105.563 555.573C110.753 560.163 112.383 568.683 109.023 574.793C109.007 574.819 109.002 574.849 109.008 574.878C109.015 574.907 109.033 574.933 109.058 574.948C109.083 574.964 109.113 574.97 109.143 574.963C109.172 574.956 109.197 574.939 109.213 574.913Z" fill="#263238"/>
<path d="M139.024 557.863C142.944 552.053 145.314 543.863 142.904 537.103C142.804 536.833 142.434 536.973 142.414 537.203C141.738 544.097 140.33 550.898 138.214 557.493C138.19 557.547 138.176 557.604 138.174 557.663C138.172 557.721 138.181 557.779 138.202 557.834C138.222 557.889 138.253 557.939 138.293 557.982C138.333 558.025 138.381 558.059 138.434 558.083C138.487 558.108 138.545 558.121 138.603 558.123C138.662 558.126 138.72 558.116 138.775 558.096C138.829 558.075 138.88 558.044 138.922 558.004C138.965 557.965 139 557.917 139.024 557.863V557.863Z" fill="#263238"/>
<path d="M134.293 561.243C138.213 555.423 140.583 547.243 138.173 540.473C138.073 540.213 137.703 540.353 137.683 540.583C137.013 547.476 135.612 554.277 133.503 560.873C133.471 560.975 133.477 561.085 133.519 561.183C133.562 561.28 133.639 561.359 133.736 561.405C133.832 561.45 133.942 561.458 134.045 561.429C134.147 561.399 134.235 561.333 134.293 561.243Z" fill="#263238"/>
<path d="M129.564 564.623C133.484 558.803 135.854 550.623 133.444 543.853C133.344 543.593 132.974 543.733 132.954 543.963C132.283 550.856 130.882 557.657 128.774 564.253C128.742 564.355 128.748 564.465 128.791 564.563C128.834 564.66 128.911 564.739 129.007 564.784C129.104 564.83 129.214 564.838 129.316 564.809C129.419 564.779 129.507 564.713 129.564 564.623V564.623Z" fill="#263238"/>
<path d="M124.834 568.003C128.754 562.183 131.124 554.003 128.714 547.233C128.614 546.973 128.244 547.103 128.224 547.343C127.552 554.236 126.151 561.037 124.044 567.633C124.012 567.735 124.018 567.845 124.06 567.943C124.103 568.04 124.18 568.119 124.277 568.165C124.373 568.21 124.483 568.218 124.586 568.189C124.688 568.159 124.776 568.093 124.834 568.003V568.003Z" fill="#263238"/>
<path d="M161.133 498.603C165.423 492.003 155.133 485.323 150.873 491.943C146.613 498.563 156.833 505.213 161.133 498.603Z" fill="#263238"/>
<path d="M150.545 574.413C154.945 573.053 154.985 567.733 153.625 564.233C151.181 558.257 147.204 553.031 142.095 549.083C142.073 549.066 142.047 549.053 142.02 549.047C141.993 549.041 141.964 549.041 141.937 549.048C141.91 549.055 141.885 549.068 141.863 549.086C141.842 549.105 141.825 549.128 141.815 549.153C141.688 549.104 141.552 549.086 141.417 549.099C141.283 549.113 141.153 549.158 141.039 549.231C140.925 549.304 140.83 549.403 140.761 549.52C140.693 549.637 140.653 549.768 140.645 549.903C140.805 555.973 140.225 562.483 142.245 568.323C143.415 571.773 146.375 575.743 150.545 574.413ZM142.775 559.053C142.625 556.053 142.615 553.053 142.355 550.123C144.684 553.012 146.867 556.016 148.895 559.123C149.853 560.644 150.709 562.228 151.455 563.863C152.555 566.403 153.695 575.373 146.925 571.783C143.215 569.833 142.955 562.653 142.775 559.093V559.053Z" fill="#263238"/>
<path d="M149.454 533.113C145.334 537.703 143.344 543.933 140.834 549.463C140.788 549.59 140.773 549.726 140.79 549.86C140.807 549.994 140.855 550.122 140.932 550.234C141.008 550.345 141.11 550.437 141.228 550.501C141.347 550.565 141.479 550.6 141.614 550.603C141.614 550.723 141.714 550.823 141.854 550.783C148.092 549.122 153.785 545.854 158.364 541.303C160.974 538.603 163.004 533.683 159.474 530.713C156.134 527.913 151.864 530.413 149.454 533.113ZM155.114 531.753C162.754 531.063 158.214 538.893 156.214 540.803C154.892 542.02 153.488 543.146 152.014 544.173C149.014 546.353 145.704 548.063 142.494 549.923C143.894 547.283 145.054 544.543 146.344 541.853C147.894 538.643 150.904 532.123 155.114 531.753Z" fill="#263238"/>
<path d="M217.973 470.623C217.973 470.623 299.673 432.563 336.223 432.763C379.713 433.003 413.843 484.413 360.763 521.973C313.843 555.173 165.273 553.723 165.273 553.723L199.593 491.153C199.593 491.153 240.523 474.983 294.253 472.953L219.363 488.663L217.973 470.623Z" fill="#263238"/>
<path d="M219.564 483.043C225.984 481.363 232.564 480.223 239.034 479.043C245.504 477.863 252.194 476.723 258.794 475.693C271.966 473.598 285.237 472.169 298.554 471.413C299.804 471.343 301.054 471.303 302.304 471.263C302.565 471.16 302.832 471.074 303.104 471.003C303.734 470.803 304.354 470.593 304.994 470.423C306.174 470.113 307.374 469.853 308.564 469.573C311.054 469.013 313.564 468.573 316.024 467.923C316.174 467.923 316.254 468.103 316.104 468.153C313.624 468.893 311.204 469.793 308.724 470.523L306.574 471.143C311.474 471.043 316.364 471.073 321.264 471.143C321.414 471.143 321.434 471.383 321.264 471.383C314.614 471.463 307.934 471.893 301.314 472.483C294.694 473.073 288.174 473.673 281.624 474.483C268.374 476.193 255.174 478.333 242.024 480.673C234.644 481.983 227.254 483.433 219.814 484.283C219.114 484.413 218.844 483.223 219.564 483.043Z" fill="#37474F"/>
<path d="M180.365 550.793C182.465 546.793 184.205 542.613 186.105 538.533C188.005 534.453 189.905 530.343 191.825 526.253C195.635 518.103 209.435 490.593 210.825 488.633C210.915 488.513 211.125 488.633 211.085 488.773C210.495 490.863 201.945 509.033 199.975 513.093C195.975 521.203 191.825 529.183 187.705 537.203C186.535 539.503 185.305 541.763 184.105 544.043C182.905 546.323 181.625 548.573 180.545 550.903C180.543 550.924 180.537 550.944 180.526 550.962C180.515 550.979 180.499 550.994 180.481 551.003C180.462 551.013 180.442 551.018 180.421 551.017C180.4 551.017 180.38 551.011 180.362 551C180.344 550.989 180.33 550.974 180.32 550.955C180.31 550.937 180.304 550.917 180.305 550.896C180.305 550.875 180.311 550.855 180.321 550.837C180.332 550.819 180.347 550.804 180.365 550.793V550.793Z" fill="#37474F"/>
<path d="M373.973 571.163C372.883 567.583 311.853 482.853 307.583 481.163C307.093 480.933 278.463 500.313 278.463 500.313C277.263 501.833 224.003 489.263 224.003 489.263L221.943 553.823L319.503 554.053C319.503 554.053 332.503 562.103 344.393 568.693C351.713 572.773 358.193 576.223 360.053 576.753C364.943 578.123 375.093 574.733 373.973 571.163Z" fill="#F7A9A0"/>
<path d="M360.103 576.753C358.233 576.233 351.753 572.753 344.433 568.693C332.543 562.103 319.543 554.033 319.543 554.033H297.833L265.113 498.413C272.543 499.913 278.113 500.833 278.463 500.343C278.463 500.343 307.093 480.973 307.583 481.203C311.843 482.903 372.873 567.623 373.973 571.203C375.073 574.783 364.943 578.133 360.103 576.753Z" fill="white"/>
<path d="M374.543 571.293C373.393 567.613 312.073 482.933 307.693 481.173C306.043 480.503 292.063 488.683 278.463 500.303L318.063 554.853C318.063 554.853 355.293 575.713 360.293 577.123C365.293 578.533 375.703 574.963 374.543 571.293Z" fill="#C7C7C7"/>
<path d="M370.284 572.523C359.654 558.583 318.104 501.343 308.664 486.753C308.584 486.633 308.664 486.573 308.744 486.683C319.584 500.273 360.664 557.853 370.514 572.363C370.724 572.663 370.504 572.823 370.284 572.523Z" fill="#263238"/>
<path d="M353.303 573.873C352.121 572.325 351.272 570.548 350.811 568.654C350.35 566.761 350.286 564.793 350.623 562.873C351.273 559.713 352.893 556.243 355.903 554.213C355.993 554.153 356.113 554.313 356.033 554.383C351.033 559.223 349.843 567.803 353.483 573.753C353.495 573.765 353.503 573.779 353.509 573.794C353.514 573.809 353.516 573.826 353.514 573.842C353.512 573.858 353.507 573.873 353.499 573.887C353.49 573.901 353.479 573.913 353.466 573.922C353.452 573.931 353.437 573.936 353.421 573.939C353.405 573.941 353.389 573.94 353.373 573.936C353.358 573.931 353.343 573.923 353.331 573.912C353.319 573.902 353.31 573.888 353.303 573.873V573.873Z" fill="#263238"/>
<path d="M322.703 558.273C318.513 552.653 315.753 544.613 317.843 537.713C317.923 537.443 318.303 537.563 318.333 537.793C319.326 544.649 321.053 551.377 323.483 557.863C323.512 557.963 323.505 558.069 323.464 558.164C323.424 558.259 323.352 558.338 323.26 558.386C323.168 558.434 323.063 558.449 322.962 558.429C322.86 558.408 322.769 558.353 322.703 558.273V558.273Z" fill="#263238"/>
<path d="M327.594 561.413C323.404 555.783 320.594 547.743 322.724 540.853C322.814 540.583 323.184 540.703 323.224 540.933C324.213 547.788 325.936 554.517 328.364 561.003C328.401 561.103 328.401 561.213 328.363 561.313C328.325 561.413 328.252 561.496 328.158 561.546C328.064 561.596 327.955 561.61 327.851 561.586C327.747 561.561 327.656 561.5 327.594 561.413Z" fill="#263238"/>
<path d="M332.484 564.573C328.284 558.943 325.484 550.903 327.614 544.013C327.694 543.743 328.074 543.863 328.104 544.093C329.089 550.946 330.802 557.674 333.214 564.163C333.232 564.255 333.221 564.349 333.182 564.434C333.143 564.518 333.079 564.588 332.998 564.634C332.917 564.68 332.823 564.698 332.731 564.687C332.638 564.676 332.552 564.637 332.484 564.573V564.573Z" fill="#263238"/>
<path d="M337.363 567.723C333.173 562.093 330.413 554.053 332.503 547.163C332.583 546.893 332.963 547.013 332.993 547.243C333.985 554.098 335.708 560.826 338.133 567.313C338.171 567.413 338.17 567.523 338.133 567.623C338.095 567.723 338.022 567.806 337.928 567.856C337.834 567.906 337.725 567.92 337.621 567.896C337.517 567.871 337.425 567.81 337.363 567.723V567.723Z" fill="#263238"/>
<path d="M297.794 500.133C293.194 493.743 303.114 486.583 307.724 492.983C312.334 499.383 302.404 506.533 297.794 500.133Z" fill="#263238"/>
<path d="M309.214 566.263C314.214 562.603 317.414 556.913 320.994 552.003C321.064 551.889 321.106 551.759 321.116 551.625C321.127 551.492 321.105 551.357 321.053 551.233C321.002 551.109 320.921 551 320.819 550.913C320.717 550.826 320.595 550.764 320.464 550.733C320.471 550.705 320.47 550.675 320.463 550.646C320.456 550.617 320.442 550.591 320.422 550.568C320.403 550.546 320.378 550.528 320.351 550.517C320.324 550.506 320.294 550.501 320.264 550.503C313.835 550.861 307.611 552.899 302.214 556.413C299.104 558.523 296.114 562.923 298.964 566.553C301.654 569.983 306.344 568.413 309.214 566.263ZM303.404 566.433C295.784 565.543 301.824 558.813 304.184 557.343C305.726 556.425 307.326 555.61 308.975 554.903C312.385 553.383 315.974 552.383 319.464 551.213C317.564 553.523 315.864 555.963 314.044 558.333C311.914 561.153 307.624 566.933 303.434 566.413L303.404 566.433Z" fill="#263238"/>
<path d="M300.985 532.133C297.595 535.263 299.855 540.073 302.605 542.653C307.394 546.98 313.235 549.973 319.545 551.333C319.572 551.34 319.601 551.34 319.628 551.333C319.656 551.326 319.681 551.313 319.703 551.294C319.724 551.276 319.741 551.253 319.752 551.226C319.762 551.2 319.767 551.172 319.765 551.143C319.899 551.133 320.03 551.091 320.145 551.02C320.26 550.95 320.358 550.853 320.429 550.739C320.5 550.624 320.543 550.494 320.554 550.359C320.566 550.224 320.545 550.089 320.495 549.963C317.735 544.563 315.495 538.433 311.105 534.043C308.565 531.473 304.215 529.163 300.985 532.133ZM314.625 542.623C316.055 545.253 317.335 547.933 318.865 550.503C315.513 548.908 312.245 547.143 309.075 545.213C307.554 544.26 306.101 543.204 304.725 542.053C302.635 540.233 297.725 532.633 305.385 532.953C309.605 533.123 312.925 539.493 314.625 542.623V542.623Z" fill="#263238"/>
<path d="M221.524 469.413C221.524 469.413 138.894 444.503 94.8137 449.763C51.6237 454.913 33.9037 509.073 76.0137 538.413C122.014 570.463 295.124 559.243 295.124 559.243L258.124 493.063C258.124 493.063 199.214 479.193 145.434 479.723L220.994 491.853L221.524 469.413Z" fill="#263238"/>
<path d="M260.623 497.333C260.582 497.224 260.556 497.11 260.543 496.993L260.483 496.723C260.483 496.503 260.383 496.293 260.333 496.083C260.217 495.646 260.077 495.215 259.913 494.793C259.763 494.373 259.583 493.953 259.403 493.543C259.201 493.138 258.97 492.747 258.713 492.373C258.713 492.373 258.643 492.373 258.613 492.293L258.543 492.243H258.443H258.353C251.863 490.873 207.743 483.493 201.173 482.593C194.603 481.693 187.913 480.903 181.273 480.183C168.015 478.721 154.691 477.926 141.353 477.803C140.103 477.803 138.863 477.803 137.613 477.803C137.344 477.715 137.07 477.642 136.793 477.583C136.163 477.413 135.523 477.233 134.883 477.093C133.683 476.833 132.483 476.633 131.273 476.423C128.763 475.973 126.273 475.643 123.743 475.123C123.593 475.123 123.523 475.313 123.673 475.353C126.183 475.973 128.673 476.763 131.163 477.353C131.883 477.523 132.603 477.703 133.333 477.863C128.443 478.003 123.553 478.263 118.663 478.593C118.513 478.593 118.503 478.843 118.663 478.833C125.303 478.603 131.993 478.713 138.663 478.983C145.333 479.253 151.853 479.553 158.433 480.083C171.743 481.163 185.043 482.673 198.283 484.373C205.713 485.373 250.693 492.983 258.173 493.473H258.213C258.271 493.647 258.338 493.817 258.413 493.983C258.603 494.403 258.803 494.803 259.013 495.213C259.223 495.623 259.423 495.983 259.653 496.353L260.013 496.903L260.193 497.173C260.266 497.262 260.326 497.359 260.373 497.463C260.443 497.593 260.703 497.483 260.623 497.333Z" fill="#37474F"/>
<path d="M281.334 554.953C279.034 551.073 277.094 546.953 275.004 542.953C272.914 538.953 270.814 534.953 268.714 530.953C264.514 522.953 249.414 496.173 247.904 494.283C247.804 494.163 247.604 494.283 247.644 494.433C248.344 496.503 257.744 514.243 259.914 518.193C264.244 526.113 268.814 533.873 273.314 541.703C274.594 543.933 275.934 546.133 277.234 548.363C278.534 550.593 279.924 552.763 281.124 555.043C281.214 555.213 281.414 555.083 281.334 554.953Z" fill="#37474F"/>
<path d="M210.913 377.873C222.613 408.353 242.913 443.983 250.193 449.203C259.373 455.813 308.343 460.093 311.053 460.003C317.753 459.733 321.593 414.733 314.413 414.713C303.483 414.713 273.413 416.003 270.763 413.933C268.113 411.863 248.623 393.413 228.403 372.353C214.443 357.823 203.663 358.973 210.913 377.873Z" fill="#EB9481"/>
<path d="M308.483 460.083C309.283 460.363 320.653 464.193 327.483 465.163C332.583 465.893 347.313 467.583 348.663 462.053C349.593 458.283 341.053 456.263 335.043 454.703C331.873 453.883 327.743 451.273 328.353 449.223C329.423 445.643 337.593 447.933 343.073 450.153C353.673 454.453 368.163 462.853 373.433 457.033C375.433 454.833 372.323 451.793 368.003 448.983C374.793 451.983 381.893 454.273 384.193 451.913C385.523 450.573 385.373 449.013 384.293 447.353C386.293 447.713 387.993 447.353 388.993 445.923C390.723 443.523 389.293 440.533 386.623 437.633C386.998 437.541 387.345 437.36 387.635 437.106C387.926 436.852 388.151 436.532 388.293 436.173C391.653 429.023 367.533 413.293 359.853 412.583C337.283 410.483 314.403 414.713 314.403 414.713C306.803 422.783 308.463 460.073 308.483 460.083Z" fill="#EB9481"/>
<path d="M337.753 435.413C343.067 435.487 348.304 436.694 353.113 438.953C359.173 441.823 363.453 445.583 368.703 449.233C368.843 449.323 368.703 449.543 368.563 449.453C366.053 447.713 355.793 441.313 353.173 439.903C348.432 437.282 343.155 435.777 337.743 435.503C337.683 435.523 337.693 435.413 337.753 435.413Z" fill="#263238"/>
<path d="M340.514 425.583C346.514 426.343 352.584 427.093 358.294 429.053C364.544 431.203 369.794 435.403 374.944 439.423C378.03 441.843 381.064 444.33 384.044 446.883C384.174 446.993 384.044 447.203 383.904 447.103C378.664 442.93 373.307 438.93 367.834 435.103C362.769 431.508 357.047 428.943 350.994 427.553C347.534 426.763 343.994 426.253 340.504 425.733C340.484 425.732 340.465 425.723 340.452 425.708C340.439 425.693 340.432 425.673 340.434 425.653C340.435 425.634 340.444 425.615 340.459 425.602C340.474 425.589 340.494 425.582 340.514 425.583V425.583Z" fill="#263238"/>
<path d="M345.493 416.613C351.233 416.973 356.233 417.263 361.603 419.543C368.693 422.543 375.953 428.353 378.503 430.403C381.323 432.663 384.053 435.023 386.753 437.403C386.873 437.493 386.703 437.693 386.583 437.593C380.443 432.375 373.973 427.558 367.213 423.173C364.02 421.034 360.515 419.402 356.823 418.333C353.111 417.454 349.33 416.892 345.523 416.653C345.523 416.653 345.473 416.613 345.493 416.613Z" fill="#263238"/>
<path d="M314.214 411.353L305.144 465.793C305.144 465.793 258.804 459.383 249.424 451.793C240.044 444.203 218.604 400.973 211.074 379.633C203.544 358.293 214.724 357.263 226.894 369.633C239.064 382.003 269.234 412.003 270.764 412.533C272.294 413.063 314.214 411.353 314.214 411.353Z" fill="#455A64"/>
<path d="M297.565 443.243C298.685 436.823 299.855 430.403 300.745 423.933C301.245 420.253 301.745 416.583 302.235 412.933C302.235 412.793 302.015 412.743 301.985 412.883C300.605 419.293 299.235 425.713 298.145 432.183C297.055 438.653 295.925 445.043 294.925 451.493C294.355 455.163 293.925 458.833 293.555 462.493C293.555 462.563 293.665 462.593 293.685 462.493C295.285 456.163 296.435 449.713 297.565 443.243Z" fill="#263238"/>
<path opacity="0.1" d="M306.024 460.413L305.114 465.833C305.114 465.833 258.774 459.423 249.394 451.833C240.014 444.243 218.564 401.013 211.034 379.663C205.534 364.063 210.034 359.303 217.604 362.733C239.834 386.773 281.784 432.513 306.024 460.413Z" fill="black"/>
<path d="M149.604 468.973L257.074 470.773L251.724 436.413C251.724 436.413 260.454 428.853 255.364 414.473C252.034 405.073 236.964 383.033 229.364 373.873C210.784 351.533 197.914 364.003 192.764 369.753C173.064 391.673 149.604 468.973 149.604 468.973Z" fill="#455A64"/>
<path d="M219.214 436.103C223.888 435.679 228.588 435.598 233.274 435.863C235.604 436.033 237.904 436.303 240.214 436.623C241.374 436.783 242.524 436.913 243.674 437.023C244.883 437.168 246.105 437.168 247.314 437.023C247.335 437.023 247.355 437.032 247.37 437.047C247.385 437.062 247.394 437.082 247.394 437.103C247.394 437.125 247.385 437.145 247.37 437.16C247.355 437.175 247.335 437.183 247.314 437.183C246.195 437.447 245.059 437.631 243.914 437.733C242.802 437.813 241.686 437.813 240.574 437.733C238.214 437.593 235.854 437.333 233.494 437.163C228.734 436.823 223.974 436.483 219.194 436.483C219.044 436.493 219.034 436.123 219.214 436.103Z" fill="#263238"/>
<path d="M208.624 442.243C212.341 441.156 216.117 440.281 219.934 439.623C221.844 439.293 223.754 439.083 225.694 438.923L228.454 438.743C229.454 438.683 230.454 438.743 231.514 438.743C231.624 438.743 231.654 438.893 231.514 438.903C230.514 438.993 229.614 439.253 228.664 439.403L225.804 439.843C223.894 440.143 221.994 440.463 220.084 440.743C216.254 441.303 212.444 441.903 208.644 442.593C208.464 442.593 208.434 442.293 208.624 442.243Z" fill="#263238"/>
<path d="M205.755 364.783C205.685 366.783 211.475 381.683 220.335 383.623C223.215 384.243 227.335 368.623 227.335 368.623L227.905 367.543L235.835 352.413L220.215 335.203L217.915 332.863C217.915 332.863 216.015 337.153 213.705 342.513C213.595 342.753 213.485 343.003 213.375 343.273C213.265 343.543 213.105 343.853 212.985 344.143C212.635 344.933 212.275 345.753 211.985 346.573C211.725 347.193 211.465 347.793 211.215 348.463C210.965 349.133 210.695 349.763 210.425 350.463C208.543 355.124 206.982 359.909 205.755 364.783V364.783Z" fill="#EB9481"/>
<path d="M213.664 342.513C214.075 347.474 215.562 352.286 218.021 356.613C220.481 360.941 223.853 364.681 227.904 367.573L235.834 352.413L220.214 335.203L217.914 332.863C217.914 332.863 215.974 337.153 213.664 342.513Z" fill="#263238"/>
<path d="M265.214 332.283C261.844 362.093 243.604 363.443 237.214 362.713C231.374 362.043 211.594 359.043 211.864 329.043C212.134 299.043 227.054 291.183 240.484 292.043C253.914 292.903 268.544 302.473 265.214 332.283Z" fill="#EB9481"/>
<path d="M261.555 326.663C260.893 326.468 260.242 326.238 259.605 325.973C258.885 325.824 258.235 325.441 257.755 324.883C257.636 324.68 257.588 324.443 257.618 324.209C257.649 323.976 257.757 323.759 257.925 323.593C258.306 323.316 258.754 323.144 259.223 323.097C259.692 323.05 260.166 323.128 260.595 323.323C261.523 323.589 262.318 324.192 262.825 325.013C262.929 325.207 262.976 325.427 262.958 325.647C262.94 325.866 262.859 326.076 262.725 326.25C262.591 326.425 262.409 326.557 262.201 326.63C261.993 326.703 261.769 326.715 261.555 326.663V326.663Z" fill="#263238"/>
<path d="M241.214 322.933C241.907 322.924 242.598 322.874 243.284 322.783C244.019 322.832 244.75 322.639 245.364 322.233C245.533 322.066 245.641 321.848 245.672 321.613C245.703 321.377 245.654 321.138 245.534 320.933C245.245 320.559 244.86 320.268 244.421 320.092C243.981 319.916 243.502 319.862 243.034 319.933C242.074 319.934 241.148 320.291 240.434 320.933C240.251 321.085 240.12 321.29 240.06 321.521C240 321.751 240.014 321.994 240.101 322.216C240.187 322.437 240.341 322.626 240.541 322.755C240.741 322.884 240.977 322.946 241.214 322.933V322.933Z" fill="#263238"/>
<path d="M244.903 331.773C244.903 331.693 244.733 331.853 244.723 331.933C244.563 333.933 244.033 336.283 242.123 336.753C242.063 336.753 242.053 336.863 242.123 336.863C244.403 336.803 245.073 333.733 244.903 331.773Z" fill="#263238"/>
<path d="M243.324 329.413C240.084 328.803 239.104 335.323 242.104 335.893C245.104 336.463 246.044 329.963 243.324 329.413Z" fill="#263238"/>
<path d="M241.993 329.603C241.363 329.883 240.713 330.453 239.993 330.413C239.273 330.373 238.693 329.603 238.273 328.863C238.273 328.793 238.163 328.863 238.153 328.923C237.943 330.173 238.223 331.523 239.543 331.923C240.863 332.323 241.783 331.303 242.283 330.103C242.393 329.863 242.213 329.493 241.993 329.603Z" fill="#263238"/>
<path d="M256.214 333.053C256.214 332.973 256.354 333.173 256.344 333.253C255.954 335.253 255.854 337.623 257.574 338.583C257.624 338.583 257.574 338.713 257.574 338.693C255.334 338.023 255.504 334.893 256.214 333.053Z" fill="#263238"/>
<path d="M258.334 331.233C261.614 331.503 260.834 338.043 257.794 337.793C254.754 337.543 255.574 331.003 258.334 331.233Z" fill="#263238"/>
<path d="M259.645 331.823C260.125 332.233 260.555 332.923 261.175 333.043C261.795 333.163 262.495 332.523 263.035 331.903C263.095 331.833 263.135 331.903 263.125 331.983C263.015 333.243 262.445 334.493 261.215 334.593C259.985 334.693 259.415 333.513 259.265 332.223C259.215 331.993 259.455 331.663 259.645 331.823Z" fill="#263238"/>
<path d="M242.214 348.323C242.594 348.883 242.944 349.623 243.664 349.833C244.411 349.962 245.177 349.935 245.914 349.753C245.929 349.747 245.947 349.746 245.963 349.751C245.979 349.757 245.993 349.768 246.002 349.783C246.01 349.797 246.013 349.815 246.01 349.831C246.007 349.848 245.997 349.863 245.984 349.873C245.614 350.205 245.161 350.431 244.673 350.526C244.186 350.621 243.681 350.582 243.214 350.413C242.828 350.226 242.505 349.929 242.288 349.559C242.071 349.188 241.969 348.762 241.994 348.333C241.944 348.253 242.104 348.233 242.214 348.323Z" fill="#263238"/>
<path d="M251.634 342.183C251.634 342.183 251.634 345.263 251.434 346.693C251.434 346.823 251.064 346.843 250.574 346.803C250.574 346.803 250.574 346.803 250.524 346.803C249.268 346.857 248.023 346.563 246.924 345.955C245.824 345.346 244.914 344.446 244.294 343.353C244.214 343.203 244.414 343.083 244.534 343.193C246.178 344.689 248.262 345.611 250.474 345.823C250.624 345.443 250.304 340.543 250.534 340.563C251.624 340.818 252.677 341.215 253.664 341.743C253.854 335.333 253.024 328.933 253.314 322.553C253.314 322.503 253.334 322.455 253.369 322.419C253.405 322.383 253.453 322.363 253.504 322.363C253.554 322.363 253.602 322.383 253.638 322.419C253.674 322.455 253.694 322.503 253.694 322.553C255.044 329.193 254.984 336.553 254.954 343.213C254.964 343.983 252.214 342.503 251.634 342.183Z" fill="#263238"/>
<path d="M250.465 346.083C249.522 347.16 248.316 347.973 246.965 348.443C246.224 348.683 245.426 348.683 244.685 348.443C243.075 347.903 243.135 346.393 243.515 345.123C243.73 344.452 244.022 343.808 244.385 343.203C246.052 344.787 248.183 345.797 250.465 346.083V346.083Z" fill="#263238"/>
<path d="M246.965 348.413C246.224 348.653 245.426 348.653 244.685 348.413C243.075 347.873 243.135 346.363 243.515 345.093C245.265 345.413 246.935 346.723 246.965 348.413Z" fill="#FF9BBC"/>
<path d="M211.883 332.683C213.955 332.091 215.837 330.97 217.345 329.431C218.852 327.891 219.934 325.987 220.483 323.903C226.076 322.53 231.204 319.697 235.343 315.693C235.033 316.263 232.823 320.443 231.633 322.533C251.113 322.303 259.473 308.883 259.473 308.883C264.523 316.053 265.063 320.173 265.603 322.273C265.603 322.273 267.763 310.723 263.163 301.943C257.543 291.183 247.293 291.253 247.293 291.253C242.831 289.312 237.927 288.609 233.099 289.218C228.27 289.827 223.695 291.725 219.853 294.713C205.273 305.923 211.883 332.683 211.883 332.683Z" fill="#263238"/>
<path d="M210.023 339.163C210.43 339.418 210.862 339.629 211.313 339.793C211.754 339.967 212.22 340.072 212.693 340.103C213.304 340.169 213.921 340.101 214.503 339.903C214.958 339.751 215.389 339.536 215.783 339.263C216.345 338.877 216.835 338.397 217.233 337.843L217.183 329.653C217.183 329.653 212.613 319.183 207.993 320.653C203.373 322.123 205.493 336.413 210.023 339.163Z" fill="#EB9481"/>
<path d="M208.703 324.703C208.623 324.703 208.593 324.783 208.653 324.833C211.803 326.913 212.963 330.453 213.563 334.003C212.803 332.533 211.563 331.553 209.563 332.423C209.463 332.473 209.563 332.633 209.623 332.623C210.275 332.55 210.934 332.683 211.506 333.004C212.079 333.325 212.536 333.818 212.813 334.413C213.274 335.372 213.629 336.378 213.873 337.413C213.973 337.753 214.563 337.703 214.513 337.323C214.513 337.323 214.513 337.263 214.513 337.233C215.473 332.893 213.313 326.093 208.703 324.703Z" fill="#263238"/>
<path d="M190.533 375.283C177.943 395.283 151.773 466.943 166.223 476.343C180.673 485.743 245.403 456.993 262.703 444.283C267.853 440.503 239.583 409.283 232.773 409.773C227.103 410.143 201.263 428.513 200.133 427.043C198.853 425.383 200.753 410.923 202.863 385.043C205.293 355.143 196.093 366.463 190.533 375.283Z" fill="#EB9481"/>
<path d="M250.943 394.973C263.433 388.333 267.653 388.543 275.213 377.343C280.213 369.983 287.003 370.003 285.983 379.163C284.333 394.163 269.983 406.163 263.873 408.833L250.943 394.973Z" fill="#EB9481"/>
<path d="M310.553 373.523C350.033 380.613 339.603 439.103 300.053 432.013C260.503 424.923 270.993 366.413 310.553 373.523Z" fill="#FEEAA1"/>
<path opacity="0.1" d="M310.553 373.523C350.033 380.613 339.603 439.103 300.053 432.013C260.503 424.923 270.993 366.413 310.553 373.523Z" fill="black"/>
<path d="M306.844 372.863C344.474 379.613 334.044 438.113 296.344 431.343C258.644 424.573 269.144 366.093 306.844 372.863Z" fill="#FEEAA1"/>
<path opacity="0.1" d="M277.725 403.483C277.935 413.903 283.995 424.003 297.245 426.373C328.525 431.983 337.185 383.433 305.955 377.833L305.345 377.733C334.625 383.603 326.235 429.543 296.405 424.193C284.215 422.003 278.375 413.013 277.725 403.483Z" fill="black"/>
<g opacity="0.1">
<path d="M297.303 383.033C297.563 382.996 297.827 383.062 298.038 383.217C298.249 383.373 298.391 383.605 298.433 383.863L298.683 385.503C301.371 385.307 304.057 385.92 306.393 387.263C306.574 387.334 306.735 387.449 306.861 387.597C306.987 387.746 307.073 387.923 307.113 388.113C307.147 388.391 307.071 388.672 306.901 388.894C306.731 389.117 306.48 389.264 306.203 389.303C305.93 389.349 305.649 389.284 305.423 389.123C303.458 387.922 301.185 387.321 298.883 387.393L300.613 398.843C307.023 399.213 309.993 401.153 310.613 405.163C311.263 409.493 308.093 413.113 303.003 414.043L303.483 417.233C303.523 417.499 303.456 417.769 303.296 417.985C303.137 418.2 302.898 418.344 302.633 418.383C302.368 418.423 302.098 418.356 301.882 418.197C301.666 418.037 301.523 417.799 301.483 417.533L300.993 414.303C297.53 414.563 294.08 413.654 291.193 411.723C291.037 411.653 290.901 411.543 290.8 411.404C290.698 411.266 290.634 411.104 290.613 410.933C290.583 410.663 290.656 410.392 290.817 410.173C290.979 409.955 291.216 409.805 291.483 409.753C291.757 409.714 292.035 409.779 292.263 409.933C294.736 411.722 297.746 412.612 300.793 412.453L299.033 400.793C292.693 400.373 289.823 398.503 289.203 394.413C288.583 390.323 291.703 386.593 296.673 385.713L296.443 384.163C296.425 384.033 296.433 383.9 296.466 383.772C296.5 383.644 296.558 383.524 296.638 383.419C296.718 383.314 296.818 383.226 296.932 383.16C297.046 383.094 297.172 383.051 297.303 383.033ZM298.753 398.703L297.063 387.543C293.063 388.223 290.853 390.993 291.293 393.933C291.713 396.713 293.283 398.233 298.753 398.703V398.703ZM300.923 400.933L302.633 412.223C306.713 411.523 309.013 408.743 308.543 405.633C308.113 402.813 306.423 401.313 300.923 400.933V400.933Z" fill="black"/>
</g>
<path d="M220.633 420.413C220.633 420.413 232.413 406.793 245.013 398.413C253.733 392.603 274.103 382.083 302.253 395.683C308.933 398.913 316.153 408.243 303.343 406.933C294.233 406.003 288.743 402.663 283.343 403.093C283.343 403.093 291.123 416.093 287.633 422.613C284.579 428.352 281.12 433.866 277.283 439.113C276.163 438.628 275.074 438.073 274.023 437.453C274.023 437.453 270.183 443.273 259.923 445.953L220.633 420.413Z" fill="#EB9481"/>
<path d="M254.213 394.193C259.653 394.913 271.163 396.613 280.093 401.273C290.023 406.463 307.733 419.123 303.833 426.403C300.973 431.743 293.783 427.513 293.783 427.513C293.783 427.513 300.003 434.283 296.363 438.513C293.043 442.393 287.683 438.783 287.683 438.783C287.683 438.783 290.743 443.543 286.833 446.663C282.123 450.423 276.463 439.833 268.413 439.513C266.613 439.473 254.213 394.193 254.213 394.193Z" fill="#EB9481"/>
<path d="M272.883 410.843C277.883 412.353 288.393 418.703 293.783 427.273C293.913 427.473 293.833 427.663 293.683 427.513C287.431 421.165 280.43 415.6 272.833 410.943C272.783 410.913 272.823 410.833 272.883 410.843Z" fill="#263238"/>
<path d="M267.944 421.013C272.124 422.763 282.654 429.783 287.824 438.663C287.944 438.863 287.824 439.053 287.704 438.893C281.794 432.23 275.145 426.261 267.884 421.103C267.834 421.073 267.884 420.993 267.944 421.013Z" fill="#263238"/>
<path d="M283.313 403.003C288.063 402.693 291.623 403.783 296.163 405.003C298.4 405.627 300.67 406.121 302.963 406.483C305.053 406.793 308.153 407.273 309.473 405.113C310.203 403.913 309.643 402.423 308.983 401.323C307.823 399.78 306.425 398.43 304.843 397.323C304.783 397.273 304.843 397.173 304.913 397.213C306.413 398.201 307.807 399.34 309.073 400.613C309.929 401.493 310.494 402.613 310.693 403.823C310.923 406.413 308.253 407.743 306.033 407.823C304.69 407.827 303.35 407.693 302.033 407.423C300.773 407.213 299.533 406.933 298.293 406.623C295.753 405.993 293.293 405.213 290.713 404.553C288.263 403.959 285.778 403.515 283.273 403.223C283.213 403.153 283.213 403.003 283.313 403.003Z" fill="#263238"/>
<path d="M297.813 414.803C295.813 412.803 286.073 404.803 283.263 403.133C283.256 403.13 283.25 403.124 283.244 403.118C283.239 403.111 283.235 403.104 283.233 403.096C283.231 403.088 283.23 403.08 283.231 403.072C283.232 403.064 283.234 403.056 283.238 403.048C283.242 403.041 283.247 403.035 283.254 403.03C283.26 403.025 283.268 403.021 283.275 403.018C283.283 403.016 283.292 403.015 283.3 403.016C283.308 403.017 283.316 403.019 283.323 403.023C287.823 404.963 296.273 411.413 298.513 413.653C300.753 415.893 303.393 418.743 304.513 421.713C306.153 426.193 303.513 428.133 302.513 428.713C301.305 429.415 299.895 429.686 298.513 429.483C296.846 429.142 295.266 428.461 293.873 427.483C293.803 427.433 293.873 427.323 293.933 427.363C296.133 428.563 299.343 429.363 301.663 428.143C302.181 427.896 302.644 427.547 303.025 427.117C303.407 426.688 303.698 426.187 303.883 425.643C304.153 424.323 303.94 422.95 303.283 421.773C301.872 419.154 300.022 416.797 297.813 414.803V414.803Z" fill="#263238"/>
<path d="M224.714 413.233L255.124 454.713C255.124 454.713 173.934 489.983 163.794 476.613C153.654 463.243 175.544 399.163 187.174 379.493C200.644 356.703 204.114 362.913 203.624 380.923C203.114 399.783 200.464 427.423 200.464 427.423L224.714 413.233Z" fill="#455A64"/>
<path d="M177.003 444.503C180.431 441.027 184.107 437.806 188.003 434.863C191.855 431.975 195.912 429.371 200.143 427.073C202.553 425.733 205.013 424.513 207.463 423.283C207.543 423.283 207.593 423.363 207.523 423.393C203.275 425.728 199.165 428.306 195.213 431.113C191.26 433.867 187.363 436.683 183.523 439.563C181.353 441.203 179.253 442.943 177.133 444.643C177.115 444.661 177.09 444.67 177.065 444.669C177.039 444.668 177.015 444.657 176.998 444.638C176.981 444.62 176.972 444.595 176.973 444.57C176.974 444.545 176.985 444.521 177.003 444.503Z" fill="#263238"/>
<path d="M224.454 413.143C224.054 413.343 202.324 425.433 201.624 425.933C201.624 425.563 203.454 412.433 203.734 410.513C203.734 410.323 203.734 410.123 203.814 409.933C204.074 409.053 204.354 408.163 204.584 407.263C204.884 406.113 205.174 404.963 205.464 403.813H205.414C205.074 404.953 204.724 406.083 204.414 407.223C204.254 407.743 204.124 408.223 203.984 408.813C204.144 407.453 204.294 406.103 204.444 404.743C204.674 402.573 204.834 400.403 204.994 398.233C204.994 398.163 204.894 398.153 204.884 398.233C204.344 402.063 203.684 405.883 203.124 409.713C202.564 413.543 200.334 427.713 200.364 427.713C200.394 427.713 224.214 413.743 224.614 413.413C224.634 413.387 224.645 413.354 224.647 413.321C224.649 413.287 224.641 413.254 224.624 413.225C224.606 413.196 224.581 413.173 224.551 413.159C224.521 413.144 224.487 413.139 224.454 413.143V413.143Z" fill="#263238"/>
<path d="M231.713 442.603C228.353 437.973 225.023 433.303 221.493 428.793C219.493 426.233 217.493 423.663 215.493 421.113C215.413 421.023 215.233 421.113 215.303 421.243C218.493 426.023 221.703 430.823 225.113 435.453C228.523 440.083 231.853 444.723 235.303 449.293C237.303 451.893 239.303 454.423 241.423 456.903C241.433 456.91 241.446 456.914 241.459 456.914C241.471 456.913 241.483 456.909 241.493 456.901C241.503 456.893 241.511 456.883 241.514 456.87C241.518 456.858 241.517 456.845 241.513 456.833C238.453 451.943 235.093 447.273 231.713 442.603Z" fill="#263238"/>
<path d="M256.354 455.213C255.234 453.973 253.774 452.153 252.604 450.963C252.294 450.643 252.034 450.773 252.294 451.113C253.184 452.263 253.994 453.593 254.884 454.783C253.744 455.243 252.584 455.683 251.444 456.163L247.444 457.823C244.851 458.89 242.251 459.933 239.644 460.953C234.364 463.013 229.031 464.96 223.644 466.793C212.894 470.531 201.956 473.706 190.874 476.303C187.774 477.013 184.654 477.673 181.524 478.223C178.445 478.821 175.338 479.261 172.214 479.543C172.199 479.549 172.186 479.559 172.176 479.573C172.167 479.586 172.162 479.602 172.162 479.618C172.162 479.635 172.167 479.651 172.176 479.664C172.186 479.678 172.199 479.688 172.214 479.693C174.966 479.745 177.718 479.582 180.444 479.203C183.294 478.803 186.144 478.323 188.964 477.753C194.594 476.603 200.154 475.163 205.674 473.573C216.608 470.42 227.398 466.81 238.044 462.743C241.044 461.613 243.994 460.443 246.954 459.243C248.444 458.633 249.954 458.023 251.404 457.383C252.854 456.743 256.544 455.413 256.354 455.213Z" fill="#263238"/>
<path d="M274.018 476.503C274.348 474.813 274.548 473.303 274.718 471.683C274.879 470.075 274.959 468.46 274.958 466.843C274.965 465.167 274.818 463.493 274.518 461.843C274.211 459.917 273.439 458.094 272.268 456.533C271.541 455.627 270.599 454.915 269.528 454.463C268.998 454.244 268.445 454.09 267.878 454.003C267.355 453.93 266.826 453.907 266.298 453.933C264.332 454.085 262.46 454.839 260.938 456.093C259.575 457.19 258.414 458.517 257.508 460.013C256.574 461.497 255.936 463.147 255.628 464.873C255.432 465.903 255.514 466.967 255.868 467.953C256.114 468.59 256.546 469.137 257.108 469.523C257.644 469.879 258.266 470.086 258.908 470.123C259.569 470.157 260.226 469.998 260.798 469.663C261.289 469.356 261.706 468.942 262.018 468.453C262.52 467.669 262.86 466.791 263.018 465.873C263.303 464.249 263.303 462.588 263.018 460.963C262.727 459.336 262.1 457.786 261.178 456.413C260.699 455.683 260.05 455.08 259.288 454.653C258.501 454.225 257.592 454.074 256.708 454.223C255.12 454.578 253.683 455.421 252.598 456.633C250.536 458.899 248.894 461.513 247.748 464.353C249.091 461.659 250.903 459.224 253.098 457.163C254.12 456.177 255.424 455.534 256.828 455.323C257.462 455.312 258.085 455.488 258.619 455.829C259.153 456.171 259.573 456.663 259.828 457.243C260.46 458.488 260.824 459.85 260.898 461.243C261.024 462.623 260.909 464.014 260.558 465.353C260.41 465.926 260.156 466.465 259.808 466.943C259.698 467.089 259.554 467.206 259.388 467.283C259.294 467.313 259.192 467.313 259.098 467.283C258.979 467.267 258.867 467.215 258.778 467.133C258.736 467.062 258.706 466.984 258.688 466.903C258.618 466.438 258.656 465.962 258.798 465.513C259.566 463.041 261.158 460.906 263.308 459.463C264.186 458.846 265.235 458.518 266.308 458.523C266.534 458.536 266.758 458.569 266.978 458.623C267.159 458.672 267.334 458.742 267.498 458.833C267.809 459.012 268.071 459.267 268.258 459.573C268.785 460.53 269.093 461.593 269.158 462.683C269.277 464.014 269.277 465.353 269.158 466.683C269.04 468.089 268.85 469.488 268.588 470.873C268.328 472.253 267.998 473.723 267.588 474.983L274.018 476.503Z" fill="#D6955B"/>
<path opacity="0.1" d="M274.018 476.503C274.348 474.813 274.548 473.303 274.718 471.683C274.879 470.075 274.959 468.46 274.958 466.843C274.965 465.167 274.818 463.493 274.518 461.843C274.211 459.917 273.439 458.094 272.268 456.533C271.541 455.627 270.599 454.915 269.528 454.463C268.998 454.244 268.445 454.09 267.878 454.003C267.355 453.93 266.826 453.907 266.298 453.933C264.332 454.085 262.46 454.839 260.938 456.093C259.575 457.19 258.414 458.517 257.508 460.013C256.574 461.497 255.936 463.147 255.628 464.873C255.432 465.903 255.514 466.967 255.868 467.953C256.114 468.59 256.546 469.137 257.108 469.523C257.644 469.879 258.266 470.086 258.908 470.123C259.569 470.157 260.226 469.998 260.798 469.663C261.289 469.356 261.706 468.942 262.018 468.453C262.52 467.669 262.86 466.791 263.018 465.873C263.303 464.249 263.303 462.588 263.018 460.963C262.727 459.336 262.1 457.786 261.178 456.413C260.699 455.683 260.05 455.08 259.288 454.653C258.501 454.225 257.592 454.074 256.708 454.223C255.12 454.578 253.683 455.421 252.598 456.633C250.536 458.899 248.894 461.513 247.748 464.353C249.091 461.659 250.903 459.224 253.098 457.163C254.12 456.177 255.424 455.534 256.828 455.323C257.462 455.312 258.085 455.488 258.619 455.829C259.153 456.171 259.573 456.663 259.828 457.243C260.46 458.488 260.824 459.85 260.898 461.243C261.024 462.623 260.909 464.014 260.558 465.353C260.41 465.926 260.156 466.465 259.808 466.943C259.698 467.089 259.554 467.206 259.388 467.283C259.294 467.313 259.192 467.313 259.098 467.283C258.979 467.267 258.867 467.215 258.778 467.133C258.736 467.062 258.706 466.984 258.688 466.903C258.618 466.438 258.656 465.962 258.798 465.513C259.566 463.041 261.158 460.906 263.308 459.463C264.186 458.846 265.235 458.518 266.308 458.523C266.534 458.536 266.758 458.569 266.978 458.623C267.159 458.672 267.334 458.742 267.498 458.833C267.809 459.012 268.071 459.267 268.258 459.573C268.785 460.53 269.093 461.593 269.158 462.683C269.277 464.014 269.277 465.353 269.158 466.683C269.04 468.089 268.85 469.488 268.588 470.873C268.328 472.253 267.998 473.723 267.588 474.983L274.018 476.503Z" fill="black"/>
<path d="M280.498 549.093C284.878 555.293 283.988 574.203 286.638 576.853C289.288 579.503 316.498 579.233 318.338 577.673C320.178 576.113 319.338 569.423 321.338 568.323C322.178 567.893 280.498 549.093 280.498 549.093Z" fill="#D6955B"/>
<path opacity="0.1" d="M321.358 568.333C321.04 568.573 320.773 568.873 320.572 569.216C320.371 569.559 320.241 569.939 320.188 570.333C307.627 568.867 295.35 565.565 283.748 560.533C283.128 555.923 282.218 551.533 280.498 549.093C280.498 549.103 322.178 567.903 321.358 568.333Z" fill="black"/>
<path d="M410.897 549.413C405.427 557.323 408.387 574.223 405.727 576.873C403.067 579.523 375.867 579.253 374.037 577.693C372.207 576.133 373.037 569.083 371.957 567.743C371.387 567.013 410.897 549.413 410.897 549.413Z" fill="#D6955B"/>
<path opacity="0.1" d="M410.897 549.413C408.897 552.363 407.987 556.573 407.567 560.813C396.438 565.739 384.646 569.001 372.567 570.493C372.582 569.542 372.373 568.6 371.957 567.743C371.387 567.013 410.897 549.413 410.897 549.413Z" fill="black"/>
<path d="M344.178 436.023C283.068 436.023 259.678 478.863 259.678 503.933C259.678 528.673 277.438 570.713 344.178 570.713C410.918 570.713 433.058 535.103 433.058 503.363C433.058 471.623 405.888 436.023 344.178 436.023Z" fill="#D6955B"/>
<path d="M366.598 439.123C366.598 439.123 391.598 419.943 418.668 422.233C427.988 423.023 412.508 443.233 412.228 458.993L366.598 439.123Z" fill="#D6955B"/>
<path opacity="0.1" d="M401.787 451.273C401.627 452.273 410.257 455.963 411.147 455.403C412.037 454.843 412.937 442.403 419.977 429.163C421.017 427.213 403.457 440.593 401.787 451.273Z" fill="black"/>
<path opacity="0.3" d="M407.178 500.503C408.011 500.375 408.791 500.013 409.427 499.459C410.062 498.905 410.527 498.182 410.768 497.373C410.693 498.373 410.393 499.342 409.889 500.209C409.385 501.075 408.69 501.815 407.858 502.373C407.738 502.453 407.798 502.683 407.958 502.633C412.738 500.833 412.218 494.083 410.538 489.783C410.448 489.543 410.358 489.303 410.248 489.073C409.178 486.573 407.308 484.763 404.958 485.073C397.268 486.183 400.048 501.543 407.178 500.503Z" fill="black"/>
<path d="M425.627 478.633C426.817 482.223 437.677 479.303 440.407 481.583C444.717 485.153 443.527 529.493 439.587 533.063C437.377 535.063 425.067 532.953 421.587 535.393C418.107 537.833 425.627 478.633 425.627 478.633Z" fill="#D6955B"/>
<path opacity="0.1" d="M440.988 506.243C440.988 517.043 440.088 525.793 438.988 525.793C437.888 525.793 436.988 517.043 436.988 506.243C436.988 495.443 437.888 486.693 438.988 486.693C440.088 486.693 440.988 495.413 440.988 506.243Z" fill="black"/>
<path opacity="0.3" d="M314.627 451.073C314.907 451.003 342.817 443.663 368.807 449.403L371.397 441.753C342.477 435.373 312.777 443.213 311.527 443.553L314.637 451.073L313.077 447.313L314.627 451.073Z" fill="black"/>
<path d="M288.487 544.413C263.837 516.093 278.927 483.193 279.607 481.783C280.081 480.818 280.151 479.704 279.803 478.687C279.455 477.669 278.718 476.832 277.752 476.358C276.787 475.885 275.673 475.815 274.655 476.162C273.638 476.51 272.801 477.248 272.327 478.213C268.997 485.677 267.029 493.677 266.517 501.833C265.327 519.833 271.287 536.393 285.387 547.653C289.647 551.003 291.657 548.003 288.487 544.413Z" fill="white"/>
<path d="M277.768 469.163C277.768 470.036 278.026 470.889 278.512 471.615C278.997 472.34 279.686 472.905 280.492 473.239C281.299 473.572 282.186 473.659 283.042 473.488C283.897 473.317 284.683 472.896 285.299 472.278C285.916 471.66 286.335 470.874 286.504 470.018C286.673 469.162 286.584 468.275 286.249 467.469C285.914 466.663 285.347 465.975 284.62 465.492C283.894 465.008 283.04 464.751 282.168 464.753C281 464.756 279.881 465.222 279.056 466.049C278.231 466.875 277.768 467.996 277.768 469.163Z" fill="white"/>
</svg>
