<svg width="500" height="500" viewBox="0 0 500 500" fill="none" xmlns="http://www.w3.org/2000/svg">
<path d="M54.31 227.9H145.7C145.7 227.9 136.64 203.15 122.7 203.15C108.76 203.15 104.38 220.23 104.38 220.23C104.38 220.23 95 211 87.24 211C79.48 211 72.79 223.26 72.79 223.26C72.79 223.26 61.87 216.62 54.31 227.9Z" fill="#EBEBEB"/>
<path d="M53.79 100.22H96.5C96.5 100.22 87 86.39 79.44 86.39C71.88 86.39 69.7 95.61 69.7 95.61C69.7 95.61 64.39 91.31 59.48 92.08C54.57 92.85 53.79 100.22 53.79 100.22Z" fill="#EBEBEB"/>
<path d="M363 175.75H446.21C446.21 175.75 434.82 150.31 422.63 148.75C410.44 147.19 404.63 167.65 404.63 167.65C404.63 167.65 396.77 160.41 390.63 160.41C384.49 160.41 379.68 169.95 379.68 169.95C379.68 169.95 367.26 163.38 363 175.75Z" fill="#EBEBEB"/>
<path d="M291.52 132.22H347.71C347.71 132.22 338.06 113.79 327.59 113.52C317.12 113.25 311.59 127.52 311.59 127.52C311.59 127.52 295.32 114.39 291.52 132.22Z" fill="#EBEBEB"/>
<path d="M134.32 172.41H172.25C172.25 172.41 165.74 159.97 158.67 159.79C151.6 159.61 147.88 169.2 147.88 169.2C147.88 169.2 136.89 160.38 134.32 172.41Z" fill="#EBEBEB"/>
<path d="M378.86 59.71H416.79C416.79 59.71 410.28 47.27 403.21 47.09C396.14 46.91 392.42 56.5 392.42 56.5C392.42 56.5 381.43 47.68 378.86 59.71Z" fill="#EBEBEB"/>
<path d="M202.11 263.26H209.07V324.87H202.11V263.26Z" fill="#A6A6A6"/>
<path d="M75.99 263.26H82.95V324.87H75.99V263.26Z" fill="#A6A6A6"/>
<path d="M57.77 268.87H227.28V277.97H57.77V268.87Z" fill="#EBEBEB"/>
<path d="M57.77 282.9H227.28V292H57.77V282.9Z" fill="#EBEBEB"/>
<path d="M57.77 296.93H227.28V306.03H57.77V296.93Z" fill="#EBEBEB"/>
<path d="M57.77 310.97H227.28V320.07H57.77V310.97Z" fill="#EBEBEB"/>
<path d="M40.43 324.87H242.2V338.44H40.43V324.87Z" fill="#EBEBEB"/>
<path d="M223.93 338.44H230.89V374.31H223.93V338.44Z" fill="#A6A6A6"/>
<path d="M51.73 338.44H58.69V374.31H51.73V338.44Z" fill="#A6A6A6"/>
<path d="M250 457.86C155.813 457.86 79.46 453.244 79.46 447.55C79.46 441.856 155.813 437.24 250 437.24C344.187 437.24 420.54 441.856 420.54 447.55C420.54 453.244 344.187 457.86 250 457.86Z" fill="#EBEBEB"/>
<path d="M459.98 374.3L407.49 374.06L354.99 373.97L250 373.8L145.01 373.97L92.51 374.06L40.02 374.3L92.51 374.55L145.01 374.63L250 374.8L354.99 374.63L407.49 374.55L459.98 374.3Z" fill="#263238"/>
<path d="M265.36 323.11H454.17V374.3H265.36V323.11Z" fill="#455A64"/>
<path d="M263.13 368.7H455.06V374.31H263.13V368.7Z" fill="#F8A41E"/>
<path opacity="0.1" d="M420.48 368.7H455.06V374.31H420.48V368.7Z" fill="#050400"/>
<path d="M263.13 360.97H455.06V366.58H263.13V360.97Z" fill="#F8A41E"/>
<path opacity="0.1" d="M420.48 360.97H455.06V366.58H420.48V360.97Z" fill="#050400"/>
<path d="M263.13 353.25H455.06V358.86H263.13V353.25Z" fill="#F8A41E"/>
<path opacity="0.1" d="M420.48 353.25H455.06V358.86H420.48V353.25Z" fill="#050400"/>
<path d="M263.13 345.53H455.06V351.14H263.13V345.53Z" fill="#F8A41E"/>
<path opacity="0.1" d="M420.48 345.53H455.06V351.14H420.48V345.53Z" fill="#050400"/>
<path d="M263.13 337.81H455.06V343.42H263.13V337.81Z" fill="#F8A41E"/>
<path opacity="0.1" d="M420.48 337.81H455.06V343.42H420.48V337.81Z" fill="#050400"/>
<path d="M263.13 330.09H455.06V335.7H263.13V330.09Z" fill="#F8A41E"/>
<path opacity="0.1" d="M420.48 330.09H455.06V335.7H420.48V330.09Z" fill="#050400"/>
<path d="M263.13 322.37H455.06V327.98H263.13V322.37Z" fill="#F8A41E"/>
<path opacity="0.1" d="M420.48 322.37H455.06V327.98H420.48V322.37Z" fill="#050400"/>
<path d="M271 322.37C271 322.37 272.81 313.93 276.42 312.63C280.03 311.33 282.23 315.11 282.23 315.11C282.23 315.11 283.08 307.05 288.23 304.64C293.38 302.23 297.23 307.17 297.23 307.17C297.23 307.17 301.16 296.93 308.23 296.93C315.3 296.93 318.79 311.93 318.79 311.93C318.79 311.93 322.94 307.46 327.19 309.93C331.44 312.4 331.43 322.34 331.43 322.34L271 322.37Z" fill="#37474F"/>
<path d="M389.13 322.37C389.13 322.37 390.93 313.93 394.55 312.63C398.17 311.33 400.36 315.11 400.36 315.11C400.36 315.11 401.21 307.05 406.36 304.64C411.51 302.23 415.36 307.17 415.36 307.17C415.36 307.17 419.29 296.93 426.36 296.93C433.43 296.93 436.92 311.93 436.92 311.93C436.92 311.93 441.06 307.46 445.31 309.93C449.56 312.4 449.56 322.34 449.56 322.34L389.13 322.37Z" fill="#455A64"/>
<path d="M347.59 322.37H402C402 322.37 400.21 314.7 396.6 314.15C392.99 313.6 391.32 317.15 391.32 317.15C391.32 317.15 391.48 306.45 384.74 304.63C378 302.81 372.35 312.26 372.35 312.26C372.35 312.26 368.13 306.87 362.35 307.26C356.57 307.65 355.13 316.51 355.13 316.51C355.13 316.51 349.9 313.39 347.59 322.37Z" fill="#37474F"/>
<path d="M326.63 322.37H360C360 322.37 359.93 317.37 356.64 316.07C355.748 315.681 354.754 315.594 353.809 315.822C352.863 316.049 352.017 316.578 351.4 317.33C351.4 317.33 350.06 308.18 343.94 308.18C337.82 308.18 334.88 316.07 334.88 316.07C334.36 315.318 333.632 314.733 332.784 314.389C331.937 314.044 331.008 313.954 330.11 314.13C326.76 314.57 326.63 322.37 326.63 322.37Z" fill="#455A64"/>
<path d="M198.51 447C200.56 447.66 259.02 446.91 261.22 445.46C262.07 444.93 262.46 436.41 262.63 426.09V425.77C262.63 423.64 262.7 421.46 262.7 419.24C262.7 418.93 262.7 418.63 262.7 418.32C262.78 403.44 262.55 388 262.55 388L223.44 388.39L224.62 418.39V419.58L224.86 425.8V426.44C224.86 426.44 202.62 436.74 200.36 438.58C198.1 440.42 196.46 446.32 198.51 447Z" fill="#EB9481"/>
<path d="M198.51 447C200.56 447.66 259.02 446.91 261.22 445.46C262.07 444.93 262.46 436.41 262.63 426.09V425.77C262.63 423.64 262.7 421.46 262.7 419.24C262.7 418.93 262.7 418.63 262.7 418.32L224.62 418.43V419.62L224.86 425.84V426.48C224.86 426.48 202.62 436.78 200.36 438.62C198.1 440.46 196.46 446.32 198.51 447Z" fill="#EBEBEB"/>
<path d="M198.51 447C199.78 447.41 222.42 447.28 240.15 446.78C251.22 446.48 260.37 446.02 261.22 445.46C262.07 444.9 262.44 436.65 262.61 426.53C262.61 426.38 262.61 426.24 262.61 426.1C262.61 425.96 262.61 425.87 262.61 425.77L224.9 425.84V426.48C224.9 426.48 202.66 436.77 200.4 438.62C198.14 440.47 196.46 446.32 198.51 447Z" fill="#3B2D85"/>
<path d="M199.14 444.7C208.99 444.33 248.76 443.77 258.52 444.15C258.6 444.15 258.6 444.21 258.52 444.21C248.77 444.79 209 445.03 199.15 444.86C198.94 444.86 198.94 444.71 199.14 444.7Z" fill="#263238"/>
<path d="M220.71 426C224.58 425.23 229.33 425.76 232.33 428.48C232.45 428.59 232.33 428.75 232.17 428.71C228.45 427.566 224.618 426.822 220.74 426.49C220.682 426.482 220.629 426.455 220.59 426.413C220.55 426.37 220.526 426.315 220.523 426.257C220.519 426.199 220.536 426.142 220.57 426.095C220.604 426.048 220.654 426.014 220.71 426Z" fill="#263238"/>
<path d="M217.94 427.69C221.81 426.92 226.56 427.45 229.55 430.18C229.67 430.28 229.55 430.45 229.39 430.41C225.684 429.261 221.866 428.513 218 428.18C217.941 428.178 217.884 428.154 217.84 428.114C217.796 428.074 217.768 428.02 217.761 427.961C217.754 427.902 217.768 427.842 217.801 427.792C217.834 427.743 217.883 427.706 217.94 427.69Z" fill="#263238"/>
<path d="M215.16 429.42C219.03 428.64 223.78 429.18 226.78 431.9C226.89 432 226.78 432.17 226.62 432.13C222.897 430.982 219.062 430.238 215.18 429.91C215.123 429.901 215.071 429.873 215.032 429.829C214.994 429.786 214.971 429.731 214.969 429.673C214.967 429.615 214.984 429.559 215.019 429.512C215.054 429.466 215.104 429.434 215.16 429.42Z" fill="#263238"/>
<path d="M215.56 417.58C217.06 415.46 219.91 416.37 221.56 417.71C224.321 420.062 226.417 423.096 227.64 426.51C227.647 426.525 227.649 426.542 227.648 426.558C227.647 426.574 227.641 426.59 227.632 426.604C227.624 426.618 227.611 426.629 227.597 426.637C227.583 426.645 227.566 426.65 227.55 426.65C227.55 426.95 227.28 427.26 226.95 427.14C223.73 426 220.15 425.14 217.38 423.08C215.75 421.85 214.15 419.58 215.56 417.58ZM222.42 424.41C223.99 425.01 225.57 425.53 227.12 426.19C225.985 424.441 224.76 422.752 223.45 421.13C222.806 420.351 222.111 419.616 221.37 418.93C220.2 417.93 215.61 415.72 216.37 419.93C216.75 422.31 220.55 423.69 222.42 424.41Z" fill="#263238"/>
<path d="M237.47 425.37C234.3 426.77 230.62 426.75 227.23 427.13C227.154 427.131 227.079 427.115 227.01 427.082C226.942 427.049 226.882 427 226.835 426.94C226.788 426.88 226.757 426.81 226.742 426.735C226.727 426.66 226.73 426.583 226.75 426.51C226.735 426.504 226.722 426.494 226.712 426.483C226.701 426.471 226.693 426.457 226.688 426.442C226.683 426.426 226.682 426.41 226.684 426.394C226.686 426.379 226.692 426.363 226.7 426.35C228.673 423.302 231.416 420.829 234.65 419.18C236.55 418.26 239.53 418.03 240.5 420.43C241.47 422.83 239.33 424.55 237.47 425.37ZM239.19 422.58C240.88 418.58 235.91 419.68 234.54 420.42C233.655 420.909 232.806 421.46 232 422.07C230.355 423.352 228.776 424.717 227.27 426.16C228.93 425.87 230.59 425.73 232.27 425.51C234.24 425.24 238.25 424.77 239.19 422.58Z" fill="#263238"/>
<path d="M240.15 446.75C251.22 446.45 260.37 445.99 261.22 445.43C262.07 444.87 262.44 436.62 262.61 426.5C258.07 430.55 246.8 440.61 240.15 446.75Z" fill="#263238"/>
<path d="M274.55 219.59C274.55 219.59 265.78 318.36 264.35 325.9C264.02 327.62 263.81 336.95 263.68 348.95C263.37 375.13 263.55 422.36 263.55 422.36H222.35C222.35 422.36 223.57 340.54 225.35 325.48C227.13 310.42 238.83 219.59 238.83 219.59H274.55Z" fill="#A6A6A6"/>
<path d="M224.21 415.18C230.64 415.04 228.79 414.99 235.21 414.93C238.36 414.93 259.04 414.72 261.98 415.21C262.04 415.21 262.04 415.33 261.98 415.34C259.04 415.82 238.36 415.64 235.21 415.61C228.78 415.55 230.63 415.5 224.21 415.37C224.19 415.363 224.173 415.351 224.16 415.334C224.148 415.317 224.141 415.296 224.141 415.275C224.141 415.254 224.148 415.233 224.16 415.216C224.173 415.199 224.19 415.187 224.21 415.18Z" fill="#263238"/>
<path d="M255.72 368.4C255.773 362.4 255.82 356.427 255.86 350.48C255.86 344.69 255.86 338.89 256.17 333.11C256.72 321.4 259.1 309.89 260.79 298.31C262.48 286.73 263.89 275.1 265.16 263.47C266.6 250.41 267.86 237.34 269.16 224.28C269.16 224.19 269.31 224.19 269.3 224.28C267.36 247.61 265.2 270.93 261.97 294.11C261.157 299.877 260.277 305.633 259.33 311.38C258.33 317.2 257.42 323.01 256.96 328.89C256.5 334.77 256.43 340.43 256.38 346.2C256.313 352.2 256.253 358.17 256.2 364.11C256.07 377.38 255.94 397.8 255.81 411.11C255.81 411.36 255.41 411.35 255.41 411.11C255.54 399.22 255.63 380.24 255.72 368.4Z" fill="#263238"/>
<path d="M246.36 450.46C248.45 450.97 306.71 446.08 308.8 444.46C309.61 443.87 309.39 435.34 308.8 425.04C308.8 424.93 308.8 424.82 308.8 424.72C308.69 422.59 308.56 420.41 308.41 418.2C308.41 417.89 308.41 417.59 308.41 417.28C307.41 402.43 306.1 387.04 306.1 387.04L267.1 390.2L270.4 420.09L270.53 421.27L271.2 427.45L271.27 428.09C271.27 428.09 249.8 440 247.68 442C245.56 444 244.27 450 246.36 450.46Z" fill="#EB9481"/>
<path d="M246.36 450.46C248.45 450.97 306.71 446.08 308.8 444.46C309.61 443.87 309.39 435.34 308.8 425.04C308.8 424.93 308.8 424.82 308.8 424.72C308.69 422.59 308.56 420.41 308.41 418.2C308.41 417.89 308.41 417.59 308.41 417.28L270.41 420.09L270.54 421.27L271.21 427.45L271.28 428.09C271.28 428.09 249.8 440 247.68 442C245.56 444 244.27 450 246.36 450.46Z" fill="#EBEBEB"/>
<path d="M246.062 450.74C248.152 451.25 306.412 446.36 308.502 444.74C309.312 444.15 309.092 435.62 308.502 425.32C308.502 425.21 308.502 425.1 308.502 425L270.882 427.73L270.952 428.37C270.952 428.37 249.502 440.28 247.382 442.28C245.262 444.28 243.972 450.28 246.062 450.74Z" fill="#3B2D85"/>
<path d="M246.83 448.14C256.63 447.08 296.25 443.7 306.02 443.39C306.1 443.39 306.11 443.44 306.02 443.45C296.33 444.72 256.68 447.78 246.83 448.3C246.64 448.32 246.62 448.17 246.83 448.14Z" fill="#263238"/>
<path d="M267 427.93C270.8 426.93 275.58 427.08 278.76 429.59C278.89 429.69 278.76 429.86 278.62 429.83C274.828 428.951 270.952 428.479 267.06 428.42C267.001 428.418 266.944 428.394 266.9 428.354C266.856 428.314 266.828 428.26 266.821 428.201C266.814 428.142 266.828 428.082 266.861 428.032C266.894 427.983 266.943 427.946 267 427.93Z" fill="#263238"/>
<path d="M264.37 429.85C268.18 428.8 272.95 429 276.14 431.5C276.26 431.6 276.14 431.77 275.99 431.75C272.199 430.861 268.323 430.388 264.43 430.34C264.371 430.338 264.314 430.314 264.27 430.274C264.226 430.234 264.198 430.18 264.191 430.121C264.184 430.062 264.198 430.002 264.231 429.952C264.264 429.903 264.313 429.867 264.37 429.85Z" fill="#263238"/>
<path d="M261.422 432.04C265.232 431.04 270.002 431.19 273.192 433.7C273.312 433.8 273.192 433.97 273.042 433.94C269.25 433.061 265.375 432.588 261.482 432.53C261.423 432.528 261.366 432.504 261.322 432.464C261.279 432.424 261.251 432.37 261.243 432.311C261.236 432.252 261.25 432.192 261.283 432.142C261.316 432.093 261.365 432.056 261.422 432.04Z" fill="#263238"/>
<path d="M261.29 419.93C262.63 417.71 265.54 418.41 267.29 419.63C270.222 421.784 272.536 424.67 274 428C274.006 428.015 274.009 428.031 274.008 428.047C274.007 428.064 274.003 428.08 273.995 428.094C273.988 428.108 273.977 428.121 273.964 428.13C273.951 428.14 273.936 428.147 273.92 428.15C273.92 428.44 273.69 428.78 273.35 428.68C270.06 427.77 266.43 427.2 263.52 425.31C261.78 424.18 260 422 261.29 419.93ZM268.61 426.26C270.22 426.75 271.84 427.15 273.43 427.7C272.11 426.08 270.88 424.4 269.43 422.91C268.728 422.195 267.98 421.527 267.19 420.91C265.96 419.96 261.19 418.12 262.26 422.3C262.81 424.56 266.69 425.68 268.61 426.26Z" fill="#263238"/>
<path d="M283.69 426.15C280.62 427.77 276.96 428.01 273.6 428.63C273.524 428.636 273.447 428.625 273.376 428.596C273.305 428.568 273.242 428.523 273.192 428.466C273.141 428.408 273.105 428.34 273.085 428.266C273.066 428.192 273.064 428.115 273.08 428.04C273.065 428.036 273.051 428.029 273.039 428.018C273.027 428.008 273.018 427.995 273.012 427.98C273.006 427.966 273.004 427.95 273.005 427.934C273.007 427.918 273.012 427.903 273.02 427.89C274.769 424.71 277.33 422.05 280.44 420.18C282.27 419.12 285.23 418.68 286.36 421.01C287.49 423.34 285.49 425.2 283.69 426.15ZM285.21 423.25C286.62 419.17 281.73 420.58 280.41 421.42C279.567 421.972 278.765 422.584 278.01 423.25C276.454 424.641 274.972 426.113 273.57 427.66C275.2 427.26 276.86 427 278.5 426.66C280.46 426.25 284.43 425.49 285.21 423.25Z" fill="#263238"/>
<path d="M269.51 424.58L310.68 422.84C310.68 422.84 299.44 332.5 299.24 327C298.7 312.6 289.12 219.6 289.12 219.6H238.84C238.84 219.6 242 241 247.44 254.63C251.087 255.903 254.609 257.51 257.96 259.43C257.96 259.43 262.67 320.93 262.85 328.6C263.19 343.77 269.51 424.58 269.51 424.58Z" fill="#A6A6A6"/>
<path d="M270.61 417C277.03 416.59 275.18 416.62 281.61 416.28C284.75 416.12 305.41 415.06 308.36 415.43C308.43 415.43 308.44 415.54 308.36 415.56C305.44 416.17 284.78 416.86 281.63 416.97C275.2 417.18 277.05 417.05 270.63 417.19C270.609 417.186 270.59 417.175 270.576 417.159C270.561 417.144 270.552 417.124 270.55 417.102C270.548 417.081 270.552 417.06 270.563 417.041C270.574 417.023 270.59 417.008 270.61 417Z" fill="#263238"/>
<path d="M285.44 225.07C287.3 248.49 289.22 271.91 291.36 295.31C293.5 318.71 296.03 342.24 299.09 365.61C300.8 378.67 302.7 397.07 304.73 410.09C304.73 410.17 304.61 410.21 304.59 410.09C300.44 386.97 297.39 358.27 294.8 334.93C292.21 311.59 290.09 288.18 288.19 264.77C287.12 251.53 286.19 238.28 285.14 225.03C285.13 224.88 285.42 224.88 285.44 225.07Z" fill="#263238"/>
<path d="M245.65 253.7C249.925 255.249 254.057 257.167 258 259.43C258.15 259.52 258 259.76 257.89 259.69C253.74 257.91 249.51 256.2 245.46 254.19C245.41 254.156 245.373 254.105 245.355 254.047C245.337 253.989 245.339 253.927 245.361 253.87C245.383 253.813 245.424 253.765 245.476 253.735C245.528 253.704 245.59 253.692 245.65 253.7Z" fill="#263238"/>
<path d="M244.33 225.24C244.33 225.09 244.59 225.06 244.59 225.24C244.591 229.865 244.824 234.488 245.29 239.09C245.48 241.23 247.2 253.09 250.9 252.18C251.52 252.03 251.84 251.42 251.9 250.49C251.881 249.267 251.714 248.052 251.4 246.87C250.99 244.4 250.66 241.92 250.45 239.42C250.018 234.761 250.068 230.069 250.6 225.42C250.6 225.388 250.613 225.358 250.635 225.335C250.658 225.313 250.688 225.3 250.72 225.3C250.752 225.3 250.782 225.313 250.805 225.335C250.827 225.358 250.84 225.388 250.84 225.42C250.74 231.877 251.127 238.332 252 244.73C252.46 247.8 254 252.42 250.8 252.89C247.6 253.36 245.41 245.63 245.01 243.51C243.994 237.475 243.766 231.334 244.33 225.24Z" fill="#263238"/>
<path d="M250.8 252.48C251.135 253.273 251.416 254.089 251.64 254.92C251.874 255.56 251.989 256.238 251.98 256.92C251.98 257.05 251.8 257.06 251.73 256.97C251.337 256.354 251.047 255.679 250.87 254.97C250.58 254.22 250.29 253.46 250.03 252.7C250.024 252.607 250.051 252.514 250.104 252.438C250.158 252.362 250.237 252.306 250.327 252.281C250.416 252.255 250.512 252.261 250.598 252.297C250.685 252.333 250.756 252.398 250.8 252.48Z" fill="#263238"/>
<path d="M267.57 229.1C267.562 228.585 267.616 228.072 267.73 227.57C267.736 227.555 267.746 227.542 267.759 227.532C267.773 227.523 267.789 227.518 267.805 227.518C267.821 227.518 267.837 227.523 267.851 227.532C267.864 227.542 267.874 227.555 267.88 227.57C267.982 228.003 268.039 228.445 268.05 228.89C268.05 229.4 268.17 229.89 268.22 230.42C268.329 231.459 268.513 232.488 268.77 233.5C269.236 235.419 270.21 237.177 271.59 238.59C272.969 239.938 274.596 241.008 276.38 241.74C278.392 242.442 280.442 243.029 282.52 243.5C282.6 243.5 282.58 243.65 282.52 243.65C280.243 243.647 277.988 243.202 275.88 242.34C274.009 241.643 272.305 240.559 270.88 239.16C269.449 237.716 268.442 235.907 267.97 233.93C267.732 232.913 267.598 231.874 267.57 230.83C267.53 230.254 267.53 229.676 267.57 229.1Z" fill="#263238"/>
<path d="M257.94 171.59C256.07 179.31 238.36 217.35 226.51 220.59C214.11 224.01 179.9 209.35 176.67 208.2C167.82 205.06 185.67 179.08 190.28 182.2C197.93 187.38 215.58 196.5 219.16 194.95C226.68 191.7 240.79 176.15 251 166.73C257.16 161 260 163 257.94 171.59Z" fill="#EB9481"/>
<path d="M178.79 209C177.25 208.36 165.04 204.4 159.79 199.31C156.99 196.62 150.14 188.31 151.56 186.43C152.87 184.69 155.3 186.49 155.3 186.49C155.3 186.49 152.3 182.76 154.14 180.36C155.98 177.96 159.93 181.22 159.93 181.22C159.93 181.22 157.13 177.16 159.13 174.9C161.13 172.64 164.56 176.58 164.56 176.58C164.56 176.58 161.83 172.99 164.26 171.82C167.19 170.41 171.49 177.61 175.07 180C175.88 180.54 192.31 189.83 192.31 189.83L178.79 209Z" fill="#EB9481"/>
<path d="M164.69 176.49C167.87 181.78 170.17 183.49 175.59 186.27C175.608 186.283 175.621 186.302 175.627 186.323C175.633 186.344 175.632 186.366 175.624 186.387C175.616 186.407 175.602 186.425 175.583 186.436C175.564 186.447 175.542 186.452 175.52 186.45C169.98 184.26 166.77 182.45 164.43 176.63C164.32 176.35 164.54 176.24 164.69 176.49Z" fill="#263238"/>
<path d="M160.06 181.11C163.84 186.31 166.32 188.24 171.78 191.52C171.86 191.52 171.78 191.7 171.71 191.66C166.08 188.9 162.92 187.03 159.83 181.34C159.69 181.08 159.89 180.87 160.06 181.11Z" fill="#263238"/>
<path d="M155.53 186.6C159.53 191.37 162.18 193.6 167.89 196.1C167.913 196.115 167.93 196.137 167.939 196.163C167.948 196.188 167.947 196.216 167.938 196.242C167.929 196.268 167.911 196.289 167.888 196.303C167.864 196.318 167.837 196.323 167.81 196.32C161.74 194.32 158.44 191.57 155.4 186.73C155.19 186.4 155.28 186.3 155.53 186.6Z" fill="#263238"/>
<path d="M197.16 188.88C197.16 188.88 192.35 182.88 189.64 180.66C186.93 178.44 173.88 174.04 172.76 176.81C171.32 180.38 178.35 184.43 182.06 185.96C182.06 185.96 178.71 194.22 183.14 198.22C187.57 202.22 197.16 188.88 197.16 188.88Z" fill="#EB9481"/>
<path d="M172.68 177.92C173.68 182.13 178.68 183.83 182.2 185.58C182.253 185.604 182.299 185.64 182.335 185.685C182.371 185.731 182.395 185.784 182.406 185.841C182.417 185.898 182.414 185.957 182.397 186.012C182.38 186.068 182.351 186.119 182.31 186.16C181.13 189.71 180.52 195.07 182.89 198.23C182.96 198.32 182.84 198.44 182.76 198.35C179.76 195.35 179.93 189.99 181.46 186.18C177.86 184.44 172.92 182.52 172.64 177.93C172.64 177.91 172.68 177.9 172.68 177.92Z" fill="#263238"/>
<path d="M196.17 185.11L180.4 212.35C180.4 212.35 217.78 225.03 227.31 221.13C236.84 217.23 253.15 186.91 258.02 174.13C261.31 165.5 259.28 157.39 249.84 166.68C237.63 178.68 220 194.38 218.56 193.98C217.12 193.58 196.17 185.11 196.17 185.11Z" fill="#EBEBEB"/>
<path d="M187.32 212.07C188.76 209.71 192.89 202.43 194.05 200.53C196.31 196.83 198.55 193.07 201.05 189.53C201.05 189.53 201.13 189.53 201.11 189.53C199.17 193.45 196.89 197.25 194.65 201.01C193.55 202.87 188.81 210.44 187.57 212.16C187.44 212.31 187.24 212.2 187.32 212.07Z" fill="#263238"/>
<path d="M217.92 221.64C221.92 222.04 225.26 221.97 227.32 221.13C236.85 217.23 253.16 186.92 258.02 174.18C259.72 169.74 260.02 165.43 258.59 163.56C251.28 174 229.41 205.25 217.92 221.64Z" fill="#DBDBDB"/>
<path d="M293.95 241.35C293.8 241.51 235.32 239.58 234.78 238.93C234.03 238.02 244.43 177.26 254.83 164.39C257.43 161.18 266.66 157.39 272.24 164.01C281.53 175 294.47 240.8 293.95 241.35Z" fill="#EBEBEB"/>
<path d="M257.8 172.09C260.33 172.59 266.35 168.62 269.03 164.91C269.21 164.65 269.15 161.72 269.24 158.16C269.31 156 269.43 153.6 269.7 151.41C269.76 150.96 268.13 151.6 268.13 151.6L265.22 151.93L255.58 153.04C256.023 155.871 256.117 158.746 255.86 161.6C255.818 161.899 255.748 162.194 255.65 162.48C255.65 162.48 255.65 162.57 255.65 162.63C255.13 164.3 253.83 171.31 257.8 172.09Z" fill="#EB9481"/>
<path d="M255.65 162.48C255.65 162.48 255.65 162.57 255.65 162.63C256.109 162.751 256.577 162.835 257.05 162.88C266.3 163.82 268.92 152.22 268.92 152.22L265.25 151.93L255.61 153.04C256.053 155.871 256.147 158.746 255.89 161.6C255.839 161.9 255.758 162.195 255.65 162.48Z" fill="#263238"/>
<path d="M254.26 125.93C254.26 125.93 249.6 127.81 248.7 132.51C247.8 137.21 248.83 142.15 249.23 142.4C249.63 142.65 254.26 125.93 254.26 125.93Z" fill="#263238"/>
<path d="M272.25 132.91C273.73 137.81 271.11 151.96 267.62 155.11C262.55 159.67 254.28 160.11 250.41 154C246.66 148.11 250.41 129.73 254.3 126.87C260 122.66 270.06 125.67 272.25 132.91Z" fill="#EB9481"/>
<path d="M260.07 140.82C260.07 140.82 260.13 140.88 260.12 140.92C259.91 141.86 259.82 142.98 260.62 143.46C260.62 143.46 260.62 143.53 260.62 143.52C259.58 143.16 259.71 141.68 260.07 140.82Z" fill="#263238"/>
<path d="M261.11 140C262.66 140.18 262.19 143.27 260.75 143.1C259.31 142.93 259.81 139.84 261.11 140Z" fill="#263238"/>
<path d="M254.39 139.7C254.39 139.7 254.31 139.7 254.3 139.78C254.19 140.78 253.89 141.78 252.98 142.01V142.06C254.06 142.08 254.43 140.64 254.39 139.7Z" fill="#263238"/>
<path d="M253.69 138.57C252.17 138.22 251.57 141.29 252.98 141.62C254.39 141.95 255 138.87 253.69 138.57Z" fill="#263238"/>
<path d="M262.55 138.76C262.16 138.58 261.779 138.38 261.41 138.16C260.98 137.92 260.61 137.78 260.41 137.32C260.356 137.184 260.349 137.034 260.389 136.893C260.428 136.752 260.513 136.628 260.63 136.54C260.889 136.405 261.18 136.342 261.472 136.357C261.764 136.373 262.047 136.467 262.29 136.63C262.839 136.875 263.274 137.318 263.51 137.87C263.558 138.001 263.566 138.144 263.533 138.28C263.5 138.416 263.428 138.539 263.326 138.634C263.223 138.729 263.095 138.792 262.957 138.814C262.819 138.836 262.677 138.818 262.55 138.76Z" fill="#263238"/>
<path d="M252.8 137.2C253.226 137.182 253.65 137.139 254.07 137.07C254.527 137.089 254.977 136.955 255.35 136.69C255.451 136.585 255.515 136.45 255.531 136.305C255.547 136.161 255.515 136.015 255.44 135.89C255.252 135.665 255.007 135.495 254.731 135.398C254.455 135.301 254.157 135.281 253.87 135.34C253.27 135.359 252.7 135.601 252.27 136.02C252.18 136.122 252.121 136.248 252.1 136.383C252.08 136.518 252.099 136.656 252.155 136.781C252.21 136.905 252.301 137.011 252.416 137.086C252.53 137.16 252.664 137.2 252.8 137.2Z" fill="#263238"/>
<path d="M259.19 149.79C258.93 149.98 258.65 150.26 258.3 150.23C257.94 150.175 257.598 150.038 257.3 149.83C257.3 149.83 257.23 149.83 257.25 149.83C257.358 150.038 257.52 150.212 257.719 150.335C257.918 150.459 258.146 150.526 258.38 150.53C258.586 150.515 258.781 150.437 258.941 150.306C259.1 150.175 259.215 149.999 259.27 149.8C259.27 149.8 259.23 149.77 259.19 149.79Z" fill="#263238"/>
<path d="M258.62 146.77C258.32 147.114 257.952 147.391 257.538 147.584C257.125 147.777 256.676 147.881 256.22 147.89C255.822 147.906 255.425 147.862 255.04 147.76C254.964 147.749 254.891 147.729 254.82 147.7C254.751 147.689 254.684 147.669 254.62 147.64C254.571 147.623 254.529 147.59 254.5 147.547C254.471 147.503 254.457 147.452 254.46 147.4C254.46 147.4 254.46 147.34 254.46 147.3V147.21C254.55 146.47 254.79 145.36 254.79 145.36C254.5 145.45 253.04 145.86 253.12 145.48C253.715 142.168 254.643 138.925 255.89 135.8C255.89 135.7 256.09 135.8 256.06 135.85C255.53 138.92 254.47 141.85 253.88 144.93C254.405 144.786 254.946 144.709 255.49 144.7C255.59 144.75 254.98 146.84 254.97 147.18C255.565 147.334 256.186 147.367 256.794 147.276C257.402 147.185 257.986 146.972 258.51 146.65C258.63 146.63 258.69 146.7 258.62 146.77Z" fill="#263238"/>
<path d="M255.53 147.46C255.858 148.048 256.329 148.543 256.9 148.9C257.204 149.07 257.552 149.147 257.9 149.12C258.69 149.04 258.82 148.34 258.77 147.72C258.743 147.38 258.675 147.044 258.57 146.72C257.659 147.278 256.596 147.537 255.53 147.46Z" fill="#263238"/>
<path d="M256.9 148.9C257.204 149.07 257.552 149.147 257.9 149.12C258.69 149.04 258.82 148.34 258.77 147.72C258.372 147.684 257.973 147.78 257.635 147.993C257.297 148.207 257.039 148.525 256.9 148.9Z" fill="#FF9BBC"/>
<path d="M271 144.44C269.38 144.68 268.33 139.74 268.1 137.87C267.9 136.22 268.17 131.13 268.15 130.78C268.13 130.43 260.71 134.15 256.98 132.4C253.25 130.65 250.73 127.26 250.93 125.61C251.13 123.96 256.93 121.14 261.2 121.61C265.47 122.08 270.39 127.19 270.39 127.19C269.828 126.303 269.337 125.374 268.92 124.41C269.631 124.689 270.262 125.141 270.756 125.724C271.25 126.306 271.591 127.003 271.75 127.75C271.75 127.75 271.6 125.24 271.81 125.23C272.02 125.22 273.81 127.62 273.08 129.12C273.08 129.12 275.19 131.61 275.08 133.96C274.97 136.31 272.95 144.17 271 144.44Z" fill="#263238"/>
<path d="M254.37 131.15C255.427 131.956 256.6 132.597 257.85 133.05C259.268 133.405 260.752 133.405 262.17 133.05C263.582 132.738 264.933 132.198 266.17 131.45C267.28 130.79 268.29 129.96 269.45 129.45C269.74 129.31 269.98 129.73 269.78 129.95C267.655 132.129 264.885 133.567 261.88 134.05C260.484 134.279 259.053 134.14 257.728 133.647C256.402 133.154 255.227 132.325 254.32 131.24C254.32 131.24 254.35 131.14 254.37 131.15Z" fill="#263238"/>
<path d="M269.2 144.44C269.2 144.44 272.5 139.93 274.55 141.12C276.6 142.31 274.05 148.89 271.55 149.74C271.242 149.871 270.911 149.938 270.577 149.937C270.242 149.936 269.912 149.868 269.604 149.737C269.297 149.605 269.02 149.412 268.788 149.171C268.557 148.929 268.378 148.643 268.26 148.33L269.2 144.44Z" fill="#EB9481"/>
<path d="M273.77 143C273.77 143 273.77 143 273.77 143.06C272.978 143.435 272.273 143.971 271.7 144.634C271.126 145.297 270.697 146.072 270.44 146.91C270.544 146.742 270.683 146.598 270.848 146.488C271.013 146.379 271.199 146.306 271.395 146.274C271.59 146.243 271.79 146.254 271.981 146.307C272.171 146.36 272.348 146.453 272.5 146.58C272.508 146.584 272.516 146.59 272.521 146.598C272.526 146.606 272.528 146.616 272.528 146.625C272.528 146.634 272.526 146.644 272.521 146.652C272.516 146.66 272.508 146.666 272.5 146.67C272.201 146.57 271.879 146.565 271.576 146.654C271.274 146.744 271.007 146.924 270.81 147.17C270.486 147.586 270.208 148.035 269.98 148.51C269.89 148.66 269.62 148.57 269.68 148.39C269.66 146.17 271.43 143.15 273.77 143Z" fill="#263238"/>
<path d="M255.45 161.24L258.45 169.73L269.29 159.61L272.09 163.13C272.09 163.13 261.21 179.48 261.18 178.72L258.04 171.37L252.86 176.17L253.8 163.61L255.45 161.24Z" fill="#EBEBEB"/>
<path d="M253 169.94C253.23 167.87 253.4 165.78 253.72 163.72C253.72 163.65 253.85 163.62 253.86 163.72C254.19 165.72 253.29 173.65 253.21 175.55C253.42 175.34 258 171.34 258.04 171.4C258.74 172.58 261.04 177.93 261.19 178.4C262.91 175.8 269.49 166.4 271.5 163.93C271.51 163.916 271.525 163.907 271.542 163.904C271.559 163.9 271.576 163.903 271.591 163.912C271.606 163.921 271.617 163.934 271.622 163.95C271.627 163.967 271.627 163.984 271.62 164C270.08 166.76 261.37 179.47 261.25 179.42C260.024 176.893 258.933 174.302 257.98 171.66C257.19 172.54 252.55 177.08 252.55 176.77C252.579 174.487 252.73 172.207 253 169.94Z" fill="#263238"/>
<path d="M257.63 172.76C257.63 172.76 253.63 163.19 252.34 166.45C251.935 167.307 251.709 168.237 251.675 169.184C251.64 170.132 251.799 171.076 252.14 171.96C252.14 171.96 250.02 175.46 251.14 176.45C252.26 177.44 257.14 175.86 257.37 174.93C257.526 174.217 257.613 173.49 257.63 172.76Z" fill="#3B2D85"/>
<path opacity="0.1" d="M257.63 172.76C257.597 173.488 257.493 174.212 257.32 174.92C257.18 175.37 255.98 175.97 254.64 176.36C254.465 175.44 254.375 174.506 254.37 173.57C254.37 172.42 255.87 171.01 256.56 170.4C257.19 171.7 257.63 172.76 257.63 172.76Z" fill="#050400"/>
<path d="M259.3 173.05C259.3 173.05 268.36 164.77 269.06 168.57C269.309 169.579 269.282 170.636 268.981 171.63C268.68 172.624 268.116 173.519 267.35 174.22C267.35 174.22 269.09 178.54 267.23 179.15C265.37 179.76 259.01 176.41 258.97 175.37C258.976 174.585 259.087 173.805 259.3 173.05Z" fill="#3B2D85"/>
<path opacity="0.1" d="M261.82 174.89C261.701 175.68 261.388 176.429 260.91 177.07C259.79 176.4 258.98 175.74 258.96 175.36C258.968 174.581 259.082 173.808 259.3 173.06C259.3 173.06 259.9 172.51 260.79 171.77C261.442 172.681 261.801 173.77 261.82 174.89Z" fill="#050400"/>
<path d="M260.77 174.57C260.691 175.114 260.452 175.623 260.084 176.031C259.716 176.44 259.235 176.73 258.702 176.866C258.169 177.001 257.608 176.975 257.09 176.791C256.572 176.607 256.119 176.274 255.791 175.833C255.462 175.392 255.271 174.864 255.243 174.315C255.214 173.766 255.349 173.22 255.631 172.748C255.912 172.276 256.327 171.897 256.824 171.661C257.32 171.424 257.876 171.341 258.42 171.42C259.149 171.526 259.806 171.918 260.247 172.509C260.688 173.099 260.876 173.841 260.77 174.57Z" fill="#3B2D85"/>
<path d="M281.53 171.89C295.3 191 317.77 238 320.61 244C322.55 248.05 295.16 255.58 294.26 252.64C293.11 248.86 278.19 192.64 273.26 175.08C270.58 165.37 275.56 163.61 281.53 171.89Z" fill="#EB9481"/>
<path d="M294.26 252.62C295.12 254.96 298.05 264.94 300.1 266.19C302.15 267.44 312.89 267.19 318.31 267.19C323.73 267.19 324.79 265.68 324.7 263.82C324.61 261.96 313.24 261.6 313.24 261.6C313.24 261.6 328.42 265.95 332.24 266.66C336.06 267.37 344.85 269.59 346.13 266.42C346.7 265 344.29 263.55 344.29 263.55C344.29 263.55 347.98 264.63 348.57 262.79C349.24 260.71 346.31 259.56 346.31 259.56C346.31 259.56 348.61 260.02 348.66 258.32C348.78 254.52 334.35 252.65 334.35 252.65C334.35 252.65 345.4 258.03 345.76 254.92C346.25 250.63 323.59 245.92 321.24 244.04C319.697 242.739 318.415 241.158 317.46 239.38L294.26 252.62Z" fill="#EB9481"/>
<path d="M324.62 264.73C324.654 264.464 324.624 264.195 324.534 263.943C324.443 263.691 324.295 263.464 324.1 263.28C323.713 262.922 323.266 262.634 322.78 262.43C321.782 261.997 320.743 261.662 319.68 261.43C317.55 260.89 315.36 260.51 313.18 259.94C315.433 259.91 317.68 260.162 319.87 260.69C320.985 260.95 322.059 261.364 323.06 261.92C323.575 262.207 324.028 262.595 324.39 263.06C324.567 263.296 324.681 263.573 324.721 263.865C324.761 264.157 324.726 264.455 324.62 264.73Z" fill="#263238"/>
<path d="M344.29 263.52C342.73 263.14 341.19 262.7 339.65 262.26C338.11 261.82 336.59 261.34 335.06 260.88L330.49 259.45C328.96 258.97 327.44 258.5 325.9 258.04C327.497 258.214 329.08 258.495 330.64 258.88C332.21 259.24 333.75 259.69 335.29 260.15C336.83 260.61 338.34 261.15 339.84 261.7C341.34 262.25 342.83 262.84 344.29 263.52Z" fill="#263238"/>
<path d="M329.57 254.24C331.043 254.339 332.506 254.543 333.95 254.85C335.395 255.142 336.823 255.51 338.23 255.95C339.638 256.389 341.02 256.906 342.37 257.5C343.728 258.069 345.041 258.737 346.3 259.5C344.91 259.01 343.55 258.5 342.16 258.02C340.77 257.54 339.4 257.07 338 256.65C336.6 256.23 335.21 255.8 333.81 255.39C332.41 254.98 331 254.63 329.57 254.24Z" fill="#263238"/>
<path d="M331.8 250.62C334.188 250.801 336.541 251.295 338.8 252.09C341.066 252.836 343.222 253.882 345.21 255.2C342.97 254.4 340.78 253.56 338.55 252.81C336.32 252.06 334.06 251.35 331.8 250.62Z" fill="#263238"/>
<path d="M321.47 241.36L292.53 252.92C292.53 252.92 273.41 181.3 272.06 173.29C270.71 165.28 272.52 159.7 281.14 170.06C287.81 178.08 321.47 241.36 321.47 241.36Z" fill="#EBEBEB"/>
<path d="M292.33 244.89C294.94 243.97 302.72 240.89 304.82 240.16C308.9 238.7 313 237.16 317.16 235.96C317.16 235.96 317.22 236.02 317.16 236.03C313.16 237.86 309.02 239.38 304.92 240.9C302.92 241.65 294.45 244.56 292.41 245.12C292.27 245.16 292.18 245 292.33 244.89Z" fill="#263238"/>
<path d="M280.85 208.63C280.47 206.54 280.02 204.47 279.55 202.41C279.08 200.35 278.55 198.29 278.06 196.23C277.57 194.17 276.99 192.14 276.41 190.1C275.83 188.06 275.23 186.04 274.55 184.02C274.93 186.11 275.38 188.18 275.85 190.25C276.32 192.32 276.85 194.36 277.34 196.42C277.83 198.48 278.41 200.51 279 202.55C279.59 204.59 280.17 206.62 280.85 208.63Z" fill="#263238"/>
<path d="M276.38 191.16C276.107 190.343 275.772 189.547 275.38 188.78C275.19 188.4 275 188.01 274.79 187.64C274.58 187.27 274.37 186.9 274.12 186.53C274.265 187.389 274.538 188.222 274.93 189C275.31 189.784 275.798 190.511 276.38 191.16Z" fill="#263238"/>
<path d="M82.54 101.91H381.69C363.79 71.1 360.18 46.31 360.18 46.31H104.07C104.07 46.31 100.46 71.1 82.54 101.91Z" fill="#F8A41E"/>
<path d="M319.66 46.31C319.91 51.2307 320.424 56.1344 321.2 61C321.55 63.4 322.1 65.77 322.56 68.14C322.81 69.33 323.15 70.49 323.44 71.67C323.73 72.85 324.03 74.03 324.44 75.17C325.788 79.8258 327.422 84.3944 329.33 88.85C330.33 91.08 331.33 93.29 332.33 95.46C333.33 97.63 334.61 99.75 335.87 101.81V101.91V101.97H358.37C356.96 99.97 355.7 97.89 354.47 95.8C353.24 93.71 351.99 91.5 350.89 89.27C348.629 84.8358 346.642 80.2672 344.94 75.59C343.222 70.9269 341.848 66.1441 340.83 61.28C339.821 56.3677 339.262 51.3737 339.16 46.36L319.66 46.31Z" fill="#EBEBEB"/>
<path d="M282.29 46.31C282.44 48.67 282.54 51.15 282.64 53.47L283.07 60.47C283.47 65.14 283.74 69.8 284.34 74.47C284.61 76.79 284.93 79.1 285.24 81.47C285.55 83.84 285.95 86.09 286.38 88.37C287.189 92.9628 288.363 97.4838 289.89 101.89V102H312.36C311.191 99.9597 310.149 97.849 309.24 95.68C308.24 93.46 307.43 91.23 306.69 88.96C305.191 84.3883 303.985 79.7254 303.08 75C302.68 72.65 302.23 70.29 301.96 67.92C301.81 66.73 301.62 65.55 301.52 64.36L301.23 60.78C301.12 59.61 301.06 58.4 301.03 57.21L300.9 53.63C300.9 51.24 300.9 48.7 301.01 46.33L282.29 46.31Z" fill="#EBEBEB"/>
<path d="M242.32 46.31C242.52 48.9 242.63 51.63 242.8 54.21L243.14 62C243.35 67.15 243.44 72.33 243.6 77.49C243.76 82.65 243.79 87.83 243.79 92.99C243.79 95.99 243.79 98.99 243.79 101.99H266.39C265.94 99.71 265.63 97.43 265.32 95.14C265.01 92.85 264.71 90.54 264.5 88.22C264.09 83.62 263.7 78.97 263.55 74.34C263.4 69.71 263.23 65.08 263.31 60.43C263.31 58.11 263.38 55.8 263.45 53.43C263.52 51.06 263.64 48.66 263.79 46.33L242.32 46.31Z" fill="#EBEBEB"/>
<path d="M220.47 101.92C220.47 98.92 220.47 95.92 220.47 92.92C220.47 87.76 220.6 82.59 220.66 77.42C220.72 72.25 220.91 67.08 221.12 61.93L221.46 54.18C221.63 51.6 221.74 48.87 221.95 46.28H200.5C200.65 48.61 200.74 51.07 200.84 53.38C200.94 55.69 200.96 58.01 200.98 60.38C201.06 65.03 200.91 69.66 200.74 74.29C200.57 78.92 200.2 83.57 199.79 88.17C199.583 90.49 199.313 92.7967 198.98 95.09C198.66 97.38 198.35 99.66 197.9 101.94L220.47 101.92Z" fill="#EBEBEB"/>
<path d="M174.33 101.92V101.86C175.85 97.4521 177.02 92.9315 177.83 88.34C178.26 86.06 178.63 83.74 178.97 81.44C179.31 79.14 179.6 76.81 179.87 74.44C180.47 69.81 180.74 65.15 181.14 60.44L181.57 53.44C181.67 51.12 181.77 48.64 181.92 46.28H163.2C163.27 48.65 163.32 51.19 163.31 53.58L163.18 57.16C163.18 58.35 163.09 59.56 162.98 60.73L162.69 64.31C162.59 65.5 162.4 66.68 162.25 67.87C161.98 70.24 161.53 72.6 161.13 74.95C160.223 79.6552 159.017 84.2979 157.52 88.85C156.78 91.12 155.93 93.35 154.97 95.57C154.061 97.739 153.019 99.8497 151.85 101.89L174.33 101.92Z" fill="#EBEBEB"/>
<path d="M128.31 101.92V101.86L128.36 101.76C129.62 99.7 130.79 97.58 131.9 95.41C133.01 93.24 133.97 91.03 134.9 88.8C136.813 84.3461 138.446 79.7772 139.79 75.12C140.16 73.98 140.46 72.8 140.79 71.62C141.12 70.44 141.42 69.28 141.67 68.09C142.13 65.72 142.67 63.35 143.03 60.95C143.804 56.101 144.318 51.214 144.57 46.31H125.07C124.968 51.3237 124.409 56.3177 123.4 61.23C122.382 66.0941 121.008 70.8769 119.29 75.54C117.572 80.2184 115.568 84.787 113.29 89.22C112.19 91.45 110.98 93.62 109.71 95.75C108.44 97.88 107.22 99.92 105.81 101.92H128.31Z" fill="#EBEBEB"/>
<path d="M82.55 101.91H381.68V113.52H82.55V101.91Z" fill="#F8A41E"/>
<path d="M335.68 113.51H358.69L358.35 101.92H336.02L335.68 113.51Z" fill="#EBEBEB"/>
<path d="M289.66 113.51H312.67L312.32 101.92H290L289.66 113.51Z" fill="#EBEBEB"/>
<path d="M243.63 113.51H266.64L266.3 101.92H243.98L243.63 113.51Z" fill="#EBEBEB"/>
<path d="M197.61 113.51H220.63L220.28 101.92H197.95L197.61 113.51Z" fill="#EBEBEB"/>
<path d="M151.94 101.92H174.26L174.6 113.51H151.6L151.94 101.92ZM151.87 110.74V110.9V110.83C151.866 110.8 151.866 110.77 151.87 110.74Z" fill="#EBEBEB"/>
<path d="M151.83 110.74V110.9V110.83C151.826 110.8 151.826 110.77 151.83 110.74Z" fill="#FFC727"/>
<path d="M105.91 101.92H128.24L128.58 113.51H105.58L105.91 101.92ZM105.86 110.74H105.8V110.91C105.8 110.91 105.8 110.91 105.8 110.83C105.816 110.798 105.837 110.768 105.86 110.74Z" fill="#EBEBEB"/>
<path d="M105.8 110.74V110.91C105.8 110.91 105.8 110.91 105.8 110.83C105.816 110.798 105.837 110.768 105.86 110.74H105.8Z" fill="#FFC727"/>
<g opacity="0.1">
<path d="M339.16 46.31C339.262 51.3237 339.821 56.3177 340.83 61.23C341.848 66.0941 343.222 70.8769 344.94 75.54C346.642 80.2172 348.629 84.7858 350.89 89.22C351.99 91.45 353.2 93.62 354.47 95.75C355.74 97.88 356.96 99.92 358.37 101.92C358.37 101.92 358.37 101.92 358.43 101.99C358.427 102.013 358.427 102.037 358.43 102.06V101.92H358.93V101.86L358.88 101.76C356.31 97.57 354.02 93.17 351.88 88.76C349.74 84.35 347.88 79.76 346.09 75.16C344.359 70.5281 342.897 65.8003 341.71 61L340.88 57.4C340.61 56.21 340.45 54.97 340.2 53.76C339.67 51.38 339.54 48.78 339.16 46.31Z" fill="black"/>
<path d="M320.3 61.07C320.898 65.9336 321.881 70.742 323.24 75.45C324.545 80.1731 326.217 84.7871 328.24 89.25C330.205 93.6825 332.575 97.9238 335.32 101.92V101.97V101.88H335.83V101.82V101.72C334.57 99.66 333.4 97.54 332.29 95.37C331.18 93.2 330.22 90.99 329.29 88.76C327.382 84.3044 325.748 79.7358 324.4 75.08C324.03 73.94 323.73 72.76 323.4 71.58C323.07 70.4 322.77 69.24 322.52 68.05C322.06 65.68 321.52 63.31 321.16 60.91C320.386 56.061 319.872 51.174 319.62 46.27C319.454 51.2135 319.681 56.1625 320.3 61.07Z" fill="black"/>
<path d="M242.16 62C242.16 67.18 242.29 72.33 242.35 77.51C242.41 82.69 242.6 87.84 242.82 93.01C242.94 96.01 243.07 99.01 243.23 101.95H243.76C243.76 98.95 243.76 95.95 243.76 92.95C243.76 87.79 243.63 82.62 243.57 77.45C243.51 72.28 243.32 67.11 243.11 61.96L242.77 54.21C242.6 51.63 242.49 48.9 242.29 46.31C242.2 48.9 242.2 51.64 242.15 54.23L242.16 62Z" fill="black"/>
<path d="M220.44 93C220.44 96 220.44 99 220.44 102H221C221.16 99 221.29 96 221.41 93.06C221.63 87.89 221.72 82.73 221.89 77.56C222.06 72.39 222 67.15 222.07 62V54.26C222.02 51.67 222.02 48.93 221.94 46.34C221.73 48.93 221.62 51.66 221.45 54.24L221.11 61.99C220.9 67.14 220.81 72.32 220.65 77.48C220.49 82.64 220.44 87.79 220.44 93Z" fill="black"/>
<path d="M263.52 74.27C263.67 78.9 264.06 83.55 264.47 88.15C264.683 90.47 264.957 92.7766 265.29 95.07C265.6 97.36 265.91 99.64 266.36 101.92H266.9V101.86C266.29 97.29 265.9 92.67 265.57 88.06C265.24 83.45 265 78.84 264.72 74.21C264.44 69.58 264.37 64.98 264.17 60.36L263.76 46.36C263.61 48.69 263.52 51.15 263.42 53.46C263.32 55.77 263.3 58.09 263.28 60.46C263.2 65 263.35 69.64 263.52 74.27Z" fill="black"/>
<path d="M282.1 53.48C282.1 55.84 282.1 58.18 282.18 60.53C282.3 65.22 282.64 69.9 283.18 74.53C283.657 79.2057 284.384 83.8524 285.36 88.45C285.82 90.76 286.41 93.04 287.07 95.3C287.688 97.5443 288.47 99.7402 289.41 101.87V101.81H289.92V101.7C288.393 97.2938 287.219 92.7728 286.41 88.18C285.98 85.9 285.61 83.58 285.27 81.28C284.93 78.98 284.64 76.65 284.37 74.28C283.77 69.65 283.5 64.99 283.1 60.28L282.67 53.28C282.57 50.96 282.47 48.48 282.32 46.12C282.2 48.67 282.15 51.15 282.1 53.48Z" fill="black"/>
<path d="M300.9 53.61L301 57.19C301 58.38 301.09 59.59 301.2 60.76L301.49 64.34C301.59 65.53 301.78 66.71 301.93 67.9C302.2 70.27 302.65 72.63 303.05 74.98C303.957 79.6852 305.163 84.3279 306.66 88.88C307.4 91.15 308.25 93.38 309.21 95.6C310.119 97.769 311.161 99.8797 312.33 101.92C312.333 101.943 312.333 101.967 312.33 101.99C312.33 101.99 312.33 101.99 312.33 102.04V101.92H312.84V101.86V101.78C310.769 97.5129 309.047 93.0851 307.69 88.54C306.26 84.01 305.21 79.4 304.22 74.75C303.23 70.1 302.61 65.39 302.07 60.69C301.74 58.33 301.66 55.96 301.42 53.59C301.18 51.22 301.15 48.68 300.96 46.31C300.94 48.68 300.89 51.22 300.9 53.61Z" fill="black"/>
<path d="M105.31 101.92H105.8V102.06C105.803 102.037 105.803 102.013 105.8 101.99C105.8 101.99 105.8 101.99 105.86 101.92C107.27 99.92 108.53 97.84 109.76 95.75C110.99 93.66 112.24 91.45 113.34 89.22C115.618 84.787 117.622 80.2184 119.34 75.54C121.058 70.8769 122.432 66.0941 123.45 61.23C124.459 56.3177 125.018 51.3237 125.12 46.31C124.74 48.78 124.61 51.38 124.12 53.79C123.87 55 123.71 56.24 123.44 57.43L122.61 61.03C121.425 65.8132 119.966 70.5243 118.24 75.14C116.47 79.74 114.62 84.31 112.45 88.74C110.28 93.17 108.01 97.57 105.45 101.74V101.84L105.31 101.92Z" fill="black"/>
<path d="M128.31 101.92H128.82V102.01V101.96C131.569 97.9662 133.939 93.7244 135.9 89.29C137.959 84.8171 139.664 80.1896 141 75.45C143.727 65.9871 144.935 56.1515 144.58 46.31C144.317 51.2314 143.789 56.1352 143 61C142.65 63.4 142.1 65.77 141.64 68.14C141.39 69.33 141.05 70.49 140.76 71.67C140.47 72.85 140.17 74.03 139.76 75.17C138.416 79.8272 136.783 84.3961 134.87 88.85C133.87 91.08 132.87 93.29 131.87 95.46C130.87 97.63 129.59 99.75 128.33 101.81L128.28 101.91L128.31 101.92Z" fill="black"/>
<path d="M197.33 101.86V101.92H197.87C198.32 99.64 198.63 97.36 198.95 95.07C199.27 92.78 199.55 90.47 199.76 88.15C200.17 83.55 200.56 78.9 200.71 74.27C200.86 69.64 201 65 200.95 60.36C200.95 58.04 200.88 55.73 200.81 53.36C200.74 50.99 200.62 48.59 200.47 46.26L200.06 60.26C199.86 64.88 199.77 69.51 199.51 74.11C199.25 78.71 199.04 83.35 198.66 87.96C198.28 92.57 197.94 97.29 197.33 101.86Z" fill="black"/>
<path d="M174.33 101.92H174.85V101.98C175.79 99.8502 176.572 97.6543 177.19 95.41C177.85 93.15 178.44 90.87 178.9 88.56C179.876 83.9624 180.603 79.3157 181.08 74.64C181.58 69.96 181.92 65.28 182.08 60.64C182.08 58.29 182.16 55.95 182.16 53.59C182.16 51.23 182.06 48.78 181.97 46.42C181.82 48.78 181.72 51.26 181.62 53.58L181.19 60.58C180.79 65.25 180.52 69.91 179.92 74.58C179.65 76.9 179.33 79.21 179.02 81.58C178.71 83.95 178.31 86.2 177.88 88.48C177.07 93.0715 175.9 97.5921 174.38 102V102.06L174.33 101.92Z" fill="black"/>
<path d="M151.32 101.92H151.83V102.04C151.83 102.04 151.83 102.04 151.83 101.99C151.827 101.967 151.827 101.943 151.83 101.92C153.016 99.881 154.075 97.7702 155 95.6C156 93.38 156.81 91.15 157.55 88.88C159.043 84.3342 160.245 79.6982 161.15 75C161.55 72.65 162 70.29 162.27 67.92C162.42 66.73 162.61 65.55 162.71 64.36L163 60.76C163.11 59.59 163.17 58.38 163.2 57.19L163.33 53.61C163.33 51.22 163.33 48.68 163.22 46.31C163.03 48.68 162.96 51.22 162.77 53.59C162.58 55.96 162.44 58.33 162.11 60.69C161.57 65.39 160.88 70.1 159.96 74.75C159.04 79.4 157.96 84.01 156.49 88.54C155.133 93.0851 153.411 97.5129 151.34 101.78V101.86L151.32 101.92Z" fill="black"/>
</g>
<g opacity="0.1">
<path d="M174.85 110.74V110.86C174.85 110.86 174.85 110.86 174.85 110.79C174.849 110.773 174.849 110.757 174.85 110.74Z" fill="black"/>
<path d="M151.8 110.9V110.83C151.796 110.8 151.796 110.77 151.8 110.74V110.9Z" fill="black"/>
<path d="M128.82 110.74L128.77 110.91C128.77 110.91 128.77 110.84 128.82 110.81V110.74Z" fill="black"/>
<path d="M105.76 110.91C105.76 110.91 105.76 110.91 105.76 110.83C105.776 110.798 105.797 110.768 105.82 110.74H105.76V110.91Z" fill="black"/>
<path d="M358.35 101.92L358.69 113.51L359.03 101.92H358.35Z" fill="black"/>
<path d="M335.34 101.92L335.68 113.51L336.02 101.92H335.34Z" fill="black"/>
<path d="M312.32 101.92L312.67 113.51L313.01 101.92H312.32Z" fill="black"/>
<path d="M289.32 101.92L289.66 113.51L290 101.92H289.32Z" fill="black"/>
<path d="M266.3 101.92L266.64 113.51L266.99 101.92H266.3Z" fill="black"/>
<path d="M243.29 101.92L243.63 113.51L243.98 101.92H243.29Z" fill="black"/>
<path d="M220.28 101.92L220.63 113.51L220.97 101.92H220.28Z" fill="black"/>
<path d="M197.27 101.92L197.61 113.51L197.95 101.92H197.27Z" fill="black"/>
<path d="M174.26 101.92L174.6 113.51L174.94 101.92H174.26Z" fill="black"/>
<path d="M151.25 101.92L151.59 113.51L151.94 101.92H151.25Z" fill="black"/>
<path d="M128.24 101.92L128.58 113.51L128.92 101.92H128.24Z" fill="black"/>
<path d="M105.22 101.92L105.57 113.51L105.91 101.92H105.22Z" fill="black"/>
</g>
<g opacity="0.1">
<path d="M82 101H381.13V112.61H82V101Z" fill="black"/>
</g>
<path d="M348.2 113.52H354.37V268.73H348.2V113.52Z" fill="#455A64"/>
<path d="M348.2 263.13H354.37V268.73H348.2V263.13Z" fill="#37474F"/>
<path d="M109.86 113.52H116.03V268.73H109.86V113.52Z" fill="#455A64"/>
<path d="M109.86 263.13H116.03V268.73H109.86V263.13Z" fill="#37474F"/>
<path d="M102.79 268.05H361.44V386.26H102.79V268.05Z" fill="#37474F"/>
<path d="M232.12 367.88C240.108 367.878 247.916 365.508 254.557 361.068C261.198 356.629 266.373 350.32 269.428 342.94C272.484 335.559 273.282 327.438 271.723 319.604C270.163 311.77 266.316 304.574 260.666 298.926C255.017 293.279 247.821 289.433 239.986 287.875C232.151 286.318 224.031 287.118 216.651 290.175C209.271 293.233 202.964 298.41 198.526 305.052C194.089 311.693 191.72 319.502 191.72 327.49C191.733 338.2 195.994 348.467 203.568 356.039C211.142 363.611 221.41 367.869 232.12 367.88ZM232.12 289.1C239.712 289.102 247.134 291.355 253.446 295.575C259.757 299.794 264.676 305.791 267.581 312.806C270.485 319.821 271.244 327.539 269.761 334.986C268.279 342.432 264.622 349.271 259.252 354.639C253.883 360.007 247.042 363.663 239.596 365.143C232.149 366.624 224.431 365.863 217.416 362.957C210.402 360.051 204.407 355.13 200.189 348.817C195.971 342.504 193.72 335.082 193.72 327.49C193.731 317.31 197.78 307.55 204.979 300.352C212.179 293.155 221.94 289.108 232.12 289.1ZM232.12 351.76C236.92 351.76 241.612 350.337 245.604 347.67C249.595 345.003 252.706 341.213 254.543 336.778C256.379 332.343 256.86 327.463 255.924 322.755C254.987 318.047 252.676 313.723 249.281 310.329C245.887 306.934 241.563 304.623 236.855 303.686C232.147 302.75 227.267 303.231 222.832 305.067C218.397 306.904 214.607 310.015 211.94 314.006C209.273 317.998 207.85 322.69 207.85 327.49C207.858 333.924 210.417 340.093 214.967 344.643C219.517 349.193 225.686 351.752 232.12 351.76ZM232.12 305.22C236.525 305.22 240.83 306.526 244.493 308.973C248.155 311.42 251.009 314.898 252.695 318.968C254.38 323.037 254.821 327.515 253.962 331.835C253.103 336.155 250.982 340.123 247.867 343.237C244.753 346.352 240.785 348.473 236.465 349.332C232.145 350.191 227.667 349.75 223.598 348.065C219.528 346.379 216.05 343.525 213.603 339.863C211.156 336.2 209.85 331.895 209.85 327.49C209.855 321.585 212.203 315.924 216.379 311.749C220.554 307.573 226.215 305.225 232.12 305.22Z" fill="white"/>
<path d="M341.64 323.25C341.64 328.39 341.78 333.51 342.16 338.62C342.39 341.18 342.69 343.73 342.88 346.28C343.07 348.83 343.16 351.4 343.22 353.96C343.32 359.09 343.55 364.21 343.85 369.32C344.15 374.43 344.63 379.55 345.27 384.64H345.37C345.37 379.51 345.23 374.39 344.98 369.27C344.73 364.15 344.3 359.04 343.8 353.94C343.56 351.38 343.35 348.83 343.23 346.27C343.11 343.71 343.12 341.14 343.04 338.58C342.82 333.46 342.41 328.35 341.75 323.26L341.64 323.25Z" fill="#263238"/>
<path d="M352.36 323.55C351.36 328.6 350.71 333.67 350.2 338.77C349.98 341.33 349.84 343.89 349.58 346.44C349.32 348.99 348.96 351.53 348.58 354.06C347.78 359.13 347.12 364.21 346.53 369.3C345.94 374.39 345.53 379.5 345.27 384.63H345.37C346.3 379.58 347.01 374.51 347.66 369.42C348.31 364.33 348.76 359.23 349.15 354.12C349.36 351.56 349.6 349.01 349.92 346.47C350.24 343.93 350.71 341.4 351.08 338.87C351.75 333.78 352.23 328.68 352.46 323.55H352.36Z" fill="#263238"/>
<path d="M362.86 325.7C361.05 330.51 359.48 335.39 358.09 340.32C357.43 342.79 356.84 345.32 356.15 347.76C355.46 350.2 354.66 352.66 353.84 355.09C352.18 359.94 350.64 364.83 349.17 369.74C347.7 374.65 346.41 379.62 345.27 384.62H345.37C347.16 379.81 348.74 374.93 350.26 370.04C351.78 365.15 353.12 360.2 354.39 355.23C355.04 352.75 355.72 350.28 356.48 347.83C357.24 345.38 358.13 342.97 358.94 340.54C360.48 335.65 361.84 330.71 362.94 325.7H362.86Z" fill="#263238"/>
<path d="M372.83 329.64C370.21 334.06 367.83 338.59 365.59 343.21C364.51 345.53 363.5 347.89 362.39 350.21C361.28 352.53 360.07 354.78 358.84 357.03C356.36 361.52 354 366.03 351.7 370.65C349.4 375.27 347.27 379.89 345.27 384.65L345.37 384.7C347.97 380.27 350.37 375.7 352.72 371.19C355.07 366.68 357.24 361.99 359.36 357.32C360.42 354.99 361.52 352.67 362.7 350.4C363.88 348.13 365.17 345.9 366.38 343.65C368.75 339.1 370.95 334.47 372.92 329.73L372.83 329.64Z" fill="#263238"/>
<path d="M382 335.25C378.65 339.15 375.51 343.2 372.52 347.36C371.05 349.46 369.65 351.61 368.15 353.69C366.65 355.77 365.07 357.78 363.47 359.79C360.25 363.79 357.13 367.85 354.07 371.96C351.01 376.07 348.07 380.29 345.32 384.61L345.4 384.67C348.73 380.76 351.89 376.72 354.99 372.67C358.09 368.62 361.04 364.4 363.99 360.16C365.44 358.05 366.92 355.96 368.48 353.92C370.04 351.88 371.69 349.92 373.28 347.92C376.4 343.85 379.37 339.67 382.14 335.35L382 335.25Z" fill="#263238"/>
<path d="M390 342.36C386 345.62 382.23 349.07 378.56 352.64C376.75 354.45 374.99 356.33 373.16 358.12C371.33 359.91 369.41 361.62 367.49 363.31C363.62 366.68 359.85 370.15 356.12 373.67C352.39 377.19 348.8 380.83 345.3 384.6L345.38 384.68C349.33 381.4 353.14 377.97 356.9 374.49C360.66 371.01 364.3 367.4 367.9 363.73C369.7 361.91 371.52 360.1 373.4 358.37C375.28 356.64 377.26 354.99 379.18 353.28C382.95 349.82 386.6 346.22 390.08 342.44L390 342.36Z" fill="#263238"/>
<path d="M396.64 350.76C392.16 353.28 387.83 356.01 383.64 358.89C381.54 360.37 379.49 361.89 377.37 363.35C375.25 364.81 373.07 366.15 370.88 367.48C366.49 370.13 362.17 372.89 357.88 375.71C353.59 378.53 349.42 381.49 345.33 384.59L345.39 384.68C349.85 382.15 354.2 379.43 358.51 376.68C362.82 373.93 367 371 371.16 368C373.24 366.51 375.35 365 377.51 363.67C379.67 362.34 381.9 361.01 384.08 359.67C388.4 356.92 392.62 354.01 396.7 350.89L396.64 350.76Z" fill="#263238"/>
<path d="M401.74 360.19C396.9 361.89 392.15 363.83 387.48 365.93C385.16 367.02 382.87 368.18 380.48 369.23C378.09 370.28 375.76 371.23 373.38 372.17C368.59 374.02 363.86 375.99 359.16 378.02C354.46 380.05 349.82 382.25 345.25 384.59V384.69C350.09 382.96 354.84 381.04 359.57 379.06C364.3 377.08 368.94 374.92 373.57 372.71C375.88 371.6 378.21 370.53 380.57 369.55C382.93 368.57 385.35 367.69 387.73 366.74C392.46 364.74 397.13 362.65 401.73 360.29L401.74 360.19Z" fill="#263238"/>
<path d="M405.13 370.36C400.06 371.19 395.05 372.28 390.13 373.54C387.65 374.2 385.19 374.95 382.71 375.54C380.23 376.13 377.71 376.7 375.2 377.2C370.2 378.2 365.2 379.3 360.2 380.49C355.2 381.68 350.27 383.03 345.37 384.55V384.65C350.44 383.79 355.45 382.73 360.45 381.59C365.45 380.45 370.45 379.15 375.34 377.77C377.81 377.09 380.34 376.44 382.79 375.87C385.24 375.3 387.79 374.87 390.33 374.36C395.33 373.25 400.33 371.96 405.2 370.42L405.13 370.36Z" fill="#263238"/>
<path d="M406.7 381C401.57 380.94 396.44 381.14 391.33 381.52C388.78 381.75 386.23 382.05 383.68 382.24C381.13 382.43 378.56 382.52 376 382.58C370.87 382.68 365.75 382.91 360.63 383.2C355.51 383.49 350.41 383.99 345.32 384.62V384.73C350.46 384.73 355.58 384.59 360.7 384.34C365.82 384.09 370.93 383.66 376.03 383.16C378.58 382.92 381.14 382.71 383.7 382.59C386.26 382.47 388.82 382.48 391.39 382.4C396.51 382.18 401.61 381.77 406.71 381.11L406.7 381Z" fill="#263238"/>
<path d="M406.41 391.68C401.41 390.73 396.28 390.03 391.18 389.52C388.63 389.3 386.07 389.16 383.52 388.9C380.97 388.64 378.43 388.28 375.89 387.9C370.83 387.11 365.75 386.45 360.66 385.9C355.57 385.35 350.45 384.9 345.33 384.63V384.74C350.38 385.67 355.46 386.38 360.54 387.03C365.62 387.68 370.73 388.13 375.85 388.52C378.4 388.73 380.95 388.97 383.5 389.29C386.05 389.61 388.56 390.08 391.1 390.45C396.18 391.11 401.28 391.6 406.42 391.83L406.41 391.68Z" fill="#263238"/>
<path d="M404.26 402.18C399.45 400.37 394.57 398.8 389.64 397.41C387.16 396.75 384.64 396.16 382.2 395.47C379.76 394.78 377.29 393.97 374.86 393.15C370.01 391.49 365.12 389.96 360.21 388.49C355.3 387.02 350.34 385.73 345.33 384.59V384.69C350.15 386.48 355.02 388.06 359.92 389.58C364.82 391.1 369.76 392.44 374.73 393.71C377.21 394.36 379.73 395.03 382.13 395.8C384.53 396.57 386.98 397.45 389.42 398.26C394.3 399.79 399.24 401.16 404.26 402.26V402.18Z" fill="#263238"/>
<path d="M400.32 412.15C395.9 409.53 391.32 407.15 386.75 404.91C384.42 403.83 382.06 402.82 379.75 401.71C377.44 400.6 375.18 399.38 372.93 398.16C368.44 395.68 363.93 393.32 359.31 391.02C354.69 388.72 350.07 386.58 345.31 384.59V384.69C349.73 387.28 354.26 389.69 358.82 392.03C363.38 394.37 368.01 396.56 372.69 398.68C375.02 399.74 377.33 400.84 379.61 402.01C381.89 403.18 384.1 404.48 386.36 405.7C390.91 408.07 395.54 410.27 400.28 412.24L400.32 412.15Z" fill="#263238"/>
<path d="M394.7 421.28C390.81 417.93 386.76 414.79 382.6 411.79C380.5 410.33 378.35 408.92 376.27 407.43C374.19 405.94 372.17 404.35 370.17 402.75C366.17 399.53 362.11 396.41 358 393.35C353.89 390.29 349.67 387.35 345.35 384.59L345.29 384.68C349.2 388.01 353.29 391.16 357.29 394.26C361.29 397.36 365.56 400.32 369.79 403.21C371.9 404.67 373.99 406.15 376.03 407.7C378.07 409.25 380.03 410.92 382.03 412.51C386.1 415.62 390.27 418.6 394.6 421.36L394.7 421.28Z" fill="#263238"/>
<path d="M387.59 429.3C384.33 425.3 380.89 421.53 377.32 417.86C375.5 416.05 373.63 414.29 371.84 412.45C370.05 410.61 368.34 408.71 366.65 406.79C363.28 402.92 359.81 399.15 356.29 395.42C352.77 391.69 349.12 388.09 345.36 384.6L345.28 384.67C348.55 388.67 351.98 392.44 355.46 396.2C358.94 399.96 362.56 403.6 366.22 407.2C368.05 409 369.85 410.82 371.59 412.7C373.33 414.58 374.97 416.56 376.67 418.47C380.14 422.25 383.73 425.9 387.51 429.38L387.59 429.3Z" fill="#263238"/>
<path d="M379.19 436C376.68 431.52 373.95 427.18 371.06 423C369.59 420.9 368.06 418.85 366.61 416.73C365.16 414.61 363.81 412.43 362.48 410.24C359.83 405.85 357.07 401.53 354.25 397.24C351.43 392.95 348.47 388.78 345.36 384.69L345.27 384.75C347.81 389.21 350.53 393.56 353.27 397.87C356.01 402.18 358.97 406.39 361.96 410.55C363.45 412.64 364.91 414.75 366.29 416.91C367.67 419.07 368.95 421.29 370.29 423.48C373.05 427.8 375.96 432.02 379.08 436.1L379.19 436Z" fill="#263238"/>
<path d="M369.77 441.06C368.06 436.22 366.13 431.47 364.03 426.8C362.94 424.47 361.78 422.18 360.73 419.85C359.68 417.52 358.73 415.13 357.79 412.74C355.94 407.96 353.97 403.23 351.94 398.52C349.91 393.81 347.71 389.19 345.37 384.62H345.27C346.99 389.46 348.91 394.21 350.9 398.93C352.89 403.65 355.03 408.31 357.25 412.93C358.35 415.24 359.42 417.57 360.41 419.93C361.4 422.29 362.27 424.71 363.21 427.09C365.21 431.82 367.31 436.48 369.67 441.09L369.77 441.06Z" fill="#263238"/>
<path d="M359.6 444.45C358.76 439.38 357.68 434.37 356.42 429.4C355.75 426.93 355.01 424.47 354.42 421.99C353.83 419.51 353.26 416.99 352.76 414.48C351.76 409.48 350.65 404.48 349.47 399.48C348.29 394.48 346.93 389.55 345.41 384.65H345.31C346.16 389.71 347.23 394.73 348.31 399.73C349.39 404.73 350.76 409.68 352.14 414.62C352.82 417.09 353.47 419.57 354.03 422.07C354.59 424.57 355.03 427.07 355.55 429.61C356.66 434.61 357.95 439.61 359.48 444.48L359.6 444.45Z" fill="#263238"/>
<path d="M349 446C349.06 440.86 348.87 435.74 348.49 430.63C348.26 428.08 347.96 425.53 347.77 422.97C347.58 420.41 347.49 417.86 347.43 415.29C347.33 410.17 347.1 405.05 346.8 399.93C346.5 394.81 346.02 389.71 345.38 384.61H345.28C345.28 389.75 345.42 394.87 345.67 399.99C345.92 405.11 346.35 410.21 346.85 415.32C347.09 417.87 347.3 420.42 347.42 422.98C347.54 425.54 347.53 428.11 347.6 430.67C347.83 435.79 348.24 440.9 348.9 446H349Z" fill="#263238"/>
<path d="M338.28 445.73C339.23 440.68 339.92 435.6 340.44 430.5C340.66 427.95 340.8 425.38 341.06 422.83C341.32 420.28 341.68 417.75 342.06 415.21C342.85 410.15 343.52 405.06 344.11 399.97C344.7 394.88 345.11 389.77 345.37 384.64H345.27C344.34 389.69 343.63 394.77 342.98 399.85C342.33 404.93 341.87 410.04 341.48 415.16C341.28 417.71 341.04 420.26 340.71 422.8C340.38 425.34 339.93 427.87 339.56 430.41C338.89 435.49 338.41 440.59 338.17 445.73H338.28Z" fill="#263238"/>
<path d="M327.78 443.58C329.59 438.77 331.16 433.89 332.55 428.96C333.21 426.48 333.79 423.96 334.49 421.51C335.19 419.06 335.98 416.61 336.8 414.18C338.46 409.33 340 404.44 341.47 399.53C342.94 394.62 344.23 389.66 345.37 384.65H345.27C343.48 389.47 341.89 394.34 340.38 399.24C338.87 404.14 337.52 409.08 336.24 414.05C335.6 416.53 334.92 419.05 334.16 421.45C333.4 423.85 332.51 426.3 331.7 428.73C330.16 433.62 328.8 438.56 327.7 443.58H327.78Z" fill="#263238"/>
<path d="M317.81 439.64C320.43 435.22 322.81 430.64 325.05 426.07C326.13 423.74 327.14 421.38 328.25 419.07C329.36 416.76 330.57 414.5 331.8 412.26C334.28 407.76 336.64 403.26 338.94 398.64C341.24 394.02 343.37 389.39 345.37 384.64L345.27 384.59C342.67 389.02 340.27 393.59 337.92 398.11C335.57 402.63 333.4 407.3 331.28 411.97C330.21 414.31 329.12 416.62 327.94 418.9C326.76 421.18 325.47 423.39 324.26 425.65C321.89 430.2 319.69 434.83 317.72 439.57L317.81 439.64Z" fill="#263238"/>
<path d="M308.68 434C312.02 430.11 315.17 426.06 318.16 421.9C319.63 419.8 321.03 417.65 322.53 415.57C324.03 413.49 325.61 411.47 327.21 409.47C330.43 405.47 333.55 401.41 336.6 397.3C339.65 393.19 342.6 388.96 345.36 384.65L345.28 384.59C341.95 388.5 338.79 392.54 335.69 396.59C332.59 400.64 329.64 404.86 326.74 409.09C325.29 411.2 323.81 413.29 322.25 415.33C320.69 417.37 319.04 419.33 317.45 421.33C314.33 425.4 311.36 429.57 308.59 433.9L308.68 434Z" fill="#263238"/>
<path d="M300.66 426.91C304.66 423.65 308.43 420.21 312.1 416.64C313.91 414.82 315.67 412.95 317.5 411.16C319.33 409.37 321.25 407.66 323.17 405.97C327.03 402.59 330.82 399.137 334.54 395.61C338.22 392.05 341.86 388.44 345.36 384.68L345.28 384.6C341.33 387.87 337.52 391.3 333.75 394.78C329.98 398.26 326.36 401.88 322.75 405.54C320.95 407.37 319.13 409.17 317.24 410.91C315.35 412.65 313.39 414.29 311.47 415.99C307.7 419.46 304.04 423.05 300.57 426.83L300.66 426.91Z" fill="#263238"/>
<path d="M294 418.51C298.47 415.99 302.81 413.26 307.05 410.38C309.15 408.91 311.2 407.38 313.32 405.93C315.44 404.48 317.61 403.13 319.8 401.8C324.19 399.15 328.51 396.39 332.8 393.57C337.09 390.75 341.27 387.78 345.36 384.68L345.3 384.59C340.83 387.13 336.49 389.85 332.18 392.59C327.87 395.33 323.66 398.29 319.49 401.28C317.4 402.77 315.3 404.22 313.14 405.61C310.98 407 308.75 408.26 306.57 409.61C302.25 412.37 298.03 415.27 293.95 418.39L294 418.51Z" fill="#263238"/>
<path d="M288.89 409.09C293.74 407.38 298.49 405.45 303.16 403.34C305.48 402.26 307.77 401.1 310.16 400.05C312.55 399 314.87 398.05 317.26 397.11C322.05 395.26 326.78 393.29 331.48 391.26C336.18 389.23 340.82 387.03 345.39 384.69V384.59C340.55 386.31 335.8 388.23 331.07 390.22C326.34 392.21 321.69 394.35 317.07 396.57C314.75 397.67 312.43 398.74 310.07 399.73C307.71 400.72 305.29 401.58 302.91 402.53C298.17 404.53 293.51 406.62 288.91 408.99L288.89 409.09Z" fill="#263238"/>
<path d="M285.51 398.92C290.57 398.08 295.58 397 300.51 395.74C302.99 395.07 305.44 394.33 307.93 393.74C310.42 393.15 312.93 392.58 315.43 392.08C320.43 391.08 325.43 389.97 330.43 388.79C335.43 387.61 340.36 386.24 345.27 384.73V384.63C340.2 385.48 335.19 386.55 330.19 387.68C325.19 388.81 320.24 390.13 315.3 391.51C312.83 392.19 310.3 392.84 307.85 393.4C305.4 393.96 302.85 394.4 300.31 394.92C295.31 396.03 290.31 397.32 285.44 398.85L285.51 398.92Z" fill="#263238"/>
<path d="M283.94 388.31C289.07 388.37 294.19 388.18 299.3 387.8C301.86 387.57 304.41 387.26 306.96 387.07C309.51 386.88 312.08 386.8 314.64 386.74C319.77 386.64 324.89 386.41 330.01 386.11C335.13 385.81 340.23 385.33 345.32 384.69V384.58C340.18 384.58 335.06 384.73 329.94 384.98C324.82 385.23 319.71 385.65 314.61 386.16C312.06 386.4 309.5 386.61 306.94 386.73C304.38 386.85 301.81 386.84 299.25 386.91C294.13 387.14 289.02 387.55 283.93 388.21L283.94 388.31Z" fill="#263238"/>
<path d="M284.23 377.6C289.28 378.55 294.36 379.24 299.46 379.76C302.01 379.98 304.57 380.12 307.12 380.38C309.67 380.64 312.21 380.99 314.74 381.38C319.81 382.17 324.89 382.84 329.98 383.43C335.07 384.02 340.18 384.43 345.31 384.69V384.58C340.25 383.66 335.18 382.94 330.09 382.3C325 381.66 319.9 381.19 314.79 380.8C312.23 380.6 309.68 380.36 307.14 380.03C304.6 379.7 302.07 379.25 299.54 378.88C294.46 378.21 289.35 377.73 284.22 377.49L284.23 377.6Z" fill="#263238"/>
<path d="M286.38 367.1C291.19 368.91 296.07 370.48 301 371.87C303.48 372.53 306 373.11 308.44 373.81C310.88 374.51 313.34 375.3 315.77 376.12C320.63 377.78 325.52 379.32 330.43 380.78C335.34 382.24 340.3 383.55 345.3 384.69V384.59C340.49 382.8 335.62 381.21 330.72 379.7C325.82 378.19 320.88 376.83 315.91 375.56C313.43 374.92 310.96 374.24 308.51 373.48C306.06 372.72 303.66 371.83 301.22 371.02C296.33 369.48 291.39 368.12 286.38 367.02V367.1Z" fill="#263238"/>
<path d="M290.32 357.13C294.74 359.75 299.32 362.13 303.89 364.37C306.21 365.45 308.57 366.46 310.89 367.57C313.21 368.68 315.46 369.89 317.71 371.12C322.2 373.6 326.71 375.96 331.33 378.26C335.95 380.56 340.57 382.69 345.33 384.69V384.59C340.9 381.99 336.33 379.59 331.82 377.24C327.31 374.89 322.62 372.71 317.95 370.6C315.62 369.53 313.3 368.44 311.03 367.26C308.76 366.08 306.53 364.79 304.28 363.57C299.73 361.21 295.1 359.01 290.36 357.03L290.32 357.13Z" fill="#263238"/>
<path d="M295.93 348C299.83 351.34 303.88 354.48 308.04 357.48C310.14 358.95 312.29 360.35 314.37 361.85C316.45 363.35 318.47 364.93 320.47 366.53C324.47 369.75 328.53 372.86 332.64 375.92C336.75 378.98 340.97 381.92 345.29 384.68L345.35 384.59C341.44 381.27 337.4 378.11 333.35 375.01C329.3 371.91 325.08 368.96 320.85 366.06C318.74 364.61 316.64 363.13 314.61 361.57C312.58 360.01 310.61 358.36 308.61 356.77C304.54 353.65 300.36 350.68 296.04 347.91L295.93 348Z" fill="#263238"/>
<path d="M303 340C306.25 344 309.7 347.77 313.27 351.44C315.09 353.25 316.96 355.01 318.75 356.84C320.54 358.67 322.25 360.58 323.94 362.51C327.31 366.37 330.78 370.15 334.3 373.87C337.82 377.59 341.47 381.2 345.23 384.69L345.31 384.62C342.03 380.62 338.6 376.85 335.12 373.09C331.64 369.33 328.03 365.69 324.36 362.09C322.54 360.29 320.74 358.47 319 356.58C317.26 354.69 315.62 352.73 313.92 350.81C310.45 347.03 306.86 343.38 303.07 339.9L303 340Z" fill="#263238"/>
<path d="M311.44 333.32C313.96 337.79 316.69 342.13 319.58 346.37C321.05 348.47 322.58 350.52 324.03 352.64C325.48 354.76 326.83 356.93 328.16 359.12C330.81 363.51 333.57 367.83 336.39 372.12C339.21 376.41 342.17 380.58 345.27 384.68L345.36 384.62C342.83 380.15 340.11 375.81 337.36 371.5C334.61 367.19 331.66 362.98 328.67 358.81C327.18 356.72 325.67 354.61 324.34 352.46C323.01 350.31 321.68 348.07 320.34 345.89C317.58 341.57 314.67 337.35 311.55 333.27L311.44 333.32Z" fill="#263238"/>
<path d="M320.87 328.21C322.57 333.06 324.51 337.81 326.61 342.48C327.7 344.8 328.86 347.09 329.91 349.43C330.96 351.77 331.91 354.14 332.85 356.53C334.7 361.31 336.67 366.05 338.7 370.75C340.73 375.45 342.93 380.09 345.27 384.66H345.37C343.64 379.82 341.72 375.07 339.74 370.34C337.76 365.61 335.61 360.96 333.39 356.34C332.29 354.02 331.22 351.69 330.23 349.34C329.24 346.99 328.37 344.56 327.43 342.18C325.43 337.44 323.33 332.78 320.97 328.18L320.87 328.21Z" fill="#263238"/>
<path d="M331 324.82C331.83 329.89 332.92 334.9 334.18 339.87C334.84 342.35 335.59 344.8 336.18 347.29C336.77 349.78 337.34 352.29 337.84 354.79C338.84 359.79 339.95 364.79 341.13 369.79C342.31 374.79 343.67 379.72 345.19 384.63H345.29C344.43 379.56 343.37 374.55 342.23 369.55C341.09 364.55 339.79 359.6 338.41 354.66C337.73 352.19 337.08 349.66 336.51 347.21C335.94 344.76 335.51 342.21 335 339.67C333.89 334.67 332.6 329.67 331.06 324.8L331 324.82Z" fill="#263238"/>
<path d="M344.253 399.924C335.819 398.917 329.798 391.263 330.805 382.829C331.812 374.395 339.466 368.374 347.9 369.381C356.334 370.388 362.355 378.042 361.348 386.476C360.341 394.91 352.687 400.931 344.253 399.924Z" fill="#263238"/>
<path d="M346.06 450.5C359.086 450.5 371.819 446.637 382.65 439.401C393.48 432.164 401.922 421.878 406.907 409.844C411.891 397.809 413.196 384.567 410.655 371.791C408.113 359.016 401.841 347.281 392.63 338.07C383.419 328.859 371.684 322.587 358.909 320.045C346.133 317.504 332.891 318.809 320.856 323.793C308.822 328.778 298.536 337.22 291.299 348.05C284.063 358.881 280.2 371.614 280.2 384.64C280.221 402.101 287.167 418.84 299.513 431.187C311.86 443.533 328.599 450.479 346.06 450.5ZM346.06 326.24C357.61 326.24 368.901 329.665 378.505 336.082C388.109 342.499 395.594 351.62 400.015 362.291C404.435 372.962 405.591 384.705 403.338 396.033C401.084 407.362 395.522 417.768 387.355 425.935C379.188 434.102 368.782 439.664 357.453 441.918C346.125 444.171 334.382 443.015 323.711 438.595C313.04 434.174 303.919 426.689 297.502 417.085C291.085 407.481 287.66 396.19 287.66 384.64C287.679 369.157 293.837 354.314 304.785 343.365C315.734 332.417 330.577 326.259 346.06 326.24Z" fill="#263238"/>
<path d="M113.44 366.53C113.44 369.92 113.53 373.3 113.78 376.67C113.93 378.35 114.13 380.04 114.25 381.72C114.37 383.4 114.44 385.1 114.48 386.79C114.54 390.17 114.69 393.55 114.89 396.93C115.09 400.31 115.41 403.67 115.83 407.04H115.9C115.9 403.65 115.8 400.27 115.64 396.9C115.48 393.53 115.19 390.15 114.86 386.78C114.7 385.09 114.56 383.41 114.48 381.72C114.4 380.03 114.41 378.34 114.36 376.64C114.21 373.27 113.94 369.89 113.51 366.53H113.44Z" fill="#263238"/>
<path d="M120.51 366.72C119.88 370.05 119.42 373.4 119.08 376.72C118.94 378.4 118.84 380.1 118.67 381.78C118.5 383.46 118.27 385.13 118.01 386.78C117.49 390.12 117.01 393.47 116.66 396.83C116.31 400.19 116 403.57 115.83 406.95H115.9C116.51 403.62 116.98 400.27 117.41 396.95C117.84 393.63 118.14 390.23 118.41 386.85C118.55 385.17 118.71 383.48 118.92 381.85C119.13 380.22 119.44 378.51 119.68 376.85C120.12 373.49 120.44 370.13 120.6 366.74L120.51 366.72Z" fill="#263238"/>
<path d="M127.44 368.14C126.24 371.31 125.21 374.53 124.29 377.79C123.85 379.42 123.47 381.07 123.01 382.7C122.55 384.33 122.01 385.93 121.48 387.54C120.387 390.74 119.363 393.963 118.41 397.21C117.47 400.46 116.58 403.72 115.83 407.02H115.9C117.08 403.85 118.12 400.63 119.12 397.4C120.12 394.17 121.01 390.91 121.85 387.63C122.28 385.99 122.72 384.36 123.23 382.74C123.74 381.12 124.32 379.54 124.85 377.93C125.85 374.71 126.77 371.45 127.51 368.14H127.44Z" fill="#263238"/>
<path d="M134 370.74C132.27 373.66 130.69 376.65 129.22 379.69C128.51 381.23 127.84 382.79 127.11 384.31C126.38 385.83 125.57 387.31 124.76 388.81C123.13 391.81 121.57 394.81 120.05 397.81C118.53 400.81 117.13 403.91 115.81 407.03H115.87C117.59 404.11 119.18 401.12 120.72 398.11C122.26 395.1 123.72 392.04 125.11 388.96C125.81 387.42 126.53 385.89 127.31 384.39C128.09 382.89 128.94 381.39 129.74 379.94C131.3 376.94 132.74 373.88 134.06 370.75L134 370.74Z" fill="#263238"/>
<path d="M140 374.44C137.79 377.02 135.72 379.69 133.74 382.44C132.74 383.83 131.85 385.25 130.86 386.62C129.87 387.99 128.86 389.32 127.77 390.62C125.65 393.25 123.59 395.94 121.57 398.62C119.55 401.3 117.63 404.12 115.79 406.96L115.85 407.01C118.05 404.42 120.13 401.76 122.18 399.07C124.23 396.38 126.18 393.61 128.08 390.81C129.08 389.42 130.02 388.04 131.08 386.7C132.14 385.36 133.2 384.06 134.25 382.7C136.31 380.02 138.25 377.26 140.1 374.41L140 374.44Z" fill="#263238"/>
<path d="M145.33 379.14C142.71 381.29 140.21 383.56 137.78 385.92C136.59 387.12 135.43 388.35 134.22 389.53C133.01 390.71 131.75 391.84 130.48 392.96C127.93 395.18 125.48 397.47 122.98 399.79C120.48 402.11 118.14 404.52 115.84 407.01L115.89 407.06C118.5 404.9 121.01 402.64 123.49 400.34C125.97 398.04 128.38 395.66 130.74 393.24C131.93 392.03 133.13 390.84 134.38 389.7C135.63 388.56 136.92 387.47 138.19 386.34C140.68 384.06 143.09 381.68 145.38 379.19L145.33 379.14Z" fill="#263238"/>
<path d="M149.73 384.68C146.73 386.34 143.91 388.14 141.12 390.05C139.73 391.05 138.38 392.05 136.98 392.99C135.58 393.93 134.15 394.83 132.7 395.71C129.8 397.46 126.95 399.28 124.13 401.14C121.31 403 118.54 404.96 115.84 407.01V407.06C118.79 405.39 121.66 403.6 124.5 401.77C127.34 399.94 130.12 398 132.87 396.03C134.25 395.03 135.64 394.09 137.07 393.18C138.5 392.27 139.96 391.42 141.4 390.53C144.25 388.72 147.04 386.8 149.73 384.74V384.68Z" fill="#263238"/>
<path d="M153.1 390.9C149.9 392.02 146.77 393.3 143.68 394.69C142.15 395.41 140.68 396.17 139.1 396.87C137.52 397.57 135.99 398.19 134.41 398.81C131.25 400.03 128.123 401.313 125.03 402.66C121.94 404.04 118.86 405.46 115.85 407V407.07C119.04 405.93 122.18 404.66 125.29 403.35C128.4 402.04 131.48 400.62 134.53 399.16C136.06 398.43 137.6 397.73 139.16 397.08C140.72 396.43 142.31 395.85 143.89 395.23C147.01 393.93 150.09 392.53 153.1 390.97V390.9Z" fill="#263238"/>
<path d="M155.33 397.61C151.99 398.16 148.68 398.88 145.4 399.71C143.77 400.15 142.15 400.64 140.51 401.06C138.87 401.48 137.22 401.82 135.56 402.15C132.227 402.817 128.923 403.54 125.65 404.32C122.36 405.14 119.09 406 115.85 407V407.07C119.19 406.5 122.5 405.8 125.8 405.07C129.1 404.34 132.37 403.46 135.63 402.55C137.26 402.1 138.89 401.67 140.54 401.3C142.19 400.93 143.86 400.64 145.54 400.3C148.84 399.56 152.12 398.71 155.35 397.7L155.33 397.61Z" fill="#263238"/>
<path d="M156.37 404.61C152.98 404.61 149.6 404.7 146.23 404.95C144.54 405.1 142.86 405.3 141.17 405.43C139.48 405.56 137.8 405.61 136.11 405.65C132.72 405.71 129.34 405.86 125.97 406.06C122.6 406.26 119.22 406.58 115.86 407V407.07C119.25 407.07 122.63 406.98 126.01 406.81C129.39 406.64 132.76 406.36 136.13 406.03C137.81 405.87 139.5 405.73 141.19 405.65C142.88 405.57 144.57 405.58 146.26 405.53C149.64 405.38 153.01 405.12 156.38 404.68L156.37 404.61Z" fill="#263238"/>
<path d="M156.18 411.68C152.85 411.05 149.49 410.59 146.13 410.25C144.44 410.11 142.75 410.02 141.07 409.85C139.39 409.68 137.71 409.44 136.07 409.18C132.73 408.66 129.37 408.18 126.01 407.83C122.65 407.48 119.28 407.17 115.9 407V407.07C119.23 407.68 122.58 408.15 125.9 408.58C129.22 409.01 132.62 409.31 136 409.58C137.68 409.71 139.37 409.87 141 410.08C142.63 410.29 144.35 410.6 146 410.85C149.35 411.29 152.72 411.61 156.11 411.76L156.18 411.68Z" fill="#263238"/>
<path d="M154.76 418.61C151.59 417.41 148.36 416.38 145.11 415.46C143.48 415.03 141.83 414.64 140.2 414.18C138.57 413.72 136.96 413.18 135.36 412.65C132.16 411.56 128.93 410.55 125.69 409.58C122.45 408.61 119.18 407.75 115.87 407V407.07C119.05 408.25 122.27 409.3 125.5 410.3C128.73 411.3 131.99 412.18 135.27 413.02C136.91 413.45 138.54 413.9 140.15 414.4C141.76 414.9 143.36 415.49 144.96 416.02C148.19 417.02 151.45 417.94 154.76 418.68V418.61Z" fill="#263238"/>
<path d="M152.16 425.19C149.24 423.46 146.25 421.88 143.16 420.41C141.63 419.7 140.07 419.03 138.55 418.3C137.03 417.57 135.55 416.77 134.05 415.95C131.083 414.323 128.083 412.757 125.05 411.25C122.05 409.76 118.95 408.32 115.83 407V407.07C118.75 408.78 121.74 410.37 124.74 411.92C127.74 413.47 130.81 414.92 133.9 416.3C135.43 417 136.96 417.73 138.47 418.5C139.98 419.27 141.47 420.13 142.92 420.93C145.92 422.5 148.98 423.93 152.11 425.25L152.16 425.19Z" fill="#263238"/>
<path d="M148.45 431.21C145.883 429.01 143.217 426.927 140.45 424.96C139.07 423.96 137.65 423.06 136.28 422.07C134.91 421.08 133.57 420.07 132.28 418.98C129.65 416.86 126.96 414.8 124.28 412.79C121.6 410.78 118.78 408.79 115.93 407.01V407.06C118.51 409.26 121.18 411.34 123.87 413.39C126.56 415.44 129.33 417.39 132.12 419.29C133.52 420.29 134.9 421.23 136.24 422.29C137.58 423.35 138.88 424.41 140.24 425.46C142.92 427.51 145.68 429.46 148.53 431.3L148.45 431.21Z" fill="#263238"/>
<path d="M143.76 436.51C141.61 433.89 139.34 431.38 136.98 428.96C135.78 427.76 134.54 426.6 133.36 425.39C132.18 424.18 131.06 422.92 129.94 421.65C127.71 419.1 125.42 416.65 123.1 414.15C120.78 411.65 118.37 409.32 115.89 407.01L115.84 407.06C118 409.67 120.26 412.18 122.56 414.67C124.86 417.16 127.24 419.55 129.66 421.92C130.86 423.1 132.05 424.3 133.2 425.55C134.35 426.8 135.43 428.09 136.55 429.36C138.84 431.85 141.21 434.26 143.71 436.55L143.76 436.51Z" fill="#263238"/>
<path d="M138.22 440.9C136.56 437.95 134.75 435.09 132.85 432.29C131.85 430.91 130.85 429.55 129.91 428.15C128.97 426.75 128.07 425.32 127.19 423.87C125.44 420.98 123.62 418.13 121.76 415.3C119.9 412.47 117.94 409.72 115.89 407.02H115.83C117.51 409.97 119.3 412.84 121.13 415.68C122.96 418.52 124.89 421.3 126.86 424.05C127.86 425.43 128.81 426.82 129.72 428.25C130.63 429.68 131.47 431.14 132.36 432.58C134.18 435.43 136.1 438.22 138.16 440.91L138.22 440.9Z" fill="#263238"/>
<path d="M132 444.27C130.873 441.07 129.61 437.933 128.21 434.86C127.49 433.32 126.73 431.81 126.03 430.27C125.33 428.73 124.71 427.16 124.09 425.58C122.87 422.43 121.57 419.3 120.23 416.2C118.89 413.1 117.44 410.04 115.9 407.02H115.83C116.97 410.21 118.23 413.35 119.54 416.47C120.85 419.59 122.27 422.65 123.74 425.71C124.46 427.23 125.17 428.77 125.82 430.33C126.47 431.89 127.05 433.49 127.67 435.06C128.97 438.18 130.37 441.26 131.93 444.27H132Z" fill="#263238"/>
<path d="M125.29 446.51C124.73 443.16 124.02 439.85 123.19 436.58C122.75 434.94 122.26 433.32 121.84 431.68C121.42 430.04 121.08 428.39 120.74 426.73C120.073 423.397 119.35 420.093 118.57 416.82C117.76 413.54 116.9 410.26 115.9 407.03H115.83C116.39 410.37 117.1 413.68 117.83 416.98C118.56 420.28 119.44 423.55 120.35 426.81C120.8 428.44 121.23 430.08 121.6 431.73C121.97 433.38 122.26 435.05 122.6 436.73C123.33 440.03 124.18 443.31 125.2 446.54L125.29 446.51Z" fill="#263238"/>
<path d="M118.29 447.54C118.29 444.15 118.2 440.77 117.95 437.4C117.8 435.72 117.6 434.03 117.47 432.4C117.34 430.77 117.29 429.02 117.25 427.33C117.18 423.94 117.03 420.57 116.83 417.19C116.63 413.81 116.32 410.45 115.9 407.08H115.83C115.83 410.47 115.92 413.85 116.09 417.22C116.26 420.59 116.53 423.97 116.87 427.34C117.03 429.03 117.16 430.71 117.24 432.4C117.32 434.09 117.31 435.78 117.36 437.47C117.51 440.85 117.78 444.23 118.22 447.59L118.29 447.54Z" fill="#263238"/>
<path d="M111.22 447.35C111.84 444.02 112.3 440.67 112.64 437.3C112.79 435.62 112.88 433.92 113.05 432.24C113.22 430.56 113.46 428.88 113.71 427.24C114.24 423.9 114.71 420.54 115.07 417.24C115.43 413.94 115.73 410.5 115.9 407.12H115.83C115.22 410.45 114.75 413.8 114.32 417.12C113.89 420.44 113.59 423.84 113.32 427.22C113.19 428.9 113.03 430.59 112.81 432.27C112.59 433.95 112.3 435.61 112.05 437.27C111.61 440.63 111.29 443.99 111.14 447.38L111.22 447.35Z" fill="#263238"/>
<path d="M104.29 445.93C105.48 442.76 106.52 439.54 107.44 436.28C107.87 434.65 108.26 433 108.72 431.37C109.18 429.74 109.72 428.14 110.24 426.53C111.34 423.33 112.35 420.1 113.32 416.86C114.29 413.62 115.14 410.35 115.9 407.04H115.83C114.65 410.22 113.6 413.44 112.6 416.67C111.6 419.9 110.71 423.16 109.87 426.44C109.45 428.08 109 429.71 108.5 431.33C108 432.95 107.41 434.53 106.88 436.13C105.88 439.36 104.96 442.62 104.22 445.93H104.29Z" fill="#263238"/>
<path d="M97.71 443.33C99.44 440.41 101.02 437.42 102.49 434.33C103.2 432.8 103.86 431.24 104.6 429.72C105.34 428.2 106.13 426.72 106.94 425.22C108.58 422.22 110.13 419.22 111.65 416.22C113.17 413.22 114.58 410.12 115.89 407H115.83C114.12 409.92 112.53 412.91 110.98 415.92C109.43 418.93 107.98 421.98 106.6 425.07C105.89 426.61 105.17 428.14 104.4 429.64C103.63 431.14 102.77 432.64 101.96 434.09C100.4 437.09 98.96 440.15 97.65 443.28L97.71 443.33Z" fill="#263238"/>
<path d="M91.68 439.63C93.89 437.05 95.96 434.38 97.94 431.63C98.94 430.24 99.84 428.82 100.82 427.45C101.8 426.08 102.82 424.75 103.91 423.45C106.04 420.82 108.09 418.13 110.11 415.45C112.13 412.77 114.05 409.95 115.89 407.11L115.83 407.06C113.64 409.64 111.56 412.31 109.51 415C107.46 417.69 105.51 420.46 103.6 423.25C102.6 424.65 101.67 426.03 100.6 427.37C99.53 428.71 98.48 430.01 97.43 431.37C95.37 434.05 93.43 436.81 91.59 439.66L91.68 439.63Z" fill="#263238"/>
<path d="M86.39 434.93C89.01 432.78 91.52 430.51 93.94 428.15C95.14 426.95 96.29 425.72 97.51 424.54C98.73 423.36 99.98 422.23 101.25 421.11C103.8 418.88 106.25 416.6 108.75 414.27C111.25 411.94 113.58 409.55 115.89 407.06L115.84 407.01C113.23 409.17 110.71 411.43 108.23 413.73C105.75 416.03 103.35 418.41 100.98 420.83C99.8 422.043 98.59 423.223 97.35 424.37C96.1 425.51 94.8 426.6 93.54 427.73C91.05 430.01 88.64 432.38 86.34 434.88L86.39 434.93Z" fill="#263238"/>
<path d="M82 429.39C85 427.73 87.82 425.93 90.62 424.02C92 423.02 93.36 422.02 94.76 421.08C96.16 420.14 97.59 419.24 99.03 418.36C101.93 416.61 104.78 414.79 107.61 412.93C110.44 411.07 113.19 409.11 115.89 407.06V407.01C112.95 408.68 110.08 410.47 107.23 412.3C104.38 414.13 101.61 416.06 98.86 418.04C97.48 419.04 96.09 419.98 94.67 420.89C93.25 421.8 91.78 422.65 90.34 423.53C87.48 425.35 84.7 427.27 82.01 429.33L82 429.39Z" fill="#263238"/>
<path d="M78.63 423.17C81.83 422.05 84.96 420.77 88.04 419.38C89.57 418.66 91.04 417.9 92.63 417.2C94.22 416.5 95.74 415.88 97.31 415.26C100.47 414.04 103.59 412.74 106.7 411.4C109.81 410.06 112.86 408.61 115.88 407.07V407C112.69 408.14 109.55 409.41 106.43 410.72C103.31 412.03 100.24 413.44 97.19 414.91C95.66 415.64 94.13 416.34 92.57 416.99C91.01 417.64 89.41 418.22 87.84 418.84C84.72 420.14 81.64 421.54 78.63 423.1V423.17Z" fill="#263238"/>
<path d="M76.39 416.46C79.74 415.91 83.04 415.19 86.32 414.36C87.95 413.92 89.58 413.43 91.21 413.01C92.84 412.59 94.51 412.25 96.21 411.92C99.5433 411.253 102.847 410.53 106.12 409.75C109.4 408.93 112.67 408.07 115.91 407.07V407C112.57 407.57 109.26 408.27 105.97 409C102.68 409.73 99.4 410.61 96.14 411.52C94.51 411.97 92.87 412.4 91.22 412.77C89.57 413.14 87.9 413.43 86.22 413.77C82.91 414.51 79.64 415.36 76.4 416.37L76.39 416.46Z" fill="#263238"/>
<path d="M75.35 409.46C78.74 409.46 82.12 409.37 85.5 409.12C87.18 408.97 88.86 408.77 90.55 408.64C92.24 408.51 93.93 408.46 95.62 408.42C99 408.36 102.38 408.2 105.76 408.01C109.14 407.82 112.5 407.49 115.86 407.07V407C112.47 407 109.09 407.09 105.71 407.26C102.33 407.43 98.96 407.71 95.6 408.04C93.91 408.2 92.23 408.34 90.54 408.42C88.85 408.5 87.15 408.49 85.46 408.54C82.08 408.68 78.71 408.95 75.35 409.39V409.46Z" fill="#263238"/>
<path d="M75.55 402.39C78.88 403.02 82.23 403.48 85.6 403.82C87.28 403.96 88.97 404.05 90.66 404.22C92.35 404.39 94.01 404.63 95.66 404.89C99 405.41 102.35 405.89 105.71 406.24C109.07 406.59 112.44 406.9 115.83 407.07V407C112.49 406.39 109.14 405.92 105.83 405.49C102.52 405.06 99.1 404.76 95.73 404.49C94.04 404.36 92.36 404.2 90.68 403.99C89 403.78 87.34 403.47 85.68 403.22C82.33 402.78 78.96 402.46 75.58 402.31L75.55 402.39Z" fill="#263238"/>
<path d="M77 395.46C80.17 396.65 83.39 397.69 86.65 398.61C88.28 399.04 89.93 399.43 91.56 399.89C93.19 400.35 94.79 400.89 96.4 401.41C99.6 402.51 102.82 403.52 106.06 404.49C109.3 405.46 112.58 406.31 115.88 407.07V407C112.71 405.82 109.49 404.77 106.26 403.77C103.03 402.77 99.76 401.89 96.49 401.05C94.85 400.62 93.22 400.17 91.6 399.67C89.98 399.17 88.4 398.58 86.79 398.05C83.57 397.05 80.31 396.13 77 395.39V395.46Z" fill="#263238"/>
<path d="M79.57 388.88C82.49 390.61 85.48 392.19 88.52 393.66C90.06 394.37 91.61 395.04 93.14 395.77C94.67 396.5 96.14 397.3 97.64 398.11C100.64 399.75 103.64 401.31 106.64 402.82C109.64 404.33 112.73 405.75 115.86 407.07V407C112.94 405.29 109.95 403.7 106.94 402.15C103.93 400.6 100.87 399.15 97.79 397.77C96.25 397.07 94.72 396.34 93.22 395.57C91.72 394.8 90.22 393.94 88.77 393.13C85.77 391.57 82.71 390.13 79.58 388.82L79.57 388.88Z" fill="#263238"/>
<path d="M83.27 382.85C85.84 385.06 88.52 387.14 91.27 389.11C92.66 390.11 94.08 391.01 95.45 392C96.82 392.99 98.15 394 99.45 395.09C102.09 397.21 104.77 399.26 107.45 401.28C110.13 403.3 112.94 405.22 115.79 407.06V407.01C113.21 404.81 110.55 402.73 107.85 400.68C105.15 398.63 102.4 396.68 99.6 394.78C98.21 393.78 96.83 392.84 95.48 391.78C94.13 390.72 92.85 389.66 91.48 388.61C88.8 386.56 86.04 384.61 83.18 382.77L83.27 382.85Z" fill="#263238"/>
<path d="M88 377.56C90.15 380.18 92.42 382.69 94.78 385.11C95.97 386.31 97.21 387.47 98.39 388.68C99.57 389.89 100.7 391.15 101.82 392.42C104.04 394.97 106.33 397.42 108.65 399.92C110.97 402.42 113.38 404.75 115.87 407.06L115.92 407.01C113.76 404.4 111.49 401.89 109.2 399.4C106.91 396.91 104.52 394.52 102.1 392.15C100.89 390.97 99.7 389.76 98.56 388.52C97.42 387.28 96.33 385.98 95.2 384.71C92.92 382.22 90.54 379.81 88.05 377.51L88 377.56Z" fill="#263238"/>
<path d="M93.51 373.17C95.17 376.12 96.97 378.98 98.87 381.78C99.87 383.16 100.87 384.52 101.81 385.92C102.75 387.32 103.66 388.75 104.54 390.2C106.29 393.09 108.11 395.94 109.97 398.77C111.83 401.6 113.79 404.35 115.83 407.05H115.89C114.22 404.1 112.43 401.23 110.59 398.39C108.75 395.55 106.83 392.77 104.86 390.01C103.86 388.64 102.92 387.25 102 385.82C101.08 384.39 100.25 382.93 99.36 381.49C97.54 378.64 95.63 375.85 93.57 373.16L93.51 373.17Z" fill="#263238"/>
<path d="M99.73 369.8C100.85 373 102.13 376.13 103.52 379.21C104.23 380.75 105 382.26 105.69 383.8C106.38 385.34 107.02 386.91 107.64 388.49C108.85 391.64 110.15 394.77 111.49 397.87C112.83 400.97 114.28 404.03 115.83 407.05H115.9C114.76 403.86 113.49 400.72 112.18 397.6C110.87 394.48 109.45 391.41 107.99 388.36C107.257 386.84 106.56 385.3 105.9 383.74C105.26 382.18 104.68 380.58 104.06 379.01C102.76 375.89 101.35 372.81 99.79 369.8H99.73Z" fill="#263238"/>
<path d="M106.44 367.56C106.99 370.91 107.71 374.21 108.54 377.49C108.98 379.13 109.47 380.75 109.88 382.39C110.29 384.03 110.65 385.68 110.98 387.34C111.63 390.66 112.37 393.96 113.15 397.25C113.93 400.54 114.83 403.8 115.83 407.04H115.9C115.33 403.69 114.63 400.39 113.9 397.09C113.17 393.79 112.29 390.52 111.38 387.26C110.93 385.63 110.5 383.99 110.13 382.34C109.76 380.69 109.47 379.02 109.13 377.34C108.39 374.04 107.54 370.76 106.53 367.53L106.44 367.56Z" fill="#263238"/>
<path d="M116.35 417.18C110.744 417.18 106.2 412.636 106.2 407.03C106.2 401.424 110.744 396.88 116.35 396.88C121.956 396.88 126.5 401.424 126.5 407.03C126.5 412.636 121.956 417.18 116.35 417.18Z" fill="#263238"/>
<path d="M116.35 450.5C124.947 450.502 133.351 447.955 140.5 443.181C147.65 438.407 153.223 431.62 156.515 423.679C159.808 415.738 160.672 406.999 158.998 398.567C157.324 390.134 153.188 382.388 147.112 376.306C141.036 370.225 133.293 366.081 124.863 364.4C116.432 362.718 107.692 363.574 99.7478 366.859C91.8036 370.145 85.0119 375.712 80.2313 382.857C75.4507 390.001 72.896 398.403 72.89 407C72.8927 418.529 77.471 429.586 85.6196 437.742C93.7682 445.898 104.821 450.487 116.35 450.5ZM116.35 368.5C123.974 368.5 131.427 370.761 137.766 374.998C144.105 379.235 149.044 385.256 151.96 392.301C154.876 399.345 155.637 407.096 154.147 414.574C152.656 422.051 148.982 428.918 143.588 434.306C138.194 439.694 131.323 443.362 123.844 444.844C116.366 446.327 108.615 445.558 101.574 442.635C94.5321 439.712 88.5157 434.766 84.2857 428.423C80.0557 422.079 77.8021 414.624 77.81 407C77.8312 396.789 81.8997 387.002 89.1239 379.786C96.3481 372.569 106.139 368.511 116.35 368.5Z" fill="#263238"/>
<path d="M379.2 271.28H416.39V278.58H379.2V271.28Z" fill="#37474F"/>
<path d="M361.44 289.57L379.21 278.58V271.28L361.44 282.27V289.57Z" fill="#37474F"/>
<path d="M389.92 269.76H427.11V280.1H389.92V269.76Z" fill="#263238"/>
<path d="M161.47 266.52V268.02H132.54V266.52H161.47Z" fill="#263238"/>
<path d="M210.42 242.47H227.35V268.01H210.42V242.47Z" fill="#F8A41E"/>
<path d="M229.42 242.47H246.35V268.01H229.42V242.47Z" fill="#455A64"/>
</svg>
