<svg width="448" height="442" viewBox="0 0 448 442" fill="none" xmlns="http://www.w3.org/2000/svg">
<path d="M94.36 11.27H8.90002V152.72H94.36V11.27Z" fill="#E0E0E0"/>
<path d="M91.5201 11.27H6.06006V152.72H91.5201V11.27Z" fill="#EBEBEB"/>
<path d="M87.8801 14.14H9.70007V149.86H87.8801V14.14Z" fill="white"/>
<path d="M72.6501 31.77H24.5801V132.22H72.6501V31.77Z" fill="#EBEBEB"/>
<path d="M24.58 96.67C24.47 87.29 32.91 78.13 42.2 76.82C46.63 76.2 51.34 77.08 55.48 75.38C62.87 72.38 65.22 62.53 72.66 59.62L73 132.22H24.58V96.67Z" fill="#E0E0E0"/>
<path d="M432.67 18.44V86.27H335.25L331.74 18.91L432.67 18.44Z" fill="#E0E0E0"/>
<path d="M331.74 18.91V86.12H429.16V18.91H331.74Z" fill="white"/>
<path d="M429.63 86.59H331.28V18.45H429.63V86.59ZM332.21 85.66H428.7V19.38H332.21V85.66Z" fill="#E0E0E0"/>
<path d="M418.61 27.26H342.29V77.77H418.61V27.26Z" fill="white"/>
<path d="M418.61 27.26H418.24H417.15H412.96L397.23 27.32L342.29 27.42L342.52 27.2C342.52 42.64 342.52 59.74 342.52 77.71L342.28 77.47H418.6L418.41 77.66C418.41 62.29 418.49 49.66 418.51 40.91C418.51 36.53 418.51 33.1 418.56 30.75C418.56 29.59 418.56 28.75 418.56 28.08C418.56 27.41 418.56 27.15 418.56 27.15C418.56 27.15 418.56 27.45 418.56 28.04C418.56 28.63 418.56 29.53 418.56 30.67C418.56 33.01 418.56 36.43 418.61 40.79C418.61 49.6 418.67 62.24 418.71 77.66V77.86H418.52H342.2H341.96V77.61C341.96 59.61 341.96 42.54 341.96 27.1V27H342.18L397.27 27.11L412.94 27.17H417.09H418.5L418.61 27.26Z" fill="#E0E0E0"/>
<path d="M331.74 18.72C332.341 19.0166 332.904 19.3824 333.42 19.81C334.42 20.53 335.77 21.55 337.24 22.72C338.71 23.89 340 25 340.9 25.84C341.425 26.2487 341.893 26.7263 342.29 27.26C340.438 25.9642 338.652 24.5757 336.94 23.1C335.118 21.749 333.381 20.2862 331.74 18.72Z" fill="#E0E0E0"/>
<path d="M429.16 18.91C427.55 20.492 425.826 21.9526 424 23.28C422.29 24.7434 420.475 26.0803 418.57 27.28C420.177 25.7094 421.891 24.2526 423.7 22.92C425.423 21.4555 427.247 20.1155 429.16 18.91Z" fill="#E0E0E0"/>
<path d="M429.09 86.13L418.22 77.33L429.09 86.13Z" fill="white"/>
<path d="M418.22 77.33C420.178 78.6072 422.045 80.0172 423.81 81.55C425.67 82.9574 427.434 84.4875 429.09 86.13C427.128 84.8624 425.26 83.4555 423.5 81.92C421.641 80.5079 419.877 78.9746 418.22 77.33Z" fill="#E0E0E0"/>
<path d="M331.74 86.12C333.33 84.5659 335.028 83.1257 336.82 81.81C338.509 80.3642 340.304 79.0472 342.19 77.87C340.6 79.4241 338.902 80.8643 337.11 82.18C335.421 83.6258 333.626 84.9428 331.74 86.12Z" fill="#E0E0E0"/>
<path d="M357.79 43.01V59.92H405.81V43.01H357.79Z" fill="#E0E0E0"/>
<path d="M352.6 305.35C348.02 302.482 342.845 300.7 337.47 300.14C335 299.89 332.29 299.96 330.31 301.46C330.081 301.593 329.893 301.785 329.762 302.015C329.632 302.245 329.566 302.506 329.57 302.77C329.688 303.142 329.937 303.458 330.27 303.66C336.43 308.36 345.74 308.95 352.6 305.35Z" fill="#E0E0E0"/>
<path d="M352.21 304.92C348.705 302.352 345.436 299.477 342.44 296.33C339.436 293.158 337.321 289.25 336.31 285C336.115 284.371 336.056 283.707 336.139 283.053C336.222 282.399 336.444 281.771 336.79 281.21C344.58 287.29 350.7 295.21 352.21 304.92Z" fill="#E0E0E0"/>
<path d="M352.52 305.29C351.794 301.038 351.855 296.69 352.7 292.46C353.57 288.202 356.008 284.426 359.53 281.88C360.88 285.02 360.3 288.65 359.35 291.94C357.885 297.032 355.594 301.849 352.57 306.2" fill="#E0E0E0"/>
<path d="M360.15 319C355.52 319.56 351.48 322 348.02 325.14C344.549 328.291 342.127 332.43 341.08 337C345.63 336.72 349.48 333.51 352.28 329.92C355.08 326.33 357.02 322.38 360.09 319.02" fill="#E0E0E0"/>
<path d="M361.81 321.16C359.986 316.528 359.347 311.513 359.951 306.571C360.555 301.629 362.384 296.916 365.27 292.86C367.91 302.25 366.94 312.86 361.81 321.16Z" fill="#E0E0E0"/>
<path d="M371.9 333.18C367.663 332.913 363.441 333.901 359.761 336.019C356.082 338.137 353.107 341.292 351.21 345.09C351.043 345.322 350.942 345.596 350.917 345.881C350.893 346.166 350.945 346.452 351.07 346.71C351.248 346.884 351.466 347.012 351.705 347.082C351.944 347.152 352.196 347.161 352.44 347.11C356.52 346.85 360.13 344.4 363.12 341.6C366.11 338.8 368.7 335.6 371.99 333.17" fill="#E0E0E0"/>
<path d="M371.58 332.52C369.408 325.529 369.273 318.065 371.19 311C371.95 308.23 373.19 305.31 375.79 304C375.892 303.932 376.007 303.887 376.127 303.866C376.248 303.846 376.371 303.85 376.49 303.88C376.698 303.986 376.856 304.169 376.93 304.39C377.793 306.33 378.167 308.452 378.02 310.57C377.857 312.677 377.522 314.767 377.02 316.82C376.21 320.64 375.78 324.75 373.69 328.04C373.193 328.835 372.745 329.66 372.35 330.51C371.96 331.34 371.96 331.64 371.59 332.3" fill="#E0E0E0"/>
<path d="M398.28 336.5C396.28 328.98 398.4 319.85 403.15 313.68C403.5 313.23 403.96 312.74 404.53 312.79C405.4 312.87 405.63 314.04 405.59 314.91C405.233 322.651 402.699 330.134 398.28 336.5Z" fill="#E0E0E0"/>
<path d="M400.69 338.15C409.84 340.53 420.32 338.21 427.93 332.61C423.372 330.314 418.158 329.674 413.18 330.8C408.26 331.92 403.76 334.13 400.69 338.15Z" fill="#E0E0E0"/>
<path d="M402.72 333.14C407.84 324.79 417.66 319.34 427.44 318.84C426.32 322.84 423.05 325.91 419.36 327.78C415.67 329.65 411.55 330.46 407.49 331.25C405.91 331.56 403.75 331.9 402.72 333.14Z" fill="#E0E0E0"/>
<path d="M398.79 308.82C400.359 304.118 401.435 299.265 402 294.34C402.38 289.41 401.68 284.26 399.12 280.02C394.34 289.28 393.85 300.09 398.7 309.32" fill="#E0E0E0"/>
<path d="M414.9 300.68C420.49 290.51 431.9 282.39 443.45 281.25C439 292.35 426.85 300.92 414.9 300.68Z" fill="#E0E0E0"/>
<path d="M411.38 302.67C419.72 303.94 426.83 309.27 434.63 312.5C436.264 313.283 438.073 313.628 439.88 313.5C440.721 313.487 441.537 313.217 442.22 312.727C442.903 312.237 443.42 311.549 443.7 310.757C443.981 309.964 444.013 309.105 443.791 308.294C443.57 307.483 443.105 306.759 442.46 306.22C441.355 305.202 440.055 304.416 438.64 303.91C430.15 300.37 421.04 300.28 412.1 302.43" fill="#E0E0E0"/>
<path d="M406.55 308.52C408.44 309.06 409.08 310.04 410.55 311.32C415.652 315.653 421.685 318.75 428.18 320.37C428.85 320.54 429.74 320.61 430.07 320C430.4 319.39 429.99 318.82 429.61 318.35C426.786 315.032 423.121 312.535 419 311.12C414.93 309.61 411.41 307.78 406.55 308.17" fill="#E0E0E0"/>
<path d="M401.1 273.18C404.52 276.336 408.563 278.742 412.968 280.242C417.374 281.742 422.045 282.303 426.68 281.89C427.105 281.896 427.518 281.747 427.84 281.47C428.49 280.77 427.72 279.69 426.97 279.1C419.45 273.24 410.34 270.81 401.1 273.18Z" fill="#E0E0E0"/>
<path d="M407.56 270.82C412.089 267.49 417.342 265.276 422.889 264.36C428.436 263.445 434.12 263.852 439.48 265.55C435.305 269.423 429.947 271.776 424.27 272.23C418.66 272.737 413.005 272.26 407.56 270.82Z" fill="#E0E0E0"/>
<path d="M405 254.58C404.27 247.07 404.74 241.15 404.22 233.58C404.22 232.98 404.05 232.25 403.49 232.03C402.7 231.73 402.05 232.7 401.79 233.5C400.695 236.994 400.415 240.692 400.969 244.311C401.524 247.93 402.899 251.374 404.99 254.38" fill="#E0E0E0"/>
<path d="M404.45 255.41C409.355 252.241 413.583 248.132 416.89 243.32C419.34 239.96 421.41 235.94 420.89 231.81C419.156 231.854 417.452 232.276 415.898 233.047C414.343 233.817 412.976 234.917 411.89 236.27C409.743 238.986 408.183 242.119 407.31 245.47C406.31 248.77 405.62 252.16 404.45 255.41Z" fill="#E0E0E0"/>
<path d="M416.67 252C427.858 247.865 438.22 241.769 447.27 234C443.61 232.53 439.43 233.41 435.77 234.89C427.43 238.26 420.6 243.95 416.51 251.96" fill="#E0E0E0"/>
<path d="M407.89 259.52C413.54 260.13 419.28 260.52 424.89 259.6C430.5 258.68 435.6 256.49 440.75 254.33C441.2 254.201 441.585 253.908 441.83 253.51C441.912 253.271 441.918 253.012 441.848 252.769C441.778 252.526 441.636 252.31 441.44 252.15C441.044 251.84 440.582 251.624 440.09 251.52C434.49 249.95 428.45 250.69 422.95 252.52C417.702 254.319 412.657 256.665 407.9 259.52" fill="#E0E0E0"/>
<path d="M375.64 273.44C371.78 265.66 372.03 256.58 375.36 248.57C377.7 252.14 377.99 256.68 377.56 260.93C377.13 265.18 375.84 269.56 375.76 273.83" fill="#E0E0E0"/>
<path d="M360.24 265.68C355.414 265.617 350.628 266.563 346.188 268.457C341.749 270.351 337.754 273.152 334.46 276.68C339.26 277.43 344.21 276.19 348.58 274.06C352.876 271.779 356.927 269.065 360.67 265.96" fill="#E0E0E0"/>
<path d="M349.89 262.21C345.18 261.83 340.65 261.21 336.13 262.64C333.844 263.278 331.723 264.403 329.912 265.937C328.102 267.472 326.644 269.379 325.64 271.53C330.081 271.89 334.537 271.047 338.54 269.09C342.525 267.146 346.324 264.843 349.89 262.21Z" fill="#E0E0E0"/>
<path d="M365.21 262.37C360.98 259.6 356.63 256.77 351.7 255.62C346.77 254.47 341.06 255.32 337.62 259.04C341.62 261.38 346.45 261.66 351.08 261.65C355.71 261.64 361.38 261.65 365.74 263.14" fill="#E0E0E0"/>
<path d="M365.24 262.6C358 255.49 355.24 242.72 358.17 233C363.887 241.749 366.386 252.212 365.24 262.6Z" fill="#E0E0E0"/>
<path d="M385.15 242.45C386.51 239.28 387.47 235.95 388.7 232.72C389.811 229.431 391.527 226.379 393.76 223.72C396.032 221.049 399.266 219.382 402.76 219.08C401.648 223.978 399.526 228.59 396.53 232.621C393.534 236.652 389.729 240.013 385.36 242.49" fill="#E0E0E0"/>
<path d="M381.54 246.65C379.28 243.54 376.67 239.32 373.61 237C370.55 234.68 366.56 233.27 362.82 234.16C364.756 237.553 367.455 240.449 370.704 242.617C373.954 244.785 377.664 246.166 381.54 246.65Z" fill="#E0E0E0"/>
<path d="M382.26 242.71C380.638 239.003 379.441 235.126 378.69 231.15C377.948 227.138 378.586 222.993 380.5 219.39C384.5 226.9 385.76 234.96 382.5 242.8" fill="#E0E0E0"/>
<path d="M385.18 219.39C387.43 211.94 394.25 206.46 401.61 203.94C402.522 203.571 403.51 203.423 404.49 203.51C404.98 203.564 405.443 203.76 405.821 204.075C406.2 204.389 406.478 204.809 406.62 205.28C406.89 206.55 405.84 207.69 404.86 208.53C399.1 213.441 392.406 217.135 385.18 219.39Z" fill="#E0E0E0"/>
<path d="M385.26 213.3C385.55 208.5 385.85 203.63 387.41 199.08C388.97 194.53 391.98 190.26 396.36 188.27C397.11 193.12 394.97 197.94 392.36 202.12C389.75 206.3 386.67 210.23 385.12 214.88" fill="#E0E0E0"/>
<path d="M385.15 216.6C383.29 211.18 383.09 204.28 379.84 199.6C377.57 196.29 373.93 194.04 371.98 190.54C370.796 193.896 370.957 197.58 372.43 200.82C373.905 204.022 375.936 206.938 378.43 209.43C380.83 211.99 382.89 213.93 385.13 216.64" fill="#E0E0E0"/>
<path d="M385.18 376.42C385.04 376.42 384.91 340.22 384.9 295.57C384.89 250.92 385 214.71 385.15 214.71C385.3 214.71 385.42 250.91 385.43 295.57C385.44 340.23 385.33 376.42 385.18 376.42Z" fill="#E0E0E0"/>
<path d="M416.82 268C416.381 268.206 415.926 268.377 415.46 268.51L411.71 269.77C408.55 270.85 404.21 272.41 399.51 274.34C394.81 276.27 390.45 277.96 387.94 280.13C386.941 280.962 386.147 282.012 385.62 283.2C385.26 284.05 385.19 284.57 385.15 284.57C385.11 284.57 385.15 284.43 385.15 284.19C385.207 283.829 385.297 283.474 385.42 283.13C385.892 281.865 386.672 280.738 387.69 279.85C389.196 278.575 390.881 277.527 392.69 276.74C394.69 275.8 396.93 274.82 399.29 273.85C404.01 271.92 408.38 270.41 411.58 269.42C413.17 268.92 414.48 268.56 415.38 268.31C415.849 268.159 416.331 268.055 416.82 268Z" fill="#E0E0E0"/>
<path d="M427.19 242.51C427.078 242.657 426.951 242.791 426.81 242.91L425.65 244L421.31 247.94L406.87 260.8C401.24 265.8 396.37 270.6 393 274.21C391.31 276.01 390 277.51 389.07 278.55C388.64 279.03 388.3 279.43 388.02 279.75C387.74 280.07 387.64 280.16 387.63 280.14C387.62 280.12 387.72 279.97 387.94 279.68C388.16 279.39 388.48 278.96 388.94 278.42C389.8 277.33 391.09 275.8 392.75 273.96C397.111 269.203 401.721 264.68 406.56 260.41C412.21 255.41 417.36 250.91 421.09 247.67L425.54 243.85L426.77 242.85C427 242.6 427.18 242.49 427.19 242.51Z" fill="#E0E0E0"/>
<path d="M400.79 265.9C400.64 265.83 401.79 263.11 402.99 259.68C404.19 256.25 404.74 253.34 404.89 253.36C404.762 255.579 404.29 257.766 403.49 259.84C402.988 261.321 402.404 262.774 401.74 264.19C401.505 264.802 401.185 265.377 400.79 265.9Z" fill="#E0E0E0"/>
<path d="M385.22 287.81C384.896 287.508 384.605 287.172 384.35 286.81L382.12 284C380.25 281.58 377.67 278.25 374.78 274.6C371.89 270.95 369.22 267.68 367.29 265.31L365 262.45C364.703 262.116 364.438 261.754 364.21 261.37C364.553 261.656 364.868 261.974 365.15 262.32C365.73 262.94 366.55 263.87 367.55 265.02C369.55 267.33 372.27 270.57 375.17 274.23C378.07 277.89 380.6 281.23 382.4 283.73C383.3 284.96 384.01 285.97 384.49 286.68C384.764 287.036 385.008 287.414 385.22 287.81Z" fill="#E0E0E0"/>
<path d="M378.28 278.9C376.876 277.354 375.877 275.486 375.37 273.46C374.831 271.686 374.608 269.831 374.71 267.98H374.94C374.84 268.4 374.77 268.62 374.72 268.61C374.67 268.6 374.72 268.37 374.72 267.94H374.95C375.062 269.745 375.371 271.532 375.87 273.27C376.53 275.205 377.335 277.087 378.28 278.9Z" fill="#E0E0E0"/>
<path d="M369.32 267.64C368.708 267.161 368.036 266.764 367.32 266.46C365.496 265.914 363.577 265.76 361.69 266.01C359.778 266.158 357.881 266.466 356.02 266.93C355.253 267.167 354.471 267.354 353.68 267.49C354.374 267.068 355.13 266.758 355.92 266.57C357.783 265.995 359.705 265.633 361.65 265.49C363.609 265.226 365.603 265.442 367.46 266.12C368.24 266.391 368.899 266.93 369.32 267.64Z" fill="#E0E0E0"/>
<path d="M367.2 264.91C367.2 264.99 366.02 264.43 364.09 263.78C361.584 262.923 358.98 262.386 356.34 262.18C353.697 261.988 351.04 262.122 348.43 262.58C346.43 262.94 345.21 263.32 345.18 263.23C345.435 263.067 345.715 262.948 346.01 262.88C346.776 262.613 347.557 262.393 348.35 262.22C353.644 261.061 359.163 261.482 364.22 263.43C364.98 263.718 365.721 264.051 366.44 264.43C366.717 264.549 366.973 264.711 367.2 264.91Z" fill="#E0E0E0"/>
<path d="M385.15 253.36C384.224 250.788 383.466 248.16 382.88 245.49C382.125 242.863 381.537 240.191 381.12 237.49C382.039 240.067 382.798 242.699 383.39 245.37C384.144 247.994 384.732 250.662 385.15 253.36Z" fill="#E0E0E0"/>
<path d="M385.29 253.36C384.561 251.735 383.723 250.161 382.78 248.65C381.715 247.224 380.471 245.94 379.08 244.83C379.608 244.963 380.097 245.216 380.51 245.57C381.558 246.341 382.47 247.281 383.21 248.35C384.332 249.808 385.05 251.536 385.29 253.36Z" fill="#E0E0E0"/>
<path d="M385.18 357.12C385.13 357.12 385.02 356.25 384.61 354.71C384.012 352.549 383.201 350.452 382.19 348.45C379.69 343.34 375.14 336.85 369.36 330.36C366.49 327.09 363.71 324 361.36 321.04C359.242 318.443 357.33 315.684 355.64 312.79C354.5 310.835 353.533 308.784 352.75 306.66C352.48 305.9 352.29 305.32 352.18 304.91C352.102 304.708 352.052 304.496 352.03 304.28C352.08 304.28 352.34 305.11 352.94 306.59C353.783 308.665 354.786 310.671 355.94 312.59C357.662 315.443 359.594 318.164 361.72 320.73C364.09 323.66 366.87 326.73 369.72 330.01C375.52 336.52 380.06 343.08 382.5 348.28C383.486 350.319 384.251 352.458 384.78 354.66C384.92 355.257 385.026 355.861 385.1 356.47C385.152 356.683 385.179 356.901 385.18 357.12Z" fill="#E0E0E0"/>
<path d="M413.77 324.83C413.291 325.146 412.79 325.427 412.27 325.67C410.917 326.433 409.62 327.291 408.39 328.24C406.569 329.659 404.861 331.217 403.28 332.9C401.49 334.79 399.65 336.99 397.76 339.34C394 344.07 390.48 348.25 388.37 351.58C387.3 353.24 386.52 354.64 386.01 355.58C385.769 356.102 385.491 356.606 385.18 357.09C385.209 356.945 385.256 356.803 385.32 356.67C385.43 356.4 385.58 355.99 385.82 355.49C386.483 354.071 387.227 352.692 388.05 351.36C390.1 347.94 393.6 343.7 397.35 338.98C399.24 336.63 401.11 334.42 402.93 332.53C404.544 330.852 406.293 329.311 408.16 327.92C409.419 326.985 410.758 326.162 412.16 325.46C412.65 325.21 413.06 325.06 413.33 324.95C413.47 324.887 413.618 324.847 413.77 324.83Z" fill="#E0E0E0"/>
<path d="M414.33 335.31C413.285 335.535 412.226 335.689 411.16 335.77C408.617 336.033 406.103 336.528 403.65 337.25C401.226 338.037 398.954 339.231 396.93 340.78C395.38 341.97 394.65 342.96 394.57 342.91C394.685 342.642 394.844 342.395 395.04 342.18C395.533 341.563 396.085 340.997 396.69 340.49C398.697 338.82 401.005 337.551 403.49 336.75C405.977 336.011 408.54 335.558 411.13 335.4C412.192 335.272 413.263 335.242 414.33 335.31Z" fill="#E0E0E0"/>
<path d="M395.5 341.76C395.33 341.66 396.76 339.48 397.87 336.55C398.98 333.62 399.15 331 399.34 331.03C399.411 331.596 399.391 332.17 399.28 332.73C399.127 334.094 398.818 335.436 398.36 336.73C397.882 338.017 397.265 339.247 396.52 340.4C396.256 340.905 395.911 341.365 395.5 341.76Z" fill="#E0E0E0"/>
<path d="M423 296.71C422.843 296.823 422.672 296.914 422.49 296.98L421 297.65C420.35 297.93 419.56 298.29 418.67 298.76C417.78 299.23 416.73 299.7 415.67 300.35L413.95 301.35C413.35 301.7 412.75 302.1 412.12 302.5C410.85 303.27 409.57 304.22 408.21 305.2C402.382 309.547 397.297 314.808 393.15 320.78C392.22 322.18 391.32 323.48 390.59 324.78C390.22 325.43 389.83 326.03 389.5 326.64L388.58 328.41C387.97 329.51 387.53 330.57 387.09 331.48C386.65 332.39 386.33 333.19 386.09 333.85C385.85 334.51 385.63 334.97 385.47 335.36C385.41 335.545 385.323 335.721 385.21 335.88C385.245 335.692 385.298 335.507 385.37 335.33C385.51 334.92 385.68 334.41 385.9 333.78C386.12 333.15 386.43 332.29 386.85 331.37C387.27 330.45 387.67 329.37 388.27 328.24L389.17 326.45C389.48 325.83 389.87 325.22 390.23 324.56C390.95 323.25 391.85 321.92 392.77 320.51C396.898 314.45 402.032 309.14 407.95 304.81C409.33 303.81 410.62 302.9 411.95 302.13C412.59 301.74 413.19 301.34 413.8 301L415.56 300C416.66 299.37 417.72 298.91 418.63 298.47C419.54 298.03 420.35 297.7 421.01 297.47L422.54 296.88C422.686 296.806 422.841 296.748 423 296.71Z" fill="#E0E0E0"/>
<path d="M400.4 311.87C400.615 311.139 401.052 310.492 401.65 310.02C403.039 308.81 404.809 308.127 406.65 308.09C408.458 308.079 410.251 308.419 411.93 309.09C412.643 309.321 413.318 309.658 413.93 310.09C413.206 309.947 412.497 309.74 411.81 309.47C410.158 308.907 408.425 308.619 406.68 308.62C404.945 308.654 403.266 309.242 401.89 310.3C401.356 310.787 400.858 311.311 400.4 311.87Z" fill="#E0E0E0"/>
<path d="M397 315.36C397.672 313.884 398.153 312.328 398.43 310.73C398.528 309.11 398.421 307.483 398.11 305.89C398.406 306.289 398.604 306.751 398.69 307.24C399.303 309.573 399.014 312.051 397.88 314.18C397.46 315 397.07 315.39 397 315.36Z" fill="#E0E0E0"/>
<path d="M360.18 362.31C360.96 376.15 365.13 390.22 371.54 404.44H399.43C405.54 390.36 409.43 376.31 410.11 362.31H360.18Z" fill="#E0E0E0"/>
<path d="M405.59 384.7C405.59 384.84 396.41 384.96 385.09 384.96C373.77 384.96 364.58 384.84 364.58 384.7C364.58 384.56 373.76 384.44 385.09 384.44C396.42 384.44 405.59 384.55 405.59 384.7Z" fill="#FAFAFA"/>
<path d="M405 389.71C405 389.85 396.39 389.97 385.78 389.97C375.17 389.97 366.55 389.85 366.55 389.71C366.55 389.57 375.16 389.45 385.78 389.45C396.4 389.45 405 389.57 405 389.71Z" fill="#FAFAFA"/>
<path d="M372 371.39C372.347 375.666 372.347 379.964 372 384.24C371.653 379.964 371.653 375.666 372 371.39Z" fill="#FAFAFA"/>
<path d="M386.93 371.39C387.277 375.82 387.277 380.27 386.93 384.7C386.583 380.27 386.583 375.82 386.93 371.39Z" fill="#FAFAFA"/>
<path d="M401 371.28C401.347 375.797 401.347 380.333 401 384.85C400.653 380.333 400.653 375.797 401 371.28Z" fill="#FAFAFA"/>
<path d="M409.23 371.39C409.23 371.54 398.46 371.66 385.18 371.66C371.9 371.66 361.13 371.54 361.13 371.39C361.13 371.24 371.89 371.13 385.18 371.13C398.47 371.13 409.23 371.25 409.23 371.39Z" fill="#FAFAFA"/>
<path d="M433.73 410C433.73 410.14 336.89 410.26 217.45 410.26C98.01 410.26 1.15002 410.14 1.15002 410C1.15002 409.86 97.97 409.74 217.45 409.74C336.93 409.74 433.73 409.85 433.73 410Z" fill="#263238"/>
<path d="M286.14 0.999996H257.44C256.5 1.01817 255.572 1.22191 254.711 1.59953C253.85 1.97715 253.071 2.52121 252.421 3.20045C251.771 3.87969 251.261 4.68074 250.921 5.55759C250.581 6.43444 250.417 7.36982 250.44 8.31V13.54C250.463 14.4802 250.299 15.4155 249.959 16.2924C249.619 17.1692 249.109 17.9703 248.459 18.6495C247.809 19.3288 247.03 19.8728 246.169 20.2505C245.308 20.6281 244.38 20.8318 243.44 20.85H187.44C186.5 20.8305 185.573 20.6259 184.713 20.2478C183.852 19.8697 183.074 19.3256 182.424 18.6467C181.774 17.9677 181.264 17.1672 180.924 16.2909C180.583 15.4146 180.419 14.4798 180.44 13.54V8.27C180.463 7.32933 180.299 6.39346 179.959 5.51604C179.62 4.63862 179.11 3.83691 178.46 3.15686C177.809 2.47682 177.031 1.93183 176.17 1.55313C175.308 1.17443 174.381 0.969466 173.44 0.949997H163.5H138.38C135.407 0.952618 132.464 1.54129 129.718 2.68236C126.973 3.82342 124.479 5.49448 122.38 7.59998C120.281 9.70548 118.618 12.2041 117.486 14.953C116.353 17.7018 115.773 20.647 115.78 23.62L115.71 387.24C115.699 393.241 118.072 399.001 122.306 403.254C126.54 407.506 132.289 409.904 138.29 409.92L286.05 410.01C289.023 410.007 291.966 409.419 294.712 408.278C297.457 407.137 299.951 405.465 302.05 403.36C304.149 401.255 305.812 398.756 306.944 396.007C308.077 393.258 308.657 390.313 308.65 387.34L308.72 23.71C308.731 20.7357 308.155 17.7884 307.025 15.0368C305.896 12.2853 304.235 9.78333 302.138 7.67411C300.041 5.5649 297.548 3.88979 294.803 2.74458C292.058 1.59938 289.114 1.00655 286.14 0.999996Z" fill="white"/>
<path d="M286.14 0.999993C286.14 0.999993 286.41 0.999993 286.92 0.999993C287.687 1.00811 288.452 1.06825 289.21 1.17999C292.221 1.56445 295.116 2.58724 297.7 4.17999C299.619 5.31115 301.356 6.7273 302.85 8.37999C304.669 10.3668 306.119 12.663 307.13 15.16C308.301 18.0796 308.872 21.205 308.81 24.35C308.81 27.69 308.81 31.25 308.81 35.02C308.81 65.19 308.81 108.85 308.87 162.79C308.93 216.73 308.87 280.97 308.87 352.29V386.23C308.87 387.37 308.8 388.54 308.75 389.7C308.614 390.857 308.396 392.003 308.1 393.13C306.905 397.701 304.332 401.793 300.73 404.85C298.917 406.358 296.896 407.598 294.73 408.53C292.524 409.423 290.193 409.97 287.82 410.15L286.03 410.24H244.73H185.54H155.27H140C134.782 410.535 129.613 409.093 125.3 406.14C121.014 403.134 117.876 398.762 116.4 393.74C115.698 391.253 115.385 388.673 115.47 386.09V378.46C115.47 368.293 115.47 358.197 115.47 348.17C115.47 328.13 115.47 308.397 115.47 288.97C115.47 250.15 115.47 212.71 115.47 177.05C115.47 141.39 115.47 107.49 115.47 75.77C115.47 59.91 115.47 44.61 115.47 29.87V24.3C115.47 23.39 115.54 22.47 115.57 21.56C115.6 20.65 115.82 19.75 115.97 18.86C116.741 15.3292 118.315 12.0237 120.57 9.19999C122.787 6.47121 125.603 4.28959 128.799 2.82423C131.995 1.35887 135.485 0.649121 139 0.749993H158.74H172.89C174.452 0.628176 176.011 1.01536 177.334 1.8536C178.657 2.69184 179.673 3.93604 180.23 5.39999C180.5 6.11286 180.668 6.86019 180.73 7.61999C180.79 8.38999 180.73 9.10999 180.73 9.84999C180.73 11.32 180.73 12.85 180.73 14.23C180.867 15.6419 181.413 16.9832 182.3 18.09C183.175 19.1824 184.366 19.9785 185.71 20.37C187.066 20.6375 188.451 20.7249 189.83 20.63H198.01H227.87H241.03C242.03 20.63 243.12 20.63 244.12 20.63C245.115 20.5163 246.07 20.1741 246.91 19.63C247.723 19.1245 248.427 18.4616 248.98 17.6802C249.533 16.8988 249.924 16.0148 250.13 15.08C250.306 14.1746 250.373 13.2514 250.33 12.33V9.74C250.296 8.85847 250.333 7.97566 250.44 7.09999C250.567 6.24785 250.845 5.42508 251.26 4.66999C252.038 3.21202 253.295 2.06748 254.82 1.42999C256.262 0.95182 257.788 0.781485 259.3 0.929993L274 0.999993H283H286.07C286.07 0.999993 285.07 0.999993 283 0.999993H274H259.31C257.817 0.861666 256.312 1.03534 254.89 1.50999C253.403 2.13517 252.177 3.25499 251.42 4.67999C251.024 5.4192 250.756 6.22075 250.63 7.04999C250.531 7.91622 250.497 8.78872 250.53 9.65999V12.37C250.576 13.3042 250.512 14.2406 250.34 15.16C250.129 16.1216 249.728 17.0315 249.161 17.8367C248.595 18.6419 247.874 19.3263 247.04 19.85C246.166 20.3994 245.177 20.7414 244.15 20.85C243.15 20.92 242.09 20.85 241.04 20.85H187.79C187.074 20.8607 186.36 20.7698 185.67 20.58C184.265 20.1697 183.019 19.3391 182.1 18.2C181.181 17.0504 180.609 15.6629 180.45 14.2C180.37 12.72 180.45 11.28 180.45 9.78999C180.45 9.05999 180.45 8.30999 180.45 7.58999C180.393 6.8597 180.228 6.14191 179.96 5.45999C179.43 4.06336 178.461 2.87646 177.199 2.07762C175.936 1.27878 174.449 0.911157 172.96 1.02999H139C135.563 0.954633 132.155 1.66601 129.035 3.10975C125.915 4.55349 123.167 6.69137 121 9.35999C118.787 12.1393 117.24 15.3893 116.48 18.86C116.34 19.74 116.18 20.62 116.1 21.51C116.02 22.4 115.97 23.3 116 24.22V75.61C116 107.33 116 141.22 116 176.89V288.89C116 308.303 116 328.037 116 348.09C116 358.09 116 368.187 116 378.38V386C115.915 388.532 116.222 391.062 116.91 393.5C118.35 398.41 121.418 402.685 125.61 405.62C129.834 408.513 134.899 409.92 140.01 409.62H155.3H185.57H244.76H273.6H286L287.75 409.53C290.072 409.355 292.353 408.819 294.51 407.94C296.646 407.042 298.638 405.832 300.42 404.35C303.939 401.399 306.463 397.436 307.65 393C307.943 391.9 308.157 390.781 308.29 389.65C308.29 388.51 308.43 387.38 308.41 386.23V379.36C308.41 370.233 308.41 361.21 308.41 352.29C308.41 280.97 308.47 216.74 308.5 162.79C308.53 108.84 308.58 65.19 308.61 35.02C308.61 31.25 308.61 27.69 308.61 24.35C308.689 21.2264 308.141 18.1187 307 15.21C305.995 12.731 304.56 10.4492 302.76 8.46999C301.282 6.81629 299.559 5.39973 297.65 4.26999C295.083 2.68686 292.21 1.6645 289.22 1.26999C288.462 1.15163 287.697 1.08149 286.93 1.05999L286.14 0.999993Z" fill="#263238"/>
<path d="M275.93 264.58H139.77C136.583 264.58 134 267.163 134 270.35V291.01C134 294.197 136.583 296.78 139.77 296.78H275.93C279.117 296.78 281.7 294.197 281.7 291.01V270.35C281.7 267.163 279.117 264.58 275.93 264.58Z" fill="#D6955B"/>
<path d="M274.69 157.52H141.01C137.138 157.52 134 160.658 134 164.53V182.46C134 186.332 137.138 189.47 141.01 189.47H274.69C278.562 189.47 281.7 186.332 281.7 182.46V164.53C281.7 160.658 278.562 157.52 274.69 157.52Z" fill="#EBEBEB"/>
<path d="M274.7 189.47H274.92C275.07 189.47 275.3 189.47 275.59 189.41C276.456 189.295 277.291 189.013 278.05 188.58C279.284 187.892 280.281 186.846 280.91 185.58C281.305 184.77 281.536 183.89 281.59 182.99C281.59 181.99 281.59 180.99 281.59 179.89C281.59 175.5 281.59 170.11 281.51 163.89C281.344 162.305 280.638 160.826 279.51 159.7C278.308 158.495 276.7 157.781 275 157.7H263.8L141 157.78C139.556 157.783 138.15 158.248 136.988 159.106C135.826 159.964 134.968 161.17 134.54 162.55C134.243 163.969 134.142 165.423 134.24 166.87V182.11C134.215 182.804 134.293 183.498 134.47 184.17C134.816 185.502 135.563 186.696 136.61 187.59C137.646 188.476 138.925 189.03 140.28 189.18C141.63 189.25 143.06 189.18 144.44 189.18H168.63L223.82 189.23L261.03 189.32H271.15H273.78H274.68H273.78H271.15H261.03L223.82 189.4L168.63 189.46H144.46C143.06 189.46 141.7 189.46 140.25 189.46C138.812 189.321 137.449 188.756 136.335 187.836C135.222 186.917 134.408 185.685 134 184.3C133.817 183.585 133.736 182.848 133.76 182.11V164.66C133.762 163.895 133.87 163.135 134.08 162.4C134.544 160.907 135.474 159.603 136.734 158.678C137.994 157.753 139.517 157.256 141.08 157.26L263.85 157.33H275.06C276.779 157.401 278.415 158.091 279.667 159.272C280.918 160.454 281.7 162.047 281.87 163.76C281.93 170.03 281.87 175.38 281.87 179.76C281.87 180.86 281.87 181.89 281.87 182.87C281.806 183.792 281.561 184.692 281.15 185.52C280.511 186.823 279.479 187.894 278.2 188.58C277.425 189.01 276.571 189.278 275.69 189.37C275.363 189.431 275.032 189.464 274.7 189.47Z" fill="#263238"/>
<path d="M274.69 215.18H141.01C137.138 215.18 134 218.318 134 222.19V240.12C134 243.992 137.138 247.13 141.01 247.13H274.69C278.562 247.13 281.7 243.992 281.7 240.12V222.19C281.7 218.318 278.562 215.18 274.69 215.18Z" fill="#EBEBEB"/>
<path d="M274.7 247.13H274.92C275.144 247.12 275.368 247.096 275.59 247.06C276.454 246.945 277.289 246.666 278.05 246.24C279.282 245.548 280.278 244.503 280.91 243.24C281.305 242.43 281.536 241.55 281.59 240.65C281.59 239.65 281.59 238.65 281.59 237.54C281.59 233.16 281.59 227.76 281.51 221.54C281.347 219.957 280.64 218.48 279.51 217.36C278.303 216.17 276.694 215.474 275 215.41H263.8L141 215.44C139.555 215.445 138.149 215.912 136.987 216.772C135.825 217.631 134.968 218.839 134.54 220.22C134.242 221.636 134.141 223.086 134.24 224.53V239.77C134.214 240.464 134.291 241.159 134.47 241.83C134.816 243.162 135.563 244.356 136.61 245.25C137.646 246.136 138.925 246.69 140.28 246.84C141.63 246.92 143.06 246.84 144.44 246.84H168.63L223.82 246.9L261.03 246.98L271.15 247.03H273.78H274.68H273.78H271.15L261.03 247.08L223.82 247.17L168.63 247.22H144.46C143.06 247.22 141.7 247.27 140.25 247.22C138.805 247.077 137.436 246.503 136.322 245.572C135.207 244.641 134.398 243.397 134 242C133.816 241.285 133.735 240.548 133.76 239.81V222.33C133.762 221.562 133.869 220.798 134.08 220.06C134.544 218.567 135.474 217.263 136.734 216.338C137.994 215.413 139.517 214.916 141.08 214.92L263.85 214.99L275 215C276.776 215.072 278.46 215.807 279.72 217.06C280.901 218.231 281.64 219.775 281.81 221.43C281.87 227.7 281.81 233.05 281.81 237.43C281.81 238.53 281.81 239.56 281.81 240.55C281.725 241.733 281.344 242.875 280.703 243.873C280.062 244.87 279.18 245.691 278.14 246.26C277.363 246.683 276.51 246.948 275.63 247.04C275.323 247.094 275.012 247.124 274.7 247.13Z" fill="#263238"/>
<path d="M275.93 364.81C275.93 364.81 276.24 364.81 276.83 364.71C277.695 364.563 278.516 364.221 279.23 363.71C280.401 362.876 281.212 361.629 281.5 360.22C281.625 359.319 281.662 358.408 281.61 357.5C281.61 356.5 281.61 355.5 281.61 354.36C281.61 349.93 281.61 344.52 281.56 338.24C281.538 337.446 281.349 336.666 281.004 335.951C280.659 335.236 280.167 334.602 279.56 334.09C278.922 333.554 278.169 333.171 277.36 332.97C276.516 332.793 275.651 332.732 274.79 332.79H263.49L139.8 332.86C138.347 332.865 136.954 333.439 135.92 334.46C135.408 334.963 135.001 335.562 134.721 336.222C134.441 336.883 134.295 337.593 134.29 338.31C134.29 341.29 134.29 344.25 134.29 347.19V358.12C134.257 358.819 134.3 359.52 134.42 360.21C134.715 361.56 135.507 362.749 136.64 363.54C137.197 363.93 137.821 364.214 138.48 364.38C139.153 364.523 139.842 364.58 140.53 364.55H169.12L224.73 364.61L262.22 364.69L272.41 364.74H275.06H275.96H275.06H272.41L262.22 364.79L224.7 365L169.09 365.06H140.5C139.772 365.098 139.042 365.038 138.33 364.88C137.611 364.707 136.933 364.398 136.33 363.97C135.091 363.106 134.223 361.806 133.9 360.33C133.77 359.604 133.723 358.866 133.76 358.13V338.31C133.76 336.719 134.392 335.193 135.517 334.067C136.643 332.942 138.169 332.31 139.76 332.31L263.45 332.39H274.75C275.638 332.332 276.53 332.399 277.4 332.59C278.253 332.806 279.046 333.213 279.72 333.78C280.356 334.323 280.871 334.994 281.233 335.748C281.595 336.502 281.795 337.324 281.82 338.16C281.82 344.45 281.82 349.86 281.82 354.29C281.82 355.4 281.82 356.44 281.82 357.43C281.864 358.349 281.821 359.27 281.69 360.18C281.375 361.62 280.529 362.887 279.32 363.73C278.592 364.249 277.753 364.591 276.87 364.73C276.56 364.79 276.245 364.817 275.93 364.81Z" fill="#E0E0E0"/>
<path d="M240.71 348.71C240.71 348.85 225.76 348.97 207.32 348.97C188.88 348.97 173.94 348.85 173.94 348.71C173.94 348.57 188.88 348.45 207.32 348.45C225.76 348.45 240.71 348.57 240.71 348.71Z" fill="#E0E0E0"/>
<path d="M222.258 104.006C227.147 99.1164 227.147 91.1892 222.258 86.2998C217.369 81.4104 209.441 81.4104 204.552 86.2998C199.663 91.1892 199.663 99.1164 204.552 104.006C209.441 108.895 217.369 108.895 222.258 104.006Z" fill="#F5F5F5"/>
<path d="M221.5 104.65C221.279 102.67 220.327 100.845 218.831 99.5297C217.335 98.2147 215.402 97.5053 213.41 97.54C211.427 97.5542 209.516 98.2846 208.03 99.5968C206.543 100.909 205.581 102.714 205.32 104.68C206.4 105.695 207.672 106.484 209.061 106.999C210.451 107.514 211.93 107.746 213.41 107.68C216.399 107.763 219.301 106.676 221.5 104.65Z" fill="#E0E0E0"/>
<path d="M213.41 98.4C216.122 98.4 218.32 96.2017 218.32 93.49C218.32 90.7783 216.122 88.58 213.41 88.58C210.698 88.58 208.5 90.7783 208.5 93.49C208.5 96.2017 210.698 98.4 213.41 98.4Z" fill="#E0E0E0"/>
<path d="M221.44 104.22C221.283 103.422 221.027 102.646 220.68 101.91C220.227 101.082 219.627 100.343 218.91 99.73C217.967 98.9357 216.881 98.3282 215.71 97.94L215.46 97.85L215.69 97.73C216.521 97.2676 217.199 96.5724 217.64 95.73C218.15 94.7866 218.329 93.6992 218.147 92.6422C217.966 91.5851 217.435 90.6195 216.64 89.9C215.768 89.1116 214.635 88.675 213.46 88.675C212.285 88.675 211.151 89.1116 210.28 89.9C209.444 90.6322 208.897 91.6397 208.74 92.74C208.572 93.7678 208.748 94.8223 209.24 95.74C209.466 96.1623 209.756 96.5468 210.1 96.88C210.425 97.1992 210.788 97.4779 211.18 97.71L211.4 97.85L211.15 97.92C209.954 98.2369 208.854 98.845 207.95 99.69C207.263 100.338 206.698 101.103 206.28 101.95C206.002 102.489 205.78 103.055 205.62 103.64C205.572 103.791 205.532 103.945 205.5 104.1C205.49 104.155 205.473 104.209 205.45 104.26C205.45 104.26 205.45 104.2 205.45 104.09C205.45 103.98 205.45 103.83 205.54 103.62C205.683 103.024 205.888 102.444 206.15 101.89C206.564 101.018 207.13 100.226 207.82 99.55C208.734 98.6691 209.855 98.0328 211.08 97.7V97.9C210.673 97.6635 210.294 97.3817 209.95 97.06C209.592 96.7043 209.286 96.3004 209.04 95.86C208.524 94.8997 208.331 93.7986 208.49 92.72C208.662 91.5611 209.235 90.4993 210.11 89.72C211.039 88.8937 212.237 88.4349 213.48 88.43C214.359 88.4199 215.224 88.6416 215.99 89.0726C216.756 89.5037 217.394 90.1288 217.841 90.8852C218.288 91.6416 218.528 92.5025 218.537 93.3811C218.545 94.2597 218.322 95.1251 217.89 95.89C217.406 96.7412 216.687 97.4354 215.82 97.89V97.68C217.016 98.0897 218.123 98.7244 219.08 99.55C219.802 100.187 220.399 100.954 220.84 101.81C221 102.131 221.13 102.466 221.23 102.81C221.318 103.053 221.378 103.304 221.41 103.56L221.48 104.04C221.45 104.17 221.45 104.22 221.44 104.22Z" fill="#263238"/>
<path d="M225.93 95.15C225.918 95.0839 225.918 95.0161 225.93 94.95C225.93 94.8 225.93 94.6 225.93 94.35C225.93 94.1 225.93 94.08 225.93 93.92C225.93 93.76 225.88 93.58 225.85 93.39C225.792 92.9538 225.702 92.5226 225.58 92.1C225.284 90.9336 224.816 89.8179 224.19 88.79C223.369 87.424 222.293 86.2289 221.02 85.27C219.45 84.0987 217.622 83.3204 215.69 83C213.507 82.5965 211.256 82.7829 209.17 83.54C208.615 83.7445 208.074 83.985 207.55 84.26C207.024 84.5575 206.519 84.8916 206.04 85.26C205.543 85.6269 205.072 86.0278 204.63 86.46C203.288 87.8385 202.264 89.4939 201.63 91.31C200.79 93.849 200.79 96.591 201.63 99.13C202.037 100.356 202.635 101.51 203.4 102.55C203.774 103.054 204.182 103.531 204.62 103.98C205.06 104.41 205.528 104.81 206.02 105.18C206.507 105.543 207.014 105.876 207.54 106.18C208.064 106.452 208.605 106.689 209.16 106.89C211.247 107.645 213.496 107.835 215.68 107.44C217.412 107.112 219.055 106.422 220.503 105.416C221.95 104.409 223.169 103.109 224.08 101.6C224.706 100.572 225.174 99.4564 225.47 98.29C225.592 97.8673 225.682 97.4361 225.74 97C225.74 96.81 225.8 96.64 225.82 96.48C225.84 96.32 225.82 96.17 225.82 96.04C225.82 95.91 225.82 95.59 225.82 95.44C225.808 95.3739 225.808 95.3061 225.82 95.24V96.04C225.82 96.17 225.82 96.32 225.82 96.48C225.82 96.64 225.82 96.82 225.75 97.01C225.705 97.449 225.625 97.8838 225.51 98.31C225.233 99.4982 224.77 100.635 224.14 101.68C223.328 103.078 222.247 104.302 220.96 105.28C219.402 106.483 217.583 107.301 215.65 107.67C213.425 108.083 211.13 107.897 209 107.13C208.434 106.928 207.883 106.687 207.35 106.41C206.808 106.112 206.287 105.778 205.79 105.41C205.29 105.031 204.813 104.624 204.36 104.19C203.912 103.728 203.494 103.237 203.11 102.72C202.325 101.66 201.714 100.482 201.3 99.23C200.42 96.6359 200.42 93.824 201.3 91.23C201.714 89.9781 202.325 88.8 203.11 87.74C203.494 87.2263 203.912 86.7386 204.36 86.28C204.832 85.8144 205.341 85.3864 205.88 85C206.369 84.6263 206.888 84.2919 207.43 84C207.963 83.723 208.514 83.4825 209.08 83.28C211.074 82.5526 213.22 82.3408 215.317 82.6642C217.415 82.9876 219.397 83.8358 221.08 85.13C222.362 86.1135 223.442 87.336 224.26 88.73C224.89 89.7746 225.353 90.9118 225.63 92.1C225.745 92.5262 225.825 92.9609 225.87 93.4C225.87 93.59 225.93 93.77 225.94 93.93C225.95 94.09 225.94 94.24 225.94 94.37V95.17L225.93 95.15Z" fill="#263238"/>
<path d="M290.76 117.22C290.76 117.37 255.59 117.48 212.22 117.48C168.85 117.48 133.67 117.37 133.67 117.22C133.67 117.07 168.83 116.96 212.22 116.96C255.61 116.96 290.76 117.08 290.76 117.22Z" fill="#E0E0E0"/>
<path d="M290.76 314.85C290.76 314.99 255.59 315.11 212.22 315.11C168.85 315.11 133.67 314.99 133.67 314.85C133.67 314.71 168.83 314.59 212.22 314.59C255.61 314.59 290.76 314.71 290.76 314.85Z" fill="#E0E0E0"/>
<path d="M148.85 230.64L151.08 231.9L150.5 232.9L148.22 231.56V234.12H147.09V231.56L144.82 232.9L144.23 231.9L146.49 230.64L144.23 229.4L144.82 228.4L147.09 229.73V227.19H148.22V229.73L150.5 228.4L151.08 229.4L148.85 230.64Z" fill="white"/>
<path d="M156.75 230.64L159 231.9L158.41 232.9L156.14 231.56V234.12H155V231.56L152.72 232.9L152.14 231.9L154.39 230.64L152.14 229.4L152.72 228.4L155 229.73V227.19H156.13V229.73L158.4 228.4L158.99 229.4L156.75 230.64Z" fill="white"/>
<path d="M164.65 230.64L166.89 231.9L166.31 232.9L164 231.6V234.16H162.87V231.6L160.59 232.94L160.01 231.94L162.27 230.68L160.01 229.44L160.59 228.44L162.87 229.77V227.23H164V229.77L166.28 228.44L166.86 229.44L164.65 230.64Z" fill="white"/>
<path d="M172.55 230.64L174.79 231.9L174.21 232.9L171.93 231.56V234.12H170.8V231.56L168.53 232.9L167.94 231.9L170.2 230.64L168 229.4L168.59 228.4L170.86 229.73V227.19H172V229.73L174.28 228.4L174.86 229.4L172.55 230.64Z" fill="white"/>
<path d="M149.3 173.46V176H148.7V173.48C148.726 173.294 148.71 173.105 148.653 172.927C148.596 172.748 148.5 172.584 148.371 172.448C148.243 172.312 148.085 172.206 147.91 172.139C147.735 172.072 147.547 172.045 147.36 172.06C147.148 172.046 146.934 172.078 146.736 172.155C146.537 172.231 146.358 172.351 146.21 172.504C146.062 172.658 145.95 172.841 145.881 173.043C145.812 173.244 145.788 173.458 145.81 173.67V176H145.21V171.6H145.78V172.42C145.959 172.139 146.211 171.911 146.508 171.76C146.805 171.609 147.137 171.54 147.47 171.56C147.721 171.541 147.974 171.577 148.209 171.667C148.445 171.756 148.658 171.897 148.833 172.079C149.008 172.26 149.14 172.478 149.221 172.717C149.302 172.956 149.329 173.21 149.3 173.46Z" fill="white"/>
<path d="M154.29 173.29V176H153.71V175.31C153.545 175.56 153.316 175.76 153.047 175.891C152.778 176.021 152.478 176.076 152.18 176.05C151.18 176.05 150.56 175.52 150.56 174.75C150.56 173.98 151 173.49 152.27 173.49H153.69V173.22C153.69 172.46 153.26 172.05 152.43 172.05C151.89 172.04 151.365 172.225 150.95 172.57L150.68 172.12C151.195 171.714 151.835 171.502 152.49 171.52C152.732 171.484 152.979 171.504 153.212 171.58C153.445 171.656 153.657 171.784 153.832 171.956C154.006 172.128 154.138 172.338 154.218 172.569C154.297 172.801 154.322 173.047 154.29 173.29ZM153.69 174.71V174H152.29C151.43 174 151.15 174.34 151.15 174.79C151.15 175.24 151.56 175.63 152.27 175.63C152.574 175.648 152.875 175.568 153.131 175.403C153.386 175.237 153.582 174.994 153.69 174.71Z" fill="white"/>
<path d="M163.26 173.46V176H162.66V173.48C162.66 172.55 162.18 172.06 161.38 172.06C161.172 172.051 160.964 172.088 160.771 172.167C160.578 172.247 160.405 172.368 160.263 172.521C160.121 172.674 160.015 172.856 159.95 173.054C159.886 173.253 159.865 173.463 159.89 173.67V176H159.29V173.48C159.29 172.55 158.82 172.06 158.01 172.06C157.802 172.051 157.594 172.088 157.401 172.167C157.208 172.247 157.035 172.368 156.893 172.521C156.751 172.674 156.645 172.856 156.58 173.054C156.516 173.253 156.495 173.463 156.52 173.67V176H155.92V171.6H156.49V172.41C156.662 172.136 156.903 171.913 157.19 171.764C157.476 171.615 157.797 171.544 158.12 171.56C158.449 171.536 158.778 171.613 159.062 171.781C159.346 171.949 159.572 172.2 159.71 172.5C159.89 172.2 160.148 171.954 160.456 171.789C160.764 171.624 161.111 171.544 161.46 171.56C161.71 171.54 161.962 171.576 162.196 171.666C162.431 171.756 162.642 171.897 162.815 172.079C162.988 172.261 163.117 172.48 163.194 172.719C163.271 172.958 163.294 173.211 163.26 173.46Z" fill="white"/>
<path d="M168.78 174H165.06C165.071 174.217 165.126 174.429 165.221 174.625C165.315 174.82 165.448 174.995 165.611 175.138C165.774 175.282 165.964 175.391 166.17 175.46C166.376 175.529 166.593 175.556 166.81 175.54C167.065 175.548 167.319 175.501 167.554 175.401C167.789 175.3 167.999 175.15 168.17 174.96L168.51 175.35C168.188 175.669 167.781 175.887 167.338 175.98C166.895 176.073 166.435 176.036 166.012 175.873C165.59 175.711 165.223 175.429 164.957 175.063C164.69 174.697 164.535 174.262 164.51 173.81C164.493 173.516 164.538 173.223 164.64 172.947C164.742 172.671 164.899 172.42 165.103 172.208C165.307 171.996 165.552 171.828 165.823 171.715C166.094 171.601 166.386 171.545 166.68 171.55C166.973 171.545 167.264 171.601 167.534 171.715C167.805 171.828 168.049 171.996 168.251 172.208C168.453 172.421 168.608 172.673 168.708 172.949C168.808 173.224 168.849 173.517 168.83 173.81L168.78 174ZM165.06 173.55H168.21C168.178 173.154 167.999 172.784 167.707 172.515C167.415 172.245 167.032 172.096 166.635 172.096C166.238 172.096 165.855 172.245 165.563 172.515C165.271 172.784 165.092 173.154 165.06 173.55Z" fill="white"/>
<path d="M177.47 173.8C177.47 175.24 176.94 176.09 176.07 176.09C175.945 176.097 175.82 176.078 175.703 176.034C175.586 175.99 175.479 175.922 175.39 175.835C175.3 175.747 175.23 175.642 175.184 175.526C175.137 175.41 175.116 175.285 175.12 175.16C174.949 175.453 174.701 175.695 174.403 175.858C174.106 176.022 173.769 176.102 173.43 176.09C172.876 176.053 172.357 175.806 171.978 175.4C171.599 174.995 171.388 174.46 171.388 173.905C171.388 173.35 171.599 172.815 171.978 172.41C172.357 172.004 172.876 171.758 173.43 171.72C173.762 171.708 174.091 171.785 174.384 171.941C174.678 172.097 174.924 172.328 175.1 172.61V171.76H175.65V175C175.65 175.47 175.89 175.64 176.17 175.64C176.7 175.64 177.04 174.99 177.04 173.85C177.053 173.398 176.97 172.948 176.797 172.53C176.624 172.111 176.365 171.734 176.037 171.423C175.709 171.112 175.318 170.873 174.891 170.722C174.465 170.572 174.011 170.513 173.56 170.55C173.099 170.525 172.637 170.594 172.203 170.753C171.77 170.913 171.373 171.159 171.038 171.477C170.702 171.794 170.435 172.177 170.252 172.601C170.07 173.026 169.976 173.483 169.976 173.945C169.976 174.407 170.07 174.864 170.252 175.289C170.435 175.713 170.702 176.096 171.038 176.413C171.373 176.731 171.77 176.977 172.203 177.137C172.637 177.296 173.099 177.365 173.56 177.34C174.121 177.338 174.674 177.212 175.18 176.97L175.32 177.38C174.771 177.642 174.169 177.776 173.56 177.77C172.544 177.77 171.57 177.366 170.852 176.648C170.133 175.93 169.73 174.956 169.73 173.94C169.73 172.924 170.133 171.95 170.852 171.232C171.57 170.514 172.544 170.11 173.56 170.11C174.064 170.075 174.569 170.146 175.045 170.316C175.52 170.486 175.955 170.753 176.322 171.1C176.689 171.446 176.981 171.865 177.179 172.33C177.376 172.794 177.475 173.295 177.47 173.8ZM175.11 173.9C175.094 173.585 174.987 173.282 174.801 173.028C174.614 172.774 174.358 172.58 174.063 172.471C173.767 172.361 173.447 172.34 173.14 172.411C172.833 172.482 172.554 172.641 172.336 172.869C172.119 173.098 171.973 173.384 171.918 173.694C171.862 174.004 171.898 174.324 172.022 174.613C172.146 174.903 172.352 175.15 172.614 175.323C172.877 175.497 173.185 175.59 173.5 175.59C173.72 175.595 173.938 175.554 174.141 175.469C174.343 175.385 174.526 175.259 174.678 175.1C174.829 174.941 174.946 174.752 175.02 174.546C175.095 174.339 175.125 174.119 175.11 173.9Z" fill="white"/>
<path d="M186.08 173.46V176H185.48V173.48C185.48 172.55 185.01 172.06 184.2 172.06C183.992 172.051 183.784 172.088 183.592 172.167C183.399 172.247 183.227 172.368 183.086 172.521C182.945 172.674 182.839 172.857 182.776 173.055C182.713 173.253 182.694 173.463 182.72 173.67V176H182.12V173.48C182.12 172.55 181.64 172.06 180.83 172.06C180.622 172.051 180.414 172.088 180.221 172.167C180.028 172.247 179.855 172.368 179.713 172.521C179.571 172.674 179.464 172.856 179.4 173.054C179.336 173.253 179.315 173.463 179.34 173.67V176H178.74V171.6H179.32V172.41C179.491 172.136 179.732 171.912 180.019 171.763C180.306 171.613 180.627 171.543 180.95 171.56C181.278 171.535 181.606 171.612 181.888 171.78C182.171 171.949 182.395 172.2 182.53 172.5C182.715 172.203 182.976 171.96 183.284 171.795C183.593 171.63 183.94 171.549 184.29 171.56C184.539 171.541 184.79 171.579 185.023 171.669C185.256 171.76 185.466 171.901 185.638 172.083C185.809 172.265 185.938 172.483 186.015 172.722C186.091 172.96 186.113 173.212 186.08 173.46Z" fill="white"/>
<path d="M191.07 173.29V176H190.49V175.31C190.325 175.56 190.096 175.76 189.827 175.891C189.558 176.021 189.258 176.076 188.96 176.05C187.96 176.05 187.34 175.52 187.34 174.75C187.34 173.98 187.78 173.49 189.06 173.49H190.47V173.22C190.47 172.46 190.04 172.05 189.21 172.05C188.67 172.04 188.145 172.225 187.73 172.57L187.46 172.12C187.976 171.717 188.616 171.505 189.27 171.52C189.512 171.484 189.759 171.504 189.992 171.58C190.225 171.656 190.437 171.784 190.611 171.956C190.786 172.128 190.918 172.338 190.998 172.569C191.077 172.801 191.102 173.047 191.07 173.29ZM190.47 174.71V174H189.07C188.21 174 187.93 174.34 187.93 174.79C187.93 175.24 188.35 175.63 189.06 175.63C189.362 175.646 189.661 175.565 189.915 175.399C190.168 175.234 190.362 174.993 190.47 174.71Z" fill="white"/>
<path d="M192.57 170.19C192.571 170.134 192.584 170.078 192.607 170.026C192.629 169.974 192.662 169.928 192.703 169.889C192.744 169.85 192.792 169.819 192.845 169.799C192.897 169.778 192.954 169.769 193.01 169.77C193.071 169.761 193.134 169.764 193.194 169.782C193.253 169.799 193.308 169.828 193.355 169.869C193.402 169.909 193.44 169.959 193.466 170.015C193.492 170.072 193.505 170.133 193.505 170.195C193.505 170.257 193.492 170.318 193.466 170.375C193.44 170.431 193.402 170.481 193.355 170.521C193.308 170.562 193.253 170.591 193.194 170.608C193.134 170.625 193.071 170.629 193.01 170.62C192.953 170.621 192.896 170.611 192.842 170.59C192.789 170.569 192.741 170.538 192.7 170.498C192.659 170.458 192.626 170.41 192.604 170.357C192.581 170.304 192.57 170.247 192.57 170.19ZM192.7 171.6H193.3V176H192.7V171.6Z" fill="white"/>
<path d="M195 169.77H195.6V176H195V169.77Z" fill="white"/>
<path d="M196.86 175.62C196.859 175.56 196.869 175.5 196.891 175.445C196.913 175.389 196.946 175.338 196.988 175.295C197.03 175.252 197.08 175.218 197.135 175.195C197.191 175.172 197.25 175.16 197.31 175.16C197.43 175.163 197.545 175.212 197.629 175.298C197.713 175.384 197.76 175.5 197.76 175.62C197.76 175.741 197.713 175.858 197.629 175.945C197.546 176.033 197.431 176.085 197.31 176.09C197.25 176.089 197.19 176.076 197.135 176.051C197.079 176.027 197.029 175.992 196.988 175.948C196.946 175.905 196.913 175.853 196.891 175.797C196.869 175.74 196.859 175.68 196.86 175.62Z" fill="white"/>
<path d="M198.47 173.82C198.46 173.518 198.513 173.217 198.625 172.936C198.736 172.656 198.905 172.401 199.12 172.189C199.336 171.977 199.592 171.811 199.874 171.703C200.157 171.595 200.458 171.546 200.76 171.56C201.101 171.546 201.44 171.62 201.744 171.774C202.049 171.928 202.309 172.157 202.5 172.44L202.05 172.75C201.908 172.54 201.715 172.369 201.49 172.254C201.264 172.138 201.013 172.082 200.76 172.09C200.301 172.09 199.861 172.272 199.537 172.597C199.212 172.921 199.03 173.361 199.03 173.82C199.03 174.279 199.212 174.719 199.537 175.043C199.861 175.368 200.301 175.55 200.76 175.55C201.012 175.56 201.263 175.505 201.489 175.392C201.715 175.278 201.908 175.109 202.05 174.9L202.5 175.21C202.309 175.493 202.049 175.722 201.744 175.876C201.44 176.03 201.101 176.104 200.76 176.09C200.458 176.103 200.156 176.053 199.874 175.943C199.591 175.834 199.335 175.667 199.12 175.454C198.905 175.241 198.736 174.986 198.625 174.705C198.513 174.424 198.46 174.122 198.47 173.82Z" fill="white"/>
<path d="M203.15 173.82C203.152 173.373 203.286 172.937 203.536 172.567C203.785 172.197 204.139 171.909 204.552 171.739C204.965 171.57 205.419 171.526 205.857 171.615C206.295 171.703 206.696 171.919 207.012 172.235C207.327 172.552 207.541 172.955 207.627 173.393C207.714 173.831 207.668 174.285 207.497 174.697C207.326 175.11 207.036 175.462 206.664 175.71C206.293 175.958 205.857 176.09 205.41 176.09C205.11 176.1 204.811 176.048 204.531 175.937C204.252 175.826 203.998 175.659 203.786 175.446C203.574 175.233 203.409 174.979 203.299 174.699C203.19 174.42 203.139 174.12 203.15 173.82ZM207.06 173.82C207.044 173.498 206.934 173.187 206.744 172.926C206.553 172.666 206.29 172.467 205.988 172.354C205.685 172.241 205.356 172.22 205.042 172.292C204.727 172.364 204.441 172.528 204.218 172.761C203.995 172.995 203.846 173.289 203.788 173.606C203.731 173.924 203.768 174.252 203.895 174.549C204.022 174.845 204.233 175.099 204.502 175.277C204.771 175.455 205.087 175.55 205.41 175.55C205.635 175.555 205.858 175.513 206.066 175.426C206.273 175.34 206.461 175.211 206.616 175.048C206.771 174.886 206.891 174.692 206.967 174.481C207.044 174.269 207.075 174.044 207.06 173.82Z" fill="white"/>
<path d="M216.24 173.46V176H215.64V173.48C215.64 172.55 215.16 172.06 214.36 172.06C214.152 172.051 213.944 172.088 213.751 172.167C213.558 172.247 213.385 172.368 213.243 172.521C213.101 172.674 212.994 172.856 212.93 173.054C212.866 173.253 212.845 173.463 212.87 173.67V176H212.27V173.48C212.27 172.55 211.8 172.06 210.99 172.06C210.782 172.051 210.574 172.088 210.381 172.167C210.188 172.247 210.015 172.368 209.873 172.521C209.731 172.674 209.624 172.856 209.56 173.054C209.496 173.253 209.475 173.463 209.5 173.67V176H208.9V171.6H209.47V172.41C209.642 172.136 209.883 171.913 210.17 171.764C210.456 171.615 210.777 171.544 211.1 171.56C211.429 171.536 211.758 171.613 212.042 171.781C212.326 171.949 212.552 172.2 212.69 172.5C212.87 172.2 213.128 171.954 213.436 171.789C213.744 171.624 214.091 171.544 214.44 171.56C214.69 171.54 214.942 171.576 215.176 171.666C215.411 171.756 215.622 171.897 215.795 172.079C215.968 172.261 216.097 172.48 216.174 172.719C216.251 172.958 216.274 173.211 216.24 173.46Z" fill="white"/>
<path d="M139.89 41.79C139.831 41.7905 139.772 41.7792 139.717 41.7569C139.662 41.7346 139.612 41.7017 139.57 41.66L134.87 37.54C134.815 37.494 134.771 37.4366 134.741 37.3718C134.711 37.307 134.695 37.2364 134.695 37.165C134.695 37.0935 134.711 37.0229 134.741 36.9582C134.771 36.8934 134.815 36.836 134.87 36.79L139.57 32.89C139.619 32.8474 139.675 32.815 139.737 32.7949C139.798 32.7748 139.863 32.7673 139.928 32.7729C139.992 32.7785 140.055 32.7971 140.112 32.8275C140.169 32.858 140.219 32.8996 140.26 32.95C140.303 32.9995 140.335 33.0571 140.356 33.1194C140.376 33.1817 140.383 33.2474 140.378 33.3127C140.372 33.3779 140.354 33.4414 140.323 33.4993C140.293 33.5573 140.251 33.6085 140.2 33.65L136 37.18L140.26 40.92C140.31 40.9622 140.351 41.014 140.381 41.0723C140.41 41.1306 140.428 41.1942 140.433 41.2594C140.437 41.3247 140.429 41.3902 140.408 41.4521C140.387 41.514 140.353 41.5711 140.31 41.62C140.257 41.6782 140.192 41.7237 140.12 41.7531C140.047 41.7826 139.968 41.7952 139.89 41.79Z" fill="#263238"/>
<path d="M276.28 37.28C276.28 37.7764 276.133 38.2617 275.857 38.6745C275.581 39.0872 275.189 39.409 274.731 39.5989C274.272 39.7889 273.767 39.8386 273.28 39.7418C272.793 39.6449 272.346 39.4059 271.995 39.0548C271.644 38.7038 271.405 38.2566 271.308 37.7697C271.211 37.2828 271.261 36.7781 271.451 36.3195C271.641 35.8608 271.963 35.4688 272.376 35.193C272.788 34.9172 273.274 34.77 273.77 34.77C274.436 34.77 275.074 35.0344 275.545 35.5052C276.016 35.9759 276.28 36.6143 276.28 37.28Z" fill="#263238"/>
<path d="M283.52 37.28C283.52 37.776 283.373 38.2609 283.098 38.6734C282.822 39.086 282.431 39.4077 281.973 39.598C281.515 39.7882 281.011 39.8385 280.524 39.7425C280.037 39.6464 279.59 39.4084 279.239 39.0583C278.887 38.7083 278.647 38.262 278.549 37.7758C278.451 37.2895 278.5 36.7852 278.688 36.3264C278.877 35.8675 279.197 35.4748 279.608 35.1978C280.02 34.9208 280.504 34.772 281 34.77C281.33 34.7687 281.658 34.8326 281.964 34.9582C282.269 35.0837 282.547 35.2684 282.781 35.5016C283.015 35.7348 283.201 36.0119 283.328 36.3171C283.455 36.6223 283.52 36.9495 283.52 37.28Z" fill="#263238"/>
<path d="M290.76 37.28C290.76 37.7768 290.613 38.2625 290.336 38.6755C290.06 39.0885 289.667 39.4102 289.208 39.5999C288.749 39.7895 288.244 39.8387 287.757 39.741C287.269 39.6433 286.822 39.4033 286.472 39.0513C286.121 38.6992 285.883 38.2511 285.787 37.7635C285.691 37.276 285.742 36.771 285.934 36.3125C286.125 35.854 286.449 35.4627 286.863 35.1881C287.277 34.9135 287.763 34.768 288.26 34.77C288.924 34.7726 289.56 35.0382 290.028 35.5087C290.497 35.9791 290.76 36.616 290.76 37.28Z" fill="#263238"/>
<path d="M411.48 128.81H351.61C349.106 128.81 346.705 129.805 344.935 131.575C343.165 133.345 342.17 135.746 342.17 138.25V153.15C342.17 155.654 343.165 158.055 344.935 159.825C346.705 161.595 349.106 162.59 351.61 162.59H352.23V171.1L361.82 162.59H411.48C413.984 162.59 416.385 161.595 418.155 159.825C419.925 158.055 420.92 155.654 420.92 153.15V138.25C420.92 135.746 419.925 133.345 418.155 131.575C416.385 129.805 413.984 128.81 411.48 128.81Z" fill="white"/>
<path d="M411.48 128.81H412C412.463 128.816 412.924 128.86 413.38 128.94C413.68 129 414.02 129.09 414.38 129.18C414.776 129.306 415.163 129.456 415.54 129.63C416.492 130.061 417.364 130.649 418.12 131.37C419.072 132.275 419.831 133.363 420.35 134.57C420.927 136.025 421.182 137.587 421.1 139.15C421.1 142.48 421.1 146.28 421.1 150.5C421.1 151.56 421.1 152.63 421.1 153.75C420.988 155.564 420.365 157.31 419.304 158.786C418.242 160.262 416.785 161.407 415.1 162.09C413.891 162.568 412.601 162.809 411.3 162.8H407.35H399.09H361.84L362.01 162.73L352.43 171.25L351.99 171.63V162.54L352.25 162.8C350.379 162.886 348.521 162.454 346.88 161.55C345.271 160.635 343.951 159.288 343.07 157.66C342.651 156.85 342.339 155.99 342.14 155.1C341.977 154.22 341.906 153.325 341.93 152.43C341.93 150.68 341.93 148.94 341.93 147.23V139.6C341.93 138.77 341.93 137.94 342 137.09C342.197 135.44 342.813 133.868 343.79 132.523C344.767 131.179 346.072 130.107 347.58 129.41C349.035 128.753 350.625 128.448 352.22 128.52H365.4H380.91L403.3 128.6H409.36H410.94C411.3 128.6 411.48 128.6 411.48 128.6H410.94H409.36H403.3L380.91 128.69H365.4H352.21C350.683 128.615 349.161 128.906 347.77 129.54C346.337 130.201 345.097 131.22 344.171 132.499C343.244 133.777 342.662 135.272 342.48 136.84C342.415 137.658 342.395 138.48 342.42 139.3V152.13C342.396 152.991 342.463 153.853 342.62 154.7C342.813 155.541 343.112 156.354 343.51 157.12C344.343 158.662 345.595 159.937 347.12 160.8C348.682 161.657 350.451 162.065 352.23 161.98H352.49V170.76L352.05 170.57L361.64 162.06L361.71 161.99H361.81H399.06H407.32C409.99 161.91 412.65 162.32 414.92 161.33C416.541 160.679 417.945 159.582 418.968 158.166C419.991 156.75 420.591 155.073 420.7 153.33C420.76 152.25 420.7 151.15 420.7 150.1C420.7 145.88 420.7 142.1 420.7 138.75C420.793 137.218 420.558 135.684 420.01 134.25C419.513 133.066 418.782 131.994 417.86 131.1C417.127 130.383 416.279 129.795 415.35 129.36C414.982 129.185 414.605 129.032 414.22 128.9L413.22 128.64C412.638 128.668 412.057 128.725 411.48 128.81Z" fill="#263238"/>
<path d="M360.62 145.11L362.54 146.11L361.45 147.91L359.45 146.73L359.51 148.89H357.37L357.42 146.73L355.42 147.91L354.35 146.11L356.26 145.11L354.35 144.06L355.42 142.25L357.42 143.46L357.37 141.27H359.51L359.45 143.46L361.45 142.25L362.54 144.06L360.62 145.11Z" fill="#E0E0E0"/>
<path d="M369.52 145.11L371.44 146.11L370.35 147.91L368.35 146.73L368.41 148.89H366.27V146.73L364.27 147.91L363.2 146.11L365.11 145.11L363.2 144.06L364.27 142.25L366.27 143.46V141.27H368.41L368.35 143.46L370.35 142.25L371.44 144.06L369.52 145.11Z" fill="#E0E0E0"/>
<path d="M378.42 145.11L380.34 146.11L379.25 147.91L377.25 146.73L377.3 148.89H375.16L375.21 146.73L373.21 147.91L372.14 146.11L374.05 145.11L372.14 144.06L373.21 142.25L375.21 143.46L375.16 141.27H377.3L377.25 143.46L379.25 142.25L380.34 144.06L378.42 145.11Z" fill="#E0E0E0"/>
<path d="M387.32 145.11L389.24 146.11L388.15 147.91L386.15 146.73L386.2 148.89H384.06L384.11 146.73L382.11 147.91L381.04 146.11L382.96 145.11L381.04 144.06L382.11 142.25L384.11 143.46L384.06 141.27H386.2L386.15 143.46L388.15 142.25L389.24 144.06L387.32 145.11Z" fill="#E0E0E0"/>
<path d="M396.22 145.11L398.14 146.11L397.05 147.91L395.05 146.73L395.1 148.89H393L393.05 146.73L391.05 147.91L389.98 146.11L391.9 145.11L390 144.06L391.07 142.25L393.07 143.46L393.02 141.27H395.16L395.11 143.46L397.11 142.25L398.2 144.06L396.22 145.11Z" fill="#E0E0E0"/>
<path d="M405.12 145.11L407.04 146.11L406 148L404 146.82V148.98H401.86L401.91 146.82L400 148L398.93 146.2L400.85 145.2L398.93 144.15L400 142.34L402 143.55L401.95 141.36H404V143.55L406 142.34L407.09 144.15L405.12 145.11Z" fill="#E0E0E0"/>
<path d="M20.1001 183.63C31.9001 189.74 40.9401 200.26 47.4401 211.84C53.9401 223.42 58.1401 236.13 62.2901 248.75L65.9201 313.82C52.2001 290.48 41.1801 263 38.2101 236.11L47.3401 235.3C41.2201 234.36 36.0801 229.93 32.8101 224.67C29.5401 219.41 27.8101 213.34 26.2101 207.37L37.3501 209C28.5552 203.073 22.3784 193.988 20.1001 183.63Z" fill="#18534F"/>
<g opacity="0.3">
<path d="M20.1001 183.63C31.9001 189.74 40.9401 200.26 47.4401 211.84C53.9401 223.42 58.1401 236.13 62.2901 248.75L65.9201 313.82C52.2001 290.48 41.1801 263 38.2101 236.11L47.3401 235.3C41.2201 234.36 36.0801 229.93 32.8101 224.67C29.5401 219.41 27.8101 213.34 26.2101 207.37L37.3501 209C28.5552 203.073 22.3784 193.988 20.1001 183.63Z" fill="black"/>
</g>
<path d="M68 329.07C68 329.07 97.79 293.42 97.45 259.38H85.45C85.45 259.38 98.52 250.78 97.45 245.97C96.38 241.16 96.07 222.97 96.07 222.97L85.07 225.72C85.07 225.72 93.32 221.59 94.35 215.06C95.38 208.53 91.95 178.27 91.95 178.27C91.95 178.27 78.54 192.37 74.41 206.81C70.28 221.25 59.41 238.09 62.64 282.1C65.87 326.11 68 329.07 68 329.07Z" fill="#18534F"/>
<path d="M52.8501 332.44C52.8501 332.44 20.5801 310.94 13.4101 283.5L23.0801 280.86C23.0801 280.86 10.7001 276.81 10.4701 272.72C10.2401 268.63 6.54008 253.9 6.54008 253.9L15.9901 253.7C15.9901 253.7 8.45008 252.19 6.19007 247.16C3.93007 242.13 0.0800781 217.06 0.0800781 217.06C0.0800781 217.06 13.9401 225.46 20.4201 236.17C26.9001 246.88 39.2901 258.05 46.3601 294.12C53.4301 330.19 52.8501 332.44 52.8501 332.44Z" fill="#18534F"/>
<path d="M83.7601 209.33C83.7546 209.458 83.7379 209.585 83.7101 209.71L83.5001 210.82C83.3001 211.82 83.0201 213.25 82.6501 215.07C82.2801 216.89 81.8201 219.17 81.3301 221.8C80.8401 224.43 80.2401 227.41 79.6601 230.72C78.4301 237.34 77.1201 245.24 75.7701 254.04C74.4201 262.84 73.1301 272.52 71.9301 282.72C70.7301 292.92 69.8501 302.66 69.1201 311.53C68.3901 320.4 67.9001 328.4 67.5901 335.12C67.4001 338.48 67.2901 341.52 67.1801 344.19C67.0701 346.86 66.9901 349.19 66.9401 351.04C66.8901 352.89 66.8201 354.35 66.7901 355.37C66.7901 355.85 66.7901 356.22 66.7401 356.5C66.7507 356.626 66.7507 356.754 66.7401 356.88C66.7292 356.754 66.7292 356.626 66.7401 356.5C66.7401 356.22 66.7401 355.85 66.7401 355.37C66.7401 354.37 66.7401 352.9 66.7401 351.04C66.7401 349.18 66.8101 346.85 66.9001 344.18C66.9901 341.51 67.0601 338.46 67.2301 335.1C67.5001 328.37 67.9901 320.37 68.6501 311.49C69.3101 302.61 70.2601 292.87 71.4301 282.66C72.6001 272.45 73.9601 262.76 75.3001 253.96C76.6401 245.16 78.0301 237.27 79.3001 230.66C79.9001 227.34 80.5201 224.36 81.0501 221.74C81.5801 219.12 82.0501 216.87 82.4601 215.03C82.8701 213.19 83.1801 211.79 83.4001 210.8L83.6601 209.7C83.6825 209.574 83.716 209.45 83.7601 209.33Z" fill="#263238"/>
<path d="M72.0901 350.9C72.0901 350.9 99.3501 319.97 107.81 301.28L101.42 298.55C106.05 299.31 110.8 297.32 114.42 294.3C118.04 291.28 120.65 287.3 123.23 283.38L114.79 282C122.522 279.787 129.107 274.685 133.18 267.75C123.24 269.39 114.26 274.84 106.85 281.66C100.974 287.3 95.6345 293.473 90.9001 300.1C88.5175 303.292 86.4448 306.704 84.7101 310.29C80.1301 319.76 72.0701 339.55 72.0901 350.9Z" fill="#18534F"/>
<path d="M13.0001 235.06C13.0683 235.151 13.1285 235.248 13.1801 235.35C13.2901 235.58 13.4501 235.86 13.6401 236.23C14.0601 237.03 14.6401 238.17 15.3901 239.62C16.9101 242.56 19.0401 246.85 21.5901 252.2C24.1401 257.55 27.0801 263.95 30.2101 271.12C33.3401 278.29 36.6201 286.26 39.8901 294.68C43.1601 303.1 46.0401 311.22 48.5801 318.63C51.1201 326.04 53.2301 332.76 54.9301 338.43C56.6301 344.1 57.9301 348.71 58.8101 351.91L59.8101 355.59L60.0601 356.59C60.0931 356.697 60.1132 356.808 60.1201 356.92C60.0655 356.82 60.0283 356.712 60.0101 356.6C59.9301 356.37 59.8301 356.05 59.7101 355.66C59.4601 354.79 59.1001 353.56 58.6401 352C57.7201 348.82 56.3501 344.23 54.6401 338.58C52.9301 332.93 50.7101 326.23 48.1801 318.82C45.6501 311.41 42.7101 303.34 39.4601 294.91C36.2101 286.48 32.9101 278.54 29.8301 271.35C26.7501 264.16 23.8301 257.75 21.3101 252.35C18.7901 246.95 16.7401 242.68 15.3101 239.71L13.6501 236.28C13.4701 235.9 13.3301 235.61 13.2301 235.38C13.1417 235.282 13.0646 235.175 13.0001 235.06Z" fill="#263238"/>
<path d="M69.7701 364.16C69.7501 363.967 69.7501 363.773 69.7701 363.58C69.7701 363.14 69.8701 362.58 69.9301 361.92C69.9901 361.26 70.1101 360.32 70.2701 359.31C70.4301 358.3 70.5801 357.13 70.8301 355.86C71.2701 353.31 71.9401 350.3 72.8301 346.99C73.7201 343.68 74.8301 340.1 76.2301 336.4C77.6301 332.7 79.1701 329.26 80.6801 326.19C82.1901 323.12 83.6801 320.43 85.0601 318.19C85.7101 317.07 86.3601 316.1 86.9201 315.19C87.4801 314.28 87.9201 313.6 88.3901 313.01C88.8601 312.42 89.1001 312.01 89.3901 311.66C89.4942 311.492 89.6184 311.338 89.7601 311.2C89.6833 311.382 89.5896 311.556 89.4801 311.72L88.5901 313.12C88.1901 313.73 87.7201 314.47 87.1901 315.35C86.6601 316.23 86.0301 317.21 85.4001 318.35C84.1001 320.57 82.6401 323.28 81.1401 326.35C79.6401 329.42 78.1401 332.85 76.7501 336.53C75.3601 340.21 74.2401 343.79 73.3201 347.07C72.4001 350.35 71.7301 353.35 71.2401 355.88C70.9701 357.14 70.7901 358.29 70.6101 359.3C70.4301 360.31 70.2901 361.18 70.1801 361.9C70.0701 362.62 69.9901 363.11 69.9201 363.54C69.8953 363.752 69.845 363.96 69.7701 364.16Z" fill="#263238"/>
<path d="M93.46 356.88H33.8V369.05H93.46V356.88Z" fill="#D6955B"/>
<path d="M87.7801 369.05L81.3301 409.99H45.2801L39.2601 369.05H87.7801Z" fill="#D6955B"/>
<path d="M37.4601 369.05C37.4601 368.91 48.7501 368.79 62.6701 368.79C76.5901 368.79 87.8801 368.91 87.8801 369.05C87.8801 369.19 76.5901 369.31 62.6701 369.31C48.7501 369.31 37.4601 369.2 37.4601 369.05Z" fill="#263238"/>
<path d="M335.18 364.4C335.18 364.4 406.89 327.04 422.44 347.65C437.99 368.26 406.83 384.45 400.81 388.09C394.79 391.73 333.88 412.42 333.88 412.42L317.81 395.27L335.18 364.4Z" fill="#263238"/>
<path d="M363.46 384.39L392.05 399.78L418.18 405.44C418.625 405.538 419.045 405.727 419.415 405.994C419.784 406.261 420.095 406.6 420.328 406.992C420.562 407.383 420.712 407.819 420.771 408.271C420.83 408.723 420.795 409.182 420.67 409.62C420.526 410.13 420.261 410.597 419.897 410.982C419.533 411.367 419.081 411.658 418.58 411.83C412.09 414.09 388.2 422.28 386.17 421.04C383.82 419.6 354.93 406.8 354.93 406.8L363.46 384.39Z" fill="#D6955B"/>
<g opacity="0.6">
<path d="M420.67 409.62L384.22 420L385.44 420.63C386.501 421.172 387.721 421.318 388.88 421.04C391.97 420.31 400.47 418.04 418.53 411.88C419.049 411.703 419.516 411.4 419.889 410.999C420.263 410.598 420.531 410.11 420.67 409.58V409.62Z" fill="white"/>
</g>
<g opacity="0.6">
<path d="M377.91 409.35C378.352 409.125 378.861 409.072 379.34 409.201C379.818 409.331 380.232 409.633 380.5 410.05C380.739 410.484 380.803 410.994 380.678 411.473C380.554 411.953 380.25 412.367 379.83 412.63C379.36 412.863 378.82 412.914 378.315 412.774C377.809 412.634 377.373 412.312 377.09 411.87C376.886 411.392 376.876 410.853 377.063 410.367C377.25 409.882 377.618 409.488 378.09 409.27" fill="white"/>
</g>
<path d="M404.66 409.79C404.82 409.67 403.66 408.24 403.66 406.11C403.66 403.98 404.88 402.58 404.72 402.45C404.56 402.32 404.25 402.64 403.81 403.27C403.256 404.111 402.958 405.094 402.95 406.1C402.927 407.106 403.198 408.096 403.73 408.95C404.19 409.59 404.6 409.85 404.66 409.79Z" fill="#263238"/>
<path d="M409.58 409.7C409.78 409.63 409.31 408.22 409.64 406.51C409.97 404.8 410.88 403.64 410.72 403.51C410.56 403.38 409.29 404.43 408.94 406.39C408.59 408.35 409.43 409.82 409.58 409.7Z" fill="#263238"/>
<path d="M397.74 411.1C397.94 411.03 397.21 408.87 397.5 406.16C397.79 403.45 398.88 401.46 398.69 401.36C398.5 401.26 397.06 403.18 396.79 406.09C396.52 409 397.59 411.2 397.74 411.1Z" fill="#263238"/>
<path d="M388.66 407.14C388.87 407.14 389.01 405.22 390 403.14C390.99 401.06 392.32 399.63 392.18 399.47C392.04 399.31 390.38 400.55 389.35 402.84C388.32 405.13 388.47 407.17 388.66 407.14Z" fill="#263238"/>
<path d="M380.15 402.84C380.36 402.84 380.22 400.73 381.44 398.59C382.66 396.45 384.44 395.42 384.35 395.24C384.26 395.06 383.79 395.3 383.07 395.77C382.13 396.4 381.354 397.247 380.81 398.24C380.259 399.231 379.951 400.337 379.91 401.47C379.9 402.33 380.06 402.85 380.15 402.84Z" fill="#263238"/>
<path d="M379.79 397.82C379.79 397.82 379.46 397.52 378.72 397.22C377.667 396.805 376.542 396.605 375.41 396.63C374.58 396.575 373.755 396.792 373.06 397.25C372.85 397.426 372.697 397.662 372.623 397.925C372.548 398.189 372.554 398.47 372.64 398.73C372.85 399.226 373.234 399.627 373.72 399.86C374.725 400.288 375.848 400.352 376.896 400.042C377.943 399.732 378.85 399.066 379.46 398.16C380.047 397.252 380.35 396.189 380.33 395.108C380.311 394.027 379.969 392.976 379.35 392.09C379.195 391.866 378.993 391.679 378.758 391.54C378.523 391.402 378.261 391.317 377.99 391.29C377.714 391.293 377.446 391.383 377.224 391.546C377.001 391.709 376.836 391.938 376.75 392.2C376.538 392.989 376.538 393.821 376.75 394.61C376.973 395.716 377.393 396.773 377.99 397.73C378.42 398.4 378.73 398.73 378.77 398.73C378.059 397.423 377.547 396.018 377.25 394.56C377.075 393.871 377.075 393.149 377.25 392.46C377.292 392.315 377.38 392.187 377.501 392.097C377.622 392.007 377.769 391.959 377.92 391.96C378.098 391.99 378.267 392.057 378.417 392.157C378.567 392.257 378.694 392.388 378.79 392.54C379.296 393.324 379.565 394.237 379.565 395.17C379.565 396.103 379.296 397.016 378.79 397.8C378.271 398.563 377.509 399.128 376.629 399.402C375.748 399.676 374.8 399.644 373.94 399.31C373.597 399.159 373.318 398.894 373.15 398.56C373.097 398.417 373.089 398.262 373.128 398.115C373.168 397.968 373.252 397.837 373.37 397.74C373.961 397.347 374.66 397.148 375.37 397.17C376.87 397.121 378.367 397.341 379.79 397.82Z" fill="#263238"/>
<path d="M373.71 388.05C373.71 388.05 306.14 347.11 297.01 342.05C289.16 337.68 264.36 328.05 255.62 351.8C246.88 375.55 293.94 410.64 293.94 410.64L333.88 412.43L347.21 407.34L362.35 412L373.71 388.05Z" fill="#263238"/>
<path d="M326.2 413.25L295.91 425L274.63 441.17C274.267 441.447 273.85 441.646 273.407 441.755C272.963 441.864 272.502 441.88 272.052 441.803C271.602 441.726 271.172 441.558 270.79 441.308C270.408 441.058 270.081 440.732 269.83 440.35C269.543 439.911 269.365 439.41 269.309 438.888C269.254 438.367 269.323 437.84 269.51 437.35C272.01 430.96 281.33 407.48 283.59 406.75C286.21 405.9 314.72 392.28 314.72 392.28L326.2 413.25Z" fill="#D6955B"/>
<g opacity="0.6">
<path d="M269.83 440.3L285.62 405.83L284.35 406.35C283.249 406.802 282.344 407.631 281.8 408.69C280.35 411.52 276.51 419.43 269.47 437.18C269.27 437.69 269.198 438.241 269.26 438.785C269.323 439.329 269.519 439.849 269.83 440.3Z" fill="white"/>
</g>
<g opacity="0.6">
<path d="M297.84 408C297.723 408.482 297.431 408.904 297.021 409.183C296.611 409.462 296.111 409.579 295.62 409.51C295.136 409.411 294.708 409.129 294.425 408.723C294.142 408.318 294.026 407.819 294.1 407.33C294.228 406.821 294.54 406.377 294.975 406.083C295.411 405.79 295.94 405.667 296.46 405.74C296.957 405.895 297.374 406.238 297.622 406.695C297.87 407.153 297.931 407.689 297.79 408.19" fill="white"/>
</g>
<path d="M280.11 428C280.11 428.21 281.95 428.23 283.53 429.67C285.11 431.11 285.42 432.89 285.62 432.85C285.82 432.81 285.78 432.37 285.62 431.63C285.34 430.665 284.79 429.8 284.035 429.135C283.281 428.471 282.353 428.036 281.36 427.88C280.57 427.8 280.11 427.94 280.11 428Z" fill="#263238"/>
<path d="M277 431.82C276.93 432.02 278.3 432.58 279.38 433.95C280.46 435.32 280.77 436.75 280.97 436.72C281.17 436.69 281.2 435.04 279.97 433.5C278.74 431.96 277 431.63 277 431.82Z" fill="#263238"/>
<path d="M283.62 421.92C283.54 422.12 285.62 422.97 287.53 424.92C289.44 426.87 290.2 429.02 290.4 428.92C290.6 428.82 290.08 426.5 288.04 424.4C286 422.3 283.64 421.74 283.62 421.92Z" fill="#263238"/>
<path d="M292.53 417.59C292.38 417.74 293.76 419.11 294.73 421.24C295.7 423.37 295.89 425.29 296.1 425.24C296.31 425.19 296.44 423.17 295.38 420.9C294.32 418.63 292.63 417.43 292.53 417.59Z" fill="#263238"/>
<path d="M301.33 413.93C301.2 414.09 302.89 415.34 303.73 417.67C304.57 420 304.16 422.02 304.37 422.06C304.58 422.1 304.69 421.6 304.81 420.74C304.94 419.616 304.796 418.476 304.39 417.42C304 416.356 303.363 415.399 302.53 414.63C301.88 414.06 301.38 413.85 301.33 413.93Z" fill="#263238"/>
<path d="M305.38 416.92C305.791 416.867 306.185 416.72 306.53 416.49C307.531 415.961 308.415 415.237 309.13 414.36C309.714 413.767 310.083 412.997 310.18 412.17C310.19 411.895 310.113 411.623 309.96 411.394C309.808 411.164 309.587 410.988 309.33 410.89C308.82 410.728 308.268 410.76 307.78 410.98C306.8 411.466 306.02 412.277 305.573 413.275C305.126 414.273 305.04 415.396 305.33 416.45C305.642 417.486 306.254 418.405 307.089 419.092C307.924 419.78 308.944 420.203 310.02 420.31C310.291 420.336 310.565 420.303 310.822 420.213C311.079 420.123 311.314 419.979 311.51 419.79C311.685 419.578 311.79 419.317 311.81 419.043C311.83 418.768 311.763 418.495 311.62 418.26C311.158 417.587 310.522 417.051 309.78 416.71C308.791 416.164 307.715 415.795 306.6 415.62C306.194 415.535 305.776 415.535 305.37 415.62C306.825 415.932 308.226 416.454 309.53 417.17C310.161 417.5 310.7 417.981 311.1 418.57C311.183 418.695 311.223 418.845 311.212 418.995C311.201 419.145 311.14 419.288 311.04 419.4C310.903 419.515 310.743 419.6 310.571 419.65C310.398 419.7 310.218 419.714 310.04 419.69C309.119 419.563 308.252 419.176 307.544 418.574C306.835 417.971 306.313 417.179 306.04 416.29C305.798 415.4 305.864 414.455 306.227 413.607C306.59 412.759 307.229 412.059 308.04 411.62C308.375 411.453 308.759 411.414 309.12 411.51C309.264 411.561 309.388 411.656 309.474 411.782C309.56 411.908 309.604 412.058 309.6 412.21C309.516 412.906 309.219 413.559 308.75 414.08C307.803 415.218 306.662 416.179 305.38 416.92Z" fill="#263238"/>
<path d="M313 420.81C313.85 420.37 348.06 406.44 348.06 406.44L314.06 389.6L293.6 400.21L313 420.81Z" fill="#263238"/>
<path d="M270.75 379.64L271.22 379.78L272.57 380.23L277.74 382.02L296.74 388.69L359.39 410.8L362.39 411.73L362.08 411.87L373.49 388L373.59 388.31L334.18 364.21L322.84 357.21L319.84 355.33L319.07 354.83C318.9 354.72 318.81 354.66 318.82 354.65L319.09 354.8L319.89 355.26L322.94 357.07L334.36 363.94L373.86 387.88L374.05 388L373.96 388.2L362.58 412.1L362.48 412.3L362.27 412.23L359.27 411.3C357.7 410.85 356.2 410.3 354.69 409.75L350.19 408.15L341.36 405L324.75 399.07L296.62 389.07L277.67 382.24L272.53 380.36L271.2 379.86C271.045 379.796 270.895 379.723 270.75 379.64Z" fill="#18534F"/>
<path d="M313 420.81C312.552 420.433 312.128 420.029 311.73 419.6L308.41 416.17C305.62 413.26 301.79 409.17 297.58 404.72L293.35 400.19L293.12 399.94L293.42 399.79L303.8 394.79L306.8 393.37C307.158 393.189 307.529 393.035 307.91 392.91C307.599 393.148 307.264 393.352 306.91 393.52L304 395L293.7 400.2L293.77 399.8L298.02 404.32C302.23 408.81 306.02 412.9 308.74 415.88L311.94 419.42C312.335 419.85 312.69 420.315 313 420.81Z" fill="#18534F"/>
<path d="M382 354.49C382.06 354.62 373.64 358.28 363.2 362.65C352.76 367.02 344.26 370.47 344.2 370.34C344.14 370.21 352.56 366.55 363 362.17C373.44 357.79 382 354.35 382 354.49Z" fill="#18534F"/>
<path d="M330 251.45C329.29 251.45 304.62 251.22 299.64 256.2C294.66 261.18 284.32 337.45 284.32 337.45C289.64 338.45 293.1 340.45 296.32 342.03L338.25 366.48L356.4 357.05C356.99 356.724 357.5 356.271 357.894 355.724C358.288 355.178 358.556 354.55 358.678 353.888C358.8 353.225 358.774 352.543 358.602 351.892C358.429 351.24 358.114 350.635 357.68 350.12L381.83 262.83C378.255 260.117 374.29 257.959 370.07 256.43C363 253.83 330 251.45 330 251.45Z" fill="#18534F"/>
<path d="M373.71 259.55C373.71 259.55 381.13 261.19 383.97 265.77C390.63 276.5 411.09 314.61 414.53 323.77C418.17 333.44 414.26 338.94 411.63 343.02C408.8 347.41 393.25 347.4 386.2 339.87C383.2 336.63 366.34 321.36 366.34 321.36L373.71 259.55Z" fill="#18534F"/>
<path d="M382.15 273.7C382.077 273.957 381.983 274.208 381.87 274.45L380.96 276.57C380.21 278.42 379.16 281.11 377.96 284.47C375.54 291.2 372.58 300.61 369.44 311.05C366.3 321.49 363.57 330.94 361.54 337.84C360.54 341.27 359.68 344.04 359.07 345.94L358.35 348.13C358.28 348.388 358.187 348.639 358.07 348.88C358.11 348.616 358.17 348.355 358.25 348.1C358.41 347.547 358.62 346.807 358.88 345.88C359.44 343.88 360.22 341.14 361.19 337.74C363.13 330.86 365.81 321.36 368.94 310.9C372.07 300.44 375.1 291.05 377.61 284.35C378.86 280.99 379.97 278.35 380.78 276.49L381.78 274.41C381.879 274.162 382.003 273.924 382.15 273.7Z" fill="#263238"/>
<path d="M300.82 255.33C300.82 255.33 293.03 259.76 290.18 262.33C287.33 264.9 257.89 306.91 254.12 320C251.93 327.58 260.28 343.26 269.28 342.5C281.05 341.5 325.21 324.57 325.21 324.57L315.3 303L290.3 307L308.45 288.76L301.68 254.84" fill="#18534F"/>
<path d="M405.56 319.27C405.404 319.197 405.256 319.106 405.12 319L403.9 318.16L399.47 315C395.75 312.3 390.63 308.53 384.99 304.34L381.22 301.53L381.57 301.48C377.98 306.17 374.78 310.26 372.45 313.15C371.285 314.755 369.983 316.258 368.56 317.64L372.19 312.94L381.19 301.17L381.34 300.97L381.54 301.12L385.32 303.92C390.96 308.11 396.04 311.92 399.71 314.71L404 318L405.16 318.92C405.306 319.021 405.44 319.139 405.56 319.27Z" fill="#263238"/>
<path d="M335.67 295.37L315.87 304.24L323.77 321.41L336.15 313.24L335.67 295.37Z" fill="#B2655F"/>
<path d="M354.38 297.05L367.63 288.05C368.095 287.73 368.657 287.582 369.22 287.63L386.54 289.11C386.879 289.138 387.194 289.294 387.421 289.547C387.647 289.8 387.769 290.13 387.76 290.47C387.779 290.811 387.723 291.153 387.597 291.47C387.471 291.788 387.278 292.074 387.03 292.31L358.9 311.88L337.9 308.55L354.38 297.05Z" fill="#E0E0E0"/>
<path d="M335.67 295.37C335.67 295.37 342.82 290.07 344.5 289.78C346.18 289.49 353.73 289.52 353.73 289.52L360.09 293.15L356.15 295.82C353.42 295.22 352.64 294.16 352.64 294.16L348.24 294.45L335.67 295.37Z" fill="#B2655F"/>
<path d="M343.71 293.07L355 297L371.24 299.29C371.269 300.197 370.949 301.081 370.347 301.76C369.744 302.439 368.904 302.861 368 302.94C366 303.15 362.62 303.38 362.62 303.38C362.62 303.38 361.79 306.38 359.26 307.03C358.68 308.168 357.845 309.158 356.82 309.92C356.664 310.016 356.496 310.09 356.32 310.14C354.76 310.59 351.65 314.82 349.57 315.39C347.49 315.96 336.13 313.28 336.13 313.28L335.65 295.42L343.71 293.07Z" fill="#B2655F"/>
<path d="M347 302.29C347 302.24 347.9 302.48 349.33 302.77C351.208 303.143 353.109 303.39 355.02 303.51C356.924 303.642 358.836 303.642 360.74 303.51C362.21 303.41 363.11 303.28 363.12 303.33C362.916 303.403 362.705 303.453 362.49 303.48C362.09 303.56 361.49 303.65 360.76 303.73C358.846 303.927 356.919 303.96 355 303.83C353.076 303.715 351.166 303.434 349.29 302.99C348.57 302.82 347.99 302.66 347.6 302.53C347.392 302.473 347.19 302.392 347 302.29Z" fill="#8E4842"/>
<path d="M349.22 306.92C349.268 307.297 349.23 307.68 349.11 308.04C349.008 308.451 348.797 308.828 348.5 309.13C348.3 309.305 348.067 309.439 347.814 309.523C347.562 309.607 347.295 309.64 347.03 309.62C346.52 309.579 346.024 309.436 345.57 309.2C345.16 308.99 344.82 308.77 344.52 308.61C343.94 308.26 343.52 308.13 343.52 308.08C343.895 308.103 344.258 308.216 344.58 308.41C345.324 308.865 346.149 309.171 347.01 309.31C347.235 309.331 347.463 309.308 347.679 309.241C347.895 309.174 348.096 309.065 348.27 308.92C348.545 308.659 348.748 308.332 348.86 307.97C348.96 307.613 349.08 307.263 349.22 306.92Z" fill="#8E4842"/>
<path d="M357.57 308C357.172 308.16 356.756 308.268 356.33 308.32C355.337 308.497 354.336 308.621 353.33 308.69C352.307 308.748 351.283 308.748 350.26 308.69C349.832 308.698 349.406 308.651 348.99 308.55C348.99 308.45 350.93 308.55 353.31 308.34C355.69 308.13 357.55 307.94 357.57 308Z" fill="#8E4842"/>
<path d="M349 312.72C348.46 313.147 347.82 313.427 347.14 313.534C346.46 313.641 345.765 313.571 345.12 313.33C345.12 313.23 346.02 313.4 347.12 313.23C348.22 313.06 349 312.64 349 312.72Z" fill="#8E4842"/>
<path d="M353.07 312.52C353.07 312.6 352.54 312.74 351.86 312.84C351.446 312.938 351.014 312.938 350.6 312.84C350.976 312.638 351.394 312.528 351.82 312.52C352.5 312.44 353.06 312.43 353.07 312.52Z" fill="#8E4842"/>
<path d="M355 297C353.187 296.572 351.416 295.979 349.71 295.23C348.27 294.67 346.98 294.14 346.06 293.72C345.547 293.529 345.059 293.273 344.61 292.96C345.132 293.111 345.644 293.298 346.14 293.52L349.82 294.94L353.49 296.37C354.45 296.7 355 296.92 355 297Z" fill="#8E4842"/>
<path d="M371.59 301C371.59 301 370.34 300.57 371.69 298.6C373.04 296.63 376.82 299.02 376.82 299.02L381.65 301.89C381.65 301.89 382.73 304.4 381.39 305.07L380.39 306.29C380.39 306.29 382.28 308.2 381.52 309.87C381.284 310.352 380.904 310.749 380.433 311.007C379.963 311.265 379.423 311.371 378.89 311.31C378.89 311.31 379.11 314.69 378.01 315.99C377.5 316.696 376.756 317.2 375.91 317.41C375.557 318.305 374.994 319.102 374.268 319.734C373.542 320.366 372.675 320.814 371.74 321.04C368.5 321.87 366.8 321.93 365.92 320.56C365.327 319.588 364.847 318.551 364.49 317.47C364.49 317.47 357.54 313.82 357.39 311.97C357.24 310.12 357.56 309.97 357.56 309.97C357.406 309.538 357.338 309.079 357.362 308.621C357.387 308.163 357.501 307.714 357.7 307.3C358.4 306.17 361.16 307.16 361.16 307.16L370.03 309.24C370.03 309.24 362.93 305.91 362.09 304.82C361.25 303.73 362.15 302.39 365 302.73C367.85 303.07 376.46 304.68 376.46 304.68C376.239 304.225 375.892 303.843 375.46 303.58C374.89 303.34 373.11 302.31 373.11 302.31L371.59 301Z" fill="#B2655F"/>
<path d="M373.71 314.47C373.71 314.55 370.09 313.63 365.71 312.42C361.33 311.21 357.71 310.15 357.76 310.07C357.81 309.99 361.38 310.91 365.76 312.12C370.14 313.33 373.73 314.39 373.71 314.47Z" fill="#8E4842"/>
<path d="M369.48 319.3C368.591 319.194 367.721 318.972 366.89 318.64C366.289 318.444 365.698 318.217 365.12 317.96C364.939 317.882 364.765 317.789 364.6 317.68C364.556 317.648 364.515 317.611 364.48 317.57C364.48 317.57 364.48 317.48 364.48 317.5C364.48 317.52 365.58 317.88 366.97 318.34C367.836 318.577 368.677 318.899 369.48 319.3Z" fill="#8E4842"/>
<path d="M377.08 310.57C377.08 310.65 375.33 310.3 373.19 309.95C371.05 309.6 369.3 309.37 369.31 309.28C370.63 309.261 371.947 309.385 373.24 309.65C374.55 309.812 375.839 310.12 377.08 310.57Z" fill="#8E4842"/>
<path d="M379.25 306C379.19 306.08 378.49 305.58 377.51 305.23C376.53 304.88 375.68 304.79 375.68 304.7C376.336 304.581 377.013 304.665 377.62 304.94C378.257 305.123 378.824 305.492 379.25 306Z" fill="#8E4842"/>
<path d="M387 290.72H386.68L385.75 290.61C384.95 290.5 383.75 290.35 382.36 290.19C379.49 289.86 375.51 289.51 371.1 289.41C370.059 289.269 369 289.393 368.02 289.77C367.584 290.022 367.164 290.299 366.76 290.6L365.56 291.45L361.41 294.38L358.6 296.33L357.82 296.85C357.65 296.97 357.55 297.02 357.54 297.01C357.619 296.935 357.703 296.865 357.79 296.8L358.53 296.24L361.29 294.24L365.4 291.24L366.59 290.38C367.004 290.07 367.435 289.783 367.88 289.52C368.373 289.267 368.916 289.13 369.47 289.12C370.02 289.12 370.56 289.12 371.11 289.12C374.879 289.214 378.641 289.504 382.38 289.99C383.82 290.18 384.98 290.37 385.77 290.51L386.69 290.68C386.795 290.677 386.899 290.691 387 290.72Z" fill="#263238"/>
<path d="M376.15 292.26C376.055 292.134 375.928 292.038 375.781 291.981C375.634 291.925 375.474 291.91 375.32 291.94H375.18C374.917 291.986 374.677 292.12 374.5 292.32C374.395 292.449 374.338 292.609 374.338 292.775C374.338 292.941 374.395 293.102 374.5 293.23C374.633 293.359 374.806 293.44 374.99 293.46C375.165 293.494 375.345 293.489 375.518 293.446C375.69 293.403 375.852 293.322 375.99 293.21C376.111 293.087 376.191 292.93 376.22 292.76C376.248 292.59 376.224 292.416 376.15 292.26Z" fill="white"/>
<path d="M336.78 196.1L334.86 195.1C334.006 194.508 332.958 194.265 331.93 194.42C330.98 194.69 330.32 195.6 329.34 195.7C328.2 195.83 327.26 194.8 326.12 194.86C324.98 194.92 324.19 195.86 323.12 195.86C322.32 195.86 321.47 195.29 320.78 195.68C320.64 195.76 320.52 195.87 320.39 195.96C319.968 196.154 319.505 196.242 319.041 196.216C318.578 196.19 318.127 196.051 317.73 195.81C316.934 195.324 315.983 195.16 315.07 195.35C314.537 195.619 314.067 195.997 313.69 196.46C313.493 196.69 313.244 196.869 312.965 196.984C312.685 197.099 312.381 197.145 312.08 197.12C311.75 197.05 311.48 196.84 311.15 196.76C310.15 196.5 309.26 197.6 308.21 197.88C307.16 198.16 306.11 197.66 305.21 198.1C304.879 198.27 304.622 198.555 304.486 198.901C304.349 199.246 304.344 199.63 304.47 199.98C304.631 200.324 304.873 200.623 305.177 200.852C305.48 201.08 305.835 201.231 306.21 201.29C306.995 201.429 307.803 201.37 308.56 201.12C309.161 200.87 309.8 200.724 310.45 200.69C311.94 200.74 313.11 202.28 314.57 201.96C315.243 201.71 315.856 201.322 316.37 200.82C317.215 200.212 318.229 199.884 319.27 199.88C319.954 199.97 320.649 199.933 321.32 199.77C322.11 199.45 322.56 198.62 323.38 198.4C324.2 198.18 325.14 198.71 326.05 198.62C326.64 198.57 327.19 198.24 327.79 198.21C328.64 198.16 329.41 198.71 330.26 198.64C331.11 198.57 331.86 197.85 332.73 197.92C333.071 197.98 333.405 198.071 333.73 198.19C333.896 198.249 334.074 198.265 334.249 198.239C334.423 198.213 334.588 198.145 334.73 198.04C334.92 197.86 334.98 197.57 335.21 197.44C335.393 197.363 335.595 197.342 335.79 197.38L338.61 197.67L336.78 196.1Z" fill="#263238"/>
<path d="M339.81 196C338.86 195.3 337.59 194.57 336.52 195.16C336.13 195.37 335.84 195.72 335.45 195.91C334.55 196.33 333.45 195.78 332.51 196.04C331.7 196.27 331.16 197.04 330.41 197.39C329.2 197.99 327.41 197.64 326.67 198.7C326.26 199.28 326.19 200.21 325.48 200.37C325.223 200.396 324.964 200.365 324.72 200.28C323.855 200.068 322.956 200.041 322.08 200.2C321.58 200.267 321.106 200.467 320.71 200.78C319.99 201.43 319.97 202.54 319.28 203.22C318.28 204.22 316.41 203.75 315.09 204.4C314.499 204.773 313.958 205.22 313.48 205.73C312.426 206.542 311.285 207.236 310.08 207.8C308.87 208.357 307.833 209.231 307.08 210.33C306.729 210.855 306.575 211.487 306.644 212.114C306.714 212.742 307.003 213.325 307.46 213.76C307.691 213.962 307.984 214.08 308.291 214.095C308.598 214.109 308.901 214.02 309.15 213.84C309.3 213.7 309.4 213.5 309.54 213.34C309.887 213.067 310.285 212.867 310.71 212.75C311.12 212.59 311.55 212.28 311.55 211.86C311.55 211.6 311.4 211.29 311.61 211.11C311.703 211.05 311.81 211.016 311.92 211.01C312.98 210.9 314.28 210.95 314.85 210.09C315.039 209.684 315.184 209.258 315.28 208.82C315.429 208.461 315.664 208.144 315.963 207.896C316.263 207.649 316.619 207.478 317 207.4C317.65 207.25 318.38 207.35 318.9 206.95C319.42 206.55 319.51 205.64 320.04 205.14C320.93 204.3 322.69 204.91 323.49 204C323.69 203.77 323.8 203.48 324.05 203.31C324.77 202.84 325.64 203.81 326.49 203.65C327.34 203.49 327.49 202.65 328 202.17C328.759 201.663 329.592 201.279 330.47 201.03C331.52 200.52 332.28 199.53 333.39 199.2C334.39 198.91 335.53 199.11 336.24 198.43C336.51 198.17 336.7 197.8 337.07 197.68C337.288 197.635 337.512 197.635 337.73 197.68C338.828 197.824 339.943 197.599 340.9 197.04L339.81 196Z" fill="#263238"/>
<path d="M338.19 198.54C336.982 198.332 335.743 198.404 334.567 198.751C333.392 199.097 332.311 199.71 331.41 200.54C331.037 200.937 330.605 201.274 330.13 201.54C329.32 201.78 328.473 201.875 327.63 201.82C326.694 201.923 325.808 202.293 325.076 202.885C324.344 203.477 323.797 204.266 323.5 205.16C323.12 206.31 322.98 207.82 321.87 208.22C321.66 208.274 321.456 208.348 321.26 208.44C320.52 208.9 321.03 210.08 321.02 210.99C321.02 212.49 319.34 213.52 319.28 214.99C319.295 215.542 319.428 216.084 319.67 216.58C320.25 218.013 320.887 219.413 321.58 220.78C321.89 221.39 322.3 222.07 322.96 222.16C323.96 222.29 324.5 221.16 324.78 220.16C325.058 219.495 325.08 218.75 324.84 218.07C324.56 217.54 323.99 217.23 323.74 216.68C323.35 215.81 323.98 214.84 324.43 214.01C325.338 212.325 325.611 210.37 325.2 208.5C326.2 208.31 326.73 206.89 327.77 206.69C328.062 206.674 328.353 206.637 328.64 206.58C329.33 206.3 329.41 205.25 330.02 204.82C330.63 204.39 332.02 204.72 332.36 203.87C332.46 203.6 332.41 203.28 332.58 203.06C332.72 202.897 332.917 202.794 333.13 202.77L335.65 202.14C336.14 202.061 336.601 201.858 336.99 201.55C337.64 200.93 337.74 199.75 338.56 199.43L338.19 198.54Z" fill="#263238"/>
<path d="M340.86 193.53C340.76 192.05 340.48 190.27 339.17 189.67C338.4 189.31 337.46 189.5 336.7 189.11C335.24 188.38 335.12 186.02 333.7 185.27C332.28 184.52 330.38 185.68 329.24 184.58C328.65 184.01 328.57 183.06 328.09 182.39C327.767 182.032 327.369 181.748 326.926 181.558C326.482 181.368 326.002 181.277 325.52 181.29C324.565 181.331 323.61 181.202 322.7 180.91C321.2 180.25 320.24 178.39 318.63 178.26C317.26 178.16 316.19 179.36 315.33 180.46C315.092 180.721 314.924 181.037 314.84 181.38C314.827 181.691 314.904 181.999 315.061 182.267C315.219 182.535 315.452 182.751 315.73 182.89C316.82 183.53 318.22 183.43 319.23 184.18C319.572 184.498 319.937 184.793 320.32 185.06C320.9 185.37 321.63 185.3 322.19 185.65C323.28 186.32 323.26 188.15 324.35 188.83C325.44 189.51 326.71 188.71 327.89 188.98C329.49 189.36 330.37 191.59 332.01 191.65C332.727 191.542 333.435 191.385 334.13 191.18C334.599 191.151 335.066 191.263 335.471 191.502C335.875 191.741 336.199 192.095 336.4 192.52C336.66 193.08 336.7 193.74 337.01 194.28C337.214 194.609 337.49 194.887 337.818 195.093C338.145 195.299 338.515 195.428 338.9 195.47C339.655 195.547 340.418 195.503 341.16 195.34L340.86 193.53Z" fill="#263238"/>
<path d="M339.62 198.14C338.62 196.25 337.39 194.23 335.34 193.35C334.258 193.048 333.195 192.677 332.16 192.24C331.34 191.76 330.76 190.99 329.99 190.44C328.2 189.17 325.73 189.25 323.53 189.6C321.33 189.95 319.06 190.5 316.9 189.97C314.96 189.49 313.27 188.18 311.28 188.06C310.193 188.063 309.115 188.249 308.09 188.61L304.47 189.61C304.076 189.684 303.721 189.897 303.47 190.21C303.08 190.86 303.84 191.61 304.56 191.91C305.742 192.401 307.041 192.54 308.3 192.31C309.268 191.995 310.282 191.843 311.3 191.86C311.978 192.038 312.645 192.251 313.3 192.5C314.157 192.65 315.033 192.65 315.89 192.5L319.89 192.08C320.911 191.882 321.967 191.972 322.94 192.34C323.66 192.69 324.23 193.34 325.03 193.44C325.83 193.54 326.77 192.88 327.66 193.01C328.72 193.18 329.25 194.36 330.22 194.81C331.36 195.34 332.86 194.72 333.96 195.33C334.71 195.74 335.03 196.58 335.51 197.27C335.911 197.849 336.433 198.334 337.04 198.69C337.851 199.115 338.716 199.431 339.61 199.63L339.62 198.14Z" fill="#263238"/>
<path d="M341.74 189.74C341.26 189.08 340.53 188.41 340.74 187.61C340.84 187.22 341.16 186.9 341.23 186.5C341.35 185.78 340.62 185.22 340.35 184.5C340.08 183.78 340.35 182.7 339.89 181.96C339.43 181.22 338.37 181.07 337.49 180.85C337.001 180.766 336.54 180.563 336.15 180.257C335.759 179.952 335.45 179.554 335.25 179.1C335.145 178.439 335.105 177.769 335.13 177.1C334.974 176.245 334.527 175.469 333.866 174.905C333.205 174.34 332.369 174.02 331.5 174C330.994 174.041 330.484 173.983 330 173.83C329.15 173.43 329 172.34 328.47 171.53C328.144 170.974 327.657 170.529 327.073 170.256C326.489 169.983 325.836 169.893 325.2 170C324.6 170.12 323.94 170.75 324.29 171.25C324.43 171.45 324.69 171.53 324.88 171.69C325.56 172.27 325.07 173.44 325.47 174.23C325.87 175.02 327.15 175.23 327.54 176.07C327.84 176.72 327.49 177.53 327.77 178.19C328.12 179 329.17 179.19 330.05 179.19C330.93 179.19 331.98 179.43 332.31 180.19C332.412 180.562 332.469 180.945 332.48 181.33C332.538 181.665 332.671 181.983 332.871 182.258C333.07 182.534 333.33 182.76 333.63 182.92C334.48 183.35 335.63 183.27 336.18 184.08C336.73 184.89 335.93 186.28 336.44 187.23C336.81 187.92 337.7 188.1 338.37 188.52C338.531 188.607 338.655 188.749 338.72 188.92C338.739 189.105 338.697 189.291 338.6 189.45C338.07 190.53 337.4 191.77 337.91 192.85C338.154 193.271 338.464 193.649 338.83 193.97C339.922 195.091 340.719 196.465 341.15 197.97L342.08 193.9C342.394 193.238 342.528 192.505 342.468 191.774C342.408 191.044 342.157 190.342 341.74 189.74Z" fill="#263238"/>
<path d="M346.9 176C347.083 175.419 347.067 174.793 346.853 174.222C346.639 173.651 346.24 173.168 345.72 172.85C345.452 172.71 345.157 172.628 344.855 172.61C344.553 172.592 344.25 172.637 343.967 172.744C343.684 172.851 343.427 173.016 343.212 173.229C342.997 173.442 342.829 173.698 342.72 173.98C342.32 175.31 343.44 176.87 342.72 178.07C342.475 178.358 342.27 178.678 342.11 179.02C341.86 179.9 342.96 180.64 342.97 181.56C342.98 182.48 341.7 183.13 341.44 184.11C341.18 185.09 342.27 186.42 341.86 187.51C341.717 187.804 341.539 188.079 341.33 188.33C340.16 190.05 340.76 192.33 341.4 194.33L344.05 193.94C343.56 192.1 346.15 190.26 345.27 188.58C344.85 187.78 343.7 187.2 343.96 186.33C344.049 186.104 344.185 185.899 344.36 185.73L346.83 183.03C347.235 182.671 347.513 182.19 347.62 181.66C347.73 180.49 346.27 179.73 346.08 178.56C346 177.64 346.63 176.83 346.9 176Z" fill="#263238"/>
<path d="M347.81 191C347.56 190.13 346.43 189.87 345.54 190C343.08 190.38 341.28 192.44 339.71 194.36C337.918 196.432 336.293 198.642 334.85 200.97C334.509 201.476 334.277 202.049 334.17 202.65C334.118 202.951 334.149 203.26 334.258 203.545C334.367 203.83 334.551 204.081 334.79 204.27C334.913 204.356 335.053 204.415 335.2 204.444C335.347 204.472 335.499 204.469 335.645 204.435C335.791 204.401 335.929 204.337 336.048 204.247C336.168 204.156 336.267 204.041 336.34 203.91L337.07 203.73C339.465 199.674 342.639 196.132 346.41 193.31C347.18 192.71 348.07 191.9 347.81 191Z" fill="#D6955B"/>
<path d="M334.28 228.62C333.558 223.768 333.253 218.864 333.37 213.96C333.5 209.041 334.846 204.231 337.29 199.96C337.68 199.32 340.74 195.16 341.45 195.37C341.96 195.52 339.79 199.54 339.97 200.04C341.63 204.83 341.3 210.14 339.97 215.04C338.597 219.774 336.698 224.339 334.31 228.65" fill="#263238"/>
<path d="M356.07 260.56C356.77 257.17 357.33 254.5 357.36 254.5C357.39 254.5 369.25 255.6 372.27 244.19C373.73 238.68 375.8 227.09 377.56 216.58C378.482 211.124 377.314 205.521 374.29 200.888C371.265 196.255 366.606 192.931 361.24 191.58L360.13 191.3C348.05 189.01 339.35 197.98 337.39 210.12L329.18 252.36L348 272.14L356.07 260.56Z" fill="#B2655F"/>
<path d="M357.36 254.5C352.079 253.158 347.293 250.33 343.57 246.35C343.57 246.35 345.11 255.59 356.78 257.43L357.36 254.5Z" fill="#8E4842"/>
<path d="M371.72 225.66C371.618 226.089 371.351 226.461 370.976 226.695C370.602 226.929 370.151 227.006 369.72 226.91C369.508 226.874 369.305 226.796 369.124 226.68C368.942 226.565 368.786 226.414 368.664 226.237C368.542 226.059 368.456 225.86 368.413 225.649C368.369 225.438 368.368 225.221 368.41 225.01C368.515 224.582 368.782 224.212 369.156 223.978C369.53 223.745 369.98 223.667 370.41 223.76C370.623 223.795 370.826 223.872 371.008 223.987C371.191 224.103 371.347 224.253 371.47 224.431C371.592 224.608 371.677 224.809 371.72 225.02C371.763 225.231 371.763 225.449 371.72 225.66Z" fill="#263238"/>
<path d="M373.92 220.71C373.67 220.87 372.66 219.65 370.92 219.21C369.18 218.77 367.65 219.33 367.51 219.06C367.45 218.94 367.75 218.61 368.41 218.34C369.308 218.011 370.284 217.962 371.21 218.2C372.125 218.426 372.945 218.937 373.55 219.66C374 220.21 374.05 220.64 373.92 220.71Z" fill="#263238"/>
<path d="M355.77 222.59C355.667 223.02 355.401 223.392 355.027 223.628C354.653 223.863 354.202 223.943 353.77 223.85C353.558 223.814 353.355 223.736 353.174 223.62C352.992 223.505 352.836 223.354 352.714 223.177C352.592 222.999 352.506 222.8 352.463 222.589C352.419 222.378 352.418 222.161 352.46 221.95C352.562 221.521 352.83 221.149 353.204 220.915C353.578 220.681 354.029 220.604 354.46 220.7C354.672 220.735 354.874 220.812 355.056 220.926C355.237 221.041 355.393 221.191 355.516 221.367C355.638 221.544 355.723 221.743 355.767 221.953C355.811 222.163 355.812 222.38 355.77 222.59Z" fill="#263238"/>
<path d="M356.52 217.09C356.26 217.25 355.25 216.03 353.52 215.59C351.79 215.15 350.25 215.71 350.11 215.44C350.04 215.33 350.34 214.99 351.01 214.73C351.902 214.392 352.877 214.34 353.8 214.58C354.717 214.801 355.539 215.313 356.14 216.04C356.56 216.59 356.64 217 356.52 217.09Z" fill="#263238"/>
<path d="M359.43 232.19C360.434 232.131 361.442 232.198 362.43 232.39C362.89 232.46 363.34 232.48 363.49 232.19C363.636 231.731 363.636 231.239 363.49 230.78C363.34 229.59 363.19 228.34 363.02 227.03C362.4 221.7 362.08 217.36 362.29 217.34C362.5 217.32 363.18 221.62 363.8 226.95C363.95 228.26 364.08 229.51 364.21 230.71C364.356 231.322 364.282 231.967 364 232.53C363.894 232.67 363.758 232.785 363.603 232.866C363.447 232.947 363.275 232.993 363.1 233C362.834 233.01 362.567 232.98 362.31 232.91C361.324 232.791 360.356 232.549 359.43 232.19Z" fill="#263238"/>
<path d="M354 232.11C354.29 232.16 353.81 234.11 355.11 235.84C356.41 237.57 358.49 237.9 358.43 238.17C358.37 238.44 357.89 238.43 357.02 238.24C355.899 237.969 354.909 237.315 354.22 236.39C353.558 235.505 353.268 234.396 353.41 233.3C353.49 232.48 353.82 232.06 354 232.11Z" fill="#263238"/>
<path d="M358.22 209.93C357.92 210.37 356.22 209.7 354.1 209.43C351.98 209.16 350.16 209.3 350 208.8C349.93 208.57 350.33 208.19 351.12 207.9C352.16 207.553 353.265 207.451 354.35 207.6C355.436 207.749 356.473 208.146 357.38 208.76C358.06 209.25 358.35 209.72 358.22 209.93Z" fill="#263238"/>
<path d="M374.67 214.68C374.26 215 373.15 214.29 371.67 213.9C370.19 213.51 368.91 213.49 368.73 213C368.66 212.77 368.95 212.42 369.59 212.17C370.429 211.903 371.329 211.889 372.175 212.131C373.022 212.373 373.779 212.86 374.35 213.53C374.79 214.07 374.85 214.52 374.67 214.68Z" fill="#263238"/>
<path d="M336.2 218.88C336.02 218.75 328.92 214.58 327.2 222.46C325.48 230.34 333.76 230.46 333.82 230.22C333.88 229.98 336.2 218.88 336.2 218.88Z" fill="#B2655F"/>
<path d="M332.06 226.71C332.06 226.71 331.9 226.78 331.65 226.83C331.303 226.893 330.946 226.822 330.65 226.63C329.88 226.14 329.47 224.63 329.74 223.24C329.863 222.56 330.14 221.916 330.55 221.36C330.676 221.129 330.857 220.933 331.077 220.788C331.296 220.644 331.548 220.555 331.81 220.53C331.977 220.521 332.142 220.571 332.275 220.672C332.409 220.773 332.503 220.917 332.54 221.08C332.6 221.32 332.54 221.47 332.54 221.49C332.54 221.51 332.74 221.4 332.75 221.06C332.749 220.856 332.678 220.659 332.55 220.5C332.46 220.394 332.351 220.306 332.227 220.243C332.104 220.179 331.969 220.141 331.83 220.13C331.493 220.126 331.16 220.208 330.863 220.367C330.566 220.526 330.314 220.757 330.13 221.04C329.633 221.646 329.29 222.363 329.13 223.13C328.84 224.73 329.33 226.4 330.4 226.98C330.599 227.085 330.819 227.145 331.043 227.155C331.268 227.166 331.492 227.126 331.7 227.04C332 226.9 332.08 226.73 332.06 226.71Z" fill="#8E4842"/>
<path d="M375.18 202.42C376.61 201.98 373.63 197.04 370.79 194.96C366.49 191.82 359.51 188.96 354.87 189.31C349.29 189.7 344.36 191.41 340.72 195.66C337.151 200.015 334.804 205.24 333.92 210.8C333.505 212.466 333.543 214.213 334.03 215.86C334.77 217.86 336.66 219.38 336.03 221.77C335.909 222.2 335.875 222.649 335.93 223.092C335.985 223.535 336.128 223.963 336.35 224.35C337.47 226.19 339.54 225.11 340.66 223.83C343.04 221.1 344 217.45 344.89 213.93C345.666 211.47 346.027 208.898 345.96 206.32C345.85 204.92 345.49 203.54 345.45 202.14C345.392 201.439 345.486 200.734 345.726 200.073C345.966 199.412 346.346 198.811 346.84 198.31C347.083 198.12 347.341 197.95 347.61 197.8C348.912 197.067 350.386 196.694 351.88 196.72C353.375 196.747 354.835 197.171 356.11 197.95C360.23 200.45 367.34 204.38 369.64 203.29C372.95 201.71 373.93 200.44 373.93 200.44L375.18 202.42Z" fill="#263238"/>
<path d="M291.11 336.94C291.312 336.823 291.527 336.729 291.75 336.66L293.62 335.93L300.68 333.29L325.12 324.29L324.98 324.63C322.98 320.22 320.74 315.42 318.44 310.45L315.07 303.1L315.34 303.24L290.86 307C286.404 308.253 282.146 310.125 278.21 312.56C276.81 313.42 275.76 314.16 275.04 314.66L274.24 315.24C274.154 315.316 274.056 315.377 273.95 315.42L274.2 315.19L274.97 314.57C275.66 314.03 276.7 313.26 278.09 312.37C282.008 309.848 286.273 307.91 290.75 306.62L315.22 302.8H315.41L315.5 302.97C316.59 305.36 317.73 307.82 318.88 310.32C321.16 315.32 323.37 320.09 325.39 324.51L325.51 324.75L325.25 324.85L300.74 333.65L293.64 336.16L291.74 336.81L291.11 336.94Z" fill="#263238"/>
<path d="M305.76 292C305.171 292.88 304.501 293.704 303.76 294.46C302.46 295.93 300.64 297.93 298.57 300.1C296.5 302.27 294.57 304.18 293.12 305.49C292.55 306.023 291.941 306.514 291.3 306.96C291.05 307.1 290.88 307.24 290.66 307.2C290.635 307.173 290.622 307.137 290.622 307.1C290.622 307.063 290.635 307.028 290.66 307V306.95C290.66 306.95 290.66 307.08 290.72 307.1C290.899 307.033 291.062 306.931 291.2 306.8C291.61 306.46 292.2 305.91 292.88 305.23C294.27 303.85 296.15 301.9 298.21 299.74L303.51 294.21C304.199 293.413 304.951 292.674 305.76 292Z" fill="#263238"/>
<path d="M310.52 282.12C310.41 282.12 310.73 280.55 310.73 278.02C310.727 276.545 310.6 275.073 310.35 273.62C309.744 270.047 308.432 266.63 306.49 263.57C305.693 262.323 304.796 261.143 303.81 260.04C302.11 258.17 300.81 257.23 300.91 257.15C301.241 257.319 301.549 257.527 301.83 257.77C302.181 258.024 302.515 258.302 302.83 258.6C303.267 258.975 303.684 259.372 304.08 259.79C305.122 260.875 306.062 262.054 306.89 263.31C307.891 264.856 308.735 266.497 309.41 268.21C310.054 269.937 310.529 271.722 310.83 273.54C311.058 275.025 311.148 276.528 311.1 278.03C311.087 278.605 311.043 279.179 310.97 279.75C310.938 280.184 310.874 280.615 310.78 281.04C310.737 281.409 310.65 281.772 310.52 282.12Z" fill="#263238"/>
<path d="M336 356.69C336 356.6 337.26 356.69 339.28 356.69C344.555 356.568 349.703 355.05 354.2 352.29C355.92 351.29 356.9 350.45 356.96 350.52C357.02 350.59 356.76 350.77 356.33 351.15C355.716 351.671 355.072 352.156 354.4 352.6C352.174 354.078 349.741 355.217 347.18 355.98C344.616 356.734 341.953 357.098 339.28 357.06C338.474 357.055 337.669 356.998 336.87 356.89C336.572 356.864 336.279 356.797 336 356.69Z" fill="#263238"/>
<path d="M350.88 334.61C350.693 334.92 350.468 335.206 350.21 335.46C349.76 335.99 349.08 336.73 348.21 337.64C346.5 339.45 344.05 341.88 341.21 344.41C338.37 346.94 335.7 349.12 333.71 350.62C332.71 351.37 331.9 351.97 331.32 352.36C331.041 352.591 330.731 352.783 330.4 352.93C330.636 352.655 330.905 352.41 331.2 352.2L333.48 350.33C335.4 348.76 338.04 346.56 340.87 344.03C343.7 341.5 346.17 339.12 347.95 337.38L350.05 335.32C350.56 334.84 350.85 334.58 350.88 334.61Z" fill="#263238"/>
</svg>
