<svg width="298" height="296" viewBox="0 0 298 296" fill="none" xmlns="http://www.w3.org/2000/svg">
<path d="M297.504 155.597C293.56 231.907 228.694 295.043 149.428 295.105C70.0988 295.167 4.9827 231.969 1.03816 155.597C-3.21943 73.5073 64.3385 0.80127 149.24 0.80127C234.204 0.80127 301.699 73.5694 297.504 155.597Z" fill="#18534F"/>
<path d="M206.467 74.315C206.467 71.6429 206.217 68.9708 206.091 66.3608C200.331 66.3608 195.51 66.3608 190.063 66.3608C190.063 72.4507 190.063 78.1057 190.063 83.8227C164.33 48.2154 111.423 59.4631 96.5212 94.9461C87.0042 117.69 87.5051 140.558 97.4604 162.929C107.979 186.543 138.158 196.548 161.825 189.899C163.077 189.713 164.517 189.34 166.083 188.843C168.337 188.159 170.278 187.289 171.53 186.605C174.786 185.3 178.668 183.125 182.487 180.205C185.555 177.843 188.185 175.358 190.251 173.058C189.687 181.945 189.437 190.893 187.997 199.655C186.244 210.468 181.235 219.789 170.841 225.258C148.176 237.189 121.002 228.116 110.734 205.124C105.6 205.124 100.34 205.124 94.8307 205.124C95.9577 220.286 104.035 230.167 116.557 236.568C131.646 244.273 147.8 245.081 164.267 242.409C185.242 238.991 198.891 227.246 203.712 206.491C205.403 199.096 206.342 191.452 206.405 183.871C206.592 147.332 206.467 110.792 206.467 74.315ZM187.621 150.625C184.616 159.201 179.607 165.974 173.033 170.635C171.405 171.816 163.39 177.346 151.682 177.906C150.993 177.968 149.052 178.03 146.673 177.906C146.61 177.968 146.485 177.968 146.423 177.968C129.33 176.911 116.244 167.031 110.484 150.687C105.662 136.954 105.537 122.972 109.044 108.99C114.115 88.7941 128.829 76.4278 147.612 75.9307C148.051 75.8686 148.301 75.8685 148.301 75.8685C158.068 74.9986 165.707 79.0378 168.086 80.3428C178.167 85.687 185.743 95.6297 189.061 108.928C192.567 122.91 192.442 136.892 187.621 150.625Z" fill="#ECF8F6"/>
</svg>
