<svg width="123" height="118" viewBox="0 0 123 118" fill="none" xmlns="http://www.w3.org/2000/svg">
<g clip-path="url(#clip0_133_646)">
<path d="M68 4.44002L81.66 36.42L116.41 39.54V39.52C118.34 39.69 120.03 40.63 121.2 42.03C122.408 43.4537 123.002 45.2989 122.85 47.16V47.18C122.768 48.0789 122.517 48.9543 122.11 49.76C121.78 50.42 121.35 51.01 120.83 51.53C120.64 51.75 120.43 51.94 120.19 52.11L94.15 74.86L101.93 108.91C102.37 110.81 101.99 112.71 101.02 114.25C100.528 115.037 99.8848 115.719 99.1279 116.256C98.371 116.793 97.5153 117.175 96.61 117.38C96.53 117.4 96.45 117.41 96.36 117.43C95.5 117.6 94.63 117.59 93.79 117.44V117.46C92.85 117.29 91.96 116.93 91.16 116.41L91.08 116.35L61.44 98.63L31.47 116.55C30.6755 117.031 29.7935 117.349 28.8752 117.486C27.9568 117.623 27.0204 117.577 26.12 117.35C25.2192 117.125 24.3718 116.724 23.6269 116.169C22.882 115.615 22.2543 114.918 21.78 114.12C21.3 113.32 21 112.47 20.87 111.6C20.75 110.84 20.75 110.08 20.87 109.34C20.9 109.13 20.94 108.92 21 108.71L28.74 74.86C19.95 67.19 10.84 59.54 2.23002 51.71L2.22002 51.72L2.06002 51.55C0.800883 50.2822 0.0704715 48.5833 0.0166302 46.7972C-0.0372112 45.0112 0.58954 43.2714 1.77002 41.93L1.95002 41.73L1.94002 41.72L2.10002 41.56C2.67002 41 3.31002 40.55 3.99002 40.21C4.84002 39.8 5.76002 39.56 6.69002 39.51H6.79002L41.22 36.42L54.93 4.30002C55.7 2.50002 57.12 1.19002 58.8 0.510019C60.0866 -0.00975221 61.4979 -0.138031 62.8571 0.141274C64.2163 0.420579 65.4627 1.09503 66.44 2.08002C67.1 2.74002 67.61 3.51002 67.96 4.35002L68 4.44002V4.44002ZM75.1 41.86L61.43 9.86002L47.76 41.86H47.75C47.4605 42.5404 46.9909 43.129 46.3918 43.5624C45.7928 43.9959 45.0868 44.2578 44.35 44.32L9.72002 47.43L35.77 70.17C36.97 71.12 37.59 72.7 37.23 74.3L29.48 108.23L59.29 90.41C60.55 89.63 62.18 89.56 63.54 90.37L93.41 108.23L85.65 74.3C85.33 72.88 85.77 71.34 86.94 70.32L113.15 47.43L78.74 44.34C77.9594 44.3191 77.2012 44.0742 76.5559 43.6345C75.9105 43.1948 75.4052 42.5788 75.1 41.86V41.86Z" fill="#FFCF00"/>
<path d="M67.9999 4.43983L81.6599 36.4198L116.41 39.5398V39.5198C118.34 39.6898 120.03 40.6298 121.2 42.0298C122.408 43.4535 123.002 45.2987 122.85 47.1598V47.1798C122.768 48.0787 122.517 48.9541 122.11 49.7598C121.78 50.4198 121.35 51.0098 120.83 51.5298C120.64 51.7498 120.43 51.9398 120.19 52.1098L94.1499 74.8598L101.93 108.91C102.37 110.81 101.99 112.71 101.02 114.25C100.528 115.037 99.8847 115.718 99.1278 116.256C98.3709 116.793 97.5152 117.175 96.6099 117.38C96.5299 117.4 96.4499 117.41 96.3599 117.43C95.4999 117.6 94.6299 117.59 93.7899 117.44V117.46C92.8499 117.29 91.9599 116.93 91.1599 116.41L91.0799 116.35L60.6999 98.1898C59.6779 98.109 58.7236 97.6464 58.027 96.8942C57.3303 96.142 56.9423 95.1551 56.9399 94.1298H56.9299V4.10983C56.9299 1.89983 58.6899 0.0898338 60.8799 0.0198338C61.3599 -0.0201662 61.8499 -0.000166196 62.3499 0.0598338C62.9799 0.139834 63.6099 0.309834 64.1999 0.559834C65.0599 0.929834 65.8199 1.44983 66.4399 2.07983C67.0999 2.73983 67.6099 3.50983 67.9599 4.34983L67.9999 4.43983ZM75.0999 41.8598L65.1099 18.4798V91.3198L93.3899 108.23L85.6499 74.2998C85.3299 72.8798 85.7699 71.3398 86.9399 70.3198L113.15 47.4298L78.7399 44.3398C77.9593 44.3189 77.2011 44.074 76.5558 43.6343C75.9104 43.1946 75.4051 42.5787 75.0999 41.8598V41.8598Z" fill="#FFCF00"/>
<path d="M64.2 5.9201L78.87 40.2601L116.07 43.6001C116.859 43.6688 117.588 44.0474 118.098 44.6529C118.608 45.2583 118.857 46.0413 118.79 46.8301C118.72 47.6301 118.34 48.3301 117.78 48.8201L89.63 73.3901L97.95 109.81C98.32 111.42 97.31 113.02 95.7 113.39C94.88 113.58 94.06 113.41 93.4 112.98L61.44 93.8701L61.03 94.1201V4.1101C61.684 4.02079 62.3491 4.14976 62.9223 4.47703C63.4954 4.80429 63.9446 5.31154 64.2 5.9201Z" fill="#FFF9E1"/>
<path d="M28.5 111.5C28.5 96.5 42.17 69.73 28.5 65L5.11004 48.8199C4.66311 48.4293 4.343 47.9141 4.19076 47.3404C4.03851 46.7667 4.06106 46.1606 4.25552 45.5998C4.44998 45.039 4.80748 44.549 5.2822 44.1927C5.75692 43.8364 6.32724 43.6299 6.92004 43.5999L44.02 40.2699L58.69 5.89986C59.1 4.90986 60.02 4.24986 61.03 4.10986L58.69 92L28.5 111.5Z" fill="#FFD401"/>
</g>
<defs>
<clipPath id="clip0_133_646">
<rect width="122.88" height="117.56" fill="white"/>
</clipPath>
</defs>
</svg>
