<svg width="123" height="118" viewBox="0 0 123 118" fill="none" xmlns="http://www.w3.org/2000/svg">
<g clip-path="url(#clip0_133_636)">
<path d="M60.9999 3L78.5 40.5L119.965 45.8409L88.5 74L97.4426 115.159L60.9999 93L24.5572 115.159L34 72L2.03442 45.8409L44 40.5L60.9999 3Z" fill="#FFF9E1"/>
<path d="M66.71 3.54979L81.1 37.2598L117.68 40.5398V40.5298C119.23 40.6598 120.59 41.4198 121.53 42.5398C122.01 43.1077 122.374 43.7648 122.601 44.4735C122.827 45.1821 122.912 45.9284 122.85 46.6698V46.6798C122.732 48.0338 122.133 49.3007 121.16 50.2498C121.04 50.3798 120.91 50.4998 120.77 50.6098L93.25 74.6398L101.44 110.47C101.79 112 101.49 113.53 100.71 114.76C100.315 115.393 99.7994 115.941 99.1918 116.374C98.5842 116.806 97.8971 117.114 97.17 117.28L97.03 117.31C96.32 117.45 95.6 117.46 94.91 117.33V117.34C94.16 117.21 93.44 116.92 92.8 116.5L92.75 116.47L61.45 97.7598L29.9 116.62C29.2603 117.005 28.5509 117.259 27.8126 117.369C27.0742 117.479 26.3213 117.442 25.5974 117.26C24.8735 117.077 24.1927 116.754 23.5942 116.308C22.9956 115.862 22.4913 115.302 22.11 114.66C21.73 114.02 21.49 113.33 21.38 112.64C21.28 112.01 21.29 111.37 21.4 110.75C21.42 110.62 21.44 110.48 21.48 110.35L29.64 74.6498C20.4 66.5798 10.9 58.5498 1.80996 50.3498L1.72996 50.2698C0.714959 49.2943 0.101442 47.9746 0.00996069 46.5698C-0.0900393 45.1198 0.369961 43.6398 1.40996 42.4498L1.52996 42.3198L1.60996 42.2398C2.60449 41.2112 3.95125 40.5967 5.37996 40.5198H5.43996L41.78 37.2598L56.22 3.45979C56.83 2.01979 57.98 0.959793 59.33 0.409793C60.68 -0.130207 62.23 -0.160207 63.67 0.449793C64.36 0.739793 64.97 1.15979 65.47 1.66979C66 2.19979 66.41 2.81979 66.69 3.48979L66.71 3.54979ZM76.9 40.7498L61.85 5.50979C61.8296 5.45759 61.799 5.40999 61.76 5.36979C61.7198 5.33075 61.6722 5.30015 61.62 5.27979C61.5649 5.25507 61.5053 5.24229 61.445 5.24229C61.3846 5.24229 61.325 5.25507 61.27 5.27979C61.17 5.31979 61.08 5.39979 61.03 5.51979L45.98 40.7498C45.61 41.6098 44.8 42.2398 43.8 42.3298L5.89996 45.7298C5.81996 45.7398 5.73996 45.7498 5.65996 45.7498C5.59996 45.7498 5.52996 45.7698 5.47996 45.7998C5.44996 45.8098 5.42996 45.8298 5.40996 45.8498L5.30996 45.9698C5.25996 46.0498 5.23996 46.1398 5.24996 46.2298C5.25996 46.3198 5.28996 46.4098 5.33996 46.4798C5.39996 46.5298 5.46996 46.5898 5.52996 46.6498L34.16 71.6498C34.93 72.2598 35.33 73.2698 35.1 74.2998L26.59 111.52L26.56 111.66C26.55 111.72 26.54 111.78 26.55 111.83C26.5649 111.915 26.604 111.994 26.6624 112.058C26.7209 112.122 26.7964 112.167 26.88 112.19C27 112.22 27.12 112.21 27.22 112.15L60.07 92.5098C60.87 92.0098 61.92 91.9698 62.79 92.4898L95.43 112C95.51 112.04 95.59 112.09 95.67 112.14C95.72 112.17 95.77 112.19 95.83 112.2V112.21C95.87 112.22 95.92 112.22 95.97 112.21L96.01 112.2C96.13 112.17 96.23 112.1 96.29 112C96.35 111.91 96.37 111.79 96.34 111.67L87.8 74.2798C87.6936 73.8194 87.7146 73.3388 87.8608 72.8895C88.0071 72.4402 88.273 72.0393 88.63 71.7298L117.49 46.5298C117.53 46.4998 117.56 46.4498 117.59 46.3998C117.61 46.3598 117.62 46.2998 117.63 46.2298C117.64 46.1126 117.608 45.9957 117.54 45.8998C117.461 45.8153 117.355 45.7621 117.24 45.7498V45.7398C117.23 45.7398 117.21 45.7398 117.21 45.7298L79.24 42.3198C78.24 42.3098 77.31 41.7198 76.9 40.7498Z" fill="#FFCF00"/>
</g>
<defs>
<clipPath id="clip0_133_636">
<rect width="122.88" height="117.42" fill="white"/>
</clipPath>
</defs>
</svg>
