<svg width="500" height="500" viewBox="0 0 500 500" fill="none" xmlns="http://www.w3.org/2000/svg">
<path d="M412.41 62.85L425.53 62.57L432.19 62.46C434.42 62.41 436.66 62.46 438.89 62.4H439.33V62.85L439.39 74V74.5H438.89L425.65 74.43C421.23 74.43 416.82 74.32 412.41 74.27H412.13V74C412.13 72.1 412.22 70.21 412.26 68.34L412.41 62.85ZM412.41 62.85L412.55 68.5C412.55 70.36 412.66 72.2 412.68 74.04L412.41 73.76C416.82 73.71 421.23 73.6 425.65 73.6L438.89 73.54L438.39 74.04L438.44 62.85L438.89 63.29C436.71 63.29 434.53 63.29 432.34 63.29L425.76 63.18L412.41 62.85Z" fill="#EBEBEB"/>
<path d="M77.93 270.93L91.05 270.65L97.71 270.54C99.94 270.54 102.17 270.54 104.41 270.49H104.85V270.94L104.91 282.13V282.64H104.41L91.17 282.58C86.75 282.58 82.34 282.47 77.93 282.42H77.65V282.15C77.65 280.25 77.74 278.37 77.78 276.5L77.93 270.93ZM77.93 270.93L78.07 276.59C78.07 278.45 78.18 280.29 78.2 282.12L77.93 281.85C82.34 281.8 86.75 281.69 91.17 281.69L104.41 281.62L103.91 282.12V270.93L104.36 271.38C102.17 271.38 100 271.38 97.81 271.32L91.23 271.21L77.93 270.93Z" fill="#EBEBEB"/>
<path d="M427.18 48.74L440.3 48.46L446.96 48.35C449.19 48.3 451.43 48.35 453.66 48.29H454.1V48.74L454.16 59.93V60.43H453.66L440.42 60.36C436.01 60.36 431.59 60.25 427.18 60.2H426.9V59.93C426.9 58.03 426.98 56.14 427.03 54.27L427.18 48.74ZM427.18 48.74L427.32 54.39C427.37 56.25 427.43 58.1 427.45 59.93L427.18 59.65C431.59 59.65 436.01 59.5 440.42 59.49L453.66 59.43L453.16 59.93V48.74L453.61 49.18C451.43 49.18 449.25 49.18 447.06 49.18L440.53 49L427.18 48.74Z" fill="#EBEBEB"/>
<path d="M341.89 216.53L355.02 216.25L361.68 216.14C363.9 216.14 366.14 216.14 368.37 216.08H368.82V216.53L368.87 227.72V228.22H368.36L355.12 228.16C350.71 228.16 346.3 228.04 341.88 227.99H341.61V227.72C341.61 225.82 341.7 223.93 341.74 222.07L341.89 216.53ZM341.89 216.53L342.03 222.18C342.08 224.05 342.15 225.89 342.17 227.72L341.89 227.45C346.31 227.45 350.72 227.29 355.13 227.28L368.37 227.22L367.87 227.72L367.93 216.53L368.37 216.98C366.19 216.98 364.02 216.98 361.83 216.92L355.25 216.81L341.89 216.53Z" fill="#EBEBEB"/>
<path d="M356.66 202.42L369.79 202.14L376.45 202.03C378.68 201.98 380.91 202.03 383.14 201.97H383.59V202.42L383.64 213.61V214.11H383.13L369.89 214.05C365.48 214.05 361.07 213.93 356.65 213.88H356.38V213.61C356.38 211.71 356.47 209.82 356.51 207.96L356.66 202.42ZM356.66 202.42L356.81 208.07C356.81 209.94 356.92 211.78 356.94 213.61L356.66 213.34C361.08 213.29 365.49 213.18 369.9 213.17L383.14 213.11L382.65 213.61L382.7 202.42L383.14 202.87C380.96 202.87 378.79 202.87 376.6 202.81L370 202.7L356.66 202.42Z" fill="#EBEBEB"/>
<path d="M371.38 216.53L384.5 216.25L391.16 216.14C393.39 216.14 395.63 216.14 397.86 216.08H398.3V216.53L398.36 227.72V228.22H397.86L384.62 228.16C380.2 228.16 375.79 228.04 371.38 227.99H371.1V227.72C371.1 225.82 371.18 223.93 371.23 222.07L371.38 216.53ZM371.38 216.53L371.52 222.18C371.57 224.05 371.63 225.89 371.65 227.72L371.38 227.45C375.79 227.45 380.2 227.29 384.62 227.28L397.86 227.22L397.36 227.72L397.41 216.53L397.86 216.98C395.68 216.98 393.5 216.98 391.31 216.92L384.73 216.81L371.38 216.53Z" fill="#EBEBEB"/>
<path d="M46.34 48.74L59.47 48.46L66.13 48.35C68.35 48.3 70.59 48.35 72.82 48.29H73.27V48.74V59.93V60.43H72.77L59.53 60.36C55.12 60.36 50.7 60.25 46.29 60.2H46.02V59.93C46.02 58.03 46.1 56.14 46.15 54.27L46.34 48.74ZM46.34 48.74L46.48 54.39C46.53 56.25 46.6 58.1 46.61 59.93L46.34 59.65C50.75 59.65 55.17 59.5 59.58 59.49L72.82 59.43L72.32 59.93L72.38 48.74L72.82 49.18C70.64 49.18 68.46 49.18 66.28 49.18L59.7 49L46.34 48.74Z" fill="#EBEBEB"/>
<path d="M61.11 351.85L74.24 351.57L80.9 351.46C83.12 351.46 85.36 351.46 87.59 351.4H88V351.85V363.04V363.54H87.49L74.25 363.47C69.84 363.47 65.43 363.36 61.01 363.31H60.74V363C60.74 361.1 60.83 359.21 60.87 357.34L61.11 351.85ZM61.11 351.85L61.25 357.5C61.25 359.36 61.37 361.21 61.39 363.04L61.11 362.76C65.53 362.71 69.94 362.61 74.35 362.6L87.59 362.54L87.09 363.04L87.15 351.85L87.59 352.29C85.41 352.29 83.24 352.29 81.05 352.24L74.47 352.13L61.11 351.85Z" fill="#EBEBEB"/>
<path d="M46.34 337.74L59.47 337.46L66.13 337.35C68.35 337.3 70.59 337.35 72.82 337.29H73.27V337.74V348.93V349.43H72.77L59.53 349.36C55.12 349.36 50.7 349.25 46.29 349.2H46.02V348.93C46.02 347.03 46.1 345.14 46.15 343.27L46.34 337.74ZM46.34 337.74L46.48 343.39C46.53 345.25 46.6 347.1 46.61 348.93L46.34 348.65C50.75 348.65 55.17 348.5 59.58 348.49L72.82 348.43L72.32 348.93L72.38 337.74L72.82 338.18C70.64 338.18 68.46 338.18 66.28 338.13L59.7 338L46.34 337.74Z" fill="#EBEBEB"/>
<path d="M412.41 351.85L425.53 351.57L432.19 351.46C434.42 351.46 436.66 351.46 438.89 351.4H439.33V351.85L439.39 363.04V363.54H438.89L425.65 363.47C421.23 363.47 416.82 363.36 412.41 363.31H412.13V363C412.13 361.1 412.22 359.21 412.26 357.34L412.41 351.85ZM412.41 351.85L412.55 357.5C412.55 359.36 412.66 361.21 412.68 363.04L412.41 362.76C416.82 362.71 421.23 362.61 425.65 362.6L438.89 362.54L438.39 363.04L438.44 351.85L438.89 352.29C436.71 352.29 434.53 352.29 432.34 352.24L425.76 352.13L412.41 351.85Z" fill="#EBEBEB"/>
<path d="M73.94 0H72.94V80.12H73.94V0Z" fill="#C7C7C7"/>
<path d="M107.32 112.79L104.6 118.78H42.27L39.55 112.79L66.09 94.42H80.79L107.32 112.79Z" fill="#EBEBEB"/>
<path d="M82.63 76.72L80.79 94.42H66.09L64.24 76.72H82.63Z" fill="#DBDBDB"/>
<path d="M107.32 112.79L104.6 118.78H42.26L39.55 112.79H107.32Z" fill="#DBDBDB"/>
<path d="M142.26 0H141.26V45.21H142.26V0Z" fill="#C7C7C7"/>
<path d="M175.65 77.88L172.92 83.87H110.59L107.87 77.88L134.41 59.51H149.11L175.65 77.88Z" fill="#EBEBEB"/>
<path d="M150.95 41.81L149.11 59.51H134.41L132.57 41.81H150.95Z" fill="#DBDBDB"/>
<path d="M175.65 77.88L172.92 83.87H110.59L107.87 77.88H175.65Z" fill="#DBDBDB"/>
<path d="M331.9 98.87L454.25 98.87V91.61L331.9 91.61V98.87Z" fill="#EBEBEB"/>
<path d="M444.96 98.88H437.69V122.91H444.96V98.88Z" fill="#EBEBEB"/>
<path d="M444.96 98.88H437.69V106.31H444.96V98.88Z" fill="#DBDBDB"/>
<path d="M348.45 98.88H341.18V122.91H348.45V98.88Z" fill="#EBEBEB"/>
<path d="M348.45 98.88H341.18V106.31H348.45V98.88Z" fill="#DBDBDB"/>
<path d="M423.32 91.61V45.31H411.66V91.61H423.32Z" fill="#C7C7C7"/>
<path d="M423.32 47.92V42.83H411.66V47.92H423.32Z" fill="#DBDBDB"/>
<path d="M423.32 56.33V54.44H411.66V56.33H423.32Z" fill="#DBDBDB"/>
<path d="M423.32 85.53V80.44H410.21V85.53H423.32Z" fill="#DBDBDB"/>
<path d="M411.67 91.61V37.6H403.52V91.61H411.67Z" fill="#DBDBDB"/>
<path d="M410.07 63.45V42.68H405.18V63.45H410.07Z" fill="#EBEBEB"/>
<path d="M351.289 91.6415L389.699 53.6712L383.969 47.8752L345.559 85.8454L351.289 91.6415Z" fill="#C7C7C7"/>
<path d="M359.144 81.5456L373.915 66.9438L370.478 63.4662L355.707 78.068L359.144 81.5456Z" fill="#DBDBDB"/>
<path d="M403.52 91.61V50.59H389.68V91.61H403.52Z" fill="#A6A6A6"/>
<path d="M403.52 87.26V83.44H389.68V87.26H403.52Z" fill="#C7C7C7"/>
<path d="M403.52 80.93V79.45H389.68V80.93H403.52Z" fill="#C7C7C7"/>
<path d="M432.88 91.62V53.07H423.32V91.62H432.88Z" fill="#A6A6A6"/>
<path d="M432.88 87.53V83.94H423.32V87.53H432.88Z" fill="#C7C7C7"/>
<path d="M432.88 64.61V61.02H423.32V64.61H432.88Z" fill="#C7C7C7"/>
<path d="M432.89 68.46V67.07H423.33V68.46H432.89Z" fill="#C7C7C7"/>
<path d="M405.28 137.84H348.68V206.49H405.28V137.84Z" fill="#EBEBEB"/>
<path d="M398.81 144.11H355.15V200.23H398.81V144.11Z" fill="white"/>
<path d="M356.85 144.11H355.15V200.23H356.85V144.11Z" fill="#DBDBDB"/>
<path d="M406.98 137.84H405.28V206.49H406.98V137.84Z" fill="#DBDBDB"/>
<path d="M380.08 151.84H369.78V182.51H380.08V151.84Z" fill="#DBDBDB"/>
<path d="M393.24 188.26H364.79V172.26H393.24V188.26ZM365.79 187.26H392.24V173.26H365.79V187.26Z" fill="#EBEBEB"/>
<path d="M452.55 213.82H395.95V282.47H452.55V213.82Z" fill="#EBEBEB"/>
<path d="M446.07 220.09H402.41V276.21H446.07V220.09Z" fill="white"/>
<path d="M404.11 220.09H402.41V276.21H404.11V220.09Z" fill="#DBDBDB"/>
<path d="M454.24 213.82H452.54V282.47H454.24V213.82Z" fill="#DBDBDB"/>
<path d="M428.84 234.59H420.02V256.89H428.84V234.59Z" fill="#EBEBEB"/>
<path d="M438.62 264H413.93V247.65H438.62V264ZM414.93 263H437.62V248.65H414.93V263Z" fill="#DBDBDB"/>
<path d="M46.08 252.52V423.23H149.28V252.52H46.08ZM139.91 360.23H55.45V315.79H139.91V360.23ZM139.91 305.23H55.45V260.77H139.91V305.23Z" fill="#DBDBDB"/>
<path d="M195.94 252.52H149.28V423.22H195.94V252.52Z" fill="#EBEBEB"/>
<path d="M75.53 260.76H55.46V305.2H75.53V260.76Z" fill="#EBEBEB"/>
<path d="M140.16 412.76H55.73V369.89H140.16V412.76ZM56.23 412.26H139.66V370.39H56.23V412.26Z" fill="#EBEBEB"/>
<path d="M106.28 382.06H89.61V388.15H106.28V382.06Z" fill="#EBEBEB"/>
<path d="M75.53 315.79H55.46V360.23H75.53V315.79Z" fill="#EBEBEB"/>
<path d="M128.36 360.22V319.25H114.24V360.22H128.36Z" fill="#A6A6A6"/>
<path d="M128.36 353.65V344.81H114.24V353.65H128.36Z" fill="#DBDBDB"/>
<path d="M128.36 337.69V332.45H114.24V337.69H128.36Z" fill="#DBDBDB"/>
<path d="M156.93 218.19H121.25V252.48H156.93V218.19Z" fill="#EBEBEB"/>
<path d="M170.5 218.19H156.94V252.48H170.5V218.19Z" fill="#C7C7C7"/>
<path d="M121.25 235.33H156.94L129.07 236.21L121.25 235.33Z" fill="#C7C7C7"/>
<path d="M156.94 248.33H121.25L149.12 249.22L156.94 248.33Z" fill="#C7C7C7"/>
<path d="M121.25 225.75H143.85L123.76 226.47L121.25 225.75Z" fill="#C7C7C7"/>
<path d="M156.94 243.28H134.33L154.43 244.01L156.94 243.28Z" fill="#C7C7C7"/>
<path d="M129.81 221.93H155.31L151.06 222.36L129.81 221.93Z" fill="#C7C7C7"/>
<path d="M124.72 239.01H150.21L145.97 239.44L124.72 239.01Z" fill="#C7C7C7"/>
<path d="M140.4 229.01H156.94L159.89 230.16L140.4 229.01Z" fill="#EBEBEB"/>
<path d="M116.7 229.01H133.23L136.19 230.16L116.7 229.01Z" fill="#EBEBEB"/>
<path d="M137.92 244.42H121.38L118.42 245.57L137.92 244.42Z" fill="#EBEBEB"/>
<path d="M156.94 240.51H170.21L173.17 241.66L156.94 240.51Z" fill="#C7C7C7"/>
<path d="M161.57 235.33H171.87L170.5 234.39L161.57 235.33Z" fill="#C7C7C7"/>
<path d="M115.76 270.92H80.08V305.21H115.76V270.92Z" fill="#EBEBEB"/>
<path d="M129.32 270.92H115.76V305.21H129.32V270.92Z" fill="#C7C7C7"/>
<path d="M80.08 288.06H115.76L87.9 288.94L80.08 288.06Z" fill="#C7C7C7"/>
<path d="M115.76 301.06H80.08L107.95 301.94L115.76 301.06Z" fill="#C7C7C7"/>
<path d="M80.08 278.48H102.68L82.59 279.2L80.08 278.48Z" fill="#C7C7C7"/>
<path d="M115.76 296.02H93.16L113.25 296.74L115.76 296.02Z" fill="#C7C7C7"/>
<path d="M88.64 274.66H114.13L109.88 275.09L88.64 274.66Z" fill="#C7C7C7"/>
<path d="M83.55 291.74H109.04L104.79 292.17L83.55 291.74Z" fill="#C7C7C7"/>
<path d="M99.23 281.74H115.76L118.72 282.89L99.23 281.74Z" fill="#EBEBEB"/>
<path d="M75.53 281.74H92.06L95.02 282.89L75.53 281.74Z" fill="#EBEBEB"/>
<path d="M96.74 297.15H80.21L77.25 298.31L96.74 297.15Z" fill="#EBEBEB"/>
<path d="M115.76 293.24H129.04L132 294.39L115.76 293.24Z" fill="#C7C7C7"/>
<path d="M120.4 288.06H130.69L129.32 287.12L120.4 288.06Z" fill="#C7C7C7"/>
<path d="M139.91 316.52H128.36V360.23H139.91V316.52Z" fill="#EBEBEB"/>
<path d="M134.13 325.14C133.653 325.14 133.187 324.998 132.79 324.733C132.393 324.468 132.085 324.091 131.902 323.65C131.72 323.209 131.673 322.724 131.767 322.256C131.861 321.788 132.091 321.359 132.429 321.022C132.767 320.686 133.198 320.457 133.666 320.365C134.134 320.273 134.619 320.322 135.059 320.506C135.499 320.69 135.875 321.001 136.139 321.398C136.402 321.796 136.542 322.263 136.54 322.74C136.537 323.377 136.282 323.988 135.831 324.438C135.379 324.887 134.767 325.14 134.13 325.14Z" fill="white"/>
<path d="M134.13 324.11C133.786 324.081 133.465 323.923 133.231 323.668C132.997 323.414 132.867 323.081 132.867 322.735C132.867 322.389 132.997 322.056 133.231 321.802C133.465 321.547 133.786 321.389 134.13 321.36C134.32 321.344 134.512 321.367 134.693 321.429C134.874 321.491 135.04 321.589 135.181 321.719C135.322 321.848 135.434 322.005 135.511 322.18C135.588 322.355 135.627 322.544 135.627 322.735C135.627 322.926 135.588 323.115 135.511 323.29C135.434 323.465 135.322 323.622 135.181 323.751C135.04 323.881 134.874 323.979 134.693 324.041C134.512 324.103 134.32 324.126 134.13 324.11Z" fill="#A6A6A6"/>
<path d="M139.91 353.34V342.71H128.36V353.34H139.91Z" fill="white"/>
<path d="M114.24 351.2H70.53V360.29H114.24V351.2Z" fill="#C7C7C7"/>
<path d="M105.62 355.75C105.618 355.272 105.758 354.805 106.022 354.407C106.286 354.009 106.662 353.699 107.103 353.515C107.544 353.332 108.029 353.283 108.498 353.376C108.966 353.469 109.396 353.698 109.734 354.036C110.072 354.374 110.301 354.804 110.394 355.272C110.487 355.741 110.438 356.226 110.255 356.667C110.071 357.108 109.761 357.484 109.363 357.748C108.965 358.012 108.498 358.152 108.02 358.15C107.383 358.15 106.773 357.897 106.323 357.447C105.873 356.997 105.62 356.387 105.62 355.75Z" fill="white"/>
<path d="M106.65 355.75C106.648 355.476 106.728 355.208 106.878 354.98C107.029 354.751 107.245 354.573 107.497 354.467C107.75 354.361 108.028 354.333 108.297 354.386C108.565 354.439 108.812 354.571 109.006 354.764C109.199 354.958 109.331 355.205 109.384 355.473C109.437 355.742 109.409 356.02 109.303 356.273C109.197 356.525 109.019 356.741 108.79 356.892C108.562 357.042 108.294 357.122 108.02 357.12C107.657 357.12 107.308 356.976 107.051 356.719C106.794 356.462 106.65 356.113 106.65 355.75Z" fill="#A6A6A6"/>
<path d="M77.42 360.29H88.05V351.2H77.42V360.29Z" fill="white"/>
<path d="M272.09 471.63C353.094 471.63 418.76 465.058 418.76 456.95C418.76 448.842 353.094 442.27 272.09 442.27C191.086 442.27 125.42 448.842 125.42 456.95C125.42 465.058 191.086 471.63 272.09 471.63Z" fill="#EBEBEB"/>
<path d="M419.23 344.18C418.186 347.967 417.499 351.844 417.18 355.76C417.28 355.95 417.26 356.67 417.18 356.47C417.18 357.11 416.18 356.99 416.18 356.37C416.18 355.96 416.18 355.55 416.18 355.15C413.91 352.34 410.63 350.56 407.97 348.15C405.842 346.231 404.293 343.754 403.5 341C401.3 333.41 403.36 325.36 400.71 317.79C398.43 311.27 394.33 305.59 390.86 299.68C387.21 293.42 384.51 286.85 384.24 279.53C384.02 273.92 384.69 266.44 388.96 262.24C393.49 257.78 399.1 261.12 402.57 265.1C412.63 276.64 417.28 291.22 419.16 306.1C420.16 314.35 421.27 322.65 421.03 330.98C420.862 335.428 420.259 339.849 419.23 344.18Z" fill="#D6955B"/>
<path d="M417.22 358.79C417.77 351.002 417.68 343.183 416.95 335.41C416.95 335.41 416.95 335.41 416.95 335.33C417.07 329.01 417.57 322.71 417.33 316.39C417.021 309.546 416.087 302.744 414.54 296.07C414.54 296.054 414.534 296.039 414.522 296.028C414.511 296.016 414.496 296.01 414.48 296.01C414.464 296.01 414.449 296.016 414.438 296.028C414.426 296.039 414.42 296.054 414.42 296.07C415.652 302.629 416.388 309.271 416.62 315.94C416.747 319.507 416.717 323.077 416.53 326.65C416.47 327.81 416.37 328.98 416.29 330.15C413.658 312.412 407.247 295.446 397.49 280.4C397.35 280.19 396.99 280.4 397.12 280.62C404.09 292.055 409.251 304.499 412.42 317.51C407.59 308.56 400.28 301.19 394.87 292.58C394.87 292.58 394.76 292.58 394.78 292.63C399.65 302.21 407.69 309.77 412.78 319.21C413.727 323.07 414.467 326.953 415 330.86C415.726 336.21 416.121 341.601 416.18 347C413.24 341.49 410.18 336.23 407.77 330.41C407.71 330.25 407.49 330.36 407.54 330.51C409.54 336.51 412.34 343.07 416.2 348.23C416.2 352.063 416.093 355.89 415.88 359.71C415.28 369.92 413.54 379.99 412.73 390.16C412.734 390.216 412.757 390.269 412.797 390.31C412.836 390.351 412.888 390.376 412.944 390.382C413 390.388 413.056 390.374 413.103 390.343C413.15 390.311 413.184 390.264 413.2 390.21C415.252 379.84 416.595 369.342 417.22 358.79Z" fill="#263238"/>
<path d="M406.38 280.08C406.38 280.01 406.24 280.08 406.27 280.13C408.14 285.29 409.19 290.51 410.54 295.79C410.548 295.84 410.576 295.886 410.617 295.916C410.658 295.946 410.71 295.958 410.76 295.95C410.81 295.942 410.856 295.914 410.886 295.873C410.916 295.832 410.928 295.78 410.92 295.73C410.37 290.37 408.46 285 406.38 280.08Z" fill="#263238"/>
<path d="M453.72 301.69C452.476 304.711 451.043 307.65 449.43 310.49C446.08 316.59 442.58 322.18 441.94 329.27C441.66 332.44 441.56 335.63 440.59 338.68C439.709 341.305 438.446 343.785 436.84 346.04C433.2 351.34 428.66 355.91 425.29 361.41C421.781 367.142 419.19 373.387 417.61 379.92C417.52 380.28 416.96 380.19 417.05 379.83C417.05 379.83 417.05 379.78 417.05 379.75C417.044 379.737 417.042 379.724 417.042 379.71C417.042 379.696 417.044 379.683 417.05 379.67C416.52 364.45 417.73 349.12 422.38 334.54C424.429 328.128 426.891 321.854 429.75 315.76C432.24 310.47 435.34 305.39 439.7 301.44C442.54 298.89 448.7 294.05 452.7 296.61C454.63 297.84 454.48 299.79 453.72 301.69Z" fill="#D6955B"/>
<path d="M438.42 336.19C435.739 340.605 432.787 344.85 429.58 348.9C428.11 350.83 426.58 352.73 425.14 354.66C424.45 355.57 423.67 356.48 423.03 357.45C423.43 355.85 423.82 354.25 424.23 352.65C426.23 344.96 428.08 337.21 431.01 329.81C434.004 322.649 437.538 315.726 441.58 309.1C441.68 308.92 441.39 308.79 441.29 308.96C438.07 314.25 434.81 319.53 432.11 325.11C430.618 328.222 429.315 331.421 428.21 334.69C429.446 327.751 431.181 320.91 433.4 314.22C433.4 314.16 433.33 314.12 433.31 314.22C430.401 320.988 428.581 328.173 427.92 335.51C427.26 337.51 426.66 339.51 426.09 341.51C423.69 350.02 421.59 358.62 419.64 367.26C419.606 361.584 420.095 355.917 421.1 350.33C421.1 350.2 420.93 350.17 420.9 350.33C419.418 356.153 418.922 362.183 419.43 368.17C418.697 371.45 417.98 374.737 417.28 378.03C415.78 385.03 413.94 392.18 413.07 399.31C413.063 399.347 413.072 399.385 413.093 399.416C413.115 399.447 413.148 399.468 413.185 399.475C413.222 399.482 413.26 399.473 413.291 399.452C413.322 399.43 413.343 399.397 413.35 399.36C414.35 395.52 415.02 391.54 415.88 387.65C416.74 383.76 417.62 379.85 418.52 375.97C419.853 370.297 421.227 364.647 422.64 359.02C423.58 356.95 425.41 355.11 426.77 353.38C428.27 351.47 429.77 349.57 431.23 347.63C433.963 344.051 436.411 340.263 438.55 336.3C438.6 336.17 438.47 336.11 438.42 336.19Z" fill="#263238"/>
<path d="M439.07 329.68C435.727 333.957 432.828 338.565 430.42 343.43C430.42 343.49 430.48 343.56 430.52 343.5C433.44 338.93 436.3 334.33 439.21 329.77C439.26 329.69 439.13 329.61 439.07 329.68Z" fill="#263238"/>
<path d="M374.29 316.12C376.29 319.51 378.51 323.59 377.66 327.67C377.13 330.25 375.24 332.35 374.9 334.98C374.13 340.8 379.9 344.64 384.12 347.38C394.57 354.24 408.9 360.38 410.8 374.38C410.87 374.87 411.73 374.75 411.67 374.26C411.675 374.23 411.675 374.2 411.67 374.17C411.67 374.17 411.72 374.17 411.72 374.09C413.089 367.019 413.021 359.744 411.52 352.7C409.96 345.48 406.81 339 403.1 332.7C396.81 321.97 390.15 310.98 380.64 302.76C378 300.49 372.64 296.4 370.52 301.53C368.4 306.66 371.87 312 374.29 316.12Z" fill="#D6955B"/>
<path d="M383.85 338.86C390.78 346.37 401.8 350.57 407.76 358.97C404.436 346.182 398.142 334.358 389.39 324.46C389.338 324.41 389.309 324.341 389.308 324.269C389.307 324.196 389.335 324.127 389.385 324.075C389.435 324.023 389.504 323.994 389.576 323.993C389.649 323.992 389.718 324.02 389.77 324.07C396.144 330.27 401.24 337.659 404.77 345.82C403.127 340.124 400.965 334.591 398.31 329.29C398.21 329.08 398.5 328.91 398.61 329.11C401.912 334.894 404.274 341.165 405.61 347.69C413.47 366.69 414.2 389.03 412.55 409.08C412.55 409.37 412.09 409.38 412.1 409.08C412.55 393.28 412.3 377.2 408.51 361.77C408.43 361.45 408.34 361.13 408.26 360.77C401.77 351.72 390.8 347.53 383.75 338.94C383.66 338.9 383.78 338.78 383.85 338.86Z" fill="#263238"/>
<path d="M382.25 332.42C385.88 335.76 389.46 339.17 393.11 342.51C393.11 342.51 393.11 342.6 393.05 342.58C388.939 339.794 385.237 336.448 382.05 332.64C382.036 332.611 382.031 332.579 382.035 332.547C382.04 332.515 382.054 332.486 382.075 332.462C382.097 332.438 382.125 332.422 382.156 332.414C382.187 332.407 382.22 332.409 382.25 332.42Z" fill="#263238"/>
<path d="M381.67 318C384.884 323.287 388.523 328.303 392.55 333C392.562 333.012 392.569 333.028 392.569 333.045C392.569 333.062 392.562 333.078 392.55 333.09C392.538 333.102 392.522 333.109 392.505 333.109C392.488 333.109 392.472 333.102 392.46 333.09C387.936 328.802 384.211 323.743 381.46 318.15C381.44 318.122 381.432 318.088 381.438 318.054C381.443 318.02 381.462 317.99 381.49 317.97C381.518 317.95 381.552 317.942 381.586 317.948C381.62 317.953 381.65 317.972 381.67 318Z" fill="#263238"/>
<path d="M398.05 423.23H429.91L425.61 380.36H402.95L398.05 423.23Z" fill="#18534F"/>
<path d="M402.15 387.33H426.31L425.62 380.36H402.95L402.15 387.33Z" fill="#263238"/>
<path d="M399.05 382.46H428.91V375.62H399.05V382.46Z" fill="#455A64"/>
<path d="M45.75 423.23L96.82 422.98L147.88 422.89L250 422.73L352.12 422.89L403.19 422.98L454.25 423.23L403.19 423.47L352.12 423.56L250 423.73L147.88 423.56L96.82 423.47L45.75 423.23Z" fill="#263238"/>
<path d="M327.35 407.96L92.15 423.47V67.81L327.35 55.26V407.96Z" fill="#D6955B"/>
<path d="M374.24 81.07H123.26V439.69H374.24V81.07Z" fill="#D6955B"/>
<path opacity="0.2" d="M374.24 81.07H123.26V439.69H374.24V81.07Z" fill="black"/>
<path opacity="0.1" d="M131.09 81.07H123.26V439.69H131.09V81.07Z" fill="black"/>
<path d="M123.25 81.07L95.08 69.06L321.88 63.8L368.14 81.07H123.25Z" fill="white"/>
<path d="M97.25 70.15L112.92 69.55L128.58 69.03L159.91 68.11L191.25 67.36L206.92 67.05L222.6 66.82L206.93 67.42L191.27 67.94L159.93 68.86L128.59 69.61L112.92 69.92L97.25 70.15Z" fill="#EBEBEB"/>
<path d="M111.8 71.65L139.06 70.86L166.34 70.19L220.88 68.86L275.42 67.78L302.69 67.24L329.97 66.82L302.7 67.61L275.43 68.28L220.89 69.61L166.35 70.69L139.07 71.23L111.8 71.65Z" fill="#EBEBEB"/>
<path d="M111.21 75.8C121.39 75.44 131.58 75.19 141.76 74.95L172.31 74.38L202.87 74L218.15 73.91H233.43L218.16 74.38L202.88 74.75L172.33 75.33L141.77 75.67C131.58 75.79 121.4 75.85 111.21 75.8Z" fill="#EBEBEB"/>
<path d="M116.69 78.8L136.66 78.41L156.64 78.13L196.58 77.72L236.53 77.55L256.51 77.54L276.48 77.64L256.51 78.03L236.54 78.31L196.59 78.72L156.64 78.89L136.67 78.9L116.69 78.8Z" fill="#EBEBEB"/>
<path d="M249.81 75C258.65 74.79 267.5 74.7 276.34 74.62L302.87 74.5L329.39 74.61L342.66 74.75L355.92 75L342.66 75.24L329.39 75.38L302.87 75.5L276.34 75.38C267.5 75.25 258.65 75.16 249.81 75Z" fill="#EBEBEB"/>
<path d="M242 71.07C249.94 70.73 257.89 70.51 265.83 70.31L289.66 69.82L313.49 69.56H325.41L337.33 69.62L325.43 70L313.51 70.32L289.68 70.81L265.85 71.07C257.91 71.12 250 71.15 242 71.07Z" fill="#EBEBEB"/>
<path d="M321.88 63.8C325.81 65.05 329.7 66.4 333.58 67.8C337.46 69.2 341.32 70.61 345.19 72.01C349.06 73.41 352.88 74.92 356.71 76.43L362.44 78.72C364.34 79.52 366.25 80.29 368.14 81.11C366.14 80.5 364.23 79.83 362.27 79.18L356.44 77.18C352.56 75.81 348.7 74.37 344.84 72.97C340.98 71.57 337.14 70.06 333.31 68.54C329.48 67.02 325.67 65.44 321.88 63.8Z" fill="#EBEBEB"/>
<path d="M92.15 423.47L123.25 439.69V81.07L92.15 67.81V423.47Z" fill="#D6955B"/>
<path opacity="0.4" d="M92.15 423.47L123.25 439.69V81.07L92.15 67.81V423.47Z" fill="black"/>
<path d="M301.06 75H327.35C330.848 76.7578 334.193 78.8049 337.35 81.12V130.83L325.35 122.59L312.8 130.83V81.07L301.06 75Z" fill="#226D68"/>
<path d="M187.59 74.65L212.51 74.27C212.51 74.27 208.75 59.86 206.86 56.35C204.97 52.84 193 42.83 193 42.83L191.58 51L172.32 48.26C172.32 48.26 180.16 55.26 182.72 57.99C184.74 60.11 187.59 74.65 187.59 74.65Z" fill="#FEEAA1"/>
<path d="M153.27 70.73L174.9 70.19L173.05 52.18L163.77 59.31L152.82 53.6L153.27 70.73Z" fill="#226D68"/>
<path d="M410.25 453.26C407.66 454.19 331.1 455.7 328.25 453.95C327.92 453.77 326.67 428.44 326.67 428.44C326.76 428.08 325.48 425.63 323.53 422.24C318.07 412.72 307.4 395.65 307.4 395.65L352.84 381.91L371.51 419.31L376.27 428.85C376.27 428.85 386.7 432.93 395.81 437C401.42 439.5 406.3 441.78 407.44 442.64C410.35 444.91 412.83 452.35 410.25 453.26Z" fill="#FFC4C0"/>
<path d="M410.25 453.26C407.66 454.19 331.1 455.7 328.25 453.95C327.92 453.77 326.67 428.44 326.67 428.44C326.76 428.08 325.48 425.63 323.53 422.24L371.53 419.31L376.29 428.85C376.29 428.85 386.72 432.93 395.83 437C401.44 439.5 406.32 441.78 407.46 442.64C410.35 444.91 412.83 452.35 410.25 453.26Z" fill="white"/>
<path d="M410.57 453.54C407.91 454.49 331.24 455.8 328.28 454C327.16 453.33 325.81 441.53 326.63 428.44L376.06 427.65C376.06 427.65 404.68 440.3 407.72 442.65C410.76 445 413.23 452.6 410.57 453.54Z" fill="#D6955B"/>
<path opacity="0.1" d="M348.34 454.87C337.43 454.82 329.22 454.56 328.28 454.01C327.16 453.33 325.8 441.53 326.63 428.44H327.84L348.34 454.87Z" fill="black"/>
<path d="M409.42 450.5C396.56 450.4 344.69 451.23 331.98 452.11C331.87 452.11 331.87 452.19 331.98 452.19C344.72 452.57 396.58 451.32 409.42 450.71C409.69 450.69 409.69 450.5 409.42 450.5Z" fill="#263238"/>
<path d="M402.74 440C401.309 439.986 399.892 440.269 398.576 440.832C397.261 441.395 396.077 442.225 395.1 443.27C393.329 445.134 392.344 447.609 392.35 450.18C392.35 450.25 392.49 450.25 392.5 450.18C392.896 447.63 394.108 445.277 395.954 443.474C397.8 441.671 400.181 440.515 402.74 440.18C402.84 440.1 402.84 440 402.74 440Z" fill="#263238"/>
<path d="M380.11 428.87C374.97 428.87 369.04 430.8 365.91 435.06C365.79 435.23 366.03 435.4 366.18 435.32C370.626 432.887 375.319 430.936 380.18 429.5C380.255 429.481 380.32 429.435 380.364 429.372C380.408 429.309 380.428 429.231 380.419 429.155C380.411 429.078 380.375 429.007 380.318 428.954C380.261 428.902 380.187 428.872 380.11 428.87Z" fill="#263238"/>
<path d="M384.11 430.35C378.97 430.35 373.03 432.28 369.91 436.54C369.79 436.71 370.02 436.88 370.18 436.8C374.624 434.363 379.318 432.412 384.18 430.98C384.255 430.961 384.32 430.916 384.364 430.852C384.408 430.789 384.428 430.711 384.419 430.635C384.411 430.558 384.375 430.487 384.318 430.434C384.261 430.382 384.187 430.352 384.11 430.35Z" fill="#263238"/>
<path d="M388.11 431.83C382.96 431.83 377.03 433.76 373.91 438.02C373.79 438.19 374.02 438.36 374.17 438.28C378.616 435.846 383.309 433.895 388.17 432.46C388.244 432.441 388.31 432.397 388.354 432.334C388.398 432.272 388.418 432.195 388.411 432.119C388.404 432.043 388.369 431.972 388.314 431.919C388.259 431.866 388.187 431.834 388.11 431.83Z" fill="#263238"/>
<path d="M392.11 433.31C386.96 433.31 381.03 435.24 377.9 439.5C377.78 439.67 378.02 439.84 378.17 439.76C382.616 437.326 387.309 435.375 392.17 433.94C392.244 433.921 392.31 433.877 392.354 433.814C392.398 433.752 392.418 433.675 392.411 433.599C392.404 433.523 392.369 433.452 392.314 433.399C392.259 433.346 392.186 433.314 392.11 433.31Z" fill="#263238"/>
<path d="M335 439.85C329.23 439.97 329.4 448.94 335.18 448.85C340.96 448.76 340.82 439.74 335 439.85Z" fill="#263238"/>
<path d="M385.44 415.05C382.8 412.93 379.55 415.1 377.99 417.37C375.37 421.312 373.835 425.876 373.54 430.6C373.54 430.71 373.62 430.75 373.7 430.75C373.724 430.845 373.77 430.932 373.834 431.007C373.897 431.081 373.977 431.14 374.067 431.178C374.157 431.217 374.254 431.234 374.352 431.229C374.449 431.225 374.545 431.197 374.63 431.15C378.25 428.55 382.44 426.22 385.16 422.59C386.74 420.47 387.93 417.05 385.44 415.05ZM379.31 426.05C377.57 427.37 375.76 428.59 374.06 429.98C374.94 427.4 375.7 424.8 376.83 422.31C377.357 421.1 377.965 419.927 378.65 418.8C379.74 417.09 384.71 412.7 385.32 418.29C385.66 421.41 381.4 424.51 379.31 426.09V426.05Z" fill="#263238"/>
<path d="M360.79 432.73C365.28 433.34 369.88 431.98 374.27 431.23C374.373 431.206 374.468 431.156 374.547 431.087C374.626 431.017 374.687 430.928 374.723 430.829C374.76 430.73 374.771 430.624 374.757 430.519C374.742 430.415 374.702 430.315 374.64 430.23C374.657 430.217 374.67 430.2 374.679 430.181C374.689 430.162 374.693 430.141 374.693 430.12C374.693 430.099 374.689 430.078 374.679 430.059C374.67 430.04 374.657 430.023 374.64 430.01C371.056 426.946 366.733 424.874 362.1 424C359.38 423.53 355.56 424.32 355.21 427.68C354.89 430.82 358.17 432.37 360.79 432.73ZM357.63 429.85C354.08 425.5 360.69 425.03 362.68 425.46C363.962 425.76 365.221 426.148 366.45 426.62C368.976 427.63 371.45 428.768 373.86 430.03C371.68 430.27 369.55 430.69 367.38 431.03C364.79 431.4 359.59 432.25 357.63 429.85Z" fill="#263238"/>
<path d="M320 421.75L373.91 413.58C373.91 413.58 348 361.93 332 333.9C323.08 318.32 298.68 317.56 286.81 336.23C270.96 361.17 258.66 384.54 251.61 397.5L239.38 398.55L242.02 418.55L282.66 427.65C298.23 429.51 309.15 401.8 309.41 402.27C311.37 405.89 320 421.75 320 421.75Z" fill="#37474F"/>
<path d="M309.68 402.37C308.15 399.23 306.95 395.9 305.59 392.68C304.23 389.46 302.95 386.46 301.64 383.34C298.99 377.04 296.25 370.77 293.69 364.44C292.25 360.89 290.93 357.29 289.58 353.7C289.58 353.681 289.573 353.664 289.56 353.651C289.546 353.637 289.529 353.63 289.51 353.63C289.491 353.63 289.474 353.637 289.461 353.651C289.447 353.664 289.44 353.681 289.44 353.7C290.487 357.1 291.573 360.48 292.7 363.84C292.4 363.26 292.1 362.68 291.79 362.11C290.917 360.57 290.03 359.037 289.13 357.51C289.13 357.45 289.01 357.51 289.04 357.56C289.87 359.1 290.7 360.63 291.55 362.15C291.98 362.91 292.45 363.65 292.9 364.41C296.045 373.842 299.779 383.067 304.08 392.03C305.8 395.55 307.8 398.92 309.52 402.43C309.57 402.58 309.74 402.48 309.68 402.37Z" fill="#263238"/>
<path d="M321.24 412.17C318.64 408.17 312.45 396.02 310.24 391.82C305.76 383.33 301.65 374.67 297.77 365.89C295.58 360.89 293.53 355.89 291.5 350.89C291.5 350.89 291.43 350.89 291.45 350.89C294.545 359.939 298.093 368.827 302.08 377.52C306.08 386.24 318.79 409.71 321.08 412.25C321.16 412.36 321.31 412.27 321.24 412.17Z" fill="#263238"/>
<path d="M287.77 357.6C283.13 365.89 278.38 374.13 273.71 382.42C271.36 386.6 269 390.79 266.71 394.99C265.61 396.99 264.55 398.99 263.41 400.92C262.43 402.762 260.955 404.293 259.15 405.34C256.988 406.366 254.721 407.158 252.39 407.7C249.76 408.47 247.16 409.29 244.52 410.01C244.497 410.02 244.478 410.037 244.468 410.06C244.457 410.083 244.455 410.109 244.463 410.133C244.47 410.156 244.487 410.177 244.508 410.189C244.53 410.202 244.556 410.205 244.58 410.2C246.93 409.57 249.3 409.03 251.66 408.45C253.833 407.985 255.979 407.404 258.09 406.71C259.959 406.091 261.611 404.949 262.85 403.42C264.119 401.662 265.237 399.798 266.19 397.85C270.857 389.33 275.473 380.787 280.04 372.22C282.64 367.36 285.22 362.48 287.85 357.62C287.83 357.6 287.79 357.57 287.77 357.6Z" fill="#263238"/>
<path d="M318.81 414.18C322.04 413.6 325.35 413.31 328.6 412.9L338.4 411.63C344.92 410.78 367.09 407.24 368.77 406.69C368.87 406.69 368.83 406.48 368.77 406.48C367.18 406.43 352.66 408.36 349.4 408.84C342.89 409.84 336.4 410.96 329.93 412.05C328.07 412.36 326.23 412.72 324.38 413.05C322.53 413.38 320.68 413.77 318.82 414.05C318.67 414 318.7 414.2 318.81 414.18Z" fill="#263238"/>
<path d="M351.13 470.17C350.27 467.56 304.06 406.49 300.9 405.32C300.54 405.16 279.9 419.86 279.9 419.86C279.05 421 239.78 412.7 239.78 412.7L239.39 460.07L310.92 458.55C310.92 458.55 320.58 464.23 329.42 468.86C334.86 471.72 339.68 474.14 341.05 474.5C344.64 475.42 352 472.76 351.13 470.17Z" fill="#FFC4C0"/>
<path d="M341.06 474.5C339.68 474.15 334.87 471.74 329.44 468.86C320.61 464.24 310.95 458.55 310.95 458.55L295.03 458.89L270.1 418.68C275.57 419.68 279.65 420.23 279.93 419.86C279.93 419.86 300.58 405.16 300.93 405.32C304.09 406.49 350.3 467.55 351.16 470.16C352.02 472.77 344.64 475.43 341.06 474.5Z" fill="white"/>
<path d="M351.56 470.25C350.65 467.57 304.23 406.54 300.98 405.34C299.76 404.87 289.65 411.11 279.88 419.86L309.88 459.17C309.88 459.17 337.53 473.82 341.23 474.77C344.93 475.72 352.47 472.92 351.56 470.25Z" fill="#D6955B"/>
<path d="M348.45 471.23C340.45 461.23 308.96 419.94 301.79 409.41C301.73 409.32 301.79 409.28 301.85 409.36C310.03 419.13 341.15 460.64 348.62 471.1C348.78 471.32 348.62 471.44 348.45 471.23Z" fill="#263238"/>
<path d="M336 472.51C335.108 471.398 334.455 470.113 334.084 468.736C333.712 467.359 333.629 465.92 333.84 464.51C334.209 461.963 335.544 459.657 337.57 458.07C337.63 458.07 337.72 458.14 337.66 458.19C335.896 460.079 334.793 462.49 334.517 465.06C334.241 467.63 334.807 470.22 336.13 472.44C336.132 472.456 336.128 472.472 336.121 472.485C336.114 472.499 336.102 472.511 336.088 472.518C336.074 472.526 336.059 472.529 336.043 472.527C336.027 472.526 336.012 472.52 336 472.51Z" fill="#263238"/>
<path d="M313.33 461.6C310.15 457.55 307.99 451.7 309.4 446.6C309.46 446.4 309.74 446.49 309.77 446.65C310.612 451.66 311.99 456.565 313.88 461.28C313.912 461.352 313.917 461.434 313.892 461.509C313.868 461.584 313.817 461.647 313.749 461.687C313.68 461.727 313.6 461.74 313.523 461.724C313.445 461.708 313.377 461.664 313.33 461.6Z" fill="#263238"/>
<path d="M317 463.83C313.83 459.77 311.66 453.93 313.08 448.83C313.08 448.63 313.41 448.71 313.44 448.88C314.287 453.887 315.668 458.788 317.56 463.5C317.587 463.573 317.588 463.653 317.562 463.726C317.536 463.799 317.485 463.861 317.419 463.9C317.352 463.939 317.273 463.954 317.197 463.941C317.12 463.928 317.05 463.889 317 463.83Z" fill="#263238"/>
<path d="M320.6 466.05C317.43 462 315.26 456.15 316.67 451.05C316.73 450.85 317.01 450.93 317.04 451.1C317.888 456.11 319.269 461.014 321.16 465.73C321.202 465.804 321.214 465.892 321.191 465.975C321.169 466.057 321.114 466.128 321.04 466.17C320.966 466.212 320.878 466.224 320.795 466.201C320.713 466.179 320.642 466.124 320.6 466.05Z" fill="#263238"/>
<path d="M324.24 468.27C321.06 464.27 318.9 458.37 320.31 453.27C320.37 453.08 320.65 453.16 320.68 453.33C321.52 458.353 322.898 463.272 324.79 468C324.801 468.068 324.79 468.137 324.759 468.199C324.727 468.26 324.677 468.309 324.615 468.339C324.554 468.37 324.484 468.379 324.416 468.367C324.349 468.354 324.287 468.32 324.24 468.27Z" fill="#263238"/>
<path d="M294.05 419.4C290.57 414.8 297.72 409.4 301.21 413.99C304.7 418.58 297.54 424 294.05 419.4Z" fill="#263238"/>
<path d="M311.52 469.45C312.69 465.07 311.92 460.34 311.72 455.89C311.707 455.792 311.672 455.698 311.616 455.616C311.56 455.535 311.486 455.467 311.399 455.42C311.313 455.372 311.216 455.345 311.117 455.342C311.018 455.338 310.92 455.358 310.83 455.4C310.818 455.383 310.802 455.37 310.784 455.361C310.766 455.351 310.746 455.347 310.725 455.347C310.705 455.347 310.684 455.351 310.666 455.361C310.648 455.37 310.632 455.383 310.62 455.4C307.103 458.549 304.476 462.566 303 467.05C302.18 469.68 302.49 473.57 305.79 474.34C308.88 475.06 310.84 472 311.52 469.45ZM308.27 472.22C303.51 475.22 303.87 468.58 304.55 466.66C305.004 465.423 305.545 464.22 306.17 463.06C307.489 460.682 308.928 458.373 310.48 456.14C310.48 458.33 310.6 460.5 310.65 462.69C310.7 465.31 310.9 470.57 308.27 472.22Z" fill="#263238"/>
<path d="M296.94 442.81C294.51 445.16 296.26 448.65 298.31 450.49C301.894 453.584 306.229 455.681 310.88 456.57C310.99 456.57 311.04 456.51 311.05 456.42C311.148 456.411 311.243 456.379 311.326 456.326C311.409 456.273 311.479 456.201 311.529 456.116C311.579 456.031 311.607 455.935 311.613 455.837C311.618 455.738 311.6 455.64 311.56 455.55C309.44 451.63 307.66 447.18 304.4 444.04C302.49 442.2 299.24 440.58 296.94 442.81ZM307.13 450.27C308.22 452.17 309.21 454.11 310.37 455.97C307.888 454.86 305.464 453.621 303.11 452.26C301.975 451.591 300.889 450.842 299.86 450.02C298.29 448.72 294.56 443.24 300.18 443.34C303.28 443.39 305.83 448 307.13 450.27Z" fill="#263238"/>
<path d="M260.29 401.76C260.29 401.76 181.91 388 159.61 392.52C128.51 398.83 122.8 435.6 145.87 449.3C175.08 466.66 292.77 463.3 292.77 463.3L264.67 415.66C264.67 415.66 221.43 406.56 182.22 407.88L260.63 419.88L260.29 401.76Z" fill="#37474F"/>
<path d="M266.54 418.73C266.506 418.654 266.486 418.573 266.48 418.49C266.48 418.42 266.48 418.35 266.43 418.29L266.31 417.83C266.22 417.51 266.1 417.2 265.98 416.89C265.86 416.58 265.73 416.29 265.59 415.99C265.431 415.699 265.254 415.419 265.06 415.15C265.038 415.125 265.011 415.104 264.98 415.09H264.93C264.907 415.084 264.883 415.084 264.86 415.09H264.79C260.04 414.21 227.73 409.58 222.92 409.03C218.11 408.48 213.22 408.03 208.37 407.62C198.68 406.81 188.93 406.41 179.21 406.62L176.48 406.71C176.28 406.64 176.08 406.61 175.88 406.56C175.41 406.45 174.95 406.33 174.47 406.24C173.6 406.07 172.71 405.95 171.83 405.81C169.99 405.53 168.14 405.33 166.31 404.99C166.2 404.99 166.16 405.14 166.31 405.16C168.15 405.57 169.96 406.1 171.8 406.51C172.33 406.62 172.86 406.74 173.4 406.84C169.83 407.03 166.27 407.31 162.71 407.63C162.6 407.63 162.6 407.81 162.71 407.81C167.55 407.52 172.43 407.48 177.28 407.57C182.13 407.66 186.91 407.75 191.72 408.03C201.45 408.59 211.17 409.46 220.86 410.47C226.3 411.04 259.24 415.85 264.7 416.08H264.77C264.77 416.2 264.86 416.33 264.92 416.45C265.07 416.75 265.22 417.04 265.38 417.33C265.54 417.62 265.69 417.89 265.87 418.15L266.14 418.55L266.28 418.75C266.332 418.813 266.379 418.879 266.42 418.95C266.434 418.958 266.45 418.963 266.467 418.965C266.483 418.966 266.5 418.965 266.515 418.96C266.531 418.956 266.546 418.948 266.559 418.938C266.571 418.927 266.582 418.914 266.59 418.9C266.598 418.886 266.603 418.87 266.605 418.853C266.606 418.837 266.605 418.82 266.6 418.805C266.596 418.789 266.588 418.774 266.578 418.761C266.567 418.749 266.554 418.738 266.54 418.73Z" fill="#263238"/>
<path d="M282.64 460.4C280.9 457.62 279.41 454.65 277.82 451.78L273.02 443.14C269.82 437.4 258.34 418.14 257.21 416.75C257.192 416.734 257.17 416.724 257.147 416.722C257.123 416.72 257.099 416.725 257.079 416.738C257.059 416.75 257.043 416.769 257.034 416.791C257.025 416.813 257.024 416.837 257.03 416.86C257.57 418.36 264.73 431.14 266.38 433.99C269.68 439.68 273.14 445.27 276.56 450.9C277.56 452.5 278.56 454.09 279.56 455.69C280.56 457.29 281.61 458.85 282.56 460.49C282.54 460.59 282.7 460.5 282.64 460.4Z" fill="#263238"/>
<path d="M256.88 421.55C254.01 420.87 251.07 420.42 248.18 419.87L239.46 418.23C233.64 417.15 227.813 416.12 221.98 415.14C210.35 413.14 198.66 411.55 186.92 410.43C180.29 409.79 173.64 409.37 167 408.88C166.86 408.88 166.86 409.1 167 409.1C178.83 409.64 190.64 411.24 202.35 412.92C214.06 414.6 225.53 416.42 237.09 418.37L246.87 420.04C250.18 420.62 253.49 421.32 256.82 421.75C256.833 421.754 256.847 421.755 256.861 421.754C256.874 421.752 256.887 421.748 256.9 421.742C256.912 421.735 256.922 421.727 256.931 421.716C256.94 421.705 256.946 421.693 256.95 421.68C256.954 421.667 256.955 421.653 256.954 421.639C256.952 421.626 256.948 421.613 256.942 421.6C256.935 421.588 256.927 421.578 256.916 421.569C256.905 421.56 256.893 421.554 256.88 421.55Z" fill="#263238"/>
<path d="M241.4 327C248.69 345.18 264.04 372.84 273.93 371.28C282.93 369.86 300.87 350.97 308.58 344.52C316.29 338.07 294.4 320.06 290 324.1C283.23 330.36 273.3 341.22 271.32 340.88C268.84 340.45 265.01 335.06 249.09 319.8C242.59 313.56 238.3 319.3 241.4 327Z" fill="#FFC4C0"/>
<path d="M298 314.83C301.78 312.83 306 310.3 310.4 309.75C314.8 309.2 319.35 314.54 319.58 316.21C319.81 317.88 319.63 328.56 315.2 329.21C310.77 329.86 312.31 321.44 312.01 320.54C311.71 319.64 311.38 318.54 310.56 318.7C309.74 318.86 296.1 327.9 296.1 327.9L298 314.83Z" fill="#FFC4C0"/>
<path d="M298.35 315.41C298.61 315.41 309.81 309.01 314.25 308.47C318.69 307.93 323.19 313.25 323.43 314.93C323.67 316.61 323.43 327.28 319.04 327.93C314.65 328.58 316.15 320.16 315.85 319.27C315.55 318.38 315.22 317.22 314.4 317.42C313.58 317.62 299.94 326.63 299.94 326.63L298.35 315.41Z" fill="#FFC4C0"/>
<path d="M317.46 327.56C316.876 326.832 316.493 325.963 316.35 325.04C316.12 324.109 316.039 323.147 316.11 322.19C316.243 321.36 316.306 320.52 316.3 319.68C316.182 318.863 315.859 318.088 315.36 317.43C314.93 316.86 314.31 317.16 313.78 317.43C312.996 317.857 312.241 318.335 311.52 318.86C310.73 319.39 309.96 319.95 309.18 320.5C308.352 321.042 307.561 321.636 306.81 322.28C306.76 322.28 306.81 322.43 306.88 322.39C307.62 322.01 308.29 321.52 308.99 321.07C309.69 320.62 310.56 320.07 311.35 319.55C312.14 319.03 312.82 318.55 313.57 318.13C313.83 317.97 314.35 317.58 314.68 317.61C315.01 317.64 315.32 318.45 315.43 318.7C315.727 319.471 315.793 320.312 315.62 321.12C315.495 321.944 315.455 322.778 315.5 323.61C315.533 324.394 315.705 325.167 316.01 325.89C316.38 326.529 316.826 327.12 317.34 327.65C317.4 327.74 317.53 327.63 317.46 327.56Z" fill="#263238"/>
<path d="M286 329C286 329 296.69 316.09 298.93 313.5C303.43 308.32 323.76 296.45 326.72 295.71C329.68 294.97 331.64 300.98 317.9 309.46C310.66 313.92 309.9 318.54 310.4 320.97C310.9 323.4 313.88 327.64 317.99 326.97C322.1 326.3 323.92 319.88 327.61 318.68C331.3 317.48 329.78 324.77 327.68 329.16C325.425 333.433 322.002 336.977 317.81 339.38C314.44 341.22 304.08 347.54 304.08 347.54L286 329Z" fill="#FFC4C0"/>
<path d="M322.64 323.33C321.26 324.75 319.72 326.56 317.69 326.92C315.66 327.28 314.03 326.12 312.8 324.54C311.487 323.002 310.81 321.02 310.91 319C311.145 317.161 311.897 315.427 313.08 314C314.544 312.267 316.248 310.752 318.14 309.5C318.23 309.44 318.14 309.32 318.04 309.38C316.26 310.49 310.71 313.74 310.26 319.12C310.181 321.187 310.897 323.205 312.26 324.76C313.41 326.28 314.96 327.67 316.98 327.55C319.45 327.4 321.26 325.13 322.8 323.4C322.84 323.29 322.72 323.26 322.64 323.33Z" fill="#263238"/>
<path d="M285.73 327.45L308.12 353.35C308.12 353.35 281.3 373.78 272.69 372.35C264.08 370.92 248.3 349 240.24 329C232.18 309 246.03 315.14 251.87 320.85C257.71 326.56 270.53 339.85 271.08 339.57C271.63 339.29 285.73 327.45 285.73 327.45Z" fill="#FEEAA1"/>
<path d="M288.33 351.6C288.046 351.608 287.765 351.546 287.51 351.42C287.281 351.307 287.085 351.138 286.939 350.928C286.794 350.718 286.705 350.474 286.68 350.22C286.621 349.835 286.45 349.475 286.189 349.185C285.927 348.896 285.587 348.689 285.21 348.59C284.855 348.509 284.486 348.526 284.14 348.64C283.83 348.75 283.52 348.82 283.21 348.94C283.54 348.99 283.86 348.99 284.21 349.03C284.493 349.021 284.775 349.068 285.04 349.17C285.272 349.273 285.473 349.434 285.626 349.637C285.778 349.84 285.876 350.079 285.91 350.33C285.956 350.713 286.112 351.074 286.358 351.37C286.605 351.666 286.932 351.885 287.3 352C287.649 352.105 288.021 352.105 288.37 352C288.686 351.916 288.997 351.813 289.3 351.69C289 351.62 288.65 351.62 288.33 351.6ZM270.64 355.47C270.54 355.16 270.46 354.85 270.33 354.54C270.28 354.87 270.28 355.19 270.25 355.54C270.272 355.825 270.22 356.111 270.1 356.37C269.998 356.602 269.839 356.804 269.638 356.958C269.437 357.112 269.2 357.212 268.95 357.25C268.564 357.295 268.2 357.451 267.902 357.7C267.603 357.949 267.384 358.279 267.27 358.65C267.164 359.002 267.164 359.378 267.27 359.73C267.38 360.04 267.45 360.35 267.57 360.66C267.57 360.33 267.57 360.01 267.66 359.66C267.651 359.38 267.709 359.103 267.83 358.85C267.939 358.618 268.107 358.419 268.318 358.273C268.529 358.127 268.774 358.04 269.03 358.02C269.418 357.968 269.782 357.8 270.073 357.538C270.364 357.275 270.569 356.931 270.66 356.55C270.753 356.195 270.746 355.821 270.64 355.47ZM287.91 330C287.634 330.112 287.387 330.284 287.187 330.504C286.986 330.724 286.837 330.985 286.75 331.27C286.644 331.622 286.644 331.998 286.75 332.35C286.85 332.66 286.93 332.97 287.05 333.28C287.1 332.95 287.1 332.63 287.13 332.28C287.12 331.996 287.182 331.714 287.31 331.46C287.413 331.237 287.573 331.044 287.772 330.9C287.972 330.757 288.206 330.667 288.45 330.64L287.91 330ZM301.79 355.67C301.69 355.36 301.61 355.05 301.48 354.74C301.43 355.07 301.43 355.39 301.4 355.74C301.42 356.024 301.372 356.308 301.26 356.57C301.158 356.802 300.997 357.004 300.794 357.157C300.591 357.309 300.352 357.407 300.1 357.44C299.713 357.486 299.348 357.644 299.049 357.894C298.751 358.145 298.532 358.477 298.42 358.85C298.31 359.198 298.31 359.572 298.42 359.92L298.51 360.21L298.79 360.02C298.79 359.97 298.79 359.92 298.79 359.87C298.783 359.567 298.855 359.267 299 359C299.11 358.769 299.278 358.57 299.489 358.424C299.7 358.279 299.945 358.191 300.2 358.17C300.587 358.112 300.949 357.942 301.241 357.681C301.532 357.42 301.741 357.079 301.84 356.7C301.919 356.349 301.902 355.982 301.79 355.64V355.67ZM255.25 336C255.14 335.69 255.06 335.38 254.94 335.07C254.89 335.4 254.89 335.72 254.85 336.07C254.87 336.354 254.822 336.638 254.71 336.9C254.609 337.134 254.449 337.338 254.246 337.493C254.042 337.647 253.803 337.746 253.55 337.78C253.166 337.827 252.804 337.984 252.508 338.233C252.211 338.481 251.993 338.81 251.88 339.18C251.765 339.531 251.765 339.909 251.88 340.26C251.98 340.57 252.05 340.88 252.18 341.19C252.18 340.86 252.18 340.54 252.26 340.19C252.25 339.906 252.312 339.624 252.44 339.37C252.547 339.137 252.715 338.936 252.926 338.79C253.137 338.644 253.384 338.558 253.64 338.54C254.024 338.481 254.383 338.312 254.672 338.053C254.962 337.793 255.17 337.455 255.27 337.08C255.355 336.724 255.348 336.352 255.25 336ZM246.5 316.91C246.299 316.852 246.112 316.753 245.95 316.62H245.88C245.704 316.481 245.499 316.385 245.28 316.34C245.032 316.274 244.774 316.261 244.521 316.301C244.268 316.34 244.026 316.432 243.81 316.57C243.496 316.755 243.245 317.03 243.09 317.36C242.94 317.65 242.78 317.92 242.64 318.23C242.91 318.03 243.15 317.81 243.4 317.6C243.588 317.384 243.824 317.216 244.09 317.11C244.326 317.018 244.581 316.989 244.831 317.024C245.081 317.059 245.319 317.157 245.52 317.31C245.81 317.54 246.157 317.685 246.525 317.729C246.892 317.773 247.264 317.715 247.6 317.56C247.19 317.3 246.85 317.1 246.5 316.91ZM256.5 325.42L256.37 325.65C256.22 325.94 256.06 326.22 255.92 326.53C256.19 326.34 256.42 326.11 256.68 325.89L256.83 325.75L256.5 325.42ZM273.12 341.12C272.93 341.324 272.693 341.478 272.43 341.57C272.188 341.653 271.928 341.673 271.676 341.627C271.424 341.582 271.188 341.473 270.99 341.31C270.675 341.077 270.299 340.941 269.908 340.92C269.517 340.898 269.128 340.992 268.79 341.19C268.487 341.389 268.242 341.665 268.08 341.99C267.93 342.27 267.77 342.55 267.63 342.86C267.9 342.67 268.13 342.44 268.39 342.22C268.581 342.013 268.817 341.852 269.08 341.75C269.314 341.655 269.569 341.623 269.82 341.656C270.071 341.689 270.309 341.787 270.51 341.94C270.816 342.18 271.185 342.326 271.572 342.36C271.959 342.393 272.347 342.314 272.69 342.13C273.011 341.952 273.269 341.68 273.43 341.35C273.58 341.07 273.74 340.79 273.88 340.49C273.612 340.685 273.354 340.896 273.11 341.12H273.12ZM297.12 340.64L297.02 340.69C296.712 340.884 296.466 341.161 296.31 341.49C296.146 341.771 295.999 342.061 295.87 342.36C296.13 342.16 296.36 341.93 296.61 341.73C296.798 341.514 297.034 341.346 297.3 341.24L297.58 341.17L297.12 340.64ZM285.5 366.48C285.312 366.695 285.07 366.857 284.8 366.95C284.557 367.029 284.299 367.046 284.047 367.001C283.796 366.955 283.56 366.849 283.36 366.69C283.05 366.45 282.675 366.31 282.284 366.289C281.893 366.267 281.504 366.365 281.17 366.57C280.861 366.758 280.614 367.033 280.46 367.36C280.3 367.65 280.14 367.93 280.01 368.23C280.28 368.03 280.51 367.81 280.76 367.6C280.951 367.387 281.186 367.22 281.45 367.11C281.688 367.02 281.945 366.992 282.197 367.029C282.449 367.065 282.688 367.166 282.89 367.32C283.195 367.558 283.562 367.703 283.947 367.736C284.332 367.77 284.719 367.691 285.06 367.51C285.379 367.329 285.636 367.058 285.8 366.73C285.966 366.445 286.116 366.151 286.25 365.85C286 366.05 285.76 366.28 285.51 366.48H285.5Z" fill="white"/>
<path opacity="0.1" d="M289 366.2C282.75 369.84 276.51 372.73 273 372.36H272.69C264.08 370.85 248.3 349 240.24 329C239.075 326.332 238.271 323.521 237.85 320.64C237.85 320.54 237.85 320.44 237.85 320.34C237.84 320.173 237.84 320.007 237.85 319.84C237.845 319.773 237.845 319.707 237.85 319.64C237.85 319.48 237.85 319.33 237.85 319.18L289 366.2Z" fill="black"/>
<path d="M297.47 352C296.75 351.07 296.02 350.15 295.29 349.23C293.82 347.39 285.02 336.46 281.7 333.23C281.61 333.15 281.48 333.23 281.54 333.38C284.09 337.27 293.12 347.94 294.62 349.7C295.39 350.6 296.15 351.49 296.93 352.38C297.71 353.27 298.6 354.08 299.38 354.98C299.45 355.06 299.6 354.98 299.53 354.87C298.81 353.94 298.2 352.92 297.47 352Z" fill="#263238"/>
<path d="M202.74 400C202.74 400 237.22 405.6 257.96 405.73C264.547 405.858 270.93 403.448 275.79 399C276.73 397.91 253.88 325.46 246.11 315.53C244.44 313.41 233.66 309.48 228.18 315.59C206.88 339.38 202.74 400 202.74 400Z" fill="#FEEAA1"/>
<path d="M238.41 331.49C238.127 331.499 237.846 331.44 237.59 331.32C237.363 331.205 237.169 331.035 237.026 330.825C236.883 330.615 236.795 330.373 236.77 330.12C236.711 329.735 236.54 329.375 236.279 329.085C236.017 328.796 235.677 328.589 235.3 328.49C234.946 328.4 234.574 328.417 234.23 328.54C233.914 328.624 233.603 328.727 233.3 328.85C233.62 328.85 233.95 328.85 234.3 328.92C234.589 328.906 234.877 328.961 235.14 329.08C235.371 329.178 235.573 329.335 235.726 329.535C235.878 329.735 235.976 329.971 236.01 330.22C236.056 330.607 236.214 330.972 236.464 331.27C236.715 331.569 237.047 331.788 237.42 331.9C237.77 332 238.14 332 238.49 331.9C238.8 331.79 239.11 331.72 239.42 331.59C239.086 331.536 238.748 331.502 238.41 331.49ZM269.41 376.49C269.283 376.414 269.145 376.359 269 376.33C268.645 376.249 268.275 376.266 267.93 376.38C267.62 376.49 267.31 376.56 267 376.68C267.33 376.74 267.65 376.74 268 376.77C268.286 376.761 268.572 376.809 268.84 376.91C269.07 377.016 269.27 377.177 269.422 377.38C269.574 377.582 269.673 377.819 269.71 378.07C269.766 378.527 269.978 378.951 270.31 379.27C270 378.4 269.73 377.48 269.43 376.53L269.41 376.49ZM215.76 359.01C215.479 359.022 215.2 358.96 214.95 358.83C214.72 358.721 214.522 358.554 214.377 358.345C214.231 358.137 214.143 357.893 214.12 357.64C214.085 357.356 213.986 357.084 213.833 356.843C213.679 356.602 213.474 356.397 213.232 356.245C212.99 356.093 212.717 355.997 212.433 355.963C212.149 355.929 211.861 355.959 211.59 356.05C211.28 356.16 210.96 356.23 210.66 356.36C210.991 356.408 211.325 356.435 211.66 356.44C211.944 356.428 212.228 356.479 212.49 356.59C212.722 356.69 212.924 356.849 213.077 357.05C213.229 357.252 213.327 357.489 213.36 357.74C213.408 358.125 213.566 358.488 213.817 358.785C214.067 359.081 214.398 359.298 214.77 359.41C215.122 359.521 215.498 359.521 215.85 359.41C216.166 359.325 216.476 359.221 216.78 359.1C216.43 359.07 216.11 359.07 215.78 359.05L215.76 359.01ZM273.76 400.01C273.474 400.02 273.189 399.962 272.93 399.84C272.705 399.724 272.512 399.553 272.368 399.344C272.225 399.134 272.136 398.892 272.11 398.64C272.052 398.253 271.882 397.891 271.621 397.599C271.36 397.308 271.019 397.099 270.64 397C270.284 396.928 269.916 396.949 269.57 397.06C269.26 397.16 268.94 397.24 268.64 397.36C268.96 397.41 269.3 397.41 269.64 397.44C269.925 397.424 270.209 397.475 270.47 397.59C270.703 397.691 270.907 397.851 271.059 398.054C271.212 398.258 271.309 398.498 271.34 398.75C271.388 399.135 271.546 399.498 271.797 399.795C272.047 400.091 272.378 400.308 272.75 400.42C273.1 400.52 273.47 400.52 273.82 400.42L274.39 400.23L274.55 400.1L273.76 400.01ZM238 383.46C237.715 383.466 237.432 383.412 237.17 383.3C236.942 383.186 236.747 383.016 236.602 382.806C236.457 382.596 236.367 382.354 236.34 382.1C236.283 381.714 236.115 381.353 235.855 381.062C235.596 380.77 235.257 380.561 234.88 380.46C234.525 380.382 234.155 380.403 233.81 380.52C233.5 380.62 233.18 380.69 232.88 380.82C233.2 380.87 233.53 380.87 233.88 380.9C234.168 380.884 234.455 380.936 234.72 381.05C234.952 381.151 235.153 381.31 235.306 381.511C235.458 381.712 235.556 381.95 235.59 382.2C235.614 382.486 235.702 382.762 235.848 383.009C235.993 383.256 236.193 383.467 236.431 383.626C236.669 383.786 236.94 383.89 237.224 383.93C237.508 383.97 237.797 383.947 238.07 383.86C238.38 383.75 238.69 383.67 239 383.55C238.67 383.5 238.35 383.5 238 383.46ZM205.6 394.09C205.32 394.1 205.042 394.041 204.79 393.92C204.56 393.81 204.362 393.643 204.215 393.435C204.068 393.226 203.976 392.984 203.95 392.73C203.915 392.365 203.776 392.018 203.55 391.73C203.48 392.32 203.41 392.88 203.36 393.42C203.48 393.664 203.651 393.88 203.861 394.053C204.072 394.225 204.317 394.35 204.58 394.42C204.928 394.53 205.302 394.53 205.65 394.42C205.96 394.32 206.27 394.24 206.58 394.11C206.25 394.12 205.93 394.12 205.6 394.09ZM250.71 355.68C250.428 355.687 250.148 355.632 249.89 355.52C249.663 355.405 249.468 355.235 249.323 355.025C249.178 354.816 249.087 354.573 249.06 354.32C249.005 353.932 248.837 353.569 248.578 353.276C248.318 352.983 247.978 352.772 247.6 352.67C247.241 352.59 246.868 352.611 246.52 352.73C246.21 352.84 245.9 352.91 245.59 353.03C245.92 353.09 246.24 353.09 246.59 353.12C246.874 353.099 247.159 353.147 247.42 353.26C247.653 353.361 247.857 353.521 248.009 353.724C248.162 353.928 248.259 354.168 248.29 354.42C248.338 354.806 248.499 355.17 248.751 355.467C249.003 355.764 249.336 355.98 249.71 356.09C250.058 356.2 250.432 356.2 250.78 356.09C251.09 355.99 251.4 355.91 251.71 355.78C251.36 355.71 251 355.71 250.71 355.68ZM234.57 361.88C234.47 361.57 234.39 361.26 234.27 360.95C234.22 361.28 234.22 361.6 234.19 361.95C234.207 362.238 234.155 362.526 234.04 362.79C233.939 363.023 233.779 363.227 233.576 363.379C233.372 363.532 233.132 363.629 232.88 363.66C232.495 363.708 232.132 363.866 231.835 364.117C231.539 364.367 231.322 364.698 231.21 365.07C231.099 365.418 231.099 365.792 231.21 366.14C231.31 366.45 231.39 366.76 231.51 367.07C231.56 366.74 231.56 366.42 231.59 366.07C231.577 365.786 231.639 365.503 231.77 365.25C231.882 365.02 232.051 364.823 232.261 364.678C232.472 364.533 232.716 364.444 232.97 364.42C233.355 364.361 233.715 364.19 234.005 363.929C234.294 363.667 234.501 363.327 234.6 362.95C234.687 362.597 234.677 362.227 234.57 361.88ZM257 386.6C256.89 386.29 256.81 385.98 256.69 385.67C256.69 386 256.69 386.32 256.6 386.67C256.621 386.951 256.573 387.232 256.46 387.49C256.359 387.724 256.199 387.928 255.996 388.083C255.792 388.237 255.553 388.336 255.3 388.37C254.915 388.418 254.552 388.576 254.255 388.827C253.959 389.077 253.742 389.408 253.63 389.78C253.52 390.128 253.52 390.502 253.63 390.85C253.73 391.16 253.8 391.47 253.93 391.78C253.98 391.45 253.98 391.13 254.01 390.78C253.998 390.499 254.06 390.22 254.19 389.97C254.297 389.737 254.465 389.536 254.676 389.39C254.887 389.244 255.134 389.158 255.39 389.14C255.775 389.081 256.135 388.91 256.425 388.649C256.714 388.387 256.921 388.047 257.02 387.67C257.105 387.317 257.098 386.949 257 386.6ZM255.25 336C255.14 335.69 255.06 335.38 254.94 335.07C254.89 335.4 254.89 335.72 254.85 336.07C254.87 336.354 254.822 336.638 254.71 336.9C254.609 337.134 254.449 337.338 254.246 337.493C254.042 337.647 253.803 337.746 253.55 337.78C253.166 337.827 252.804 337.984 252.508 338.233C252.211 338.481 251.993 338.81 251.88 339.18C251.765 339.531 251.765 339.909 251.88 340.26C251.98 340.57 252.05 340.88 252.18 341.19C252.18 340.86 252.18 340.54 252.26 340.19C252.25 339.906 252.312 339.624 252.44 339.37C252.547 339.137 252.715 338.936 252.926 338.79C253.137 338.644 253.384 338.558 253.64 338.54C254.024 338.481 254.383 338.312 254.672 338.053C254.962 337.793 255.17 337.455 255.27 337.08C255.355 336.724 255.348 336.352 255.25 336ZM217.88 334.09C217.798 333.774 217.698 333.464 217.58 333.16C217.53 333.49 217.53 333.81 217.5 334.16C217.522 334.448 217.47 334.737 217.35 335C217.262 335.195 217.133 335.368 216.973 335.51C216.813 335.651 216.624 335.757 216.42 335.82C216.3 336.1 216.18 336.4 216.07 336.69H216.31C216.699 336.64 217.063 336.472 217.354 336.209C217.645 335.947 217.85 335.602 217.94 335.22C218.036 334.846 218.015 334.452 217.88 334.09ZM225.24 396.21C225.156 395.894 225.053 395.583 224.93 395.28C224.88 395.6 224.88 395.93 224.86 396.28C224.874 396.565 224.819 396.85 224.7 397.11C224.601 397.342 224.444 397.544 224.244 397.698C224.045 397.852 223.809 397.952 223.56 397.99C223.274 398.014 222.998 398.102 222.751 398.248C222.504 398.393 222.293 398.593 222.134 398.831C221.974 399.069 221.87 399.34 221.83 399.624C221.789 399.908 221.813 400.197 221.9 400.47C222 400.73 222.06 400.99 222.16 401.26H222.21C222.21 400.97 222.21 400.69 222.28 400.4C222.275 400.119 222.336 399.842 222.46 399.59C222.573 399.361 222.742 399.164 222.952 399.019C223.162 398.874 223.406 398.785 223.66 398.76C224.048 398.708 224.412 398.54 224.703 398.278C224.994 398.015 225.198 397.671 225.29 397.29C225.379 396.933 225.362 396.557 225.24 396.21ZM247.06 317C246.861 317.024 246.659 317.007 246.466 316.95C246.274 316.893 246.095 316.798 245.94 316.67C245.629 316.432 245.253 316.293 244.862 316.274C244.471 316.254 244.083 316.354 243.75 316.56C243.436 316.745 243.185 317.02 243.03 317.35C242.88 317.64 242.72 317.91 242.58 318.22C242.85 318.02 243.09 317.8 243.34 317.59C243.528 317.374 243.764 317.206 244.03 317.1C244.266 317.008 244.521 316.979 244.771 317.014C245.021 317.049 245.259 317.147 245.46 317.3C245.736 317.525 246.066 317.672 246.418 317.727C246.769 317.781 247.129 317.741 247.46 317.61L247.06 317ZM226 319C225.811 319.205 225.574 319.36 225.31 319.45H225.14C224.95 319.7 224.77 319.96 224.59 320.22C224.939 320.236 225.286 320.153 225.59 319.98C225.907 319.793 226.164 319.519 226.33 319.19C226.48 318.91 226.64 318.64 226.77 318.33C226.43 318.57 226.2 318.8 226 319ZM232.11 343.31C231.925 343.52 231.687 343.676 231.42 343.76C231.177 343.845 230.916 343.867 230.662 343.824C230.409 343.78 230.17 343.672 229.97 343.51C229.656 343.279 229.282 343.144 228.893 343.123C228.504 343.102 228.117 343.195 227.78 343.39C227.473 343.58 227.227 343.855 227.07 344.18C226.92 344.48 226.76 344.75 226.62 345.06C226.89 344.86 227.12 344.63 227.37 344.42C227.547 344.236 227.762 344.093 228 344C228.237 343.906 228.494 343.874 228.746 343.91C228.999 343.945 229.238 344.045 229.44 344.2C229.746 344.44 230.115 344.586 230.502 344.62C230.889 344.653 231.277 344.574 231.62 344.39C231.938 344.209 232.196 343.938 232.36 343.61C232.51 343.32 232.67 343.05 232.8 342.74C232.54 342.88 232.31 343.11 232.06 343.32L232.11 343.31ZM218.74 379.72C218.551 379.928 218.314 380.086 218.05 380.18C217.807 380.261 217.548 380.28 217.297 380.235C217.045 380.189 216.809 380.081 216.61 379.92C216.295 379.687 215.919 379.551 215.528 379.53C215.137 379.508 214.748 379.602 214.41 379.8C214.105 379.996 213.857 380.268 213.69 380.59C213.55 380.88 213.38 381.16 213.25 381.47C213.52 381.27 213.75 381.05 214 380.83C214.194 380.62 214.434 380.455 214.7 380.35C214.934 380.259 215.187 380.23 215.436 380.265C215.685 380.3 215.92 380.398 216.12 380.55C216.426 380.79 216.795 380.936 217.182 380.97C217.569 381.003 217.957 380.924 218.3 380.74C218.597 380.563 218.84 380.307 219 380C219.14 379.71 219.31 379.43 219.44 379.13C219.17 379.29 219 379.52 218.69 379.73L218.74 379.72ZM255.12 371.3C254.931 371.512 254.69 371.671 254.42 371.76C254.18 371.843 253.923 371.863 253.673 371.82C253.423 371.776 253.188 371.669 252.99 371.51C252.766 371.33 252.504 371.203 252.224 371.138C251.944 371.074 251.653 371.074 251.372 371.139C251.092 371.203 250.83 371.33 250.606 371.511C250.383 371.691 250.203 371.92 250.08 372.18C249.93 372.47 249.76 372.75 249.64 373.05C249.91 372.85 250.13 372.62 250.38 372.42C250.568 372.204 250.804 372.036 251.07 371.93C251.308 371.838 251.565 371.809 251.818 371.846C252.07 371.883 252.308 371.984 252.51 372.14C252.816 372.376 253.183 372.519 253.568 372.551C253.953 372.583 254.34 372.503 254.68 372.32C255 372.146 255.259 371.877 255.42 371.55C255.586 371.265 255.736 370.971 255.87 370.67C255.55 370.87 255.32 371.1 255.07 371.31L255.12 371.3ZM245 399.38C244.808 399.588 244.567 399.746 244.3 399.84C244.057 399.921 243.798 399.94 243.547 399.895C243.295 399.849 243.059 399.741 242.86 399.58C242.546 399.349 242.172 399.214 241.783 399.193C241.394 399.172 241.007 399.264 240.67 399.46C240.36 399.65 240.111 399.924 239.95 400.25C239.8 400.55 239.64 400.82 239.5 401.13C239.77 400.93 240.01 400.7 240.26 400.5C240.448 400.284 240.684 400.116 240.95 400.01C241.186 399.919 241.441 399.89 241.691 399.925C241.941 399.96 242.178 400.058 242.38 400.21C242.685 400.452 243.053 400.599 243.44 400.635C243.827 400.67 244.216 400.592 244.56 400.41C244.88 400.226 245.137 399.951 245.3 399.62C245.45 399.33 245.61 399.05 245.75 398.75C245.43 399 245.2 399.18 245 399.38Z" fill="white"/>
<path d="M225.27 338.38C231.27 357.11 252.44 390.74 263.42 392.63C276.13 394.82 316.42 375.37 323.83 368.14C326.78 365.26 306.21 346.49 302.33 348.57C286.04 357.32 271.27 362.72 268.85 361.57C265.12 359.74 248.45 341.85 237.7 330.8C224.2 316.89 222.58 330 225.27 338.38Z" fill="#FFC4C0"/>
<path d="M350.04 296.12L327.51 285.99L318.85 328.72L340.96 336.62L350.04 296.12Z" fill="#D6955B"/>
<path opacity="0.1" d="M350.04 296.12L327.51 285.99L318.85 328.72L340.96 336.62L350.04 296.12Z" fill="black"/>
<path d="M347.46 296.46L328.33 288L327.8 289.38L321 323.75C322.72 324.921 324.344 326.225 325.86 327.65C327.8 329.57 333.55 335.86 338.95 335.35L347.46 296.46Z" fill="white"/>
<path d="M347 298.67C347 298.67 342.06 297.4 339.38 295.54C336.7 293.68 334.05 291.54 332 290.83C329.95 290.12 327.86 289.26 327.86 289.26L328.33 288.04L347.46 296.46L347 298.67Z" fill="#EBEBEB"/>
<path d="M311.63 343.02L343.09 337.21L350.04 296.12L316.8 299.76L311.63 343.02Z" fill="#D6955B"/>
<path d="M322.83 368.87C324.61 367.93 336.21 356.72 339.39 351.78C342.869 346.644 345.49 340.977 347.15 335C349.72 325.53 350.6 318.74 349.26 315.94C347.71 312.69 347.32 312.19 340.48 328.27C336.61 337.37 331.93 338.99 327.74 339.51C317.435 340.763 307.58 344.467 299 350.31C299 350.31 316 372.46 322.83 368.87Z" fill="#FFC4C0"/>
<path d="M315.91 335C313.199 336.106 310.638 337.551 308.29 339.3C306.212 341.052 304.491 343.187 303.22 345.59C303.17 345.69 303.31 345.8 303.37 345.7C306.3 340.85 311.23 337.93 315.97 335.12C316 335 316 334.93 315.91 335Z" fill="#263238"/>
<path d="M329.81 339.11C325.51 339.79 338.3 329.04 337.81 324.11C337.32 319.18 332.76 321.39 329.37 324.7C317.63 336.18 307.68 337.11 302.37 347.25C297.06 357.39 329.81 339.11 329.81 339.11Z" fill="#FFC4C0"/>
<path d="M269.6 360.22C273.09 360.65 295.6 350.93 295.6 350.93L313.24 380.85C313.24 380.85 273.85 396.09 263.88 394.14C253.91 392.19 234.51 362 227.07 343.9C220.07 326.9 224.44 314.52 239.62 331.02C239.62 331 267.78 360 269.6 360.22Z" fill="#FEEAA1"/>
<path d="M255.07 371.31C254.881 371.522 254.64 371.681 254.37 371.77C254.13 371.853 253.873 371.873 253.623 371.829C253.373 371.786 253.138 371.679 252.94 371.52C252.716 371.34 252.454 371.213 252.174 371.148C251.894 371.084 251.603 371.084 251.322 371.149C251.042 371.213 250.78 371.34 250.556 371.521C250.333 371.701 250.153 371.93 250.03 372.19C249.88 372.48 249.71 372.76 249.59 373.06C249.86 372.86 250.08 372.63 250.33 372.43C250.518 372.214 250.754 372.046 251.02 371.94C251.258 371.848 251.515 371.819 251.768 371.856C252.02 371.893 252.258 371.994 252.46 372.15C252.766 372.386 253.133 372.529 253.518 372.561C253.903 372.593 254.29 372.513 254.63 372.33C254.95 372.156 255.209 371.887 255.37 371.56C255.536 371.275 255.686 370.981 255.82 370.68C255.55 370.87 255.32 371.1 255.07 371.31ZM285.51 366.48C285.322 366.695 285.08 366.857 284.81 366.95C284.567 367.029 284.309 367.046 284.057 367.001C283.806 366.955 283.57 366.849 283.37 366.69C283.06 366.45 282.685 366.31 282.294 366.289C281.903 366.267 281.514 366.365 281.18 366.57C280.871 366.758 280.624 367.033 280.47 367.36C280.31 367.65 280.15 367.93 280.02 368.23C280.29 368.03 280.52 367.81 280.77 367.6C280.961 367.387 281.196 367.22 281.46 367.11C281.698 367.02 281.955 366.992 282.207 367.029C282.459 367.065 282.698 367.166 282.9 367.32C283.205 367.558 283.572 367.703 283.957 367.736C284.342 367.77 284.729 367.691 285.07 367.51C285.389 367.329 285.646 367.058 285.81 366.73C285.976 366.445 286.126 366.151 286.26 365.85C286 366.05 285.76 366.28 285.51 366.48ZM300.73 375.15C300.535 375.358 300.296 375.518 300.03 375.62C299.787 375.699 299.529 375.717 299.277 375.672C299.026 375.627 298.79 375.519 298.59 375.36C298.277 375.127 297.903 374.991 297.514 374.968C297.125 374.945 296.738 375.036 296.4 375.23C296.092 375.424 295.846 375.701 295.69 376.03C295.522 376.311 295.372 376.601 295.24 376.9C295.51 376.7 295.74 376.47 295.98 376.27C296.171 376.054 296.411 375.886 296.68 375.78C296.916 375.688 297.172 375.659 297.423 375.696C297.674 375.732 297.91 375.834 298.11 375.99C298.416 376.226 298.783 376.369 299.168 376.401C299.553 376.433 299.94 376.353 300.28 376.17C300.603 375.996 300.865 375.727 301.03 375.4C301.193 375.115 301.339 374.821 301.47 374.52C301.2 374.72 301 374.94 300.73 375.15ZM232.06 343.32C231.875 343.53 231.637 343.686 231.37 343.77C231.127 343.855 230.866 343.877 230.612 343.834C230.359 343.79 230.12 343.682 229.92 343.52C229.606 343.289 229.232 343.154 228.843 343.133C228.454 343.112 228.067 343.204 227.73 343.4C227.477 343.551 227.267 343.764 227.12 344.02L227.3 344.45C227.494 344.247 227.734 344.092 228 344C228.237 343.906 228.494 343.874 228.746 343.91C228.999 343.945 229.238 344.045 229.44 344.2C229.746 344.44 230.115 344.586 230.502 344.62C230.889 344.653 231.277 344.574 231.62 344.39C231.938 344.209 232.196 343.938 232.36 343.61C232.51 343.32 232.67 343.05 232.8 342.74C232.54 342.88 232.31 343.11 232.06 343.32ZM286.58 384.52C286.48 384.21 286.39 383.9 286.27 383.59C286.27 383.92 286.27 384.24 286.19 384.59C286.213 384.872 286.161 385.155 286.04 385.41C285.939 385.644 285.779 385.848 285.576 386.002C285.372 386.157 285.133 386.256 284.88 386.29C284.495 386.338 284.132 386.496 283.835 386.747C283.539 386.997 283.322 387.328 283.21 387.7C283.105 388.049 283.105 388.421 283.21 388.77C283.31 389.08 283.39 389.39 283.51 389.7C283.51 389.37 283.51 389.05 283.59 388.7C283.578 388.419 283.64 388.14 283.77 387.89C283.879 387.658 284.047 387.459 284.258 387.313C284.469 387.167 284.714 387.08 284.97 387.06C285.355 387.001 285.715 386.83 286.005 386.569C286.294 386.307 286.501 385.967 286.6 385.59C286.685 385.237 286.678 384.869 286.58 384.52ZM299.48 357.57C299.227 357.69 299.002 357.861 298.82 358.073C298.637 358.284 298.501 358.532 298.42 358.8C298.31 359.148 298.31 359.522 298.42 359.87C298.52 360.18 298.59 360.49 298.72 360.8C298.77 360.47 298.77 360.15 298.8 359.8C298.801 359.521 298.87 359.247 299 359C299.087 358.821 299.208 358.662 299.358 358.532C299.507 358.401 299.681 358.302 299.87 358.24L299.48 357.57ZM267.32 358.48C267.299 358.528 267.282 358.579 267.27 358.63C267.164 358.982 267.164 359.358 267.27 359.71C267.38 360.02 267.45 360.33 267.57 360.64C267.57 360.31 267.57 359.99 267.66 359.64C267.651 359.389 267.699 359.14 267.8 358.91L267.32 358.48ZM257 386.6C256.89 386.29 256.81 385.98 256.69 385.67C256.69 386 256.69 386.32 256.6 386.67C256.621 386.951 256.573 387.232 256.46 387.49C256.359 387.724 256.199 387.928 255.996 388.083C255.792 388.237 255.553 388.336 255.3 388.37L255.95 389.01C256.227 388.888 256.472 388.705 256.668 388.475C256.863 388.244 257.004 387.973 257.08 387.68C257.147 387.319 257.12 386.947 257 386.6ZM250.69 355.68C250.408 355.687 250.128 355.632 249.87 355.52C249.643 355.405 249.448 355.235 249.303 355.025C249.158 354.816 249.067 354.573 249.04 354.32C248.985 353.932 248.817 353.569 248.558 353.276C248.298 352.983 247.958 352.772 247.58 352.67C247.221 352.59 246.848 352.611 246.5 352.73C246.19 352.84 245.88 352.91 245.57 353.03C245.9 353.09 246.22 353.09 246.57 353.12C246.854 353.099 247.139 353.147 247.4 353.26C247.633 353.361 247.837 353.521 247.989 353.724C248.142 353.928 248.239 354.168 248.27 354.42C248.318 354.806 248.479 355.17 248.731 355.467C248.983 355.764 249.316 355.98 249.69 356.09C250.038 356.2 250.412 356.2 250.76 356.09C251.07 355.99 251.38 355.91 251.69 355.78C251.36 355.71 251 355.71 250.71 355.68H250.69ZM272.12 379.38C271.836 379.388 271.555 379.326 271.3 379.2C271.07 379.09 270.872 378.923 270.725 378.715C270.578 378.506 270.486 378.264 270.46 378.01C270.403 377.624 270.235 377.263 269.975 376.972C269.716 376.68 269.377 376.471 269 376.37C268.645 376.289 268.275 376.306 267.93 376.42C267.62 376.53 267.31 376.6 267 376.72C267.33 376.78 267.65 376.78 268 376.81C268.286 376.801 268.572 376.849 268.84 376.95C269.07 377.056 269.27 377.217 269.422 377.42C269.574 377.622 269.673 377.859 269.71 378.11C269.757 378.494 269.914 378.856 270.163 379.152C270.411 379.449 270.74 379.667 271.11 379.78C271.461 379.891 271.838 379.891 272.19 379.78C272.506 379.696 272.817 379.593 273.12 379.47C272.78 379.4 272.46 379.4 272.14 379.38H272.12ZM238.39 331.49C238.107 331.499 237.826 331.44 237.57 331.32C237.343 331.205 237.149 331.035 237.006 330.825C236.863 330.615 236.775 330.373 236.75 330.12C236.691 329.735 236.52 329.375 236.259 329.085C235.997 328.796 235.657 328.589 235.28 328.49C234.926 328.4 234.554 328.417 234.21 328.54C233.894 328.624 233.583 328.727 233.28 328.85C233.6 328.85 233.93 328.85 234.28 328.92C234.569 328.906 234.857 328.961 235.12 329.08C235.351 329.178 235.553 329.335 235.706 329.535C235.858 329.735 235.956 329.971 235.99 330.22C236.036 330.607 236.194 330.972 236.444 331.27C236.695 331.569 237.027 331.788 237.4 331.9C237.75 332 238.12 332 238.47 331.9C238.78 331.79 239.09 331.72 239.4 331.59C239.072 331.536 238.742 331.503 238.41 331.49H238.39Z" fill="white"/>
<path d="M293.62 387.78C292.673 388.1 291.713 388.41 290.74 388.71L293.62 387.78Z" fill="#EBEBEB"/>
<path d="M274.39 359.19C275.26 358.91 276.2 358.6 277.18 358.26L274.39 359.19Z" fill="#EBEBEB"/>
<path d="M263.21 393.24C254.66 390.24 241.82 370.32 239.34 366.4C237.75 363.89 236.26 361.32 234.79 358.74C231.84 353.57 229.06 348.31 226.37 343.01C226.367 342.998 226.361 342.988 226.354 342.979C226.346 342.97 226.337 342.962 226.326 342.957C226.315 342.952 226.303 342.95 226.291 342.95C226.279 342.95 226.267 342.953 226.257 342.959C226.246 342.964 226.237 342.972 226.229 342.981C226.222 342.99 226.217 343.001 226.214 343.013C226.212 343.025 226.212 343.037 226.215 343.048C226.217 343.06 226.223 343.071 226.23 343.08C227.88 347.23 229.75 351.31 231.8 355.3C230.615 353.874 229.516 352.378 228.51 350.82C228.51 350.74 228.33 350.82 228.38 350.9C229.442 352.773 230.725 354.512 232.2 356.08C234.287 360.08 236.56 363.973 239.02 367.76C239.72 368.84 254.78 393.39 264.02 394.56C267.23 394.97 277.72 392.71 279.89 391.87C279.99 391.87 279.99 391.72 279.89 391.73C276.83 392.09 266.26 394.29 263.21 393.24Z" fill="#263238"/>
<path d="M303.87 378.25C303.32 377.25 302.76 376.17 302.2 375.13C301.08 373.06 294.34 360.76 291.64 357C291.622 356.984 291.6 356.974 291.576 356.972C291.553 356.97 291.529 356.975 291.509 356.988C291.489 357 291.473 357.019 291.464 357.041C291.455 357.063 291.454 357.087 291.46 357.11C293.28 361.39 300.29 373.48 301.46 375.48L303.27 378.48C303.88 379.48 304.61 380.48 305.27 381.48C305.33 381.58 305.49 381.48 305.44 381.4C304.84 380.39 304.41 379.29 303.87 378.25Z" fill="#263238"/>
<path d="M295.58 351C293.66 351.36 276.73 357.9 272.99 359.32C272.109 359.752 271.157 360.023 270.18 360.12C269.2 359.966 268.305 359.474 267.65 358.73C266.19 357.47 249.94 341.31 248.82 340.56C248.4 340.28 248.1 340.25 248.53 340.77C249.28 341.67 265.12 357.65 266.53 358.89C267.94 360.13 269.09 361.26 270.97 360.89C271.79 360.74 294.65 352.11 295.74 351.46C296 351.32 295.89 350.92 295.58 351Z" fill="#263238"/>
<path d="M243.65 326.53C240.06 326.46 232.05 320.53 230.88 315.11C230.81 314.73 232.31 311.49 233.96 307.46C234.96 305.02 235.96 302.27 236.77 299.69C236.92 299.16 251.77 308.46 251.77 308.46C249.881 311.402 248.363 314.566 247.25 317.88C247.129 318.244 247.045 318.619 247 319C247.004 319.063 247.004 319.127 247 319.19C246.72 321.26 247.5 326.61 243.65 326.53Z" fill="#FFC4C0"/>
<path d="M247 319C247 319 247 319.11 247 319.18C246.431 319.083 245.87 318.946 245.32 318.77C235.87 315.71 236.93 303.05 237.32 299.89C240.07 301.16 251.73 308.48 251.73 308.48C249.842 311.427 248.321 314.594 247.2 317.91C247.096 318.265 247.028 318.631 247 319Z" fill="#263238"/>
<path d="M235.25 280.11C232.75 285.84 233.9 303.37 237.68 307.68C243.17 313.94 253.14 315.63 258.68 308.81C264.08 302.2 262.17 279.38 257.85 275.36C251.51 269.43 238.94 271.64 235.25 280.11Z" fill="#FFC4C0"/>
<path d="M251.13 292.54C251.13 292.49 251.04 292.6 251.04 292.65C251.15 293.83 251.04 295.19 250.04 295.65V295.72C251.34 295.45 251.42 293.64 251.13 292.54Z" fill="#263238"/>
<path d="M250 291.37C248.09 291.37 248.17 295.16 249.94 295.18C251.71 295.2 251.6 291.39 250 291.37Z" fill="#263238"/>
<path d="M257.66 292.36C257.66 292.36 257.75 292.42 257.75 292.47C257.75 293.65 257.92 295.01 259 295.38C259 295.38 259 295.45 259 295.44C257.68 295.29 257.45 293.48 257.66 292.36Z" fill="#263238"/>
<path d="M258.68 291.1C260.58 290.92 260.82 294.73 259.06 294.9C257.3 295.07 257.09 291.26 258.68 291.1Z" fill="#263238"/>
<path d="M248.45 289.65C248.951 289.496 249.442 289.313 249.92 289.1C250.465 288.978 250.954 288.679 251.31 288.25C251.402 288.091 251.437 287.905 251.41 287.724C251.383 287.542 251.295 287.375 251.16 287.25C250.87 287.05 250.533 286.929 250.182 286.901C249.83 286.873 249.478 286.938 249.16 287.09C248.464 287.301 247.871 287.764 247.5 288.39C247.417 288.536 247.379 288.703 247.39 288.87C247.401 289.037 247.461 289.198 247.562 289.332C247.662 289.466 247.8 289.567 247.958 289.624C248.116 289.68 248.287 289.689 248.45 289.65Z" fill="#263238"/>
<path d="M260.12 289.15C259.59 289.07 259.12 288.92 258.59 288.79C258.036 288.735 257.516 288.5 257.11 288.12C256.996 287.978 256.935 287.802 256.935 287.62C256.935 287.438 256.996 287.262 257.11 287.12C257.375 286.877 257.7 286.709 258.052 286.635C258.404 286.561 258.77 286.584 259.11 286.7C259.828 286.827 260.475 287.211 260.93 287.78C261.033 287.916 261.093 288.08 261.103 288.25C261.113 288.42 261.071 288.59 260.985 288.737C260.898 288.884 260.769 289.001 260.615 289.075C260.461 289.149 260.289 289.175 260.12 289.15Z" fill="#263238"/>
<path d="M251.11 299.75C251.419 300.214 251.821 300.609 252.291 300.909C252.761 301.208 253.289 301.406 253.84 301.49C254.321 301.56 254.809 301.56 255.29 301.49C255.383 301.5 255.477 301.5 255.57 301.49H255.83C255.892 301.475 255.948 301.441 255.989 301.393C256.031 301.344 256.055 301.284 256.06 301.22C256.07 301.181 256.07 301.139 256.06 301.1V301C256.06 300.08 255.95 298.7 255.95 298.7C256.28 298.86 258 299.59 257.95 299.11C257.754 295.008 257.141 290.937 256.12 286.96C256.12 286.83 255.89 286.86 255.91 286.96C256.06 290.75 256.91 294.49 257.11 298.3C256.501 298.037 255.858 297.858 255.2 297.77C255.07 297.77 255.47 300.43 255.44 300.84C255.442 300.857 255.442 300.873 255.44 300.89C254.695 300.982 253.938 300.922 253.216 300.714C252.495 300.506 251.822 300.154 251.24 299.68C251.13 299.58 251 299.66 251.11 299.75Z" fill="#263238"/>
<path d="M254.75 301.07C254.261 301.733 253.61 302.26 252.86 302.6C252.448 302.767 251.995 302.806 251.56 302.71C250.61 302.48 250.56 301.61 250.73 300.87C250.812 300.472 250.943 300.086 251.12 299.72C252.156 300.545 253.427 301.018 254.75 301.07Z" fill="#263238"/>
<path d="M252.86 302.6C252.448 302.767 251.995 302.806 251.56 302.71C250.61 302.48 250.56 301.61 250.73 300.87C251.229 300.874 251.711 301.048 252.098 301.362C252.485 301.677 252.754 302.113 252.86 302.6Z" fill="#FF9BBC"/>
<path d="M235.36 296.18C238.61 295.81 238.87 287.61 238.87 287.61C238.87 287.61 242.95 286.19 244.41 278.76C244.41 278.76 246.99 286.17 260.49 284.86C260.954 282.499 260.671 280.052 259.68 277.86C260.954 280.214 262.031 282.669 262.9 285.2C262.9 285.2 266.39 274.08 256.9 269.91C253.14 268.25 247.35 268.43 238.47 272.57C238.47 272.57 236.91 267.27 235.88 267.93C234.85 268.59 236.69 273.56 236.69 273.56C236.69 273.56 232.86 272.27 232.19 273.07C231.52 273.87 235.31 274.81 235.31 274.81C233.57 275.387 232.095 276.569 231.153 278.142C230.212 279.715 229.866 281.574 230.18 283.38C231 289.61 233.75 296.36 235.36 296.18Z" fill="#263238"/>
<path d="M236.4 274.7C234.7 274.606 233.024 275.135 231.686 276.188C230.347 277.241 229.439 278.745 229.13 280.42C228.909 282.393 229.142 284.39 229.81 286.26C230.474 288.223 231.388 290.091 232.53 291.82C232.59 291.92 232.74 291.82 232.67 291.71C231.684 290.088 230.952 288.324 230.5 286.48C229.974 284.74 229.728 282.927 229.77 281.11C229.895 279.432 230.646 277.863 231.874 276.712C233.102 275.562 234.718 274.915 236.4 274.9C236.51 274.9 236.51 274.71 236.4 274.7Z" fill="#263238"/>
<path d="M249.28 267.82C246.975 268.288 244.74 269.051 242.63 270.09C240.584 270.997 238.704 272.241 237.07 273.77C236.99 273.85 237.07 273.98 237.18 273.91C240.739 271.53 244.7 269.812 248.87 268.84C252.69 267.84 257.18 267.96 260 271.11C260.005 271.115 260.01 271.12 260.016 271.123C260.023 271.126 260.03 271.128 260.036 271.128C260.043 271.128 260.05 271.128 260.057 271.125C260.064 271.123 260.07 271.12 260.075 271.115C260.08 271.11 260.085 271.105 260.088 271.099C260.091 271.092 260.093 271.086 260.093 271.079C260.094 271.072 260.093 271.065 260.09 271.058C260.088 271.051 260.085 271.045 260.08 271.04C257.58 267.75 253.12 267.11 249.28 267.82Z" fill="#263238"/>
<path d="M247.82 298.7C246.785 298.577 245.806 298.166 244.993 297.513C244.181 296.861 243.567 295.994 243.223 295.011C242.878 294.027 242.816 292.967 243.044 291.95C243.272 290.934 243.781 290.001 244.512 289.259C245.244 288.517 246.169 287.995 247.182 287.752C248.195 287.51 249.257 287.556 250.245 287.886C251.233 288.217 252.109 288.818 252.773 289.621C253.437 290.424 253.862 291.397 254 292.43C254.193 293.897 253.796 295.38 252.896 296.554C251.996 297.727 250.666 298.496 249.2 298.69C248.743 298.758 248.278 298.762 247.82 298.7ZM249 288.37C248.602 288.315 248.198 288.315 247.8 288.37C246.581 288.523 245.465 289.134 244.681 290.081C243.897 291.027 243.503 292.237 243.579 293.463C243.656 294.69 244.197 295.841 245.093 296.683C245.988 297.524 247.171 297.993 248.4 297.993C249.629 297.993 250.812 297.524 251.707 296.683C252.603 295.841 253.144 294.69 253.221 293.463C253.297 292.237 252.903 291.027 252.119 290.081C251.335 289.134 250.219 288.523 249 288.37Z" fill="#455A64"/>
<path d="M260.62 298.64C258.5 298.39 256.83 295.99 256.83 293.08C256.807 291.689 257.22 290.325 258.01 289.18C258.32 288.669 258.757 288.246 259.278 287.953C259.799 287.66 260.387 287.505 260.985 287.505C261.583 287.505 262.171 287.66 262.692 287.953C263.213 288.246 263.65 288.669 263.96 289.18C264.746 290.327 265.155 291.69 265.13 293.08C265.13 296.16 263.27 298.66 260.98 298.66L260.62 298.64ZM261.27 288.27H260.98C260.505 288.294 260.042 288.431 259.63 288.669C259.218 288.907 258.868 289.24 258.61 289.64C257.93 290.664 257.581 291.871 257.61 293.1C257.61 295.77 259.14 297.94 261.02 297.93C262.9 297.92 264.43 295.77 264.43 293.1C264.465 291.871 264.115 290.661 263.43 289.64C263.193 289.267 262.877 288.95 262.503 288.713C262.13 288.476 261.709 288.325 261.27 288.27Z" fill="#455A64"/>
<path d="M253.81 293.07L253.33 292.5C254.18 291.79 256.13 290.84 257.49 292.3L256.95 292.8C255.73 291.5 253.89 293 253.81 293.07Z" fill="#455A64"/>
<path d="M229 294.51L228.34 294.16C228.5 293.85 229.95 291.16 231.61 290.87C233.27 290.58 243.16 291.56 243.61 291.6L243.54 292.34C240.67 292.07 232.95 291.41 231.75 291.6C230.55 291.79 229.35 293.76 229 294.51Z" fill="#455A64"/>
<path d="M238 294.79C238 294.79 234.64 288.86 232 290.01C229.36 291.16 231.5 299.49 234.36 300.88C234.713 301.087 235.104 301.219 235.51 301.269C235.916 301.318 236.328 301.285 236.721 301.169C237.113 301.054 237.478 300.86 237.792 300.599C238.107 300.337 238.365 300.015 238.55 299.65L238 294.79Z" fill="#FFC4C0"/>
<path d="M232.61 292.38C232.56 292.38 232.55 292.44 232.61 292.46C234.61 293.46 235.51 295.53 236.09 297.6C235.989 297.38 235.842 297.184 235.658 297.027C235.474 296.87 235.258 296.754 235.025 296.688C234.792 296.623 234.547 296.609 234.308 296.647C234.069 296.685 233.841 296.775 233.64 296.91C233.59 296.91 233.64 297.03 233.64 297.03C234.019 296.94 234.417 296.973 234.777 297.124C235.136 297.275 235.439 297.536 235.64 297.87C235.973 298.42 236.248 299.003 236.46 299.61C236.54 299.81 236.88 299.74 236.83 299.52C237.13 296.82 235.43 292.92 232.61 292.38Z" fill="#263238"/>
<path d="M230.56 318.84C232.189 321.13 234.008 323.278 236 325.26C237.792 327.033 240.079 328.222 242.56 328.67C244.94 329.03 247.56 328.53 248.24 325.42C248.66 323.42 248.52 321.68 248.04 318.6C248.04 318.46 248.14 318.47 248.17 318.6C249.01 322.65 249.3 328.06 246.27 329.23C242.88 330.53 238.34 328.52 235.54 325.77C233.533 323.748 231.795 321.476 230.37 319.01C230.14 318.63 230.53 318.8 230.56 318.84Z" fill="#263238"/>
</svg>
