<svg width="689" height="473" viewBox="0 0 689 473" fill="none" xmlns="http://www.w3.org/2000/svg">
<path d="M597.15 264L608.44 215.35L605.12 214.87C514.47 202.8 450.68 220.36 408.2 242.93C410.915 237.344 412.318 231.211 412.3 225C412.307 216.876 409.938 208.927 405.486 202.131C401.034 195.335 394.692 189.989 387.242 186.751C379.791 183.512 371.556 182.522 363.55 183.902C355.544 185.283 348.116 188.973 342.18 194.52C335.16 187.962 326.091 184.03 316.505 183.389C306.92 182.749 297.408 185.439 289.578 191.005C281.748 196.571 276.081 204.67 273.536 213.933C270.991 223.197 271.723 233.055 275.61 241.84C233.19 219.77 170 203 80.81 214.88L77.55 215.36L88.77 264C78.9433 264.42 68.7467 265.063 58.18 265.93L60.18 289.93C272.91 272.25 332.18 356.2 332.78 357.1H343L346 357.04L353.06 357.1C353.66 356.2 413.06 272.25 625.75 289.93L627.75 265.93C617.19 265.09 607 264.43 597.15 264ZM339.88 329.12C333.758 323.392 327.202 318.146 320.27 313.43C320.21 313.37 320.15 313.37 320.09 313.31C286.09 288.02 240.91 275.41 199.75 269.38C197.58 269.07 195.41 268.71 193.18 268.38L190.64 268.02C188.95 267.78 187.26 267.54 185.51 267.35C155.462 263.723 125.172 262.513 94.93 263.73L84.93 220.4C250.27 199.55 323 279.21 339.22 300.64C339.459 300.925 339.68 301.226 339.88 301.54V329.12ZM343.08 305.77L343.02 305.71L342.9 305.77C342.867 305.738 342.846 305.695 342.84 305.65L343.02 305.71L343.14 305.65C343.134 305.695 343.113 305.738 343.08 305.77V305.77ZM343 295.63C334.442 284.96 324.714 275.283 314 266.78C311.17 264.43 308.15 262.13 304.89 259.78C304.744 259.659 304.583 259.558 304.41 259.48C302.3 257.97 300.12 256.4 297.83 254.89L293.67 252.18C291.25 250.67 288.78 249.1 286.18 247.59C280.931 241.234 278.069 233.243 278.09 225C278.098 215.544 281.857 206.477 288.543 199.79C295.228 193.102 304.294 189.341 313.75 189.33C322.787 189.296 331.493 192.732 338.07 198.93C339.579 200.308 340.955 201.824 342.18 203.46C343.399 201.822 344.772 200.305 346.28 198.93C352.86 192.736 361.564 189.3 370.6 189.33C377.586 189.324 384.419 191.372 390.251 195.218C396.083 199.064 400.655 204.539 403.401 210.962C406.147 217.386 406.944 224.475 405.694 231.348C404.444 238.22 401.202 244.575 396.37 249.62C391.6 252.52 387.14 255.48 383.03 258.43H383C382.7 258.67 382.4 258.86 382.1 259.1H382C378.44 261.63 375.06 264.17 372 266.7C361.276 275.222 351.548 284.926 343 295.63V295.63ZM499.2 267.57C496.49 267.87 493.83 268.29 491.2 268.65C489.33 268.95 487.46 269.19 485.59 269.5C445.03 275.5 400.68 287.9 366.94 312.5C359.489 317.456 352.464 323.025 345.94 329.15V301.75C346.18 301.39 346.48 301.03 346.78 300.61C363.02 279.18 435.78 199.52 601.09 220.4L591.09 263.73C556.23 262.56 525.82 264.13 499.2 267.57Z" fill="#ECF8F6"/>
<path d="M343.14 305.65C343.134 305.695 343.113 305.738 343.08 305.77L343.02 305.71L343.14 305.65Z" fill="#ECF8F6"/>
<path d="M342.84 305.65C342.846 305.695 342.867 305.738 342.9 305.77L343.02 305.71L342.84 305.65ZM343.02 305.71L343.08 305.77C343.113 305.738 343.134 305.695 343.14 305.65L343.02 305.71Z" fill="#ECF8F6"/>
<path d="M343 305.71L342.88 305.77C342.847 305.738 342.826 305.695 342.82 305.65L343 305.71Z" fill="#ECF8F6"/>
<path d="M340.42 0C340.42 0 343.98 29.79 334.73 52.39C325.48 74.99 343.68 139.7 343.68 139.7C343.68 139.7 333.11 84.23 343.68 69.85C354.25 55.47 340.42 0 340.42 0Z" fill="#ECF8F6"/>
<path d="M485.17 40.3999C485.17 40.3999 466.63 63.9799 444.11 73.3999C421.59 82.8199 388.69 141.46 388.69 141.46C388.69 141.46 420.44 94.7599 438.09 92.0699C455.74 89.3799 485.17 40.3999 485.17 40.3999Z" fill="#ECF8F6"/>
<path d="M576.64 162.93C576.64 162.93 546.85 166.49 524.25 157.25C501.65 148.01 436.93 166.19 436.93 166.19C436.93 166.19 492.4 155.62 506.79 166.19C521.18 176.76 576.64 162.93 576.64 162.93Z" fill="#ECF8F6"/>
<path d="M195.58 40.3999C195.58 40.3999 214.13 63.9799 236.65 73.3999C259.17 82.8199 292.06 141.46 292.06 141.46C292.06 141.46 260.31 94.7599 242.67 92.0699C225.03 89.3799 195.58 40.3999 195.58 40.3999Z" fill="#ECF8F6"/>
<path d="M104.12 162.93C104.12 162.93 133.91 166.49 156.51 157.25C179.11 148.01 243.82 166.19 243.82 166.19C243.82 166.19 188.35 155.62 173.97 166.19C159.59 176.76 104.12 162.93 104.12 162.93Z" fill="#ECF8F6"/>
<path d="M166.73 444.88C166.754 448.432 166.039 451.95 164.63 455.21C161.899 461.576 156.826 466.649 150.46 469.38C147.202 470.797 143.683 471.516 140.13 471.49H98.32C97.6411 471.49 96.9899 471.22 96.5098 470.74C96.0297 470.26 95.76 469.609 95.76 468.93V385.31C95.76 384.631 96.0297 383.98 96.5098 383.5C96.9899 383.02 97.6411 382.75 98.32 382.75H140.13C143.682 382.726 147.2 383.441 150.46 384.85C156.819 387.581 161.89 392.645 164.63 399C166.039 402.264 166.754 405.785 166.73 409.34C166.725 411.052 166.497 412.757 166.05 414.41C165.598 416.141 164.957 417.818 164.14 419.41C163.321 420.993 162.314 422.47 161.14 423.81C160.74 424.26 160.34 424.68 159.92 425.07C159.645 425.319 159.426 425.622 159.276 425.96C159.126 426.299 159.048 426.665 159.048 427.035C159.048 427.405 159.126 427.772 159.276 428.11C159.426 428.448 159.645 428.752 159.92 429C160.356 429.401 160.77 429.825 161.16 430.27C163.495 433.004 165.156 436.248 166.01 439.74C166.462 441.417 166.703 443.144 166.73 444.88V444.88ZM113.52 415.71C113.52 416.389 113.79 417.04 114.27 417.52C114.75 418 115.401 418.27 116.08 418.27H140.08C141.267 418.278 142.444 418.046 143.54 417.59C144.594 417.15 145.553 416.508 146.36 415.7C147.171 414.886 147.811 413.916 148.24 412.85C148.7 411.745 148.931 410.557 148.92 409.36C148.939 407.617 148.437 405.909 147.478 404.453C146.52 402.997 145.148 401.861 143.54 401.19C142.444 400.734 141.267 400.503 140.08 400.51H116.08C115.401 400.51 114.75 400.78 114.27 401.26C113.79 401.74 113.52 402.391 113.52 403.07V415.71ZM113.52 451.17C113.52 451.849 113.79 452.5 114.27 452.98C114.75 453.46 115.401 453.73 116.08 453.73H140.08C141.267 453.738 142.444 453.506 143.54 453.05C144.591 452.603 145.547 451.962 146.36 451.16C147.164 450.351 147.803 449.394 148.24 448.34C148.926 446.713 149.113 444.919 148.779 443.185C148.444 441.451 147.602 439.855 146.36 438.6C145.553 437.792 144.594 437.15 143.54 436.71C142.444 436.254 141.267 436.023 140.08 436.03H116.08C115.401 436.03 114.75 436.3 114.27 436.78C113.79 437.26 113.52 437.911 113.52 438.59V451.17Z" fill="#ECF8F6"/>
<path d="M198.29 387.2C198.299 388.712 197.996 390.21 197.4 391.6C196.818 392.932 195.987 394.141 194.95 395.16C193.902 396.179 192.675 396.996 191.33 397.57C189.93 398.164 188.425 398.47 186.905 398.47C185.385 398.47 183.88 398.164 182.48 397.57C179.775 396.427 177.623 394.275 176.48 391.57C175.886 390.186 175.58 388.696 175.58 387.19C175.58 385.684 175.886 384.194 176.48 382.81C177.049 381.472 177.867 380.254 178.89 379.22C179.925 378.199 181.143 377.382 182.48 376.81C183.88 376.216 185.385 375.91 186.905 375.91C188.425 375.91 189.93 376.216 191.33 376.81C192.675 377.384 193.902 378.201 194.95 379.22C195.992 380.246 196.824 381.466 197.4 382.81C197.995 384.197 198.298 385.691 198.29 387.2V387.2ZM192.82 471.49H180.93C180.251 471.49 179.6 471.22 179.12 470.74C178.64 470.26 178.37 469.609 178.37 468.93V407.77C178.37 407.091 178.64 406.44 179.12 405.96C179.6 405.48 180.251 405.21 180.93 405.21H192.82C193.5 405.21 194.152 405.479 194.634 405.959C195.115 406.439 195.387 407.09 195.39 407.77V468.93C195.387 469.61 195.115 470.261 194.634 470.741C194.152 471.221 193.5 471.49 192.82 471.49V471.49Z" fill="#ECF8F6"/>
<path d="M274.59 437.76C274.65 442.636 273.746 447.475 271.93 452C270.264 456.108 267.804 459.846 264.69 463C261.645 466.089 258.009 468.534 254 470.19C249.803 471.896 245.31 472.756 240.78 472.72C236.342 472.748 231.943 471.894 227.838 470.206C223.733 468.518 220.005 466.032 216.87 462.89C213.744 459.72 211.274 455.965 209.6 451.84C207.785 447.371 206.88 442.584 206.94 437.76V381.41C206.94 380.731 207.21 380.08 207.69 379.6C208.17 379.12 208.821 378.85 209.5 378.85H221.33C222.009 378.85 222.66 379.12 223.14 379.6C223.62 380.08 223.89 380.731 223.89 381.41V409.79C224.834 408.602 225.95 407.56 227.2 406.7C228.507 405.787 229.921 405.038 231.41 404.47C232.924 403.888 234.487 403.443 236.08 403.14C237.628 402.835 239.202 402.677 240.78 402.67C245.32 402.638 249.818 403.533 254 405.3C258.03 407.008 261.678 409.503 264.73 412.64C267.831 415.847 270.289 419.618 271.97 423.75C273.762 428.201 274.653 432.963 274.59 437.76ZM257.59 437.76C257.608 435.313 257.153 432.885 256.25 430.61C255.419 428.492 254.194 426.552 252.64 424.89C251.123 423.289 249.3 422.007 247.28 421.12C245.225 420.206 242.999 419.739 240.75 419.75C238.488 419.741 236.255 420.261 234.23 421.27C232.209 422.257 230.391 423.614 228.87 425.27C227.337 426.959 226.121 428.91 225.28 431.03C224.422 433.163 223.981 435.441 223.98 437.74C223.96 440.174 224.402 442.59 225.28 444.86C226.105 446.967 227.323 448.898 228.87 450.55C230.392 452.157 232.212 453.451 234.23 454.36C236.283 455.277 238.506 455.751 240.755 455.751C243.004 455.751 245.227 455.277 247.28 454.36C249.296 453.448 251.116 452.155 252.64 450.55C254.19 448.897 255.415 446.967 256.25 444.86C257.15 442.602 257.602 440.191 257.58 437.76H257.59Z" fill="#ECF8F6"/>
<path d="M298.39 471.49H286.5C285.821 471.49 285.17 471.22 284.69 470.74C284.21 470.26 283.94 469.609 283.94 468.93V381.41C283.94 380.731 284.21 380.08 284.69 379.6C285.17 379.12 285.821 378.85 286.5 378.85H298.39C299.069 378.85 299.72 379.12 300.2 379.6C300.68 380.08 300.95 380.731 300.95 381.41V468.93C300.95 469.609 300.68 470.26 300.2 470.74C299.72 471.22 299.069 471.49 298.39 471.49Z" fill="#ECF8F6"/>
<path d="M333.75 387.2C333.762 388.714 333.455 390.213 332.85 391.6C332.276 392.934 331.447 394.143 330.41 395.16C329.362 396.179 328.135 396.996 326.79 397.57C325.39 398.164 323.885 398.47 322.365 398.47C320.845 398.47 319.34 398.164 317.94 397.57C315.235 396.427 313.083 394.275 311.94 391.57C311.346 390.186 311.04 388.696 311.04 387.19C311.04 385.684 311.346 384.194 311.94 382.81C313.076 380.1 315.23 377.946 317.94 376.81C319.34 376.216 320.845 375.91 322.365 375.91C323.885 375.91 325.39 376.216 326.79 376.81C328.135 377.384 329.362 378.201 330.41 379.22C331.452 380.244 332.281 381.464 332.85 382.81C333.453 384.195 333.759 385.69 333.75 387.2V387.2ZM328.28 471.49H316.39C315.711 471.49 315.06 471.22 314.58 470.74C314.1 470.26 313.83 469.609 313.83 468.93V407.77C313.83 407.091 314.1 406.44 314.58 405.96C315.06 405.48 315.711 405.21 316.39 405.21H328.28C328.959 405.21 329.61 405.48 330.09 405.96C330.57 406.44 330.84 407.091 330.84 407.77V468.93C330.84 469.266 330.774 469.599 330.645 469.91C330.516 470.22 330.328 470.502 330.09 470.74C329.852 470.978 329.57 471.166 329.26 471.295C328.949 471.424 328.616 471.49 328.28 471.49V471.49Z" fill="#ECF8F6"/>
<path d="M400.19 419.84L391.82 428.25C391.537 428.528 391.194 428.737 390.817 428.861C390.44 428.985 390.039 429.02 389.647 428.964C389.254 428.908 388.879 428.762 388.552 428.538C388.225 428.313 387.954 428.016 387.76 427.67C387.455 427.148 387.121 426.644 386.76 426.16C385.733 424.821 384.513 423.642 383.14 422.66C381.81 421.714 380.338 420.985 378.78 420.5C377.219 420.001 375.589 419.748 373.95 419.75C371.695 419.739 369.465 420.228 367.42 421.18C365.387 422.128 363.575 423.491 362.1 425.18C360.549 426.974 359.342 429.039 358.54 431.27C357.651 433.773 357.211 436.414 357.24 439.07C357.227 441.303 357.67 443.514 358.54 445.57C359.386 447.549 360.593 449.354 362.1 450.89C363.651 452.451 365.498 453.688 367.533 454.527C369.568 455.367 371.749 455.793 373.95 455.78C375.564 455.784 377.171 455.555 378.72 455.1C380.237 454.653 381.684 453.997 383.02 453.15C384.362 452.298 385.571 451.253 386.61 450.05C386.968 449.651 387.302 449.23 387.61 448.79C387.818 448.475 388.093 448.21 388.415 448.014C388.737 447.817 389.099 447.694 389.474 447.653C389.849 447.612 390.229 447.654 390.586 447.776C390.943 447.898 391.269 448.098 391.54 448.36L400 456.86C400.449 457.318 400.712 457.927 400.738 458.568C400.764 459.209 400.551 459.837 400.14 460.33C398.926 461.812 397.588 463.187 396.14 464.44C394.116 466.203 391.89 467.72 389.51 468.96C387.141 470.201 384.629 471.148 382.03 471.78C379.386 472.431 376.673 472.767 373.95 472.78C369.433 472.813 364.957 471.918 360.8 470.15C352.702 466.744 346.247 460.321 342.8 452.24C341.016 448.098 340.11 443.63 340.14 439.12C340.103 434.25 341.007 429.418 342.8 424.89C344.458 420.609 346.9 416.676 350 413.29C353.054 410.029 356.712 407.39 360.77 405.52C364.892 403.619 369.381 402.646 373.92 402.67C376.668 402.671 379.404 403.028 382.06 403.73C387.424 405.144 392.341 407.897 396.35 411.73C397.926 413.241 399.334 414.917 400.55 416.73C400.848 417.214 400.974 417.783 400.909 418.347C400.844 418.912 400.59 419.437 400.19 419.84Z" fill="#ECF8F6"/>
<path d="M424.2 471.49H412.43C411.75 471.49 411.098 471.221 410.616 470.741C410.135 470.261 409.863 469.61 409.86 468.93V381.41C409.863 380.73 410.135 380.079 410.616 379.599C411.098 379.119 411.75 378.85 412.43 378.85H424.2C424.879 378.85 425.53 379.12 426.01 379.6C426.49 380.08 426.76 380.731 426.76 381.41V403.58C426.76 404.009 426.868 404.431 427.075 404.807C427.281 405.183 427.579 405.501 427.941 405.731C428.303 405.962 428.717 406.097 429.145 406.125C429.573 406.152 430.001 406.072 430.39 405.89C431.234 405.485 432.11 405.15 433.01 404.89C435.136 404.239 437.346 403.902 439.57 403.89C443.525 403.868 447.442 404.657 451.08 406.21C454.588 407.707 457.771 409.874 460.45 412.59C463.132 415.316 465.273 418.526 466.76 422.05C468.319 425.7 469.112 429.631 469.09 433.6V468.91C469.087 469.59 468.815 470.241 468.334 470.721C467.852 471.201 467.2 471.47 466.52 471.47H454.63C453.951 471.47 453.3 471.2 452.82 470.72C452.34 470.24 452.07 469.589 452.07 468.91V433.62H452.19C452.197 431.929 451.856 430.254 451.19 428.7C450.551 427.185 449.628 425.807 448.47 424.64C447.319 423.491 445.962 422.569 444.47 421.92C442.926 421.254 441.261 420.913 439.58 420.92C436.175 420.904 432.903 422.238 430.48 424.63C429.322 425.797 428.399 427.175 427.76 428.69C427.094 430.244 426.753 431.919 426.76 433.61V468.92C426.761 469.257 426.696 469.591 426.568 469.903C426.44 470.215 426.252 470.498 426.014 470.737C425.776 470.976 425.493 471.165 425.182 471.294C424.871 471.424 424.537 471.49 424.2 471.49V471.49Z" fill="#ECF8F6"/>
<path d="M545.14 437.76C545.179 442.501 544.275 447.202 542.48 451.59C540.797 455.712 538.34 459.474 535.24 462.67C532.165 465.782 528.518 468.27 524.5 470C520.333 471.775 515.85 472.69 511.32 472.69C506.79 472.69 502.307 471.775 498.14 470C489.945 466.465 483.476 459.838 480.14 451.56C478.345 447.172 477.441 442.471 477.48 437.73C477.433 432.933 478.337 428.175 480.14 423.73C481.815 419.587 484.284 415.813 487.41 412.62C490.487 409.497 494.146 407.007 498.18 405.29C502.331 403.5 506.809 402.591 511.33 402.62C515.855 402.588 520.342 403.441 524.54 405.13C528.566 406.751 532.22 409.173 535.28 412.25C538.399 415.427 540.859 419.189 542.52 423.32C544.333 427.915 545.224 432.821 545.14 437.76V437.76ZM528.14 437.76C528.178 435.234 527.726 432.724 526.81 430.37C525.983 428.254 524.754 426.318 523.19 424.67C521.677 423.099 519.855 421.856 517.84 421.02C513.651 419.326 508.969 419.326 504.78 421.02C502.77 421.849 500.957 423.093 499.46 424.67C497.915 426.321 496.706 428.257 495.9 430.37C495.004 432.729 494.563 435.237 494.6 437.76C494.576 440.194 495.017 442.611 495.9 444.88C496.718 446.984 497.926 448.914 499.46 450.57C500.963 452.18 502.772 453.475 504.78 454.38C506.832 455.306 509.059 455.78 511.31 455.77C513.552 455.785 515.774 455.343 517.84 454.47C519.849 453.623 521.669 452.382 523.19 450.82C524.76 449.181 525.99 447.247 526.81 445.13C527.713 442.779 528.158 440.278 528.12 437.76H528.14Z" fill="#ECF8F6"/>
<path d="M568.81 471.49H557C556.321 471.49 555.67 471.22 555.19 470.74C554.71 470.26 554.44 469.609 554.44 468.93V407.77C554.44 407.091 554.71 406.44 555.19 405.96C555.67 405.48 556.321 405.21 557 405.21H557.2C557.609 405.21 558.013 405.308 558.376 405.496C558.74 405.684 559.053 405.956 559.29 406.29L562.5 410.82C562.691 411.098 562.937 411.335 563.222 411.516C563.507 411.698 563.825 411.82 564.158 411.876C564.491 411.932 564.832 411.92 565.16 411.842C565.489 411.764 565.798 411.62 566.07 411.42C568.521 409.557 571.247 408.086 574.15 407.06C577.757 405.849 581.546 405.267 585.35 405.34H596.5C597.179 405.34 597.83 405.61 598.31 406.09C598.79 406.57 599.06 407.221 599.06 407.9V419.61C599.06 420.289 598.79 420.94 598.31 421.42C597.83 421.9 597.179 422.17 596.5 422.17H584.18C582.463 422.165 580.763 422.505 579.18 423.17C577.654 423.8 576.266 424.725 575.098 425.892C573.929 427.059 573.002 428.444 572.37 429.97C571.705 431.553 571.365 433.253 571.37 434.97V468.92C571.371 469.257 571.306 469.591 571.178 469.903C571.05 470.214 570.862 470.498 570.624 470.737C570.386 470.975 570.103 471.165 569.792 471.294C569.481 471.423 569.147 471.49 568.81 471.49V471.49Z" fill="#ECF8F6"/>
<path d="M688 155.2C688.06 156.2 688.06 157.2 688.06 158.2V155.2H688ZM0 155.2V158.2C0 157.2 0 156.2 0.06 155.2H0Z" fill="#ECF8F6"/>
</svg>
