<svg width="123" height="118" viewBox="0 0 123 118" fill="none" xmlns="http://www.w3.org/2000/svg">
<g clip-path="url(#clip0_133_634)">
<path d="M64.4199 2.00012L80.1299 38.7001L120 42.2601C120.629 42.3117 121.23 42.5485 121.725 42.9406C122.22 43.3327 122.588 43.8626 122.783 44.4635C122.978 45.0645 122.99 45.7096 122.819 46.3176C122.647 46.9256 122.3 47.4693 121.82 47.8801V47.8801L91.6399 74.1801L100.54 113.18C100.633 113.59 100.644 114.014 100.573 114.428C100.501 114.842 100.349 115.238 100.124 115.593C99.8989 115.948 99.6061 116.255 99.2622 116.496C98.9183 116.738 98.5301 116.909 98.1199 117C97.2714 117.179 96.3865 117.014 95.6599 116.54L61.4099 96.1001L27.0699 116.64C26.7112 116.858 26.3129 117.002 25.8981 117.065C25.4833 117.128 25.0601 117.108 24.653 117.007C24.2459 116.906 23.8628 116.725 23.5259 116.475C23.189 116.225 22.9048 115.91 22.6899 115.55C22.4746 115.197 22.3311 114.805 22.2676 114.397C22.2041 113.989 22.2219 113.572 22.3199 113.17V113.17L31.2299 74.1701L1.08992 47.8801C0.45639 47.318 0.0681505 46.5302 0.00833961 45.6854C-0.0514713 44.8405 0.221902 44.0059 0.769916 43.3601C1.37389 42.7413 2.19548 42.3825 3.05992 42.3601L42.7799 38.8001L58.4899 2.00012C58.7433 1.42495 59.1585 0.935899 59.685 0.592557C60.2114 0.249215 60.8264 0.0664062 61.4549 0.0664062C62.0834 0.0664063 62.6984 0.249215 63.2248 0.592557C63.7513 0.935899 64.1665 1.42495 64.4199 2.00012V2.00012Z" fill="#FFD401"/>
</g>
<defs>
<clipPath id="clip0_133_634">
<rect width="122.88" height="117.1" fill="white"/>
</clipPath>
</defs>
</svg>
